<svg xmlns="http://www.w3.org/2000/svg" width="55.961" height="55.559" viewBox="0 0 55.961 55.559"><path fill="none" d="M.201 0H55.76v55.559H.201z"/><path fill="none" stroke="black" stroke-width="1" stroke-linejoin="round" stroke-miterlimit="500" d="M.201 54.566H55.76"/><path fill="none" stroke="black" stroke-width="1" stroke-linecap="square" stroke-linejoin="round" stroke-miterlimit="500" d="M.201 54.566H55.76M.201 52.582H55.76M.201 50.598H55.76M.201 48.613H55.76M.201 46.629H55.76M.201 44.645H55.76M.201 42.66H55.76M.201 40.677H55.76M.201 38.692H55.76M.201 36.708H55.76M.201 34.724H55.76M.201 32.739H55.76M.201 30.755H55.76M.201 28.771H55.76M.201 26.786H55.76M.201 24.803H55.76M.201 22.818H55.76M.201 20.834H55.76M.201 18.85H55.76M.201 16.865H55.76M.201 14.881H55.76M.201 12.896H55.76M.201 10.912H55.76M.201 8.928H55.76M.201 6.943H55.76M.201 4.959H55.76M.201 2.975H55.76M.201.99H55.76"/></svg>
