<svg xmlns="http://www.w3.org/2000/svg" width="57.013" height="56.126" viewBox="0 0 57.013 56.126"><path fill="none" d="M.443 0h56.126v56.126H.443z"/><path fill="none" stroke="black" stroke-width="1" stroke-linejoin="round" stroke-miterlimit="500" d="M56.569 54.851H.443"/><path fill="none" stroke="black" stroke-width="1" stroke-linecap="square" stroke-linejoin="round" stroke-miterlimit="500" d="M56.569 54.851H.443M56.569 54.851H.443M56.569 52.299H.443M56.569 49.748H.443M56.569 47.197H.443M56.569 44.646H.443M56.569 42.095H.443M56.569 39.543H.443M56.569 36.992H.443M56.569 34.441H.443M56.569 31.89H.443M56.569 29.339H.443M56.569 26.787H.443M56.569 24.236H.443M56.569 21.686H.443M56.569 19.134H.443M56.569 16.583H.443M56.569 14.031H.443M56.569 11.48H.443M56.569 8.929H.443M56.569 6.378H.443M56.569 3.827H.443M56.569 1.276H.443"/></svg>
