<svg xmlns="http://www.w3.org/2000/svg" width="58.278" height="56.693" viewBox="0 0 58.278 56.693"><path fill="none" d="M.792 0h56.693v56.693H.792z"/><path fill="none" stroke="black" stroke-width="1" stroke-linejoin="round" stroke-miterlimit="500" d="M57.485 55.56H.792"/><path fill="none" stroke="black" stroke-width="1" stroke-linecap="square" stroke-linejoin="round" stroke-miterlimit="500" d="M57.485 55.56H.792M57.485 53.291H.792M57.485 51.023H.792M57.485 48.756H.792M57.485 46.488H.792M57.485 44.221H.792M57.485 41.953H.792M57.485 39.685H.792M57.485 37.417H.792M57.485 35.149H.792M57.485 32.882H.792M57.485 30.614H.792M57.485 28.347H.792M57.485 26.079H.792M57.485 23.812H.792M57.485 21.543H.792M57.485 19.275H.792M57.485 17.008H.792M57.485 14.74H.792M57.485 12.473H.792M57.485 10.205H.792M57.485 7.938H.792M57.485 5.67H.792M57.485 3.402H.792M57.485 1.135H.792"/></svg>
