<svg xmlns="http://www.w3.org/2000/svg" width="57.729" height="57.373" viewBox="0 0 57.729 57.373"><path fill="none" d="M.178 0h57.373v57.373H.178z"/><path fill="none" stroke="black" stroke-width="1" stroke-linejoin="round" stroke-miterlimit="500" d="M.178 56.068h57.373"/><path fill="none" stroke="black" stroke-width="1" stroke-linecap="square" stroke-linejoin="round" stroke-miterlimit="500" d="M.178 56.068h57.373M.178 53.461h57.373M.178 50.853h57.373M.178 48.245h57.373M.178 45.637h57.373M.178 43.029h57.373M.178 40.422h57.373M.178 37.813h57.373M.178 35.206h57.373M.178 32.598h57.373M.178 29.99h57.373M.178 27.382h57.373M.178 24.774h57.373M.178 22.166h57.373M.178 19.559h57.373M.178 16.95h57.373M.178 14.343h57.373M.178 11.734h57.373M.178 9.127h57.373M.178 6.519h57.373M.178 3.911h57.373M.178 1.304h57.373"/></svg>
