<svg xmlns="http://www.w3.org/2000/svg" width="42.52" height="42.52" viewBox="0 0 42.52 42.52"><path fill="none" d="M.087 0h42.432v42.52H.087z"/><path fill="param(fill)" d="M6.354.887a.46.46 0 0 0-.461-.461.46.46 0 0 0-.461.461c0 .251.207.462.461.462a.465.465 0 0 0 .461-.462zM4.064 4.571a.46.46 0 1 0-.922 0 .46.46 0 1 0 .922 0zM9.466 4.063a.458.458 0 0 0-.461-.462.46.46 0 1 0 0 .919.456.456 0 0 0 .461-.457zM15.803 4.204a.462.462 0 0 0-.459-.465.465.465 0 0 0 0 .929.465.465 0 0 0 .459-.464zM18.604 9.645a.46.46 0 1 0-.922 0 .46.46 0 0 0 .461.462.46.46 0 0 0 .461-.462zM12.579 8.939a.46.46 0 0 0-.462-.462.456.456 0 0 0-.46.462c0 .252.203.459.46.459a.462.462 0 0 0 .462-.459zM3.128 10.922a.461.461 0 0 0-.922 0 .46.46 0 1 0 .922 0zM1.544 16.11a.464.464 0 0 0-.461-.464.461.461 0 1 0 .461.464zM7.259 12.337a.464.464 0 0 0-.459-.465.465.465 0 0 0 0 .93.467.467 0 0 0 .459-.465z"/><circle cx="7.901" cy="15.541" r=".461"/><path fill="param(fill)" d="M14.474 12.536a.46.46 0 0 0-.461-.462.458.458 0 0 0-.461.462.46.46 0 1 0 .922 0zM18.66 15.512a.462.462 0 0 0-.459-.459.46.46 0 1 0 0 .919.457.457 0 0 0 .459-.46zM16.594 20.076a.46.46 0 0 0-.461-.462.461.461 0 1 0 .461.462zM13.257 17.636a.463.463 0 0 0-.463-.46.457.457 0 0 0-.459.46c0 .256.199.464.459.464a.464.464 0 0 0 .463-.464zM.922 31.213a.463.463 0 0 0-.46-.463.467.467 0 0 0-.462.463.461.461 0 1 0 .922 0zM4.883 26.538a.466.466 0 0 0-.461-.462.465.465 0 0 0-.461.462c0 .259.207.461.461.461a.46.46 0 0 0 .461-.461zM2.874 21.039a.462.462 0 0 0-.461-.462.465.465 0 0 0-.461.462c0 .259.207.461.461.461a.456.456 0 0 0 .461-.461zM7.373 22.629c0-.261-.21-.465-.463-.465s-.459.204-.459.465c0 .255.206.464.459.464s.463-.209.463-.464zM12.579 22.601a.461.461 0 1 0-.922 0c0 .251.203.464.46.464a.468.468 0 0 0 .462-.464zM12.605 27.133a.464.464 0 0 0-.462-.464.466.466 0 0 0-.46.464.46.46 0 1 0 .922 0zM16.143 29.824a.461.461 0 0 0-.922 0 .462.462 0 0 0 .922 0zM20.612 24.582a.46.46 0 1 0-.922 0 .46.46 0 1 0 .922 0zM19.934 32.717a.46.46 0 1 0-.922 0c0 .26.203.464.46.464a.463.463 0 0 0 .462-.464zM9.126 30.25a.46.46 0 1 0-.922 0 .46.46 0 0 0 .461.462.458.458 0 0 0 .461-.462zM5.506 32.831a.467.467 0 0 0-.462-.464.463.463 0 0 0 0 .927.463.463 0 0 0 .462-.463zM1.007 36.77a.46.46 0 0 0-.461-.461.46.46 0 1 0 .461.461zM12.125 41.956a.464.464 0 0 0-.462-.463.463.463 0 0 0-.46.463.46.46 0 1 0 .922 0zM6.015 38.474a.459.459 0 0 0-.461-.461.457.457 0 0 0-.461.461c0 .255.204.458.461.458a.459.459 0 0 0 .461-.458zM10.144 35.777a.464.464 0 0 0-.459-.465.468.468 0 0 0-.463.465.46.46 0 1 0 .922 0z"/><ellipse cx="14.239" cy="34.699" rx=".461" ry=".454"/><path fill="param(fill)" d="M16.82 39.322a.462.462 0 1 0-.924 0 .462.462 0 0 0 .924 0zM27.486 41.956a.466.466 0 0 0-.461-.464.464.464 0 0 0 0 .929.463.463 0 0 0 .461-.465zM33.144 39.69a.465.465 0 0 0-.461-.462.463.463 0 0 0 0 .924.462.462 0 0 0 .461-.462zM29.666 36.175a.46.46 0 0 0-.461-.461c-.258 0-.461.202-.461.461s.203.462.461.462a.46.46 0 0 0 .461-.462zM25.448 32.971a.458.458 0 0 0-.462-.458.46.46 0 1 0 .462.458zM22.648 38.531a.459.459 0 0 0-.461-.461.46.46 0 1 0 .461.461zM23.951 28.382a.459.459 0 0 0-.461-.461c-.257 0-.461.202-.461.461s.205.462.461.462a.46.46 0 0 0 .461-.462zM30.005 27.898a.461.461 0 1 0-.922 0 .461.461 0 0 0 .922 0zM30.993 31.782a.46.46 0 1 0-.922 0c0 .256.208.464.462.464.253 0 .46-.208.46-.464zM21.573 20.331a.462.462 0 1 0-.922 0 .462.462 0 1 0 .922 0zM25.986 22.485a.466.466 0 0 0-.46-.464.465.465 0 0 0-.462.464.462.462 0 1 0 .922 0zM29.437 19.735a.457.457 0 0 0-.461-.461.46.46 0 1 0 0 .923.46.46 0 0 0 .461-.462zM34.955 26.398a.46.46 0 1 0-.922 0c0 .251.203.462.461.462a.466.466 0 0 0 .461-.462zM35.944 31.044a.467.467 0 0 0-.46-.464.465.465 0 0 0 0 .928c.253 0 .46-.208.46-.464zM25.732 15.938a.464.464 0 0 0-.461-.461.462.462 0 0 0 0 .923.46.46 0 0 0 .461-.462zM25.788 11.914a.46.46 0 1 0-.92-.006.46.46 0 0 0 .92.006zM31.276 12.478a.467.467 0 0 0-.46-.463.465.465 0 0 0-.462.463c0 .256.205.464.462.464a.464.464 0 0 0 .46-.464zM32.38 16.618c0-.251-.208-.464-.462-.464s-.46.213-.46.464a.46.46 0 1 0 .922 0zM34.643 21.326a.458.458 0 0 0-.462-.462.46.46 0 0 0-.46.462.462.462 0 0 0 .922 0zM21.97 2.302a.468.468 0 0 0-.463-.465.463.463 0 0 0-.459.465.462.462 0 0 0 .922 0zM30.314 1.792a.465.465 0 0 0-.461-.464.465.465 0 0 0 0 .929.463.463 0 0 0 .461-.465zM28.22 7.321a.462.462 0 1 0 0 0zM24.036 7.46a.462.462 0 0 0-.461-.458.458.458 0 0 0-.461.458c0 .258.203.461.461.461a.46.46 0 0 0 .461-.461zM37.188.802a.46.46 0 1 0-.922 0c0 .251.208.464.46.464a.465.465 0 0 0 .462-.464zM35.322 4.801a.46.46 0 1 0-.922 0c0 .25.208.463.46.463a.465.465 0 0 0 .462-.463zM35.265 9.759a.467.467 0 0 0-.462-.464.463.463 0 1 0 0 .927.463.463 0 0 0 .462-.463zM39.423 12.168a.458.458 0 0 0-.461-.462.46.46 0 0 0-.461.462c0 .25.207.461.461.461a.463.463 0 0 0 .461-.461zM38.377 15.799a.458.458 0 0 0-.463-.46.457.457 0 0 0-.459.46c0 .249.206.459.459.459.257 0 .463-.21.463-.459zM42.393 7.12a.464.464 0 0 0-.461-.461.464.464 0 0 0-.461.461.46.46 0 0 0 .461.462.46.46 0 0 0 .461-.462zM39.536 22.457a.462.462 0 1 0-.924.002.462.462 0 0 0 .924-.002zM40.696 27.87a.456.456 0 0 0-.46-.459.46.46 0 1 0 0 .921c.257 0 .46-.202.46-.462zM39.48 33.68a.464.464 0 0 0-.461-.461.462.462 0 0 0 0 .923.46.46 0 0 0 .461-.462zM38.009 38.047a.46.46 0 1 0-.922 0 .462.462 0 1 0 .922 0z"/></svg>