<svg xmlns="http://www.w3.org/2000/svg" width="45.922" height="45.921" viewBox="0 0 45.922 45.921"><path fill="param(fill)" d="M3.542 2.157a.596.596 0 1 0-1.188.002.596.596 0 0 0 1.188-.002zM7.967 1.506A.598.598 0 0 0 7.37.91a.597.597 0 0 0-.594.596c0 .326.269.595.594.595a.6.6 0 0 0 .597-.595zM4.849 9.725a.596.596 0 1 0-1.192.002.596.596 0 0 0 1.192-.002zM7.656 8.223a.596.596 0 1 0-1.192.002.596.596 0 0 0 1.192-.002zM5.785 4.737a.598.598 0 0 0-.597-.596.593.593 0 0 0-.594.596.595.595 0 1 0 1.191 0zM10.121 5.501a.597.597 0 0 0-.594-.595.592.592 0 0 0-.596.595c0 .33.262.597.596.597a.598.598 0 0 0 .594-.597zM11.509 2.639a.592.592 0 0 0-.594-.595.597.597 0 0 0-.596.595.6.6 0 0 0 .596.596.596.596 0 0 0 .594-.596zM12.275 7.713a.596.596 0 1 0 0 0zM14.855 5.445a.597.597 0 0 0-.597-.595c-.332 0-.594.266-.594.595s.262.596.594.596a.598.598 0 0 0 .597-.596zM16.642 2.327a.597.597 0 0 0-.596-.595.592.592 0 0 0-.594.595c0 .33.262.596.594.596a.597.597 0 0 0 .596-.596zM18.768 4.765a.597.597 0 0 0-.595-.596c-.333 0-.595.267-.595.596s.262.596.595.596a.597.597 0 0 0 .595-.596zM19.562 9.752a.6.6 0 0 0-.597-.595.596.596 0 1 0 .597.595zM17.236 8.309a.596.596 0 1 0-1.193 0 .596.596 0 0 0 1.193 0zM20.721 14.174a.596.596 0 1 0-1.192.002.596.596 0 0 0 1.192-.002zM16.243 12.277c0-.33-.271-.597-.595-.597s-.595.267-.595.597a.596.596 0 0 0 1.19 0zM13.692 10.972a.594.594 0 1 0-1.191-.001.594.594 0 0 0 1.191.001zM18.482 16.019a.592.592 0 0 0-.594-.596.597.597 0 0 0-.596.596.594.594 0 1 0 1.19 0zM20.436 19.646a.595.595 0 1 0-1.19-.005.595.595 0 0 0 1.19.005zM14.685 19.448a.597.597 0 0 0-.596-.596.592.592 0 0 0-.594.596c0 .326.262.595.594.595a.599.599 0 0 0 .596-.595zM16.642 17.009a.597.597 0 0 0-.596-.595c-.332 0-.594.266-.594.595s.262.596.594.596a.599.599 0 0 0 .596-.596zM13.551 16.13a.596.596 0 1 0-.595.597c.334 0 .595-.27.595-.597zM10.887 18.342c0-.33-.27-.596-.597-.596a.592.592 0 0 0-.594.596c0 .329.262.596.594.596a.598.598 0 0 0 .597-.596zM6.381 19.448a.597.597 0 0 0-.596-.596.592.592 0 0 0-.594.596c0 .326.262.595.594.595a.599.599 0 0 0 .596-.595zM3.658 12.899a.595.595 0 1 0 0 0zM5.159 16.13a.593.593 0 0 0-.596-.594c-.325 0-.594.267-.594.594s.269.597.594.597c.334 0 .596-.27.596-.597zM7.116 12.08a.595.595 0 1 0-1.19-.006.595.595 0 0 0 1.19.006zM9.92 10.235a.592.592 0 0 0-.596-.596.596.596 0 0 0 0 1.192.593.593 0 0 0 .596-.596zM11.71 13.522a.597.597 0 0 0-.597-.595.592.592 0 0 0-.594.595.596.596 0 0 0 1.191 0zM9.127 15.281a.597.597 0 0 0-.596-.596.596.596 0 0 0 0 1.192.597.597 0 0 0 .596-.596zM5.924 35.433a.596.596 0 1 0-1.188.002.596.596 0 0 0 1.188-.002zM10.573 34.727a.595.595 0 1 0-1.19-.006.595.595 0 0 0 1.19.006zM14.542 34.61a.596.596 0 0 0-1.19 0c0 .329.269.597.596.597a.599.599 0 0 0 .594-.597zM19.814 35.66a.592.592 0 0 0-.59-.596c-.33 0-.6.265-.6.596 0 .33.271.595.6.595a.59.59 0 0 0 .59-.595zM17.407 32.798a.595.595 0 1 0 0 0zM12.02 31.862a.592.592 0 0 0-.594-.596.597.597 0 0 0-.596.596.595.595 0 0 0 1.19 0zM8.506 32.627a.602.602 0 0 0-.599-.596.59.59 0 0 0-.592.596.59.59 0 0 0 .592.595c.326 0 .599-.27.599-.595zM3.883 33.336a.593.593 0 0 0-.594-.597.596.596 0 1 0 .594.597zM5.924 30.188a.596.596 0 1 0-1.188.002.596.596 0 0 0 1.188-.002zM9.835 29.283a.592.592 0 0 0-.594-.596.597.597 0 0 0-.596.596.594.594 0 1 0 1.19 0zM14.599 29.256a.597.597 0 0 0-.594-.597.593.593 0 0 0-.596.597.594.594 0 1 0 1.19 0zM19.109 30.188c0-.33-.27-.595-.597-.595a.591.591 0 0 0-.594.595c0 .327.262.596.594.596a.599.599 0 0 0 .597-.596zM19.985 25.229a.592.592 0 0 0-.591-.595c-.329 0-.6.265-.6.595s.271.596.6.596a.593.593 0 0 0 .591-.596zM18.002 22.453a.597.597 0 0 0-.596-.597c-.332 0-.594.266-.594.597s.262.594.594.594a.594.594 0 0 0 .596-.594zM16.924 26.589a.6.6 0 0 0-.597-.595.598.598 0 0 0-.594.595c0 .329.27.596.594.596a.598.598 0 0 0 .597-.596zM14.994 23.613a.592.592 0 0 0-.594-.595.597.597 0 0 0 0 1.191.593.593 0 0 0 .594-.596zM12.333 21.091c0-.33-.27-.596-.596-.596-.332 0-.594.266-.594.596s.262.596.594.596a.597.597 0 0 0 .596-.596zM10.432 24.52a.595.595 0 1 0-1.191 0c0 .329.268.597.598.597a.597.597 0 0 0 .593-.597zM12.417 27.637a.596.596 0 1 0-1.191.001.596.596 0 0 0 1.191-.001zM7.711 26.166a.592.592 0 0 0-.594-.597.596.596 0 0 0 0 1.191.592.592 0 0 0 .594-.594zM8.476 21.687a.595.595 0 1 0-1.19-.003.595.595 0 0 0 1.19.003zM5.244 23.528a.593.593 0 0 0-.594-.596c-.328 0-.597.267-.597.596s.269.596.597.596a.593.593 0 0 0 .594-.596zM3.542 27.014a.596.596 0 1 0-1.189.001.596.596 0 0 0 1.189-.001zM19.532 41.299a.596.596 0 1 0-1.192.004.596.596 0 0 0 1.192-.004zM14.431 39.968a.6.6 0 0 0-.598-.596.59.59 0 0 0-.593.596c0 .331.257.595.593.595a.597.597 0 0 0 .598-.595zM12.02 38.153a.594.594 0 1 0-.594.596.593.593 0 0 0 .594-.596zM16.696 37.389a.592.592 0 0 0-.596-.596.596.596 0 0 0 0 1.192.593.593 0 0 0 .596-.596zM9.866 41.215a.597.597 0 0 0-.596-.595.592.592 0 0 0-.594.595c0 .329.262.596.594.596a.597.597 0 0 0 .596-.596zM12.417 42.886a.592.592 0 0 0-.594-.593.588.588 0 0 0-.596.593.594.594 0 1 0 1.19 0zM7.344 42.601a.596.596 0 0 0-1.19 0c0 .331.269.599.594.599a.6.6 0 0 0 .596-.599zM7.826 37.018a.595.595 0 1 0-.594.598.598.598 0 0 0 .594-.598zM4.111 37.7a.598.598 0 0 0-.594-.595.597.597 0 0 0-.596.595c0 .329.269.596.596.596a.598.598 0 0 0 .594-.596zM4.961 41.356a.599.599 0 0 0-.594-.595.599.599 0 0 0-.596.595c0 .329.269.596.596.596a.596.596 0 0 0 .594-.596zM4.063.281a.596.596 0 0 0 1.191 0c0-.1-.026-.194-.07-.276H4.132a.585.585 0 0 0-.069.276zM12.361.4c0 .329.262.595.595.595a.593.593 0 1 0 .443-.991h-.889a.595.595 0 0 0-.149.396zM18.482.485c0 .329.264.595.59.595.33 0 .6-.266.6-.595a.59.59 0 0 0-.248-.48h-.701a.597.597 0 0 0-.241.48zM4.658 45.603a.597.597 0 0 0-.525.318h1.051a.6.6 0 0 0-.526-.318zM12.956 45.721a.592.592 0 0 0-.447.2h.89a.593.593 0 0 0-.443-.2zM19.072 45.806c-.13 0-.25.043-.348.115h.701a.599.599 0 0 0-.353-.115zM15.987 44.503c.327 0 .597-.266.597-.595s-.27-.596-.597-.596c-.325 0-.594.267-.594.596s.27.595.594.595zM8.9 45.921c.332 0 .594-.263.594-.593s-.262-.598-.594-.598a.594.594 0 1 0 0 1.191zM21.346 3.433a.59.59 0 0 0 .594-.598.596.596 0 1 0-.594.598zM20.946 7.372a.592.592 0 0 0-.594-.595.597.597 0 0 0 0 1.191.592.592 0 0 0 .594-.596zM21.77 31.834a.597.597 0 0 0-.594.597.594.594 0 1 0 .594-.597zM20.637 28.008a.596.596 0 1 0 1.189-.001.596.596 0 0 0-1.189.001zM22.651 21.375c0-.33-.27-.596-.596-.596a.592.592 0 0 0-.594.596c0 .329.262.595.594.595a.597.597 0 0 0 .596-.595zM21.542 38.438a.593.593 0 0 0-.594-.597.596.596 0 1 0 .594.597zM21.259 42.576a.595.595 0 1 0 .001 1.19.595.595 0 0 0-.001-1.19zM.908 6.75A.596.596 0 1 0 .91 5.558.596.596 0 0 0 .908 6.75zM2.068 9.187a.598.598 0 0 0 .598-.595.601.601 0 0 0-.598-.596.6.6 0 0 0-.593.596c0 .329.271.595.593.595zM2.693 20.666a.597.597 0 0 0 0 1.191.592.592 0 0 0 .594-.596.592.592 0 0 0-.594-.595zM2.494 43.908a.595.595 0 1 0 .596.597.598.598 0 0 0-.596-.597zM.33 34.363a.587.587 0 0 0-.33.1v.99a.593.593 0 0 0 .924-.496.59.59 0 0 0-.594-.594zM.594 24.776a.592.592 0 0 0 .597-.595.593.593 0 0 0-.597-.596.595.595 0 1 0 0 1.191zM.028 16.018a.595.595 0 1 0 0 0zM.228 11.255A.597.597 0 0 0 0 10.788v.934a.596.596 0 0 0 .228-.467z"/><circle fill="param(fill)" cx="1.165" cy="18.965" r=".595"/><path fill="param(fill)" d="M.937 29.084a.597.597 0 0 0 0 1.191.591.591 0 0 0 .594-.593.592.592 0 0 0-.594-.598zM.049 41.1a.596.596 0 0 0 0-1.192c-.017 0-.033.002-.049.003v1.186l.049.003zM26.503 2.157a.596.596 0 1 0-1.188.002.596.596 0 0 0 1.188-.002zM30.928 1.506a.598.598 0 0 0-.597-.596.597.597 0 0 0-.594.596c0 .326.269.595.594.595a.6.6 0 0 0 .597-.595zM27.81 9.725a.596.596 0 1 0-1.192.002.596.596 0 0 0 1.192-.002zM30.617 8.223a.596.596 0 1 0-1.192.002.596.596 0 0 0 1.192-.002zM28.746 4.737a.598.598 0 0 0-.597-.596.593.593 0 0 0-.594.596.595.595 0 1 0 1.191 0zM33.082 5.501a.597.597 0 0 0-.594-.595.592.592 0 0 0-.596.595c0 .33.262.597.596.597a.598.598 0 0 0 .594-.597zM34.47 2.639a.592.592 0 0 0-.594-.595.597.597 0 0 0-.596.595.6.6 0 0 0 .596.596.596.596 0 0 0 .594-.596zM35.236 7.713a.596.596 0 1 0 0 0zM37.816 5.445a.597.597 0 0 0-.597-.595c-.332 0-.594.266-.594.595s.262.596.594.596a.598.598 0 0 0 .597-.596zM39.603 2.327a.597.597 0 0 0-.596-.595.592.592 0 0 0-.594.595c0 .33.262.596.594.596a.597.597 0 0 0 .596-.596zM41.729 4.765a.597.597 0 0 0-.595-.596c-.333 0-.595.267-.595.596s.261.595.595.595a.596.596 0 0 0 .595-.595zM42.522 9.752a.6.6 0 0 0-.597-.595.596.596 0 1 0 .597.595zM40.197 8.309a.596.596 0 1 0-1.193 0 .596.596 0 0 0 1.193 0zM43.682 14.174a.596.596 0 1 0-1.192.002.596.596 0 0 0 1.192-.002zM39.204 12.277c0-.33-.271-.597-.595-.597s-.595.267-.595.597a.596.596 0 0 0 1.19 0zM36.653 10.972a.594.594 0 1 0-1.191-.001.594.594 0 0 0 1.191.001zM41.443 16.019a.592.592 0 0 0-.594-.596.597.597 0 0 0-.596.596.594.594 0 1 0 1.19 0zM43.397 19.646a.595.595 0 1 0-1.19-.005.595.595 0 0 0 1.19.005zM37.646 19.448a.597.597 0 0 0-.596-.596.592.592 0 0 0-.594.596c0 .326.262.595.594.595a.6.6 0 0 0 .596-.595zM39.603 17.009a.597.597 0 0 0-.596-.595c-.332 0-.594.266-.594.595s.262.596.594.596a.599.599 0 0 0 .596-.596zM36.512 16.13a.596.596 0 1 0-.595.597c.333 0 .595-.27.595-.597zM33.848 18.342c0-.33-.27-.596-.597-.596a.592.592 0 0 0-.594.596c0 .329.262.596.594.596a.598.598 0 0 0 .597-.596zM29.342 19.448a.597.597 0 0 0-.596-.596.592.592 0 0 0-.594.596c0 .326.262.595.594.595a.599.599 0 0 0 .596-.595zM26.619 12.899a.595.595 0 1 0 0 0zM28.12 16.13a.593.593 0 0 0-.596-.594c-.325 0-.594.267-.594.594s.269.597.594.597c.334 0 .596-.27.596-.597zM30.077 12.08a.595.595 0 1 0-1.19-.006.595.595 0 0 0 1.19.006zM32.881 10.235a.592.592 0 0 0-.596-.596.596.596 0 0 0 0 1.192.593.593 0 0 0 .596-.596zM34.671 13.522a.597.597 0 0 0-.597-.595.592.592 0 0 0-.594.595.596.596 0 0 0 1.191 0zM32.088 15.281a.597.597 0 0 0-.596-.596.596.596 0 0 0 0 1.192.597.597 0 0 0 .596-.596zM28.885 35.433a.596.596 0 1 0-1.188.002.596.596 0 0 0 1.188-.002zM33.534 34.727a.595.595 0 1 0-1.19-.006.595.595 0 0 0 1.19.006zM37.502 34.61a.596.596 0 0 0-1.19 0c0 .329.269.597.596.597a.598.598 0 0 0 .594-.597zM42.775 35.66a.592.592 0 0 0-.59-.596c-.33 0-.6.265-.6.596 0 .33.271.595.6.595a.59.59 0 0 0 .59-.595zM40.368 32.798a.595.595 0 1 0 0 0zM34.98 31.862a.592.592 0 0 0-.594-.596.597.597 0 0 0-.596.596.594.594 0 1 0 1.19 0zM31.467 32.627a.602.602 0 0 0-.599-.596.59.59 0 0 0-.592.596.59.59 0 0 0 .592.595c.326 0 .599-.27.599-.595zM26.844 33.336a.593.593 0 0 0-.594-.597.596.596 0 1 0 .594.597zM28.885 30.188a.596.596 0 1 0-1.188.002.596.596 0 0 0 1.188-.002zM32.796 29.283a.592.592 0 0 0-.594-.596.597.597 0 0 0-.596.596.594.594 0 1 0 1.19 0zM37.56 29.256a.597.597 0 0 0-.594-.597.593.593 0 0 0-.596.597.594.594 0 1 0 1.19 0zM42.07 30.188c0-.33-.27-.595-.597-.595a.591.591 0 0 0-.594.595c0 .327.262.596.594.596a.599.599 0 0 0 .597-.596zM42.946 25.229a.592.592 0 0 0-.591-.595c-.329 0-.6.265-.6.595s.271.596.6.596a.593.593 0 0 0 .591-.596zM40.963 22.453a.597.597 0 0 0-.596-.597c-.332 0-.594.266-.594.597s.262.594.594.594a.594.594 0 0 0 .596-.594zM39.885 26.589a.6.6 0 0 0-.597-.595.598.598 0 0 0-.594.595c0 .329.27.596.594.596a.598.598 0 0 0 .597-.596zM37.955 23.613a.592.592 0 0 0-.594-.595.597.597 0 0 0 0 1.191.593.593 0 0 0 .594-.596zM35.294 21.091c0-.33-.27-.596-.596-.596-.332 0-.594.266-.594.596s.262.596.594.596a.597.597 0 0 0 .596-.596zM33.393 24.52a.595.595 0 1 0-1.191 0c0 .329.268.597.598.597a.598.598 0 0 0 .593-.597zM35.378 27.637a.596.596 0 1 0-1.191.001.596.596 0 0 0 1.191-.001zM30.672 26.166a.592.592 0 0 0-.594-.597.596.596 0 0 0 0 1.191.592.592 0 0 0 .594-.594zM31.437 21.687a.595.595 0 1 0-1.19-.003.595.595 0 0 0 1.19.003zM28.205 23.528a.593.593 0 0 0-.594-.596c-.328 0-.597.267-.597.596s.269.596.597.596a.593.593 0 0 0 .594-.596zM26.503 27.014a.596.596 0 1 0-1.189.001.596.596 0 0 0 1.189-.001zM42.493 41.299a.596.596 0 1 0-1.192.004.596.596 0 0 0 1.192-.004zM37.392 39.968a.6.6 0 0 0-.598-.596.59.59 0 0 0-.593.596c0 .331.257.595.593.595a.597.597 0 0 0 .598-.595zM34.98 38.153a.594.594 0 1 0-.594.596.592.592 0 0 0 .594-.596zM39.657 37.389a.592.592 0 0 0-.596-.596.596.596 0 0 0 0 1.192.593.593 0 0 0 .596-.596zM32.827 41.215a.597.597 0 0 0-.596-.595.592.592 0 0 0-.594.595c0 .329.262.596.594.596a.597.597 0 0 0 .596-.596zM35.378 42.886a.592.592 0 0 0-.594-.593.588.588 0 0 0-.596.593.594.594 0 1 0 1.19 0zM30.305 42.601a.596.596 0 0 0-1.19 0c0 .331.269.599.594.599a.6.6 0 0 0 .596-.599zM30.787 37.018a.595.595 0 1 0-.594.598.598.598 0 0 0 .594-.598zM27.072 37.7a.598.598 0 0 0-.594-.595.597.597 0 0 0-.596.595c0 .329.269.596.596.596a.598.598 0 0 0 .594-.596zM27.922 41.356a.599.599 0 0 0-.594-.595.599.599 0 0 0-.596.595c0 .329.269.596.596.596a.596.596 0 0 0 .594-.596zM27.023.281a.596.596 0 0 0 1.191 0c0-.1-.026-.194-.07-.276h-1.051a.586.586 0 0 0-.07.276zM35.322.4c0 .329.262.595.595.595a.593.593 0 1 0 .443-.991h-.889a.595.595 0 0 0-.149.396zM41.443.485c0 .329.264.595.59.595.33 0 .6-.266.6-.595a.59.59 0 0 0-.248-.48h-.701a.597.597 0 0 0-.241.48zM27.619 45.603a.597.597 0 0 0-.525.318h1.051a.601.601 0 0 0-.526-.318zM35.917 45.721a.592.592 0 0 0-.447.2h.89a.595.595 0 0 0-.443-.2zM42.033 45.806c-.13 0-.25.043-.348.115h.701a.599.599 0 0 0-.353-.115zM38.948 44.503c.327 0 .597-.266.597-.595s-.27-.596-.597-.596c-.325 0-.594.267-.594.596s.27.595.594.595zM31.861 45.921c.332 0 .594-.263.594-.593s-.262-.598-.594-.598a.594.594 0 1 0 0 1.191zM44.307 3.433a.59.59 0 0 0 .594-.598.596.596 0 1 0-.594.598zM43.907 7.372a.592.592 0 0 0-.594-.595.597.597 0 0 0 0 1.191.592.592 0 0 0 .594-.596zM45.555 10.519a.597.597 0 0 0 0 1.191.592.592 0 0 0 .367-.128v-.935a.587.587 0 0 0-.367-.128zM44.73 31.834a.597.597 0 0 0-.594.597.594.594 0 1 0 .594-.597zM43.598 28.008a.596.596 0 1 0 1.189-.001.596.596 0 0 0-1.189.001zM45.612 21.375c0-.33-.27-.596-.596-.596a.592.592 0 0 0-.594.596c0 .329.262.595.594.595a.597.597 0 0 0 .596-.595zM44.503 38.438a.593.593 0 0 0-.594-.597.596.596 0 1 0 .594.597zM44.22 42.576a.595.595 0 1 0 .001 1.19.595.595 0 0 0-.001-1.19zM23.869 6.75a.596.596 0 1 0 .002-1.192.596.596 0 0 0-.002 1.192zM25.029 9.187a.598.598 0 0 0 .598-.595.601.601 0 0 0-.598-.596.6.6 0 0 0-.593.596c0 .329.271.595.593.595zM25.654 20.666a.597.597 0 0 0 0 1.191.592.592 0 0 0 .594-.596.592.592 0 0 0-.594-.595zM25.455 43.908a.595.595 0 1 0 .596.597.598.598 0 0 0-.596-.597zM45.655 34.957c0 .207.106.39.267.496v-.99a.59.59 0 0 0-.267.494zM45.375 40.503c0 .313.243.568.547.594v-1.186a.596.596 0 0 0-.547.592zM23.555 24.776a.592.592 0 0 0 .597-.595.593.593 0 0 0-.597-.596.595.595 0 1 0 0 1.191zM22.989 16.018a.595.595 0 1 0 0 0z"/><circle fill="param(fill)" cx="24.126" cy="18.965" r=".595"/><path fill="param(fill)" d="M23.898 29.084a.597.597 0 0 0 0 1.191.591.591 0 0 0 .594-.593.592.592 0 0 0-.594-.598zM22.932 11.116a.595.595 0 1 0 0 0zM23.844 34.853a.593.593 0 0 0-.594-.597.596.596 0 1 0 .594.597zM23.422 40.527a.599.599 0 0 0-.594-.595.599.599 0 0 0-.596.595c0 .329.269.596.596.596a.597.597 0 0 0 .594-.596z"/></svg>