<svg xmlns="http://www.w3.org/2000/svg" width="56.693" height="56.693" viewBox="0 0 56.693 56.693"><path fill="none" d="M0 0h56.693v56.693H0z"/><path fill="param(fill)" d="M.659 41.224a.33.33 0 0 0-.659 0 .33.33 0 0 0 .327.327.333.333 0 0 0 .332-.327zM8.882 56.332a.331.331 0 1 0-.662 0 .33.33 0 0 0 .662 0zM28.07 46.083a.325.325 0 0 0-.331-.327.327.327 0 1 0 0 .653.328.328 0 0 0 .331-.326zM28.27 34.907a.33.33 0 1 0-.332.327.328.328 0 0 0 .332-.327zM19.482 29.078a.33.33 0 0 0-.33-.335.33.33 0 1 0 0 .661.33.33 0 0 0 .33-.326zM12.395 29.272a.33.33 0 0 0-.659 0c0 .185.147.328.333.328a.325.325 0 0 0 .326-.328z"/><circle cx="6.34" cy="30.01" r=".329"/><path fill="param(fill)" d="M3.664 28.666c0-.181-.149-.319-.332-.319s-.33.139-.33.319c0 .184.147.33.33.33s.332-.146.332-.33zM2.958 31.35a.329.329 0 0 0-.659 0 .329.329 0 1 0 .659 0zM5.197 33.93a.329.329 0 1 0-.658-.004.329.329 0 0 0 .658.004z"/><circle cx="2.259" cy="36.898" r=".329"/><path fill="param(fill)" d="M6.163 37.071a.331.331 0 1 0-.662 0c0 .177.147.323.33.323s.332-.146.332-.323zM9.222 33.676a.33.33 0 0 0-.328-.335.33.33 0 0 0-.328.335.328.328 0 0 0 .656 0zM9.872 36.22a.326.326 0 0 0-.324-.332.33.33 0 0 0 0 .659.325.325 0 0 0 .324-.327zM12.484 32.539a.328.328 0 0 0-.332-.327.33.33 0 1 0 0 .658.33.33 0 0 0 .332-.331zM13.277 35.677a.328.328 0 0 0-.33-.327.328.328 0 0 0-.332.327c0 .184.147.334.332.334.18 0 .33-.151.33-.334zM11.349 41.483a.33.33 0 0 0-.659 0c0 .177.147.323.328.323s.331-.146.331-.323zM9.081 39.158a.329.329 0 0 0-.658 0 .33.33 0 0 0 .658 0zM4.317 40.777a.33.33 0 0 0-.328-.336.329.329 0 0 0-.328.336.329.329 0 0 0 .656 0zM3.921 44.905a.328.328 0 0 0-.656 0 .328.328 0 1 0 .656 0z"/><circle cx="7.277" cy="43.01" r=".331"/><path fill="param(fill)" d="M9.393 44.513a.329.329 0 1 0-.658-.004.329.329 0 0 0 .658.004zM8.088 48.215a.33.33 0 1 0-.328.332.33.33 0 0 0 .328-.332zM5.141 48.333a.331.331 0 1 0 0 0zM12.851 46.576a.33.33 0 0 0-.659 0c0 .176.147.322.332.322a.327.327 0 0 0 .327-.322zM14.041 43.92a.33.33 0 1 0-.66-.01.33.33 0 0 0 .66.01zM1.626 49.717a.328.328 0 0 0-.332-.327.328.328 0 1 0 0 .657.334.334 0 0 0 .332-.33z"/><circle cx="6.172" cy="51.388" r=".331"/><path fill="param(fill)" d="M10.071 51.644a.331.331 0 0 0-.33-.327.33.33 0 0 0-.326.327c0 .181.147.322.326.322.183 0 .33-.142.33-.322zM12.766 49.799a.328.328 0 0 0-.327-.326.332.332 0 0 0-.332.326c0 .18.149.335.332.335a.333.333 0 0 0 .327-.335zM10.868 54.385a.328.328 0 0 0-.33-.327.328.328 0 1 0 0 .657.33.33 0 0 0 .33-.33zM6.417 53.959a.327.327 0 0 0-.331-.326.329.329 0 1 0 .331.326zM1.736 53.705a.328.328 0 1 0-.656 0 .33.33 0 0 0 .33.332.329.329 0 0 0 .326-.332zM14.862 53.823a.33.33 0 0 0-.328-.336.33.33 0 0 0-.328.336.328.328 0 0 0 .656 0zM15.601 51.388a.328.328 0 0 0-.327-.326c-.185 0-.331.146-.331.326s.146.327.331.327a.33.33 0 0 0 .327-.327z"/><circle cx="18.333" cy="53.991" r=".328"/><circle cx="19.381" cy="50.597" r=".329"/><path fill="param(fill)" d="M17.641 48.103a.326.326 0 0 0-.328-.328c-.181 0-.331.147-.331.328a.33.33 0 0 0 .659 0zM22.544 51.561a.327.327 0 0 0-.331-.326.328.328 0 0 0-.327.326c0 .176.148.319.327.319a.325.325 0 0 0 .331-.319zM23.197 53.705a.328.328 0 0 0-.329-.327.328.328 0 1 0 0 .658.33.33 0 0 0 .329-.331zM26.486 55.063a.328.328 0 0 0-.331-.327.33.33 0 1 0 .331.327zM27.333 51.619c0-.188-.147-.337-.327-.337s-.329.148-.329.337c0 .173.149.325.329.325s.327-.152.327-.325z"/><circle cx="25.702" cy="49.292" r=".328"/><path fill="param(fill)" d="M23.935 46.091a.325.325 0 0 0-.331-.324.328.328 0 0 0 0 .655.33.33 0 0 0 .331-.331zM20.334 46.432a.327.327 0 0 0-.331-.327.328.328 0 0 0 0 .657.329.329 0 0 0 .331-.33zM21.892 43.946a.328.328 0 0 0-.327-.327.329.329 0 0 0-.332.327c0 .176.147.323.332.323a.326.326 0 0 0 .327-.323z"/><circle cx="17.653" cy="43.435" r=".331"/><circle cx="25.419" cy="43.01" r=".329"/><path fill="param(fill)" d="M21.579 40.573a.328.328 0 0 0-.656 0 .328.328 0 0 0 .656 0zM18.153 39.558a.331.331 0 0 0-.662 0c0 .188.147.327.332.327.181 0 .33-.139.33-.327zM15.601 37.352a.328.328 0 0 0-.327-.326.327.327 0 0 0-.331.326.329.329 0 1 0 .658 0zM14.467 40.122a.331.331 0 0 0-.33-.327.33.33 0 0 0-.329.327c0 .18.147.326.329.326.183 0 .33-.146.33-.326zM16.508 33.558a.327.327 0 0 0-.33-.326.328.328 0 1 0 0 .657.33.33 0 0 0 .33-.331zM18.294 35.88a.331.331 0 0 0-.331-.332.327.327 0 0 0-.328.332.33.33 0 0 0 .659 0zM21.241 36.926a.328.328 0 0 0-.658 0 .33.33 0 0 0 .658 0zM24.415 38.818a.328.328 0 0 0-.656 0 .328.328 0 1 0 .656 0zM27.391 38.284a.328.328 0 1 0-.656 0 .328.328 0 0 0 .656 0z"/><circle cx="25.702" cy="33.079" r=".328"/><path fill="param(fill)" d="M25.975 30.135a.325.325 0 0 0-.332-.328.323.323 0 0 0-.326.328.33.33 0 0 0 .658 0zM22.489 30.157c0-.177-.147-.322-.33-.322a.329.329 0 1 0 0 .657.33.33 0 0 0 .33-.335zM15.66 30.076c0-.181-.149-.327-.332-.327a.328.328 0 1 0 0 .657.33.33 0 0 0 .332-.33z"/><circle cx="20.373" cy="32.739" r=".331"/><path fill="param(fill)" d="M23.736 35.228a.33.33 0 0 0-.659 0 .33.33 0 0 0 .331.327.332.332 0 0 0 .328-.327zM29.005 41.224a.33.33 0 0 0-.659 0 .33.33 0 0 0 .327.327.333.333 0 0 0 .332-.327zM37.229 56.332a.331.331 0 1 0-.662 0 .33.33 0 0 0 .662 0zM56.417 46.083a.325.325 0 0 0-.331-.327.327.327 0 1 0 0 .653.328.328 0 0 0 .331-.326zM56.617 34.907a.33.33 0 1 0-.332.327.328.328 0 0 0 .332-.327zM47.829 29.078a.33.33 0 0 0-.33-.335.33.33 0 1 0 0 .661.33.33 0 0 0 .33-.326zM40.742 29.272a.33.33 0 0 0-.659 0c0 .185.147.328.333.328a.325.325 0 0 0 .326-.328z"/><circle cx="34.687" cy="30.01" r=".329"/><path fill="param(fill)" d="M32.011 28.666c0-.181-.149-.319-.332-.319s-.33.139-.33.319c0 .184.147.33.33.33s.332-.146.332-.33zM31.305 31.35a.329.329 0 0 0-.659 0 .329.329 0 1 0 .659 0zM33.543 33.93a.329.329 0 1 0-.658-.004.329.329 0 0 0 .658.004z"/><circle cx="30.606" cy="36.898" r=".329"/><path fill="param(fill)" d="M34.51 37.071a.331.331 0 1 0-.662 0c0 .177.147.323.33.323s.332-.146.332-.323zM37.568 33.676a.33.33 0 0 0-.328-.335.33.33 0 0 0-.328.335.328.328 0 0 0 .656 0zM38.219 36.22a.326.326 0 0 0-.324-.332.33.33 0 0 0 0 .659.325.325 0 0 0 .324-.327zM40.831 32.539a.328.328 0 0 0-.332-.327.33.33 0 1 0 0 .658.33.33 0 0 0 .332-.331zM41.624 35.677a.328.328 0 0 0-.33-.327.328.328 0 0 0-.332.327c0 .184.147.334.332.334.18 0 .33-.151.33-.334zM39.695 41.483a.33.33 0 0 0-.659 0c0 .177.147.323.328.323s.331-.146.331-.323zM37.427 39.158a.329.329 0 0 0-.658 0 .329.329 0 1 0 .658 0zM32.664 40.777a.33.33 0 0 0-.328-.336.329.329 0 0 0-.328.336.329.329 0 0 0 .656 0zM32.268 44.905a.328.328 0 0 0-.656 0 .328.328 0 1 0 .656 0z"/><circle cx="35.623" cy="43.01" r=".331"/><path fill="param(fill)" d="M37.74 44.513a.329.329 0 1 0-.658-.004.329.329 0 0 0 .658.004zM36.435 48.215a.33.33 0 1 0-.328.332.33.33 0 0 0 .328-.332zM33.488 48.333a.331.331 0 1 0 0 0zM41.198 46.576a.33.33 0 0 0-.659 0c0 .176.147.322.332.322a.327.327 0 0 0 .327-.322zM42.388 43.92a.33.33 0 1 0-.66-.01.33.33 0 0 0 .66.01zM29.973 49.717a.328.328 0 0 0-.332-.327.328.328 0 1 0 0 .657.334.334 0 0 0 .332-.33z"/><circle cx="34.519" cy="51.388" r=".331"/><path fill="param(fill)" d="M38.418 51.644a.331.331 0 0 0-.33-.327.33.33 0 0 0-.326.327c0 .181.147.322.326.322.183 0 .33-.142.33-.322zM41.112 49.799a.328.328 0 0 0-.327-.326.332.332 0 0 0-.332.326c0 .18.149.335.332.335a.333.333 0 0 0 .327-.335zM39.214 54.385a.328.328 0 0 0-.33-.327.328.328 0 1 0 0 .657.33.33 0 0 0 .33-.33zM34.763 53.959a.327.327 0 0 0-.331-.326.329.329 0 1 0 .331.326zM30.083 53.705a.328.328 0 1 0-.656 0 .33.33 0 0 0 .33.332.329.329 0 0 0 .326-.332zM43.209 53.823a.33.33 0 0 0-.328-.336.33.33 0 0 0-.328.336.328.328 0 0 0 .656 0zM43.947 51.388a.328.328 0 0 0-.327-.326c-.185 0-.331.146-.331.326s.146.327.331.327a.33.33 0 0 0 .327-.327z"/><circle cx="46.679" cy="53.991" r=".328"/><circle cx="47.727" cy="50.597" r=".329"/><path fill="param(fill)" d="M45.987 48.103a.326.326 0 0 0-.328-.328c-.181 0-.331.147-.331.328a.33.33 0 0 0 .659 0zM50.891 51.561a.327.327 0 0 0-.331-.326.328.328 0 0 0-.327.326c0 .176.148.319.327.319a.325.325 0 0 0 .331-.319zM51.544 53.705a.328.328 0 0 0-.329-.327.328.328 0 1 0 0 .658.33.33 0 0 0 .329-.331zM54.833 55.063a.328.328 0 0 0-.331-.327.33.33 0 1 0 .331.327zM55.68 51.619c0-.188-.147-.337-.327-.337s-.329.148-.329.337c0 .173.149.325.329.325s.327-.152.327-.325z"/><circle cx="54.049" cy="49.292" r=".328"/><path fill="param(fill)" d="M52.282 46.091a.325.325 0 0 0-.331-.324.328.328 0 0 0 0 .655.33.33 0 0 0 .331-.331zM48.681 46.432a.327.327 0 0 0-.331-.327.328.328 0 0 0 0 .657.33.33 0 0 0 .331-.33zM50.239 43.946a.328.328 0 0 0-.327-.327.329.329 0 0 0-.332.327c0 .176.147.323.332.323a.326.326 0 0 0 .327-.323z"/><circle cx="45.999" cy="43.435" r=".331"/><circle cx="53.765" cy="43.01" r=".329"/><path fill="param(fill)" d="M49.926 40.573a.328.328 0 0 0-.656 0 .328.328 0 0 0 .656 0zM46.5 39.558a.331.331 0 0 0-.662 0c0 .188.147.327.332.327.181 0 .33-.139.33-.327zM43.947 37.352a.328.328 0 0 0-.327-.326.327.327 0 0 0-.331.326c0 .176.146.323.331.323a.328.328 0 0 0 .327-.323zM42.813 40.122a.331.331 0 0 0-.33-.327.33.33 0 0 0-.329.327c0 .18.147.326.329.326.184 0 .33-.146.33-.326zM44.855 33.558a.327.327 0 0 0-.33-.326.328.328 0 1 0 0 .657.33.33 0 0 0 .33-.331zM46.641 35.88a.331.331 0 0 0-.331-.332.327.327 0 0 0-.328.332.33.33 0 0 0 .659 0zM49.588 36.926a.328.328 0 0 0-.658 0 .33.33 0 0 0 .658 0zM52.761 38.818a.328.328 0 0 0-.656 0 .327.327 0 1 0 .656 0zM55.737 38.284a.328.328 0 1 0-.656 0 .328.328 0 0 0 .656 0z"/><circle cx="54.049" cy="33.079" r=".328"/><path fill="param(fill)" d="M54.322 30.135a.325.325 0 0 0-.332-.328.323.323 0 0 0-.326.328.33.33 0 0 0 .658 0zM50.835 30.157c0-.177-.147-.322-.33-.322a.329.329 0 1 0 0 .657.33.33 0 0 0 .33-.335zM44.006 30.076c0-.181-.149-.327-.332-.327a.328.328 0 1 0 0 .657.33.33 0 0 0 .332-.33z"/><circle cx="48.72" cy="32.739" r=".331"/><path fill="param(fill)" d="M52.083 35.228a.33.33 0 0 0-.659 0 .33.33 0 0 0 .331.327.332.332 0 0 0 .328-.327zM.659 12.877a.33.33 0 0 0-.659 0 .33.33 0 0 0 .327.327.333.333 0 0 0 .332-.327zM8.882 27.985a.331.331 0 1 0-.662 0 .33.33 0 0 0 .662 0zM28.07 17.736a.325.325 0 0 0-.331-.327.327.327 0 1 0 0 .653.327.327 0 0 0 .331-.326zM28.27 6.561a.33.33 0 1 0-.332.327.328.328 0 0 0 .332-.327zM19.482.731a.33.33 0 0 0-.33-.335.33.33 0 1 0 0 .661.33.33 0 0 0 .33-.326zM12.395.926a.33.33 0 0 0-.659 0c0 .185.147.328.333.328a.326.326 0 0 0 .326-.328z"/><circle cx="6.34" cy="1.663" r=".329"/><path fill="param(fill)" d="M3.664.319c0-.18-.149-.319-.332-.319s-.33.139-.33.319c0 .184.147.33.33.33s.332-.146.332-.33zM2.958 3.003a.329.329 0 0 0-.659 0 .329.329 0 1 0 .659 0zM5.197 5.583a.329.329 0 1 0-.658-.004.329.329 0 0 0 .658.004z"/><circle cx="2.259" cy="8.552" r=".329"/><path fill="param(fill)" d="M6.163 8.725a.331.331 0 1 0-.662 0c0 .177.147.323.33.323s.332-.147.332-.323zM9.222 5.329a.33.33 0 0 0-.328-.335.33.33 0 0 0-.328.335.328.328 0 0 0 .656 0zM9.872 7.873a.326.326 0 0 0-.324-.332.33.33 0 0 0 0 .659.324.324 0 0 0 .324-.327zM12.484 4.192a.328.328 0 0 0-.332-.327.33.33 0 1 0 0 .658.33.33 0 0 0 .332-.331zM13.277 7.33a.328.328 0 0 0-.33-.327.328.328 0 0 0-.332.327c0 .184.147.334.332.334.18 0 .33-.15.33-.334zM11.349 13.137a.33.33 0 0 0-.659 0 .33.33 0 0 0 .659 0zM9.081 10.812a.329.329 0 0 0-.658 0 .33.33 0 0 0 .331.335.33.33 0 0 0 .327-.335zM4.317 12.431a.33.33 0 0 0-.328-.336.329.329 0 0 0-.328.336c0 .177.145.327.328.327a.33.33 0 0 0 .328-.327zM3.921 16.559a.328.328 0 0 0-.656 0 .328.328 0 1 0 .656 0z"/><circle cx="7.277" cy="14.663" r=".331"/><path fill="param(fill)" d="M9.393 16.166a.329.329 0 1 0-.658-.004.329.329 0 0 0 .658.004zM8.088 19.868a.33.33 0 1 0-.328.332.33.33 0 0 0 .328-.332zM5.141 19.986a.331.331 0 1 0 0 0zM12.851 18.229a.33.33 0 0 0-.659 0c0 .176.147.322.332.322a.327.327 0 0 0 .327-.322zM14.041 15.573a.33.33 0 1 0-.66-.01.33.33 0 0 0 .66.01zM1.626 21.37a.328.328 0 0 0-.332-.327.328.328 0 1 0 0 .657.334.334 0 0 0 .332-.33z"/><circle cx="6.172" cy="23.041" r=".331"/><path fill="param(fill)" d="M10.071 23.297a.331.331 0 0 0-.33-.327.33.33 0 0 0-.326.327c0 .181.147.322.326.322.183 0 .33-.141.33-.322zM12.766 21.452a.328.328 0 0 0-.327-.326.332.332 0 0 0-.332.326c0 .18.149.335.332.335a.333.333 0 0 0 .327-.335zM10.868 26.038a.328.328 0 0 0-.33-.327.328.328 0 1 0 0 .657.33.33 0 0 0 .33-.33zM6.417 25.612a.327.327 0 0 0-.331-.326.329.329 0 1 0 .331.326zM1.736 25.358a.328.328 0 1 0-.656 0 .33.33 0 0 0 .33.332.329.329 0 0 0 .326-.332zM14.862 25.477a.33.33 0 0 0-.328-.336.33.33 0 0 0-.328.336.328.328 0 0 0 .656 0zM15.601 23.041a.328.328 0 0 0-.327-.326c-.185 0-.331.146-.331.326s.146.327.331.327a.33.33 0 0 0 .327-.327z"/><circle cx="18.333" cy="25.645" r=".328"/><circle cx="19.381" cy="22.25" r=".329"/><path fill="param(fill)" d="M17.641 19.756a.326.326 0 0 0-.328-.328c-.181 0-.331.147-.331.328a.33.33 0 0 0 .659 0zM22.544 23.214a.327.327 0 0 0-.331-.326.328.328 0 0 0-.327.326c0 .176.148.319.327.319a.324.324 0 0 0 .331-.319zM23.197 25.358a.328.328 0 0 0-.329-.327.328.328 0 1 0 0 .658.33.33 0 0 0 .329-.331zM26.486 26.717a.328.328 0 0 0-.331-.327.33.33 0 1 0 .331.327zM27.333 23.272c0-.188-.147-.337-.327-.337s-.329.148-.329.337c0 .173.149.325.329.325s.327-.152.327-.325z"/><circle cx="25.702" cy="20.945" r=".328"/><path fill="param(fill)" d="M23.935 17.744a.325.325 0 0 0-.331-.324.328.328 0 0 0 0 .655.329.329 0 0 0 .331-.331zM20.334 18.085a.327.327 0 0 0-.331-.327.328.328 0 0 0 0 .657.328.328 0 0 0 .331-.33zM21.892 15.6a.328.328 0 0 0-.327-.327.329.329 0 0 0-.332.327c0 .176.147.323.332.323.18 0 .327-.148.327-.323z"/><circle cx="17.653" cy="15.088" r=".331"/><circle cx="25.419" cy="14.663" r=".329"/><path fill="param(fill)" d="M21.579 12.227a.328.328 0 0 0-.656 0 .33.33 0 0 0 .332.332.329.329 0 0 0 .324-.332zM18.153 11.211a.331.331 0 0 0-.662 0c0 .188.147.327.332.327.181 0 .33-.139.33-.327zM15.601 9.005a.328.328 0 0 0-.327-.326.327.327 0 0 0-.331.326c0 .176.146.323.331.323a.328.328 0 0 0 .327-.323zM14.467 11.775a.331.331 0 0 0-.33-.327.33.33 0 0 0-.329.327c0 .18.147.326.329.326a.327.327 0 0 0 .33-.326zM16.508 5.211a.327.327 0 0 0-.33-.326.328.328 0 1 0 0 .657c.183 0 .33-.146.33-.331zM18.294 7.533a.331.331 0 0 0-.331-.332.327.327 0 0 0-.328.332.33.33 0 0 0 .659 0zM21.241 8.579a.328.328 0 0 0-.658 0 .328.328 0 1 0 .658 0zM24.415 10.472a.328.328 0 0 0-.656 0 .33.33 0 0 0 .332.336.329.329 0 0 0 .324-.336zM27.391 9.938a.328.328 0 1 0-.656 0 .328.328 0 0 0 .656 0z"/><circle cx="25.702" cy="4.732" r=".328"/><path fill="param(fill)" d="M25.975 1.788a.325.325 0 0 0-.332-.328.323.323 0 0 0-.326.328.33.33 0 0 0 .658 0zM22.489 1.811c0-.177-.147-.322-.33-.322a.329.329 0 1 0 0 .657.33.33 0 0 0 .33-.335zM15.66 1.729c0-.181-.149-.327-.332-.327a.328.328 0 1 0 0 .657.33.33 0 0 0 .332-.33z"/><circle cx="20.373" cy="4.393" r=".331"/><path fill="param(fill)" d="M23.736 6.881a.33.33 0 0 0-.659 0 .33.33 0 0 0 .331.327c.179 0 .328-.15.328-.327zM29.005 12.877a.33.33 0 0 0-.659 0 .33.33 0 0 0 .327.327.333.333 0 0 0 .332-.327zM37.229 27.985a.331.331 0 1 0-.662 0 .33.33 0 0 0 .662 0zM56.417 17.736a.325.325 0 0 0-.331-.327.327.327 0 1 0 0 .653.327.327 0 0 0 .331-.326zM56.617 6.561a.33.33 0 1 0-.332.327.329.329 0 0 0 .332-.327zM47.829.731a.33.33 0 0 0-.33-.335.33.33 0 1 0 0 .661.33.33 0 0 0 .33-.326zM40.742.926a.33.33 0 0 0-.659 0c0 .185.147.328.333.328a.326.326 0 0 0 .326-.328z"/><circle cx="34.687" cy="1.663" r=".329"/><path fill="param(fill)" d="M32.011.319c0-.18-.15-.319-.332-.319s-.33.139-.33.319c0 .184.147.33.33.33s.332-.146.332-.33zM31.305 3.003a.329.329 0 0 0-.659 0 .329.329 0 1 0 .659 0zM33.543 5.583a.329.329 0 1 0-.658-.004.329.329 0 0 0 .658.004z"/><circle cx="30.606" cy="8.552" r=".329"/><path fill="param(fill)" d="M34.51 8.725a.331.331 0 1 0-.662 0c0 .177.147.323.33.323s.332-.147.332-.323zM37.568 5.329a.33.33 0 0 0-.328-.335.33.33 0 0 0-.328.335.328.328 0 0 0 .656 0zM38.219 7.873a.326.326 0 0 0-.324-.332.33.33 0 0 0 0 .659.324.324 0 0 0 .324-.327zM40.831 4.192a.328.328 0 0 0-.332-.327.33.33 0 1 0 0 .658.33.33 0 0 0 .332-.331zM41.624 7.33a.328.328 0 0 0-.33-.327.328.328 0 0 0-.332.327c0 .184.147.334.332.334.18 0 .33-.15.33-.334zM39.695 13.137a.33.33 0 0 0-.659 0 .33.33 0 0 0 .659 0zM37.427 10.812a.329.329 0 0 0-.658 0 .33.33 0 0 0 .331.335.33.33 0 0 0 .327-.335zM32.664 12.431a.33.33 0 0 0-.328-.336.329.329 0 0 0-.328.336c0 .177.145.327.328.327a.33.33 0 0 0 .328-.327zM32.268 16.559a.328.328 0 0 0-.656 0 .328.328 0 1 0 .656 0z"/><circle cx="35.623" cy="14.663" r=".331"/><path fill="param(fill)" d="M37.74 16.166a.329.329 0 1 0-.658-.004.329.329 0 0 0 .658.004zM36.435 19.868a.33.33 0 1 0-.328.332.33.33 0 0 0 .328-.332zM33.488 19.986a.331.331 0 1 0 0 0zM41.198 18.229a.33.33 0 0 0-.659 0c0 .176.147.322.332.322a.327.327 0 0 0 .327-.322zM42.388 15.573a.33.33 0 1 0-.66-.01.33.33 0 0 0 .66.01zM29.973 21.37a.328.328 0 0 0-.332-.327.328.328 0 1 0 0 .657.334.334 0 0 0 .332-.33z"/><circle cx="34.519" cy="23.041" r=".331"/><path fill="param(fill)" d="M38.418 23.297a.331.331 0 0 0-.33-.327.33.33 0 0 0-.326.327c0 .181.147.322.326.322.183 0 .33-.141.33-.322zM41.112 21.452a.328.328 0 0 0-.327-.326.332.332 0 0 0-.332.326c0 .18.149.335.332.335a.333.333 0 0 0 .327-.335zM39.214 26.038a.328.328 0 0 0-.33-.327.328.328 0 1 0 0 .657c.181 0 .33-.145.33-.33zM34.763 25.612a.327.327 0 0 0-.331-.326.329.329 0 1 0 .331.326zM30.083 25.358a.328.328 0 1 0-.656 0 .33.33 0 0 0 .33.332.329.329 0 0 0 .326-.332zM43.209 25.477a.33.33 0 0 0-.328-.336.33.33 0 0 0-.328.336.328.328 0 0 0 .656 0zM43.947 23.041a.328.328 0 0 0-.327-.326c-.185 0-.331.146-.331.326s.146.327.331.327a.328.328 0 0 0 .327-.327z"/><circle cx="46.679" cy="25.645" r=".328"/><circle cx="47.727" cy="22.25" r=".329"/><path fill="param(fill)" d="M45.987 19.756a.326.326 0 0 0-.328-.328c-.181 0-.331.147-.331.328a.33.33 0 0 0 .659 0zM50.891 23.214a.327.327 0 0 0-.331-.326.328.328 0 0 0-.327.326c0 .176.148.319.327.319a.324.324 0 0 0 .331-.319zM51.544 25.358a.328.328 0 0 0-.329-.327.328.328 0 1 0 0 .658.33.33 0 0 0 .329-.331zM54.833 26.717a.328.328 0 0 0-.331-.327.33.33 0 1 0 .331.327zM55.68 23.272c0-.188-.147-.337-.327-.337s-.329.148-.329.337c0 .173.149.325.329.325s.327-.152.327-.325z"/><circle cx="54.049" cy="20.945" r=".328"/><path fill="param(fill)" d="M52.282 17.744a.325.325 0 0 0-.331-.324.328.328 0 0 0 0 .655.33.33 0 0 0 .331-.331zM48.681 18.085a.327.327 0 0 0-.331-.327.328.328 0 0 0 0 .657.329.329 0 0 0 .331-.33zM50.239 15.6a.328.328 0 0 0-.327-.327.329.329 0 0 0-.332.327c0 .176.147.323.332.323.18 0 .327-.148.327-.323z"/><circle cx="45.999" cy="15.088" r=".331"/><circle cx="53.765" cy="14.663" r=".329"/><path fill="param(fill)" d="M49.926 12.227a.328.328 0 0 0-.656 0 .33.33 0 0 0 .332.332.329.329 0 0 0 .324-.332zM46.5 11.211a.331.331 0 0 0-.662 0c0 .188.147.327.332.327.181 0 .33-.139.33-.327zM43.947 9.005a.328.328 0 0 0-.327-.326.327.327 0 0 0-.331.326c0 .176.146.323.331.323a.328.328 0 0 0 .327-.323zM42.813 11.775a.331.331 0 0 0-.33-.327.33.33 0 0 0-.329.327c0 .18.147.326.329.326a.326.326 0 0 0 .33-.326zM44.855 5.211a.327.327 0 0 0-.33-.326.328.328 0 1 0 0 .657c.183 0 .33-.146.33-.331zM46.641 7.533a.331.331 0 0 0-.331-.332.327.327 0 0 0-.328.332.33.33 0 0 0 .659 0zM49.588 8.579a.328.328 0 0 0-.658 0 .33.33 0 0 0 .658 0zM52.761 10.472a.328.328 0 0 0-.656 0 .328.328 0 1 0 .656 0zM55.737 9.938a.328.328 0 1 0-.656 0 .328.328 0 0 0 .656 0z"/><circle cx="54.049" cy="4.732" r=".328"/><path fill="param(fill)" d="M54.322 1.788a.325.325 0 0 0-.332-.328.323.323 0 0 0-.326.328.33.33 0 0 0 .658 0zM50.835 1.811c0-.177-.147-.322-.33-.322a.329.329 0 1 0 0 .657.33.33 0 0 0 .33-.335zM44.006 1.729c0-.181-.149-.327-.332-.327a.328.328 0 1 0 0 .657.33.33 0 0 0 .332-.33z"/><circle cx="48.72" cy="4.393" r=".331"/><path fill="param(fill)" d="M52.083 6.881a.33.33 0 0 0-.659 0 .33.33 0 0 0 .331.327c.179 0 .328-.15.328-.327z"/></svg>