<svg xmlns="http://www.w3.org/2000/svg" width="32.599" height="32.599" viewBox="0 0 32.599 32.599"><path fill="none" d="M0 0h32.599v32.599H0z"/><circle fill="param(fill)" cx="6.576" cy="1.051" r=".936"/><circle fill="param(fill)" cx="4.96" cy="7.94" r=".936"/><circle fill="param(fill)" cx="8.957" cy="12.08" r=".935"/><path fill="param(fill)" d="M10.431 5.616a.937.937 0 1 0-.934.936.94.94 0 0 0 .934-.936zM13.098 9.047a.936.936 0 1 0 0 0zM16.214 3.802a.936.936 0 1 0-1.873 0 .936.936 0 0 0 1.873 0zM18.313 8.421a.935.935 0 0 0-.937-.935.936.936 0 1 0 .937.935z"/><circle fill="param(fill)" cx="14.087" cy="13.466" r=".936"/><path fill="param(fill)" d="M19.586 15.565a.937.937 0 0 0-.934-.938.936.936 0 1 0 .934.938zM22.479 11.342a.936.936 0 1 0-1.871-.003.936.936 0 0 0 1.871.003z"/><circle fill="param(fill)" cx="21.091" cy="5.049" r=".936"/><path fill="param(fill)" d="M24.548 17.521a.936.936 0 1 0-1.873-.003.936.936 0 0 0 1.873.003zM26.306 8.848a.935.935 0 1 0-1.871-.001.935.935 0 0 0 1.871.001z"/><circle fill="param(fill)" cx="28.463" cy="3.547" r=".936"/><path fill="param(fill)" d="M28.972 13.24a.936.936 0 1 0-1.871-.003.936.936 0 0 0 1.871.003zM28.235 20.582a.94.94 0 0 0-.936-.938.937.937 0 0 0-.936.938c0 .517.417.933.936.933a.935.935 0 0 0 .936-.933zM28.263 29.875a.936.936 0 1 0-.936.938.937.937 0 0 0 .936-.938zM24.804 24.097a.936.936 0 1 0 0 0zM21.742 28.119a.934.934 0 0 0-.938-.934.936.936 0 1 0 .938.934z"/><circle fill="param(fill)" cx="16.866" cy="25.201" r=".936"/><path fill="param(fill)" d="M21.57 21.854a.937.937 0 0 0-1.872 0 .935.935 0 1 0 1.872 0z"/><circle fill="param(fill)" cx="14.059" cy="30.075" r=".936"/><path fill="param(fill)" d="M12.756 25.965a.935.935 0 1 0-1.871 0 .935.935 0 1 0 1.871 0z"/><circle fill="param(fill)" cx="9.468" cy="22.055" r=".936"/><path fill="param(fill)" d="M12.586 17.122a.936.936 0 1 0-.934.937c.517 0 .934-.42.934-.937z"/><circle fill="param(fill)" cx="14.598" cy="19.815" r=".936"/><path fill="param(fill)" d="M8.759 29.479a.935.935 0 1 0-1.871.001.935.935 0 0 0 1.871-.001z"/><circle fill="param(fill)" cx="5.3" cy="24.152" r=".935"/><circle fill="param(fill)" cx="6.379" cy="17.858" r=".936"/><path fill="param(fill)" d="M19.758 32.483a.935.935 0 1 0-1.863.115h1.855a.724.724 0 0 0 .008-.115z"/><circle fill="param(fill)" cx="30.785" cy="8.479" r=".936"/><circle fill="param(fill)" cx="30.785" cy="25.285" r=".936"/><path fill="param(fill)" d="M32.484 15.054a.937.937 0 1 0 .115 1.864v-1.855a.715.715 0 0 0-.115-.009zM32.599 31.663a.935.935 0 0 0-.935.934v.002h.936l-.001-.936c.001 0 .001 0 0 0z"/><circle fill="param(fill)" cx="24.576" cy=".938" r=".936"/><path fill="param(fill)" d="M11.48.938a.936.936 0 1 0 1.873.001.936.936 0 0 0-1.873-.001zM18.822.825c.479 0 .871-.36.929-.822h-1.855c.056.462.45.822.926.822zM32.599.938c.001 0 .001 0 0 0L32.6.003h-.936c.001.516.42.935.935.935zM1.838 6.325a.937.937 0 1 0 0 0z"/><circle fill="param(fill)" cx="2.748" cy="12.532" r=".935"/><path fill="param(fill)" d="M2.465 26.986a.933.933 0 0 0-.935.936.937.937 0 1 0 .935-.936zM2.04 20.667a.936.936 0 1 0-1.873-.003.936.936 0 0 0 1.873.003zM.822 15.987A.934.934 0 0 0 0 15.061v1.855a.935.935 0 0 0 .822-.929zM0 31.663v.936h.936v-.002A.935.935 0 0 0 0 31.663zM.936.003H0v.936A.937.937 0 0 0 .936.003z"/></svg>