<svg xmlns="http://www.w3.org/2000/svg" width="56.693" height="56.693" viewBox="0 0 56.693 56.693"><path fill="none" d="M0 0h56.693v56.693H0z"/><path fill="param(fill)" d="M7.777 7.428a.68.68 0 1 0-.683.684.682.682 0 0 0 .683-.684zM15.034 3.489a.677.677 0 0 0-.681-.678c-.379 0-.68.301-.68.678s.3.683.68.683a.682.682 0 0 0 .681-.683zM18.536 6.623a.681.681 0 0 0-.68-.68c-.38 0-.68.306-.68.68a.68.68 0 1 0 1.36 0zM27.96 5.392a.684.684 0 0 0-.683-.684.681.681 0 1 0 .683.684zM35.897 4.311a.676.676 0 0 0-.678-.677c-.377 0-.683.3-.683.677a.681.681 0 1 0 1.361 0zM43.494 5.476a.68.68 0 1 0 0 0zM51.005 3.66c0-.378-.3-.683-.681-.683a.683.683 0 0 0 0 1.366.677.677 0 0 0 .681-.683zM56.052 9.979a.677.677 0 0 0-.68-.676.68.68 0 0 0-.682.676.682.682 0 0 0 1.362 0zM47.691 9.673a.68.68 0 1 0-1.362 0c0 .375.305.675.678.675.381 0 .684-.3.684-.675zM40.489 10.52a.682.682 0 0 0-.682-.68.681.681 0 1 0 .682.68zM34.933 13.749a.681.681 0 1 0-.679.683.677.677 0 0 0 .679-.683zM25.494 10.635a.679.679 0 0 0-.68-.68.679.679 0 1 0 0 1.358.68.68 0 0 0 .68-.678zM16.025 14.063a.68.68 0 1 0-1.361 0 .68.68 0 0 0 1.361 0z"/><circle cx="9.677" cy="14.405" r=".68"/><path fill="param(fill)" d="M3.043 17.067a.683.683 0 0 0-.682-.681.683.683 0 0 0 0 1.364.682.682 0 0 0 .682-.683zM12.709 20.414a.68.68 0 1 0-1.361 0c0 .38.305.679.68.679a.674.674 0 0 0 .681-.679z"/><circle cx="19.314" cy="20.952" r=".68"/><path fill="param(fill)" d="M30.852 20.529a.684.684 0 0 0-.683-.684.682.682 0 0 0 0 1.363.684.684 0 0 0 .683-.679zM39.101 18.794a.68.68 0 1 0-.678.684.68.68 0 0 0 .678-.684z"/><circle cx="44.119" cy="20.613" r=".68"/><path fill="param(fill)" d="M54.464 21.067a.679.679 0 0 0-.68-.679.679.679 0 1 0 0 1.356.68.68 0 0 0 .68-.677zM52.623 27.812a.68.68 0 1 0-1.361 0 .68.68 0 1 0 1.361 0zM46.074 25.149a.682.682 0 1 0-1.362 0 .682.682 0 0 0 1.362 0zM37.06 25.772a.68.68 0 1 0 0 0zM29.462 25.458a.681.681 0 1 0-1.362.002.681.681 0 0 0 1.362-.002zM21.611 26.735a.682.682 0 0 0-.682-.681.682.682 0 0 0-.679.681c0 .379.307.678.679.678a.677.677 0 0 0 .682-.678zM12.483 25.687a.68.68 0 1 0-1.361.001.68.68 0 0 0 1.361-.001zM3.27 24.923a.68.68 0 1 0 0 0zM7.126 31.582a.68.68 0 1 0-1.36 0 .68.68 0 0 0 1.36 0z"/><circle cx="12.454" cy="34.475" r=".68"/><path fill="param(fill)" d="M17.643 30.504a.68.68 0 0 0-1.361 0c0 .38.302.679.682.679a.678.678 0 0 0 .679-.679z"/><circle cx="23.935" cy="32.972" r=".68"/><circle cx="30.483" cy="34.475" r=".68"/><circle cx="38.223" cy="32.432" r=".68"/><path fill="param(fill)" d="M44.998 34.699a.68.68 0 1 0-1.361 0c0 .381.301.684.68.684s.681-.303.681-.684zM51.885 34.59a.682.682 0 1 0-.682.678.68.68 0 0 0 .682-.678z"/><circle cx="51.403" cy="40.599" r=".68"/><path fill="param(fill)" d="M56.506 44.141a.681.681 0 0 0-1.361 0 .68.68 0 1 0 1.361 0zM54.664 50.686a.682.682 0 0 0-.681-.678.68.68 0 1 0 .681.678zM48.54 52.189a.68.68 0 1 0-1.359.003.68.68 0 0 0 1.359-.003zM47.378 44.568a.684.684 0 0 0-.679-.682.683.683 0 0 0-.682.682.68.68 0 0 0 1.361 0zM41.682 39.745a.681.681 0 0 0-1.361 0 .681.681 0 0 0 1.361 0zM42.333 48.108a.678.678 0 0 0-.683-.681.682.682 0 0 0 0 1.363.684.684 0 0 0 .683-.682zM43.068 55.621a.68.68 0 1 0-1.361 0 .68.68 0 1 0 1.361 0zM36.322 53.493c0-.374-.3-.681-.678-.681a.683.683 0 0 0 0 1.365.678.678 0 0 0 .678-.684zM36.209 46.066a.681.681 0 1 0-1.363 0 .681.681 0 0 0 1.363 0zM32.78 41.449a.682.682 0 1 0 0 0zM30.965 49.188a.68.68 0 0 0-1.361 0 .68.68 0 1 0 1.361 0zM29.01 54.655a.68.68 0 1 0-.679.681.681.681 0 0 0 .679-.681z"/><circle cx="17.188" cy="52.616" r=".68"/><path fill="param(fill)" d="M19.683 46.72a.68.68 0 0 0-.682-.679.676.676 0 0 0-.679.679c0 .375.3.681.679.681a.683.683 0 0 0 .682-.681zM26.345 45.643a.682.682 0 0 0-1.361 0c0 .379.305.679.681.679a.679.679 0 0 0 .68-.679zM24.842 39.319a.68.68 0 1 0-1.361 0 .68.68 0 1 0 1.361 0zM18.408 41.449a.68.68 0 1 0 0 0zM5.849 36.853a.68.68 0 1 0-.68.683.68.68 0 0 0 .68-.683zM10.129 42.098a.68.68 0 0 0-1.361 0c0 .374.308.683.682.683a.682.682 0 0 0 .679-.683zM5.083 47.993a.68.68 0 1 0-1.361 0 .68.68 0 1 0 1.361 0z"/><circle cx="7.833" cy="55.848" r=".68"/><path fill="param(fill)" d="M12.284 48.45a.68.68 0 1 0-1.36-.002.68.68 0 0 0 1.36.002zM25.267 17.067a.683.683 0 0 0-.683-.682.683.683 0 0 0 0 1.366c.38 0 .683-.307.683-.684zM51.659 16.218a.681.681 0 0 0-1.361 0c0 .379.304.678.681.678.373 0 .68-.299.68-.678z"/><circle cx="21.78" cy=".735" r=".68"/><path fill="param(fill)" d="M56.608 31.024a.683.683 0 0 0-.682-.686.682.682 0 0 0-.679.686.68.68 0 1 0 1.361 0zM56.665.708a.68.68 0 1 0-.683.684.682.682 0 0 0 .683-.684z"/></svg>