<svg xmlns="http://www.w3.org/2000/svg" width="39.686" height="39.685" viewBox="0 0 39.686 39.685"><circle fill="param(fill)" cx="22.194" cy="26.76" r="1.616"/><circle fill="param(fill)" cx="27.127" cy="24.351" r="1.615"/><circle fill="param(fill)" cx="31.916" cy="22.027" r="1.616"/><path fill="param(fill)" d="M36.082 29.534a1.616 1.616 0 1 0-1.613 1.617c.893 0 1.613-.723 1.613-1.617zM31.012 29.592a1.616 1.616 0 1 0-1.613 1.617c.888 0 1.613-.724 1.613-1.617z"/><circle fill="param(fill)" cx="21.911" cy="31.805" r="1.616"/><circle fill="param(fill)" cx="26.9" cy="34.327" r="1.616"/><circle fill="param(fill)" cx="31.691" cy="36.736" r="1.616"/><circle fill="param(fill)" cx="36.934" cy="34.695" r="1.615"/><circle fill="param(fill)" cx="37.218" cy="24.52" r="1.616"/><circle fill="param(fill)" cx="24.717" cy="19.415" r="1.616"/><circle fill="param(fill)" cx="22.194" cy="6.918" r="1.616"/><circle fill="param(fill)" cx="27.127" cy="4.509" r="1.615"/><path fill="param(fill)" d="M33.531 2.186a1.615 1.615 0 1 0-3.23-.003 1.615 1.615 0 0 0 3.23.003zM36.082 9.692a1.616 1.616 0 1 0-1.613 1.617 1.612 1.612 0 0 0 1.613-1.617zM31.012 9.75a1.616 1.616 0 1 0-1.613 1.617c.888 0 1.613-.723 1.613-1.617z"/><circle fill="param(fill)" cx="21.911" cy="11.963" r="1.616"/><circle fill="param(fill)" cx="26.9" cy="14.485" r="1.616"/><circle fill="param(fill)" cx="31.691" cy="16.895" r="1.616"/><circle fill="param(fill)" cx="36.934" cy="14.853" r="1.615"/><circle fill="param(fill)" cx="37.218" cy="4.678" r="1.616"/><circle fill="param(fill)" cx="2.352" cy="6.918" r="1.616"/><circle fill="param(fill)" cx="7.143" cy="4.509" r="1.616"/><path fill="param(fill)" d="M13.689 2.186a1.615 1.615 0 1 0-3.23-.003 1.615 1.615 0 0 0 3.23.003z"/><circle fill="param(fill)" cx="14.624" cy="9.692" r="1.616"/><path fill="param(fill)" d="M11.169 9.75a1.616 1.616 0 1 0-1.613 1.617c.889 0 1.613-.723 1.613-1.617z"/><circle fill="param(fill)" cx="2.069" cy="11.963" r="1.616"/><circle fill="param(fill)" cx="6.916" cy="14.485" r="1.616"/><circle fill="param(fill)" cx="11.849" cy="16.895" r="1.616"/><circle fill="param(fill)" cx="17.091" cy="14.853" r="1.616"/><circle fill="param(fill)" cx="17.375" cy="4.678" r="1.616"/><circle fill="param(fill)" cx="2.352" cy="26.76" r="1.616"/><circle fill="param(fill)" cx="7.143" cy="24.351" r="1.616"/><circle fill="param(fill)" cx="12.073" cy="22.027" r="1.616"/><circle fill="param(fill)" cx="14.624" cy="29.534" r="1.616"/><path fill="param(fill)" d="M11.169 29.592a1.616 1.616 0 1 0-1.613 1.617c.889 0 1.613-.724 1.613-1.617z"/><circle fill="param(fill)" cx="2.069" cy="31.805" r="1.616"/><circle fill="param(fill)" cx="6.916" cy="34.327" r="1.616"/><circle fill="param(fill)" cx="11.849" cy="36.736" r="1.616"/><circle fill="param(fill)" cx="17.091" cy="34.695" r="1.616"/><circle fill="param(fill)" cx="17.375" cy="24.52" r="1.616"/><circle fill="param(fill)" cx="19.843" cy="19.843" r="1.616"/><circle fill="param(fill)" cx="4.733" cy="19.415" r="1.616"/><path fill="param(fill)" d="M38.069 19.843c0 .893.726 1.615 1.616 1.616v-3.23c-.89 0-1.616.724-1.616 1.614zM21.458 39.684c0-.891-.722-1.614-1.614-1.614-.891 0-1.618.724-1.618 1.614v.001l3.232-.001zM6.349 39.257c0-.89-.722-1.614-1.614-1.614a1.62 1.62 0 0 0-1.618 1.614c0 .148.021.291.059.428H6.29c.038-.137.059-.28.059-.428zM26.333 39.257c0-.89-.722-1.614-1.614-1.614a1.62 1.62 0 0 0-1.618 1.614c0 .148.021.291.059.428h3.114c.038-.137.059-.28.059-.428zM38.069 39.684l1.616.001V38.07c-.89 0-1.616.724-1.616 1.614zM.003 21.46a1.616 1.616 0 0 0 0-3.231H0v3.23l.003.001zM.002 38.069H0v1.615h1.616v-.001c0-.89-.722-1.614-1.614-1.614zM19.845 1.616c.891 0 1.613-.723 1.614-1.615h-3.231c0 .893.726 1.615 1.617 1.615zM24.719 1.19c.744 0 1.368-.505 1.555-1.189H23.16a1.62 1.62 0 0 0 1.559 1.189zM4.735 1.19c.744 0 1.368-.505 1.555-1.189H3.177A1.618 1.618 0 0 0 4.735 1.19zM38.069.002c0 .892.726 1.615 1.616 1.616V.001l-1.616.001c0-.001 0-.001 0 0zM0 1.616h.002c.892 0 1.613-.723 1.614-1.615H0v1.615z"/><path fill="none" d="M0 0h39.685v39.685H0z"/></svg>