<svg xmlns="http://www.w3.org/2000/svg" width="116.221" height="116.221" viewBox="0 0 116.221 116.221"><path fill="param(fill)" d="M34.054 35.456a1.159 1.159 0 1 0 0 0z"/><circle fill="param(fill)" cx="23.165" cy="38.675" r="1.159"/><path fill="param(fill)" d="M26.615 30.765c0-.638-.516-1.159-1.154-1.159-.646 0-1.167.521-1.167 1.159 0 .64.521 1.159 1.167 1.159a1.156 1.156 0 0 0 1.154-1.159zM38.154 44.353a1.159 1.159 0 1 0-2.319 0c0 .639.52 1.158 1.165 1.158.635 0 1.154-.519 1.154-1.158zM43.076 33.814c0-.638-.517-1.156-1.157-1.156-.639 0-1.162.518-1.162 1.156 0 .64.523 1.16 1.162 1.16a1.157 1.157 0 0 0 1.157-1.16z"/><circle fill="param(fill)" cx="11.738" cy="33.562" r="1.159"/><circle fill="param(fill)" cx="7.072" cy="44.241" r="1.16"/><path fill="param(fill)" d="M16.741 45.004a1.159 1.159 0 1 0-2.318-.002 1.159 1.159 0 0 0 2.318.002zM15.526 25.651c0-.64-.517-1.158-1.156-1.158a1.159 1.159 0 1 0 1.156 1.158zM7.099 22.856a1.16 1.16 0 1 0-2.318 0 1.16 1.16 0 0 0 2.318 0zM4.242 10.879a1.16 1.16 0 1 0-2.32-.003 1.16 1.16 0 0 0 2.32.003zM18.271 15.424c0-.64-.522-1.156-1.16-1.156-.642 0-1.159.516-1.159 1.156a1.16 1.16 0 1 0 2.319 0zM11.425 2.824a1.158 1.158 0 1 0-2.316.002 1.158 1.158 0 0 0 2.316-.002zM21.071 1.583a1.16 1.16 0 0 0-2.319 0c0 .64.519 1.157 1.164 1.157.64 0 1.155-.516 1.155-1.157z"/><circle fill="param(fill)" cx="28.907" cy="10.086" r="1.159"/><path fill="param(fill)" d="M34.762 1.158a1.16 1.16 0 0 0-2.319 0 1.16 1.16 0 0 0 2.319 0zM41.323 3.079c0-.64-.52-1.157-1.158-1.157a1.157 1.157 0 1 0 0 2.316 1.16 1.16 0 0 0 1.158-1.159z"/><circle fill="param(fill)" cx="50.148" cy="1.244" r="1.16"/><path fill="param(fill)" d="M66.356 1.159c0-.64-.52-1.159-1.166-1.159-.639 0-1.154.519-1.154 1.159a1.16 1.16 0 0 0 2.32 0zM107.564 5.34a1.16 1.16 0 1 0-2.318 0 1.16 1.16 0 0 0 2.318 0zM96.733 7.94a1.16 1.16 0 1 0-2.319 0 1.159 1.159 0 0 0 2.319 0z"/><circle fill="param(fill)" cx="101.344" cy="14.917" r="1.159"/><path fill="param(fill)" d="M114.525 15.567a1.16 1.16 0 0 0-2.319 0 1.158 1.158 0 0 0 2.319 0zM85.815 6.33a1.159 1.159 0 1 0-2.32-.002 1.159 1.159 0 0 0 2.32.002zM92.633 16.076a1.16 1.16 0 0 0-2.32 0 1.159 1.159 0 0 0 2.32 0z"/><circle fill="param(fill)" cx="83.467" cy="21.527" r="1.16"/><path fill="param(fill)" d="M74.756 7.856c0-.64-.52-1.161-1.157-1.161a1.158 1.158 0 1 0 0 2.317c.637 0 1.157-.517 1.157-1.156zM71.191 16.725c0-.64-.514-1.159-1.158-1.159-.639 0-1.161.519-1.161 1.159a1.16 1.16 0 0 0 2.319 0zM61.489 9.861a1.16 1.16 0 0 0-2.32 0 1.16 1.16 0 0 0 2.32 0z"/><circle fill="param(fill)" cx="55.324" cy="22.149" r="1.159"/><circle fill="param(fill)" cx="47.234" cy="15.312" r="1.159"/><circle fill="param(fill)" cx="23.759" cy="22.263" r="1.16"/><path fill="param(fill)" d="M2.348 55.853a1.16 1.16 0 1 0-2.319 0c0 .639.518 1.156 1.159 1.156.643 0 1.16-.518 1.16-1.156zM13.604 56.64c0-.64-.518-1.155-1.162-1.155-.639 0-1.156.516-1.156 1.155a1.16 1.16 0 1 0 2.318 0zM23.759 50.822a1.16 1.16 0 0 0-2.32 0 1.16 1.16 0 0 0 2.32 0z"/><circle fill="param(fill)" cx="3.932" cy="64.664" r="1.16"/><circle fill="param(fill)" cx="13.774" cy="66.586" r="1.16"/><path fill="param(fill)" d="M26.359 60.313a1.16 1.16 0 1 0-1.154 1.16c.64 0 1.154-.52 1.154-1.16zM3.79 79.239c0-.639-.519-1.155-1.158-1.155-.643 0-1.161.516-1.161 1.155a1.16 1.16 0 0 0 2.319 0z"/><circle fill="param(fill)" cx="7.411" cy="73.282" r="1.16"/><circle fill="param(fill)" cx="17.252" cy="77.321" r="1.16"/><circle fill="param(fill)" cx="32.385" cy="67.094" r="1.159"/><path fill="param(fill)" d="M27.803 73.423a1.158 1.158 0 1 0-2.318 0 1.158 1.158 0 0 0 2.318 0z"/><circle fill="param(fill)" cx="10.804" cy="86.361" r="1.16"/><path fill="param(fill)" d="M5.939 92.068a1.16 1.16 0 1 0-2.32.003 1.16 1.16 0 0 0 2.32-.003zM16.149 95.117a1.158 1.158 0 1 0-2.317.003 1.158 1.158 0 0 0 2.317-.003zM3.196 101.816a1.16 1.16 0 1 0-2.319-.001 1.16 1.16 0 0 0 2.319.001zM9.984 108.791a1.16 1.16 0 0 0-2.319 0 1.16 1.16 0 0 0 2.319 0zM29.048 91.274c0-.64-.521-1.155-1.159-1.155a1.158 1.158 0 1 0 1.159 1.155zM18.271 105.09c0-.639-.522-1.158-1.16-1.158a1.16 1.16 0 1 0 1.16 1.158zM28.368 109.105a1.16 1.16 0 1 0-2.319 0c0 .64.518 1.155 1.161 1.155a1.156 1.156 0 0 0 1.158-1.155zM40.192 109.216a1.16 1.16 0 0 0-2.319 0c0 .641.52 1.158 1.157 1.158.643 0 1.162-.517 1.162-1.158zM30.803 99.384c0-.639-.518-1.157-1.161-1.157a1.158 1.158 0 1 0 0 2.316 1.16 1.16 0 0 0 1.161-1.159zM48.592 105.063c0-.64-.515-1.16-1.155-1.16a1.16 1.16 0 1 0 1.155 1.16zM37.646 93.001a1.16 1.16 0 1 0-2.318 0 1.159 1.159 0 0 0 2.318 0z"/><circle fill="param(fill)" cx="45.368" cy="95.033" r="1.16"/><path fill="param(fill)" d="M59.681 108.905a1.16 1.16 0 1 0-2.319 0 1.16 1.16 0 0 0 2.319 0zM60.188 91.079a1.159 1.159 0 1 0-2.317.001 1.159 1.159 0 0 0 2.317-.001zM62.168 99.555a1.16 1.16 0 0 0-2.32 0 1.161 1.161 0 0 0 2.32 0zM71.7 97.831a1.16 1.16 0 1 0-2.318.002 1.16 1.16 0 0 0 2.318-.002zM75.69 112.608a1.16 1.16 0 1 0-2.32 0 1.16 1.16 0 0 0 2.32 0zM78.347 103.256a1.16 1.16 0 1 0-2.319 0 1.16 1.16 0 0 0 2.319 0z"/><circle fill="param(fill)" cx="84.741" cy="98.452" r="1.16"/><path fill="param(fill)" d="M85.928 110.289c0-.641-.519-1.158-1.157-1.158a1.158 1.158 0 1 0 1.157 1.158z"/><circle fill="param(fill)" cx="111.13" cy="105.798" r="1.16"/><path fill="param(fill)" d="M103.295 107.69c0-.639-.52-1.16-1.157-1.16a1.16 1.16 0 1 0 1.157 1.16zM94.526 101.618a1.158 1.158 0 1 0-2.321-.003 1.158 1.158 0 0 0 2.321.003zM95.431 113.989c0-.64-.518-1.157-1.156-1.157-.646 0-1.162.517-1.162 1.157a1.16 1.16 0 1 0 2.318 0z"/><circle fill="param(fill)" cx="113.732" cy="95.316" r="1.16"/><circle fill="param(fill)" cx="100.494" cy="96.052" r="1.159"/><path fill="param(fill)" d="M108.413 89.327c0-.641-.518-1.157-1.156-1.157a1.158 1.158 0 1 0 0 2.316c.639 0 1.156-.52 1.156-1.159z"/><circle fill="param(fill)" cx="96.989" cy="79.835" r="1.16"/><path fill="param(fill)" d="M108.132 79.805a1.16 1.16 0 1 0-2.319.005 1.16 1.16 0 0 0 2.319-.005zM109.207 68.846c0-.641-.519-1.159-1.159-1.159a1.157 1.157 0 1 0 0 2.316c.64 0 1.159-.519 1.159-1.157zM100.069 64.156a1.159 1.159 0 1 0-2.317.003 1.159 1.159 0 0 0 2.317-.003zM112.742 59.268a1.159 1.159 0 1 0-2.317.003 1.159 1.159 0 0 0 2.317-.003zM101.598 54.579a1.16 1.16 0 1 0-1.159 1.16c.636 0 1.159-.52 1.159-1.16zM113.591 50.03a1.16 1.16 0 1 0-2.319.005 1.16 1.16 0 0 0 2.319-.005zM104.341 43.477a1.158 1.158 0 1 0-1.158 1.159c.634 0 1.158-.518 1.158-1.159zM101.682 32.687a1.16 1.16 0 0 0-1.159-1.159c-.644 0-1.158.518-1.158 1.159 0 .64.515 1.158 1.158 1.158a1.16 1.16 0 0 0 1.159-1.158zM108.811 25.879a1.16 1.16 0 1 0-2.318-.002 1.16 1.16 0 0 0 2.318.002zM111.582 38.223a1.16 1.16 0 1 0-2.32 0 1.16 1.16 0 1 0 2.32 0zM116.221 30.116a1.158 1.158 0 1 0-2.321-.001 1.158 1.158 0 0 0 2.321.001zM79.817 30.905a1.158 1.158 0 1 0-1.156 1.161 1.16 1.16 0 0 0 1.156-1.161zM91.303 28.9c0-.64-.519-1.158-1.162-1.158a1.158 1.158 0 0 0 0 2.317 1.16 1.16 0 0 0 1.162-1.159zM85.871 38.479a1.16 1.16 0 0 0-2.319 0 1.16 1.16 0 0 0 2.319 0zM76.226 45.653a1.16 1.16 0 0 0-2.318 0 1.159 1.159 0 0 0 2.318 0zM88.274 48.816a1.158 1.158 0 1 0-2.316 0 1.158 1.158 0 0 0 2.316 0z"/><circle fill="param(fill)" cx="94.187" cy="43.054" r="1.16"/><path fill="param(fill)" d="M81.884 55.203a1.159 1.159 0 1 0-2.318-.002 1.159 1.159 0 0 0 2.318.002zM76.226 65.061a1.16 1.16 0 1 0-2.317 0 1.16 1.16 0 0 0 2.317 0z"/><circle fill="param(fill)" cx="86.126" cy="65.627" r="1.16"/><path fill="param(fill)" d="M89.772 76.191a1.16 1.16 0 1 0-2.32 0 1.16 1.16 0 0 0 2.32 0z"/><circle fill="param(fill)" cx="77.414" cy="79.496" r="1.159"/><circle fill="param(fill)" cx="92.32" cy="88.084" r="1.16"/><path fill="param(fill)" d="M80.837 90.853a1.16 1.16 0 0 0-2.318 0 1.158 1.158 0 1 0 2.318 0zM69.551 87.522a1.158 1.158 0 1 0-2.317-.005 1.158 1.158 0 0 0 2.317.005z"/><circle fill="param(fill)" cx="54.08" cy="84.469" r="1.159"/><path fill="param(fill)" d="M59.2 73.198a1.159 1.159 0 1 0-2.32-.003 1.159 1.159 0 0 0 2.32.003zM69.296 76.954a1.159 1.159 0 1 0-1.156 1.158c.637 0 1.156-.517 1.156-1.158zM64.744 66.895c0-.638-.518-1.156-1.161-1.156a1.157 1.157 0 0 0 0 2.316 1.16 1.16 0 0 0 1.161-1.16zM71.983 56.754c0-.641-.52-1.157-1.162-1.157-.638 0-1.157.516-1.157 1.157a1.16 1.16 0 0 0 2.319 0zM57.359 59.917a1.16 1.16 0 0 0-2.319 0 1.16 1.16 0 0 0 2.319 0zM55.267 50.937a1.159 1.159 0 1 0-2.318-.002 1.159 1.159 0 0 0 2.318.002zM64.235 49.722a1.16 1.16 0 1 0-2.318-.002 1.16 1.16 0 0 0 2.318.002z"/><circle fill="param(fill)" cx="54.249" cy="38.535" r="1.159"/><circle fill="param(fill)" cx="66.722" cy="39.239" r="1.159"/><path fill="param(fill)" d="M71.306 27.519a1.16 1.16 0 0 0-2.32 0 1.16 1.16 0 0 0 2.32 0zM57.417 30.595a1.16 1.16 0 0 0-2.318 0 1.16 1.16 0 0 0 2.318 0zM45.169 25.456a1.16 1.16 0 1 0-2.32-.002 1.16 1.16 0 0 0 2.32.002zM37.308 22.968a1.158 1.158 0 1 0-2.317.001 1.158 1.158 0 0 0 2.317-.001zM46.84 44.89a1.159 1.159 0 1 0-2.318.002 1.159 1.159 0 0 0 2.318-.002z"/><circle fill="param(fill)" cx="31.424" cy="50.003" r="1.159"/><path fill="param(fill)" d="M37.138 59.326a1.159 1.159 0 1 0-2.317 0 1.159 1.159 0 0 0 2.317 0z"/><circle fill="param(fill)" cx="42.71" cy="56.555" r="1.159"/><path fill="param(fill)" d="M38.637 73.676a1.16 1.16 0 0 0-2.319 0 1.16 1.16 0 0 0 2.319 0zM45.058 66.501c0-.643-.52-1.158-1.162-1.158a1.158 1.158 0 1 0 1.162 1.158zM48.536 76.87a1.16 1.16 0 0 0-2.32 0 1.16 1.16 0 0 0 2.32 0zM42.2 86.107a1.16 1.16 0 0 0-2.319 0 1.16 1.16 0 0 0 2.319 0z"/><circle fill="param(fill)" cx="22.684" cy="84.92" r="1.159"/><path fill="param(fill)" d="M115.23 73.931a1.16 1.16 0 1 0-2.32 0 1.16 1.16 0 0 0 2.32 0z"/><path fill="none" stroke="#000" stroke-width="1" stroke-linecap="round" stroke-linejoin="round" stroke-miterlimit="500" d="M115.258 29.409a.817.817 0 0 0-.846.791.822.822 0 0 0 .846.847"/><path fill="param(fill)" d="M2.319 115.062a1.16 1.16 0 0 0-2.319 0 1.16 1.16 0 0 0 2.319 0z"/><path fill="none" d="M0 0h116.221v116.22H0z"/></svg>
