<svg xmlns="http://www.w3.org/2000/svg" width="32.599" height="33.166" viewBox="0 0 32.599 33.166"><path fill="none" d="M32.599 33.166V0H0v33.166"/><path fill="param(fill)" d="M1.452 2.534a.312.312 0 0 0 0-.623.315.315 0 0 0-.316.315c0 .168.14.308.316.308z"/><circle fill="param(fill)" cx=".966" cy="4.15" r=".312"/><circle fill="param(fill)" cx="2.324" cy="4.178" r=".312"/><path fill="param(fill)" d="M3.687 2.732a.314.314 0 0 0 .311-.316.308.308 0 0 0-.311-.308.308.308 0 0 0-.313.308c0 .176.139.316.313.316zM6.782 3.015a.312.312 0 1 0-.01-.623.312.312 0 0 0 .01.623zM4.963 3.437c0 .176.141.316.312.316a.315.315 0 0 0 .312-.316.313.313 0 0 0-.624 0zM7.994 4.35a.312.312 0 1 0 0 0zM9.1 2.479a.315.315 0 0 0 .313-.317.304.304 0 0 0-.313-.307.304.304 0 0 0-.311.307.315.315 0 0 0 .311.317zM10.881 4.234a.308.308 0 0 0 .289-.33.306.306 0 0 0-.324-.292.312.312 0 1 0 .035.622zM12.395 2.703a.307.307 0 0 0 .307-.311.307.307 0 0 0-.307-.313.312.312 0 1 0 0 .624zM9.1 5.311a.312.312 0 0 0 .624 0 .314.314 0 0 0-.308-.31.315.315 0 0 0-.316.31zM12.395 5.71a.31.31 0 0 0 .307-.316.307.307 0 0 0-.307-.308.313.313 0 0 0-.316.308.314.314 0 0 0 .316.316zM14.119 3.556a.312.312 0 1 0-.002.624.312.312 0 0 0 .002-.624zM15.393 5.822a.312.312 0 1 0 0 0z"/><circle fill="param(fill)" cx="16.133" cy="2.845" r=".312"/><path fill="param(fill)" d="M17.297 4.264a.312.312 0 1 0-.314-.314c0 .173.141.314.314.314zM17.919 6.108a.313.313 0 0 0-.314-.313.31.31 0 1 0 0 .623.31.31 0 0 0 .314-.31zM13.717 7.184a.31.31 0 0 0 .317-.308.316.316 0 0 0-.317-.316.31.31 0 0 0-.306.316c0 .174.135.308.306.308zM15.905 7.693a.312.312 0 1 0-.313-.308c.001.175.14.308.313.308zM21.065 6.816a.311.311 0 1 0 0-.624.312.312 0 1 0 0 .624zM19.985 4.662a.312.312 0 0 0-.307-.313.314.314 0 0 0-.316.313.312.312 0 0 0 .623 0z"/><circle fill="param(fill)" cx="19.619" cy="2.731" r=".312"/><circle fill="param(fill)" cx="21.576" cy="3.838" r=".312"/><path fill="param(fill)" d="M25.013 2.93a.314.314 0 0 0 .304-.308.316.316 0 0 0-.304-.316.32.32 0 0 0-.32.316.32.32 0 0 0 .32.308zM23.303 3.525a.313.313 0 0 0 .314-.31.314.314 0 0 0-.314-.314.312.312 0 0 0 0 .624zM23.047 5.737a.314.314 0 0 0 .315-.308.316.316 0 0 0-.315-.316.316.316 0 0 0-.309.316c0 .168.142.308.309.308zM24.945 6.673a.313.313 0 0 0 .317-.308.318.318 0 0 0-.317-.315.308.308 0 0 0-.307.315c0 .174.133.308.307.308zM25.028 4.15a.306.306 0 0 0-.304.31c0 .174.132.314.304.314a.318.318 0 0 0 .319-.314.317.317 0 0 0-.319-.31zM27.475 2.168a.313.313 0 0 0 0-.624.315.315 0 0 0-.316.313c0 .17.141.311.316.311zM27.159 4.179a.315.315 0 0 0 .313-.315.312.312 0 1 0-.313.315zM27.559 5.453c-.173 0-.314.143-.314.316s.141.308.314.308c.169 0 .31-.134.31-.308s-.141-.316-.31-.316zM27.27 7.58c-.173 0-.308.143-.308.316s.134.308.308.308c.176 0 .316-.134.316-.308s-.141-.316-.316-.316zM29.345 7.637a.316.316 0 0 0-.314.313.31.31 0 0 0 .314.311.31.31 0 0 0 .31-.311c0-.17-.14-.313-.31-.313zM31.267 8.176a.311.311 0 0 0 .314-.313.315.315 0 0 0-.314-.312.315.315 0 0 0-.31.312.31.31 0 0 0 .31.313zM31.128 5.82c0 .173.14.315.31.315a.316.316 0 0 0 .314-.315.315.315 0 0 0-.314-.309.314.314 0 0 0-.31.309zM29.345 5.397a.314.314 0 0 0-.314.313c0 .171.141.312.314.312a.313.313 0 0 0 0-.625zM29.313 4.094a.314.314 0 0 0 .314-.314.314.314 0 0 0-.314-.31.313.313 0 0 0-.31.31c0 .173.141.314.31.314zM29.883 2.225c.171 0 .311-.14.311-.315a.307.307 0 0 0-.311-.308.307.307 0 0 0-.313.308c0 .175.139.315.313.315zM32.15 2.506a.31.31 0 0 0 .309-.313.305.305 0 0 0-.309-.311.31.31 0 0 0-.314.311c0 .171.141.313.314.313zM31.327 3.923a.312.312 0 1 0-.002-.624.312.312 0 0 0 .002.624z"/><circle fill="param(fill)" cx="23.191" cy="7.47" r=".312"/><path fill="param(fill)" d="M25.146 8.404c0 .173.141.307.312.307a.308.308 0 0 0 .312-.307.315.315 0 0 0-.312-.316.315.315 0 0 0-.312.316zM22.766 9.51a.31.31 0 0 0 .316.308.304.304 0 0 0 .308-.308.308.308 0 0 0-.308-.315.313.313 0 0 0-.316.315zM23.643 11.294a.314.314 0 0 0-.31.314c0 .169.141.31.31.31a.314.314 0 0 0 .314-.31.315.315 0 0 0-.314-.314zM25.604 12.173a.313.313 0 0 0-.316.313c0 .172.141.311.316.311a.31.31 0 0 0 .307-.311.312.312 0 0 0-.307-.313zM25.604 10.272a.316.316 0 0 0-.316.316.311.311 0 1 0 .623 0 .314.314 0 0 0-.307-.316zM26.878 13.931a.312.312 0 1 0-.003-.623.312.312 0 0 0 .003.623zM27.815 11.379a.317.317 0 0 0-.316.316.312.312 0 1 0 .316-.316zM27.473 9.645c0 .176.134.316.307.316a.315.315 0 0 0 .316-.316.314.314 0 0 0-.316-.308.307.307 0 0 0-.307.308z"/><circle fill="param(fill)" cx="30.477" cy="9.989" r=".312"/><path fill="param(fill)" d="M32.118 12.4a.314.314 0 0 0 .314-.314c0-.169-.14-.31-.314-.31a.313.313 0 0 0-.31.31c0 .174.141.314.31.314zM31.24 13.988a.317.317 0 0 0 .313-.313.311.311 0 1 0-.313.313z"/><circle fill="param(fill)" cx="29.116" cy="13.336" r=".312"/><path fill="param(fill)" d="M30.42 11.889a.311.311 0 0 0-.623 0 .311.311 0 1 0 .623 0zM15.111 10.64c0 .174.143.314.31.314.173 0 .314-.141.314-.314s-.141-.31-.314-.31a.31.31 0 0 0-.31.31zM16.076 13.056a.312.312 0 1 0 .311-.316.313.313 0 0 0-.311.316zM17.721 11.636a.311.311 0 1 0 .308-.313.311.311 0 0 0-.308.313zM17.178 9.563a.309.309 0 0 0 .316-.309.314.314 0 0 0-.316-.314.309.309 0 0 0-.307.314c0 .175.133.309.307.309zM18.967 9.791a.312.312 0 1 0 .31-.313.308.308 0 0 0-.31.313zM18.771 7.949a.312.312 0 1 0-.313-.31c0 .176.139.31.313.31zM21.148 8.854a.312.312 0 1 0 0 0zM20.043 12.459a.314.314 0 0 0-.314-.314.314.314 0 0 0-.31.314c0 .169.141.31.31.31a.313.313 0 0 0 .314-.31zM21.686 12.287a.312.312 0 1 0 .314.31c0-.169-.14-.31-.314-.31zM21.148 10.954c.174 0 .313-.141.313-.314s-.139-.31-.313-.31a.313.313 0 0 0 0 .624zM7.851 7.213c.173 0 .314-.14.314-.313a.313.313 0 0 0-.314-.311.31.31 0 0 0-.31.311.31.31 0 0 0 .31.313zM7.403 12.716a.315.315 0 0 0-.316-.316.31.31 0 0 0-.307.316c0 .167.134.308.307.308a.314.314 0 0 0 .316-.308zM7.97 9.933a.316.316 0 0 0-.316.315.312.312 0 1 0 .316-.315zM9.211 12.258a.314.314 0 0 0 .316-.31.314.314 0 0 0-.316-.313.309.309 0 0 0-.308.313c0 .169.134.31.308.31zM9.469 8.368a.312.312 0 0 0-.624 0 .312.312 0 0 0 .624 0zM11.228 6.841a.312.312 0 0 0-.624 0c0 .175.141.315.31.315.173 0 .314-.14.314-.315zM12.105 8.655a.312.312 0 1 0 .004-.624.312.312 0 0 0-.004.624zM10.461 10.358c.174 0 .313-.14.313-.315a.307.307 0 0 0-.313-.308.312.312 0 0 0 0 .623zM11.797 12.343c.176 0 .31-.141.31-.308a.31.31 0 0 0-.31-.316.315.315 0 0 0-.314.316c0 .167.141.308.314.308zM13.213 10.018a.315.315 0 0 0-.313.314c0 .169.142.31.313.31a.31.31 0 0 0 .311-.31.31.31 0 0 0-.311-.314zM14.146 8.913c0 .174.139.31.313.31.172 0 .311-.136.311-.31s-.139-.313-.311-.313a.312.312 0 0 0-.313.313z"/><circle fill="param(fill)" cx="14.117" cy="12.739" r=".312"/><circle fill="param(fill)" cx="3.94" cy="5.199" r=".312"/><circle fill="param(fill)" cx="6.382" cy="4.944" r=".312"/><path fill="param(fill)" d="M3.458 7.327a.315.315 0 0 0 .314-.316.312.312 0 1 0-.314.316zM5.105 7.181c0 .176.14.316.316.316a.312.312 0 1 0-.316-.316zM2.324 9.083c0 .176.143.31.316.31a.308.308 0 0 0 .308-.31.312.312 0 0 0-.308-.313.315.315 0 0 0-.316.313zM4.619 9.677a.313.313 0 0 0 .316-.313.313.313 0 0 0-.316-.311.307.307 0 0 0-.307.311c0 .174.134.313.307.313z"/><circle fill="param(fill)" cx="6.721" cy="8.854" r=".312"/><path fill="param(fill)" d="M3.627 10.897a.312.312 0 0 0 0 .624.315.315 0 0 0 .314-.313.313.313 0 0 0-.314-.311zM5.761 10.842a.309.309 0 0 0-.316.308c0 .173.141.315.316.315a.314.314 0 0 0 .307-.315.307.307 0 0 0-.307-.308zM1.563 6.195a.315.315 0 0 0-.316-.316.314.314 0 0 0-.308.316c0 .174.141.308.308.308a.31.31 0 0 0 .316-.308zM.795 8.457a.309.309 0 0 0 .313-.31.318.318 0 0 0-.313-.314.317.317 0 0 0-.311.314c.001.176.14.31.311.31zM1.417 10.755a.313.313 0 0 0 .316-.313.313.313 0 0 0-.316-.311.31.31 0 0 0-.307.311.31.31 0 0 0 .307.313zM.823 13.053a.312.312 0 0 0 0 .624.315.315 0 0 0 .314-.316.313.313 0 0 0-.314-.308zM2.07 13.166a.311.311 0 1 0 0-.623.312.312 0 1 0 0 .623zM2.014 16.369a.31.31 0 0 0-.313-.313.31.31 0 0 0-.311.313.312.312 0 1 0 .624 0zM3.43 15.12a.315.315 0 0 0 .313-.316.311.311 0 1 0-.313.316zM3.711 16.424a.312.312 0 0 0 0 .624c.176 0 .316-.14.316-.311a.313.313 0 0 0-.316-.313zM5.643 15.23c0-.169-.14-.31-.307-.31a.315.315 0 0 0-.316.31c0 .174.143.314.316.314a.312.312 0 0 0 .307-.314zM4.992 13.14a.312.312 0 1 0-.625-.003.312.312 0 0 0 .625.003zM6.239 16.626c0 .174.139.308.313.308a.312.312 0 1 0-.313-.308zM8.021 14.326a.309.309 0 0 0-.309.308c0 .176.136.316.309.316s.315-.141.315-.316a.316.316 0 0 0-.315-.308zM7.881 18.325a.31.31 0 0 0-.311.308.31.31 0 0 0 .311.316.315.315 0 0 0 .313-.316.314.314 0 0 0-.313-.308zM8.957 17.359a.309.309 0 0 0 .314-.31.313.313 0 0 0-.314-.313.31.31 0 0 0-.31.313c0 .177.135.31.31.31zM10.348 13.902a.317.317 0 0 0-.311-.314c-.174 0-.313.147-.313.314s.139.31.313.31a.313.313 0 0 0 .311-.31zM12.478 13.816a.313.313 0 0 0-.314.308c0 .175.141.315.314.315a.31.31 0 0 0 .31-.315.31.31 0 0 0-.31-.308zM14.542 14.499c0 .167.141.308.316.308a.307.307 0 0 0 .307-.308.308.308 0 0 0-.307-.315.315.315 0 0 0-.316.315zM13.949 16.396a.311.311 0 1 0 0-.624.312.312 0 1 0 0 .624zM10.488 18.58a.315.315 0 0 0-.309.316.313.313 0 0 0 .624 0 .316.316 0 0 0-.315-.316zM11.314 15.801a.316.316 0 0 0-.316-.313.312.312 0 0 0 0 .625.317.317 0 0 0 .316-.312zM12.105 17.416a.314.314 0 0 0-.31.314c0 .176.141.31.31.31a.309.309 0 0 0 .314-.31.314.314 0 0 0-.314-.314zM14.032 19.09a.311.311 0 1 0 0 0zM15.59 17.842a.315.315 0 0 0 .315-.313.313.313 0 0 0-.624 0c0 .172.142.313.309.313z"/><circle fill="param(fill)" cx="17.493" cy="18.836" r=".312"/><path fill="param(fill)" d="M16.984 15.801a.311.311 0 1 0 0-.624.312.312 0 1 0 0 .624zM18.147 13.928c0 .173.141.314.308.314a.317.317 0 0 0 .316-.314.31.31 0 0 0-.316-.31.308.308 0 0 0-.308.31zM19.025 16.848a.314.314 0 0 0-.314-.31.313.313 0 0 0-.31.31c0 .174.141.314.31.314a.314.314 0 0 0 .314-.314zM19.958 15.093c0 .169.14.31.314.31.169 0 .31-.141.31-.31a.312.312 0 0 0-.624 0z"/><circle fill="param(fill)" cx="22.339" cy="14.524" r=".312"/><path fill="param(fill)" d="M24.465 14.327a.316.316 0 0 0 .316-.316.31.31 0 0 0-.316-.308.304.304 0 0 0-.308.308.31.31 0 0 0 .308.316zM21.659 20.051a.312.312 0 0 0 .313-.308.318.318 0 0 0-.313-.315.319.319 0 0 0-.311.315c0 .167.139.308.311.308zM20.157 18.327c0 .176.141.308.312.308s.312-.132.312-.308c0-.172-.141-.316-.312-.316s-.312.144-.312.316zM21.516 17.133a.313.313 0 1 0-.31-.313.313.313 0 0 0 .31.313zM23.276 18.069a.316.316 0 0 0-.312.31c0 .17.141.314.312.314a.317.317 0 0 0 .312-.314.316.316 0 0 0-.312-.31zM23.643 15.8a.312.312 0 1 0 .314.316.314.314 0 0 0-.314-.316zM25.482 15.063a.307.307 0 0 0-.307.311c0 .174.134.313.307.313a.312.312 0 1 0 0-.624zM25.262 17.188a.318.318 0 0 0-.317-.31.307.307 0 0 0-.307.31c0 .174.133.314.307.314a.318.318 0 0 0 .317-.314zM26.708 19.203c.169 0 .31-.141.31-.307a.314.314 0 0 0-.31-.316.315.315 0 0 0-.314.316c0 .167.141.307.314.307zM28.835 19.457a.312.312 0 1 0-.004.624.312.312 0 0 0 .004-.624zM30.927 18.809c-.163 0-.31.132-.31.308s.147.316.31.316c.174 0 .314-.141.314-.316s-.14-.308-.314-.308zM31.864 17.477a.308.308 0 0 0-.307-.315.315.315 0 0 0-.316.315.31.31 0 0 0 .316.308.305.305 0 0 0 .307-.308zM28.605 17.049a.31.31 0 1 0 0 .623.313.313 0 0 0 .313-.314.31.31 0 0 0-.313-.309zM26.929 16.68a.307.307 0 0 0-.308.311c0 .174.134.313.308.313.176 0 .316-.14.316-.313a.311.311 0 0 0-.316-.311zM28.376 15.573a.316.316 0 0 0 .316-.311c0-.173-.143-.313-.316-.313s-.308.141-.308.313c0 .171.135.311.308.311zM30.534 15.971c0 .171.146.312.304.312.172 0 .319-.141.319-.312s-.147-.313-.319-.313a.316.316 0 0 0-.304.313zM31.861 20.874a.311.311 0 1 0 .316.316.315.315 0 0 0-.316-.316zM31.837 23.539a.311.311 0 1 0-.313-.308c0 .167.139.308.313.308zM32.091 25.55c-.172 0-.311.141-.311.316s.139.307.311.307c.174 0 .313-.131.313-.307s-.139-.316-.313-.316zM29.43 24.387c0 .176.14.316.307.316a.315.315 0 0 0 .316-.316.311.311 0 1 0-.623 0zM26.846 24.447a.31.31 0 0 0-.31.316c0 .167.134.308.31.308a.313.313 0 0 0 .314-.308.315.315 0 0 0-.314-.316zM27.559 22.719a.313.313 0 0 0-.314.307c0 .176.141.316.314.316.169 0 .31-.141.31-.316a.312.312 0 0 0-.31-.307zM26.419 21.497c.175 0 .316-.14.316-.307a.315.315 0 0 0-.316-.316.31.31 0 0 0-.308.316c0 .167.134.307.308.307zM29.483 22.122c.173 0 .314-.139.314-.312s-.141-.312-.314-.312a.312.312 0 0 0 0 .624z"/><circle fill="param(fill)" cx="20.725" cy="24.986" r=".312"/><path fill="param(fill)" d="M21.065 22.178a.312.312 0 1 0-.002-.624.312.312 0 0 0 .002.624zM22.909 21.386c.176 0 .31-.145.31-.315a.302.302 0 0 0-.31-.308.308.308 0 0 0-.314.308c0 .17.141.315.314.315zM24.724 19.683a.31.31 0 0 0-.313.315.31.31 0 0 0 .313.308.31.31 0 0 0 .311-.308.31.31 0 0 0-.311-.315zM22.877 23.145a.314.314 0 0 0-.31.307c0 .176.143.316.31.316a.312.312 0 0 0 0-.623zM23.166 25.438a.314.314 0 0 0-.315.308c0 .175.142.315.315.315s.309-.141.309-.315a.31.31 0 0 0-.309-.308zM24.524 25.469a.312.312 0 1 0 0 0zM24.724 22.489a.311.311 0 0 0-.313.316.31.31 0 0 0 .313.308.312.312 0 1 0 0-.624z"/><circle fill="param(fill)" cx="18.6" cy="25.806" r=".312"/><path fill="param(fill)" d="M17.805 24.083a.312.312 0 1 0-.625-.007.312.312 0 0 0 .625.007zM18.004 21.469a.315.315 0 0 0-.312.316c0 .167.141.308.312.308a.313.313 0 0 0 .312-.308.314.314 0 0 0-.312-.316zM19.25 20.278c0 .173.141.313.31.313a.313.313 0 0 0 0-.625.312.312 0 0 0-.31.312zM19.507 22.918a.318.318 0 0 0-.319-.314.307.307 0 0 0-.304.314c0 .17.133.31.304.31.174 0 .319-.14.319-.31zM16.046 25.104a.312.312 0 1 0-.623-.007.312.312 0 0 0 .623.007zM13.185 25.47a.319.319 0 0 0-.316-.316c-.167 0-.308.147-.308.316s.141.308.308.308a.312.312 0 0 0 .316-.308zM10.438 26.09a.314.314 0 0 0-.316.31c0 .175.143.314.316.314a.312.312 0 0 0 0-.624zM10.828 24.136a.312.312 0 1 0 .008.624.312.312 0 0 0-.008-.624z"/><circle fill="param(fill)" cx="10.461" cy="21.98" r=".312"/><path fill="param(fill)" d="M12.019 19.882a.312.312 0 1 0 .008.624.312.312 0 0 0-.008-.624zM15.876 20.534a.315.315 0 0 0 .313-.315.307.307 0 0 0-.313-.308.306.306 0 0 0-.311.308c.001.175.14.315.311.315zM14.373 21.53a.314.314 0 0 0-.314-.316.312.312 0 1 0 .314.316zM12.731 22.918a.312.312 0 1 0-.624-.004.312.312 0 0 0 .624.004zM16.106 22.35a.313.313 0 0 0-.314.31c0 .174.141.313.314.313.167 0 .31-.14.31-.313a.313.313 0 0 0-.31-.31zM14.969 24.105a.311.311 0 1 0-.623 0 .311.311 0 1 0 .623 0zM2.211 18.896a.312.312 0 0 0 .624 0 .314.314 0 0 0-.314-.316.314.314 0 0 0-.31.316zM3.711 20.052a.312.312 0 0 0-.308.313.312.312 0 1 0 .624 0 .312.312 0 0 0-.316-.313zM3.346 22.125a.315.315 0 0 0-.315-.315.314.314 0 0 0-.308.315c0 .167.142.308.308.308a.314.314 0 0 0 .315-.308zM3.917 24.136a.314.314 0 0 0-.316.31c0 .175.141.314.316.314.173 0 .308-.14.308-.314a.308.308 0 0 0-.308-.31zM4.959 22.689a.314.314 0 0 0 .316-.312.315.315 0 0 0-.316-.313.31.31 0 0 0-.308.313.309.309 0 0 0 .308.312zM5.502 18.607a.315.315 0 0 0-.313-.313.315.315 0 0 0-.311.313.311.311 0 1 0 .624 0zM6.722 20.052a.311.311 0 0 0-.316-.312.305.305 0 0 0-.308.312c0 .171.134.312.308.312a.315.315 0 0 0 .316-.312zM7.743 21.92a.316.316 0 0 0-.323-.308.303.303 0 0 0-.301.308c0 .175.134.315.301.315a.32.32 0 0 0 .323-.315zM8.819 22.945a.313.313 0 0 0-.314.312c0 .169.141.313.314.313a.312.312 0 1 0 0-.625zM6.746 23.767a.31.31 0 0 0-.307.316c0 .167.134.308.307.308a.313.313 0 0 0 .316-.308.314.314 0 0 0-.316-.316z"/><circle fill="param(fill)" cx="8.787" cy="20.449" r=".312"/><path fill="param(fill)" d="M1.137 18.181a.312.312 0 1 0-.314.313c.173 0 .314-.14.314-.313zM1.452 20.022a.315.315 0 0 0-.316.316.312.312 0 0 0 .624 0 .314.314 0 0 0-.308-.316zM1.452 22.915a.315.315 0 0 0-.316.316.312.312 0 1 0 .316-.316zM.419 27.031a.313.313 0 0 0-.309.307c0 .176.143.316.309.316a.316.316 0 0 0 .315-.316.313.313 0 0 0-.315-.307zM1.774 27.653c-.159 0-.304.141-.304.316s.146.308.304.308c.174 0 .319-.132.319-.308s-.145-.316-.319-.316zM3.714 29.488a.307.307 0 0 0-.308-.308.313.313 0 0 0-.316.308c0 .176.141.316.316.316a.308.308 0 0 0 .308-.316z"/><circle fill="param(fill)" cx="5.445" cy="30.032" r=".312"/><path fill="param(fill)" d="M5.637 27.854a.313.313 0 1 0 .312.312.316.316 0 0 0-.312-.312zM4.591 26.265a.314.314 0 0 0-.314.312c0 .172.141.313.314.313a.313.313 0 0 0 0-.625zM2.47 25.381a.311.311 0 1 0 .307.312.311.311 0 0 0-.307-.312zM6.574 25.415a.312.312 0 1 0-.002.624.312.312 0 0 0 .002-.624zM7.566 27.74a.312.312 0 1 0 0-.624.309.309 0 0 0-.311.308.31.31 0 0 0 .311.316zM7.798 29.181a.312.312 0 1 0 0 0zM9.468 29.775a.312.312 0 1 0 .314.316.315.315 0 0 0-.314-.316zM9.417 28.358a.312.312 0 1 0-.316-.316.314.314 0 0 0 .316.316zM9.094 25.162a.314.314 0 0 0-.313-.316c-.172 0-.311.143-.311.316s.14.308.312.308a.307.307 0 0 0 .312-.308zM11.765 26.771a.312.312 0 0 0 0 .623.313.313 0 0 0 .314-.313.312.312 0 0 0-.314-.31z"/><circle fill="param(fill)" cx="11.425" cy="29.124" r=".312"/><path fill="param(fill)" d="M13.039 30.486c-.167 0-.307.139-.307.312a.31.31 0 1 0 .623 0 .313.313 0 0 0-.316-.312z"/><circle fill="param(fill)" cx="16.047" cy="31.052" r=".312"/><path fill="param(fill)" d="M14.799 29.664c-.174 0-.313.132-.313.308s.139.316.313.316c.171 0 .311-.141.311-.316s-.139-.308-.311-.308z"/><circle fill="param(fill)" cx="13.213" cy="28.584" r=".312"/><path fill="param(fill)" d="M14.175 26.972c0 .176.141.308.308.308a.308.308 0 0 0 .316-.308.312.312 0 0 0-.624 0z"/><circle fill="param(fill)" cx="15.393" cy="28.017" r=".312"/><path fill="param(fill)" d="M16.874 26.714a.313.313 0 0 0-.316.308c0 .175.141.315.316.315a.311.311 0 1 0 0-.623zM16.727 28.926a.312.312 0 1 0 .002.624.312.312 0 0 0-.002-.624zM18.711 28.017c-.169 0-.31.141-.31.316s.141.308.31.308c.173 0 .314-.132.314-.308s-.14-.316-.314-.316zM18.542 30.287a.312.312 0 1 0 .314.316.316.316 0 0 0-.314-.316zM20.24 29.123c-.167 0-.31.141-.31.316s.143.308.31.308c.173 0 .314-.132.314-.308s-.141-.316-.314-.316zM22.198 30.907a.31.31 0 0 0-.31-.308.31.31 0 0 0-.314.308.312.312 0 0 0 .624 0zM22.596 28.528a.313.313 0 0 0-.313.316c0 .171.139.307.313.307a.308.308 0 0 0 .311-.307.313.313 0 0 0-.311-.316zM21.295 26.885a.313.313 0 0 0-.316.308c0 .176.141.316.316.316a.313.313 0 0 0 .307-.316.311.311 0 0 0-.307-.308zM25.287 26.685a.31.31 0 0 0-.31.314.312.312 0 1 0 .31-.314zM24.611 30.43a.312.312 0 0 0 .311-.313.311.311 0 1 0-.624 0c0 .174.139.313.313.313zM26.479 28.841a.311.311 0 1 0 0 .623.311.311 0 0 0 0-.623zM28.437 26.852a.314.314 0 0 0-.316-.307.307.307 0 0 0-.308.307c0 .176.134.316.308.316a.315.315 0 0 0 .316-.316zM30.308 26.292a.314.314 0 0 0-.314-.316.315.315 0 0 0-.31.316.31.31 0 0 0 .31.307.31.31 0 0 0 .314-.307zM30.787 27.422a.311.311 0 0 0-.311.316c0 .171.135.308.311.308s.313-.137.313-.308a.313.313 0 0 0-.313-.316zM30.734 29.181a.313.313 0 0 0-.314.308.312.312 0 1 0 .624 0 .309.309 0 0 0-.31-.308z"/><circle fill="param(fill)" cx="28.522" cy="29.379" r=".312"/><path fill="param(fill)" d="M1.333 30.824c-.169 0-.31.141-.31.316s.141.308.31.308c.174 0 .314-.132.314-.308s-.14-.316-.314-.316zM7.592 31.023a.3.3 0 0 0-.304.308c0 .171.132.315.304.315a.321.321 0 0 0 .319-.315.31.31 0 0 0-.319-.308zM19.678 31.137a.31.31 0 0 0-.316.312c0 .17.141.313.316.313a.314.314 0 0 0 .307-.313.308.308 0 0 0-.307-.312zM24.67 31.729a.315.315 0 0 0-.316.316.312.312 0 1 0 .316-.316zM27.076 31.137a.308.308 0 0 0-.313.312c0 .17.139.313.313.313a.314.314 0 0 0 .311-.313.309.309 0 0 0-.311-.312zM31.92 31.023a.306.306 0 0 0-.311.308c0 .171.139.315.311.315a.316.316 0 0 0 .313-.315.306.306 0 0 0-.313-.308zM29.543 30.938c-.174 0-.313.129-.313.306s.139.318.313.318c.171 0 .311-.142.311-.318s-.14-.306-.311-.306zM11.374 31.561a.315.315 0 0 0-.316.316c0 .167.141.307.316.307.173 0 .308-.14.308-.307a.31.31 0 0 0-.308-.316zM14.399 31.704c-.169 0-.31.131-.31.307s.141.316.31.316c.173 0 .314-.141.314-.316s-.14-.307-.314-.307zM3.576 30.967a.312.312 0 0 0-.316.31c0 .168.141.313.316.313a.312.312 0 0 0 .308-.313.305.305 0 0 0-.308-.31zM5.216 31.618c-.173 0-.31.132-.31.308s.136.316.31.316.314-.141.314-.316-.14-.308-.314-.308z"/><circle fill="param(fill)" cx="17.665" cy="1.543" r=".312"/><path fill="param(fill)" d="M21.6 1.885a.315.315 0 0 0 .316-.316.308.308 0 0 0-.316-.307.307.307 0 0 0-.308.307c0 .175.141.316.308.316zM3.005.241c0 .169.141.31.314.31s.31-.141.31-.31A.313.313 0 0 0 3.517 0H3.12a.315.315 0 0 0-.115.241zM5.165 1.316a.314.314 0 0 0 .308-.31.312.312 0 0 0-.308-.313.316.316 0 0 0-.316.313c0 .168.143.31.316.31z"/><circle fill="param(fill)" cx="7.233" cy=".551" r=".312"/><path fill="param(fill)" d="M11.033 1.316a.31.31 0 0 0 .308-.31.308.308 0 0 0-.308-.313.314.314 0 0 0-.316.313c0 .168.14.31.316.31zM14.032 1.571a.312.312 0 1 0 .002-.624.312.312 0 0 0-.002.624zM16.157 1.034c.176 0 .316-.143.316-.315s-.14-.309-.316-.309c-.173 0-.308.136-.308.309s.135.315.308.315zM20.153.778a.315.315 0 0 0 .316-.315.31.31 0 0 0-.316-.308.307.307 0 0 0-.308.308c0 .175.141.315.308.315zM23.422 1.26c.174 0 .308-.141.308-.312s-.134-.312-.308-.312c-.176 0-.316.141-.316.312s.14.312.316.312zM28.408.227A.303.303 0 0 0 28.702 0h-.597c.038.13.158.227.303.227zM28.715 33.08a.308.308 0 0 0-.308-.312.315.315 0 0 0-.316.312c0 .03.005.059.013.086h.597a.272.272 0 0 0 .014-.086zM25.543.209a.312.312 0 1 0 .624 0A.304.304 0 0 0 26.084 0h-.459a.308.308 0 0 0-.082.209zM1.219.026c0 .175.134.314.31.314.173 0 .314-.14.314-.314L1.84 0h-.618l-.003.026zM12.189.031c0 .169.14.31.314.31a.31.31 0 0 0 .31-.31c0-.011-.002-.021-.003-.031h-.618l-.003.031zM30.452 32.524a.315.315 0 0 0-.315.314.313.313 0 1 0 .315-.314z"/><circle fill="param(fill)" cx="22.339" cy="32.836" r=".312"/><path fill="param(fill)" d="M17.894 32.1a.315.315 0 0 0-.316.312.312.312 0 1 0 .624 0 .31.31 0 0 0-.308-.312zM9.127 32.27c-.176 0-.31.14-.31.31 0 .175.134.314.31.314a.312.312 0 1 0 0-.624zM3.319 33.093a.31.31 0 0 0-.199.073h.396a.3.3 0 0 0-.197-.073zM25.857 33.064a.31.31 0 0 0-.232.102h.459a.31.31 0 0 0-.227-.102zM1.529 32.882a.306.306 0 0 0-.307.284h.618a.312.312 0 0 0-.311-.284zM12.503 32.882a.314.314 0 0 0-.311.284h.618a.31.31 0 0 0-.307-.284zM.005 15.563a.308.308 0 0 0 .307-.313.308.308 0 0 0-.307-.312L0 14.939v.622l.005.002zM32.287 15.25c0 .17.139.31.312.312v-.623a.313.313 0 0 0-.312.311z"/><path fill="none" d="M0 .001h32.599v33.165H0z"/></svg>