<svg xmlns="http://www.w3.org/2000/svg" width="39.685" height="39.685" viewBox="0 0 39.685 39.685"><path fill="none" stroke="black" stroke-width="1" d="M16.225 36.286c2.435-.685 3.186-.016 2.074 1.886-.985 1.68-5.003-1.06-2.074-1.886zM6.239 32.98c.903-1.478 4.273 1.544 2.073 1.885-1.347.209-3.644.685-2.073-1.885zM14.564 25.991c.904-1.479 4.198.348 2.071 1.885-1.094.795-3.642.684-2.071-1.885zM5.234 23.069c1.181-1.277 4.047 1.149 1.658 2.247-1.235.569-3.71-.031-1.658-2.247z"/><path fill="param(fill)" d="M11.719 34.898c0 .219-.18.396-.401.396a.399.399 0 0 1-.401-.396c0-.218.18-.395.401-.395a.4.4 0 0 1 .401.395M12.322 38.159c0 .219-.18.396-.401.396a.399.399 0 0 1-.402-.396.4.4 0 0 1 .402-.396.4.4 0 0 1 .401.396M8.239 37.237c0 .218-.179.396-.401.396s-.402-.178-.402-.396.18-.395.402-.395.401.178.401.395M5.261 37.5c0 .221-.18.397-.402.397a.399.399 0 0 1-.401-.397.4.4 0 0 1 .401-.395.4.4 0 0 1 .402.395M2.35 38.259c0 .219-.18.395-.401.395a.398.398 0 0 1-.402-.395c0-.218.18-.395.402-.395a.4.4 0 0 1 .401.395M3.554 34.306c0 .219-.18.396-.401.396a.398.398 0 0 1-.401-.396c0-.218.179-.396.401-.396a.398.398 0 0 1 .401.396M10.916 31.736a.4.4 0 0 1-.402.396c-.222 0-.401-.178-.401-.396s.179-.396.401-.396a.4.4 0 0 1 .402.396M5.06 30.782c0 .217-.18.395-.402.395s-.401-.178-.401-.395c0-.22.179-.396.401-.396s.402.177.402.396M1.78 30.979c0 .218-.18.395-.401.395s-.401-.177-.401-.395c0-.217.18-.395.401-.395s.401.178.401.395M14.798 34.141c0 .219-.18.396-.401.396a.4.4 0 0 1-.402-.396c0-.218.18-.395.402-.395.221 0 .401.177.401.395M14.966 30.813c0 .219-.18.395-.402.395s-.402-.176-.402-.395c0-.218.18-.396.402-.396s.402.179.402.396M8.875 28.869c0 .221-.179.397-.401.397s-.402-.177-.402-.397c0-.217.18-.395.402-.395s.401.178.401.395M11.82 27.553a.397.397 0 0 1-.401.395.398.398 0 0 1-.402-.395c0-.218.18-.395.402-.395.222 0 .401.177.401.395M5.897 27.257a.4.4 0 0 1-.402.396.4.4 0 0 1-.401-.396c0-.219.18-.396.401-.396.222 0 .402.177.402.396M2.316 26.895c0 .218-.18.396-.401.396s-.402-.178-.402-.396c0-.22.18-.396.402-.396s.401.176.401.396M3.22 21.953c0 .219-.18.395-.402.395s-.402-.176-.402-.395.18-.396.402-.396.402.177.402.396M7.001 20.932a.4.4 0 0 1-.402.396c-.221 0-.401-.178-.401-.396s.18-.396.401-.396a.4.4 0 0 1 .402.396M10.046 22.052c0 .22-.18.396-.402.396a.398.398 0 0 1-.402-.396c0-.219.18-.396.402-.396.223 0 .402.177.402.396M9.377 25.411c0 .219-.179.396-.401.396s-.402-.177-.402-.396c0-.218.18-.396.402-.396s.401.178.401.396M12.355 23.798c0 .219-.181.395-.402.395s-.401-.176-.401-.395.18-.395.401-.395.402.176.402.395M14.865 21.854a.4.4 0 0 1-.401.396.4.4 0 0 1-.402-.396c0-.219.18-.396.402-.396a.4.4 0 0 1 .401.396M19.148 21.195c0 .219-.18.395-.401.395s-.401-.176-.401-.395a.4.4 0 1 1 .802 0M18.981 24.687c0 .219-.18.396-.402.396s-.401-.177-.401-.396c0-.218.18-.395.401-.395s.402.177.402.395M18.78 29.497c0 .218-.18.395-.402.395s-.401-.177-.401-.395c0-.22.179-.396.401-.396s.402.176.402.396M18.612 33.252c0 .219-.18.395-.401.395-.222 0-.402-.176-.402-.395s.181-.396.402-.396c.222 0 .401.177.401.396"/><path fill="none" d="M0 0h39.685v39.685H0z"/><g><path fill="none" stroke="black" stroke-width="1" d="M35.783 36.286c2.435-.685 3.186-.016 2.074 1.886-.984 1.68-5.002-1.06-2.074-1.886zM25.797 32.98c.903-1.478 4.273 1.544 2.073 1.885-1.347.209-3.643.685-2.073-1.885zM34.123 25.991c.904-1.479 4.198.348 2.071 1.885-1.095.795-3.642.684-2.071-1.885zM24.793 23.069c1.181-1.277 4.047 1.149 1.658 2.247-1.235.569-3.71-.031-1.658-2.247z"/><path fill="param(fill)" d="M31.277 34.898c0 .219-.18.396-.401.396a.399.399 0 0 1-.401-.396c0-.218.18-.395.401-.395a.4.4 0 0 1 .401.395M31.88 38.159c0 .219-.18.396-.401.396a.399.399 0 0 1-.402-.396.4.4 0 0 1 .402-.396.4.4 0 0 1 .401.396M27.797 37.237c0 .218-.179.396-.401.396s-.402-.178-.402-.396.18-.395.402-.395.401.178.401.395M24.82 37.5c0 .221-.18.397-.402.397a.399.399 0 0 1-.401-.397.4.4 0 0 1 .401-.395.4.4 0 0 1 .402.395M21.908 38.259c0 .219-.18.395-.401.395a.398.398 0 0 1-.402-.395c0-.218.18-.395.402-.395.221 0 .401.177.401.395M23.113 34.306c0 .219-.18.396-.401.396a.398.398 0 0 1-.401-.396c0-.218.179-.396.401-.396a.399.399 0 0 1 .401.396M30.475 31.736a.4.4 0 0 1-.402.396c-.222 0-.401-.178-.401-.396s.179-.396.401-.396a.4.4 0 0 1 .402.396M24.619 30.782c0 .217-.18.395-.402.395s-.401-.178-.401-.395c0-.22.179-.396.401-.396s.402.177.402.396M21.339 30.979c0 .218-.18.395-.401.395s-.401-.177-.401-.395c0-.217.18-.395.401-.395s.401.178.401.395M34.356 34.141c0 .219-.18.396-.401.396a.4.4 0 0 1-.402-.396c0-.218.18-.395.402-.395.221 0 .401.177.401.395M34.524 30.813c0 .219-.18.395-.402.395s-.402-.176-.402-.395c0-.218.18-.396.402-.396s.402.179.402.396M28.434 28.869c0 .221-.179.397-.401.397s-.402-.177-.402-.397c0-.217.18-.395.402-.395s.401.178.401.395M31.378 27.553a.397.397 0 0 1-.401.395.398.398 0 0 1-.402-.395c0-.218.18-.395.402-.395.222 0 .401.177.401.395M25.456 27.257a.4.4 0 0 1-.402.396.4.4 0 0 1-.401-.396c0-.219.18-.396.401-.396a.4.4 0 0 1 .402.396M21.875 26.895c0 .218-.18.396-.401.396s-.402-.178-.402-.396c0-.22.18-.396.402-.396s.401.176.401.396M22.778 21.953c0 .219-.18.395-.402.395s-.402-.176-.402-.395.18-.396.402-.396.402.177.402.396M26.56 20.932a.4.4 0 0 1-.402.396c-.221 0-.401-.178-.401-.396s.18-.396.401-.396a.4.4 0 0 1 .402.396M29.605 22.052c0 .22-.18.396-.402.396a.398.398 0 0 1-.402-.396c0-.219.18-.396.402-.396.222 0 .402.177.402.396M28.936 25.411c0 .219-.179.396-.401.396s-.402-.177-.402-.396c0-.218.18-.396.402-.396s.401.178.401.396M31.914 23.798c0 .219-.181.395-.402.395s-.401-.176-.401-.395.18-.395.401-.395.402.176.402.395M34.423 21.854a.4.4 0 0 1-.401.396.4.4 0 0 1-.402-.396c0-.219.18-.396.402-.396a.4.4 0 0 1 .401.396M38.707 21.195c0 .219-.18.395-.401.395s-.401-.176-.401-.395a.4.4 0 1 1 .802 0M38.54 24.687c0 .219-.18.396-.402.396s-.401-.177-.401-.396c0-.218.18-.395.401-.395s.402.177.402.395M38.339 29.497c0 .218-.18.395-.402.395s-.401-.177-.401-.395c0-.22.179-.396.401-.396s.402.176.402.396M38.171 33.252c0 .219-.18.395-.401.395-.222 0-.402-.176-.402-.395s.181-.396.402-.396c.221 0 .401.177.401.396"/></g><g><path fill="none" stroke="black" stroke-width="1" d="M16.225 16.727c2.435-.685 3.186-.016 2.074 1.886-.985 1.679-5.003-1.06-2.074-1.886zM6.239 13.421c.903-1.478 4.273 1.544 2.073 1.885-1.347.209-3.644.684-2.073-1.885zM14.564 6.432c.904-1.479 4.198.348 2.071 1.885-1.094.794-3.642.683-2.071-1.885zM5.234 3.51c1.181-1.277 4.047 1.149 1.658 2.247-1.235.568-3.71-.031-1.658-2.247z"/><path fill="param(fill)" d="M11.719 15.339c0 .219-.18.396-.401.396a.399.399 0 0 1-.401-.396c0-.218.18-.395.401-.395.221 0 .401.177.401.395M12.322 18.6c0 .219-.18.396-.401.396a.399.399 0 0 1-.402-.396.4.4 0 0 1 .402-.396.4.4 0 0 1 .401.396M8.239 17.678c0 .218-.179.396-.401.396s-.402-.178-.402-.396.18-.395.402-.395.401.177.401.395M5.261 17.94c0 .221-.18.397-.402.397a.399.399 0 0 1-.401-.397.4.4 0 0 1 .401-.395.4.4 0 0 1 .402.395M2.35 18.699c0 .219-.18.395-.401.395a.398.398 0 0 1-.402-.395c0-.218.18-.395.402-.395a.4.4 0 0 1 .401.395M3.554 14.746c0 .219-.18.396-.401.396a.398.398 0 0 1-.401-.396c0-.218.179-.396.401-.396.222 0 .401.178.401.396M10.916 12.177a.4.4 0 0 1-.402.396c-.222 0-.401-.178-.401-.396s.179-.396.401-.396a.4.4 0 0 1 .402.396M5.06 11.223c0 .217-.18.395-.402.395s-.401-.178-.401-.395c0-.22.179-.396.401-.396s.402.176.402.396M1.78 11.419c0 .218-.18.395-.401.395s-.401-.177-.401-.395c0-.217.18-.395.401-.395s.401.178.401.395M14.798 14.581c0 .219-.18.396-.401.396a.4.4 0 0 1-.402-.396c0-.218.18-.395.402-.395a.4.4 0 0 1 .401.395M14.966 11.254c0 .219-.18.395-.402.395s-.402-.176-.402-.395c0-.218.18-.396.402-.396s.402.178.402.396M8.875 9.31c0 .221-.179.397-.401.397s-.402-.177-.402-.397c0-.217.18-.395.402-.395s.401.178.401.395M11.82 7.993a.397.397 0 0 1-.401.395.398.398 0 0 1-.402-.395c0-.218.18-.395.402-.395a.398.398 0 0 1 .401.395M5.897 7.697a.4.4 0 0 1-.402.396.4.4 0 0 1-.401-.396c0-.219.18-.396.401-.396a.4.4 0 0 1 .402.396M2.316 7.335c0 .218-.18.396-.401.396s-.402-.178-.402-.396c0-.22.18-.396.402-.396s.401.176.401.396M3.22 2.394c0 .219-.18.395-.402.395s-.402-.177-.402-.395.18-.396.402-.396.402.177.402.396M7.001 1.372a.4.4 0 0 1-.402.396c-.221 0-.401-.178-.401-.396s.18-.396.401-.396a.4.4 0 0 1 .402.396M10.046 2.492c0 .22-.18.396-.402.396a.398.398 0 0 1-.402-.396c0-.219.18-.396.402-.396a.399.399 0 0 1 .402.396M9.377 5.852c0 .219-.179.396-.401.396s-.402-.178-.402-.396c0-.218.18-.396.402-.396s.401.178.401.396M12.355 4.238c0 .219-.181.395-.402.395s-.401-.176-.401-.395.18-.395.401-.395.402.177.402.395M14.865 2.295a.4.4 0 0 1-.401.396.4.4 0 0 1-.402-.396c0-.219.18-.396.402-.396.221 0 .401.177.401.396M19.148 1.636c0 .219-.18.395-.401.395s-.401-.176-.401-.395c0-.217.18-.396.401-.396s.401.179.401.396M18.981 5.127c0 .219-.18.396-.402.396s-.401-.177-.401-.396c0-.218.18-.395.401-.395s.402.177.402.395M18.78 9.938c0 .218-.18.395-.402.395s-.401-.177-.401-.395c0-.22.179-.396.401-.396s.402.176.402.396M18.612 13.692c0 .219-.18.395-.401.395-.222 0-.402-.176-.402-.395s.181-.396.402-.396a.4.4 0 0 1 .401.396"/></g><g><path fill="none" stroke="black" stroke-width="1" d="M35.783 16.727c2.435-.685 3.186-.016 2.074 1.886-.984 1.679-5.002-1.06-2.074-1.886zM25.797 13.421c.903-1.478 4.273 1.544 2.073 1.885-1.347.209-3.643.684-2.073-1.885zM34.123 6.432c.904-1.479 4.198.348 2.071 1.885-1.095.794-3.642.683-2.071-1.885zM24.793 3.51c1.181-1.277 4.047 1.149 1.658 2.247-1.235.568-3.71-.031-1.658-2.247z"/><path fill="param(fill)" d="M31.277 15.339c0 .219-.18.396-.401.396a.399.399 0 0 1-.401-.396c0-.218.18-.395.401-.395.222 0 .401.177.401.395M31.88 18.6c0 .219-.18.396-.401.396a.399.399 0 0 1-.402-.396.4.4 0 0 1 .402-.396c.222 0 .401.178.401.396M27.797 17.678c0 .218-.179.396-.401.396s-.402-.178-.402-.396.18-.395.402-.395.401.177.401.395M24.82 17.94c0 .221-.18.397-.402.397a.399.399 0 0 1-.401-.397.4.4 0 0 1 .401-.395.4.4 0 0 1 .402.395M21.908 18.699c0 .219-.18.395-.401.395a.398.398 0 0 1-.402-.395c0-.218.18-.395.402-.395a.4.4 0 0 1 .401.395M23.113 14.746c0 .219-.18.396-.401.396a.398.398 0 0 1-.401-.396c0-.218.179-.396.401-.396a.4.4 0 0 1 .401.396M30.475 12.177a.4.4 0 0 1-.402.396c-.222 0-.401-.178-.401-.396s.179-.396.401-.396a.4.4 0 0 1 .402.396M24.619 11.223c0 .217-.18.395-.402.395s-.401-.178-.401-.395c0-.22.179-.396.401-.396s.402.176.402.396M21.339 11.419c0 .218-.18.395-.401.395s-.401-.177-.401-.395c0-.217.18-.395.401-.395s.401.178.401.395M34.356 14.581c0 .219-.18.396-.401.396a.4.4 0 0 1-.402-.396c0-.218.18-.395.402-.395a.4.4 0 0 1 .401.395M34.524 11.254c0 .219-.18.395-.402.395s-.402-.176-.402-.395c0-.218.18-.396.402-.396s.402.178.402.396M28.434 9.31c0 .221-.179.397-.401.397s-.403-.177-.403-.397c0-.217.18-.395.402-.395s.402.178.402.395M31.378 7.993a.397.397 0 0 1-.401.395.398.398 0 0 1-.402-.395c0-.218.18-.395.402-.395a.398.398 0 0 1 .401.395M25.456 7.697a.4.4 0 0 1-.402.396.4.4 0 0 1-.401-.396c0-.219.18-.396.401-.396a.4.4 0 0 1 .402.396M21.875 7.335c0 .218-.18.396-.401.396s-.402-.178-.402-.396c0-.22.18-.396.402-.396s.401.176.401.396M22.778 2.394c0 .219-.18.395-.402.395s-.402-.176-.402-.395.18-.396.402-.396.402.177.402.396M26.56 1.372a.4.4 0 0 1-.402.396c-.221 0-.401-.178-.401-.396s.18-.396.401-.396a.4.4 0 0 1 .402.396M29.605 2.492c0 .22-.18.396-.402.396a.398.398 0 0 1-.402-.396c0-.219.18-.396.402-.396a.4.4 0 0 1 .402.396M28.936 5.852c0 .219-.179.396-.401.396s-.402-.177-.402-.396c0-.218.18-.396.402-.396s.401.178.401.396M31.914 4.238c0 .219-.181.395-.402.395s-.401-.176-.401-.395.18-.395.401-.395.402.177.402.395M34.423 2.295a.4.4 0 0 1-.401.396.4.4 0 0 1-.402-.396c0-.219.18-.396.402-.396.222 0 .401.177.401.396M38.707 1.636c0 .219-.18.395-.401.395s-.401-.176-.401-.395c0-.217.18-.396.401-.396s.401.179.401.396M38.54 5.127c0 .219-.18.396-.402.396s-.401-.177-.401-.396c0-.218.18-.395.401-.395s.402.177.402.395M38.339 9.938c0 .218-.18.395-.402.395s-.401-.177-.401-.395c0-.22.179-.396.401-.396s.402.176.402.396M38.171 13.692c0 .219-.18.395-.401.395-.222 0-.402-.176-.402-.395s.181-.396.402-.396a.4.4 0 0 1 .401.396"/></g></svg>
