<svg xmlns="http://www.w3.org/2000/svg" width="45.354" height="45.354" viewBox="0 0 45.354 45.354"><path fill="param(fill)" d="M13.898 15.096c0 .673.548 1.221 1.221 1.221s1.221-.548 1.221-1.221a1.222 1.222 0 0 0-2.442 0zm.407 0a.814.814 0 0 1 1.628 0 .815.815 0 0 1-1.628 0zM12.083 3.7a1.223 1.223 0 0 0 2.444 0 1.222 1.222 0 0 0-2.444 0zm.407 0a.816.816 0 0 1 1.63 0 .814.814 0 0 1-1.63 0zM10.426 7.385a1.22 1.22 0 1 0 2.442 0 1.22 1.22 0 0 0-2.442 0zm.407 0a.815.815 0 0 1 1.629 0 .814.814 0 0 1-1.629 0zM8.596 12.927a1.22 1.22 0 0 0 2.442 0 1.222 1.222 0 0 0-2.442 0zm.407 0a.814.814 0 1 1 1.628 0 .813.813 0 1 1-1.628 0zM12.257 10.896a1.222 1.222 0 0 0 2.444 0 1.222 1.222 0 0 0-2.444 0zm.408 0a.815.815 0 0 1 1.629 0 .814.814 0 0 1-1.629 0zM15.759 5.456a1.22 1.22 0 1 0 2.44-.004 1.22 1.22 0 0 0-2.44.004zm.407 0a.815.815 0 0 1 1.628 0 .814.814 0 0 1-1.628 0zM29.017 15.096a1.222 1.222 0 0 0 2.442 0 1.22 1.22 0 1 0-2.442 0zm.407 0a.813.813 0 1 1 1.626.002.813.813 0 0 1-1.626-.002zM17.933 15.081a1.22 1.22 0 0 0 2.441 0 1.22 1.22 0 1 0-2.441 0zm.406 0a.813.813 0 0 1 1.628 0 .815.815 0 0 1-1.628 0zM19.817 3.874a1.223 1.223 0 0 0 2.443 0 1.22 1.22 0 0 0-2.443 0zm.408 0a.814.814 0 0 1 1.627 0 .814.814 0 0 1-1.627 0zM27.202 3.7a1.221 1.221 0 1 0 2.442-.002 1.221 1.221 0 0 0-2.442.002zm.407 0a.815.815 0 0 1 1.63 0 .815.815 0 0 1-1.63 0zM25.545 7.385a1.222 1.222 0 0 0 2.442 0 1.221 1.221 0 0 0-2.442 0zm.408 0a.813.813 0 0 1 1.628 0 .815.815 0 0 1-1.628 0zM21.882 7.646a1.222 1.222 0 0 0 2.442 0 1.222 1.222 0 0 0-2.442 0zm.408 0a.814.814 0 0 1 1.627 0 .814.814 0 0 1-1.627 0zM15.922 9.387c0 .673.548 1.221 1.221 1.221s1.221-.548 1.221-1.221a1.222 1.222 0 0 0-2.442 0zm.408 0a.814.814 0 0 1 1.627 0 .815.815 0 0 1-1.627 0zM20.137 11.157c0 .673.548 1.221 1.221 1.221s1.221-.548 1.221-1.221a1.222 1.222 0 0 0-2.442 0zm.407 0a.814.814 0 1 1 1.627.003.814.814 0 0 1-1.627-.003zM23.715 12.927a1.22 1.22 0 0 0 2.44 0 1.22 1.22 0 0 0-2.44 0zm.407 0a.812.812 0 1 1 1.625.003.812.812 0 0 1-1.625-.003zM27.376 10.896a1.222 1.222 0 0 0 2.444 0 1.222 1.222 0 0 0-2.444 0zm.408 0a.814.814 0 0 1 1.629 0 .815.815 0 0 1-1.629 0zM30.876 5.456a1.221 1.221 0 0 0 2.444 0 1.223 1.223 0 0 0-2.444 0zm.407 0a.815.815 0 0 1 1.629 0 .813.813 0 0 1-1.629 0zM33.048 15.081a1.223 1.223 0 0 0 2.444 0 1.222 1.222 0 0 0-2.444 0zm.407 0a.815.815 0 0 1 1.629 0 .814.814 0 0 1-1.629 0zM34.937 3.874a1.222 1.222 0 0 0 2.443 0 1.222 1.222 0 0 0-2.443 0zm.407 0a.813.813 0 1 1 1.627.003.813.813 0 0 1-1.627-.003zM37 7.646a1.222 1.222 0 0 0 2.442 0 1.221 1.221 0 0 0-2.442 0zm.407 0a.815.815 0 0 1 1.628 0 .814.814 0 0 1-1.628 0zM31.04 9.387a1.222 1.222 0 0 0 2.442 0 1.22 1.22 0 0 0-2.442 0zm.406 0a.815.815 0 0 1 1.629 0 .814.814 0 0 1-1.629 0zM35.256 11.157a1.222 1.222 0 0 0 2.442 0 1.22 1.22 0 1 0-2.442 0zm.407 0a.814.814 0 0 1 1.628 0 .815.815 0 0 1-1.628 0zM13.898 30.214a1.222 1.222 0 0 0 2.442 0 1.222 1.222 0 0 0-2.442 0zm.407 0a.814.814 0 0 1 1.628 0 .814.814 0 0 1-1.628 0zM8.364 16.99a1.22 1.22 0 0 0 2.44 0c0-.673-.548-1.22-1.221-1.22a1.221 1.221 0 0 0-1.219 1.22zm.407 0a.814.814 0 1 1 1.627.001.814.814 0 0 1-1.627-.001zM12.083 18.817a1.223 1.223 0 0 0 2.444 0 1.223 1.223 0 0 0-2.444 0zm.407 0a.815.815 0 0 1 1.63 0 .815.815 0 0 1-1.63 0zM10.426 22.504a1.222 1.222 0 0 0 2.442 0 1.221 1.221 0 0 0-2.442 0zm.407 0a.815.815 0 0 1 1.629 0 .814.814 0 0 1-1.629 0zM8.596 28.045a1.222 1.222 0 0 0 2.442 0 1.221 1.221 0 0 0-2.442 0zm.407 0a.814.814 0 1 1 1.628 0 .813.813 0 1 1-1.628 0zM12.257 26.016a1.222 1.222 0 0 0 2.444 0 1.223 1.223 0 0 0-2.444 0zm.408 0a.816.816 0 0 1 1.629 0 .814.814 0 0 1-1.629 0zM15.759 20.573a1.22 1.22 0 0 0 2.442 0 1.222 1.222 0 0 0-2.442 0zm.407 0a.815.815 0 0 1 1.628 0 .814.814 0 0 1-1.628 0zM29.017 30.214a1.22 1.22 0 0 0 2.442 0 1.22 1.22 0 1 0-2.442 0zm.407 0a.813.813 0 1 1 1.626.002.813.813 0 0 1-1.626-.002zM17.933 30.198a1.22 1.22 0 1 0 2.442-.002 1.22 1.22 0 0 0-2.442.002zm.406 0a.814.814 0 0 1 1.628 0 .815.815 0 0 1-1.628 0zM19.817 18.992a1.222 1.222 0 0 0 2.443 0 1.223 1.223 0 0 0-2.443 0zm.408 0a.815.815 0 0 1 1.627 0 .814.814 0 0 1-1.627 0zM23.481 16.99a1.221 1.221 0 1 0 1.221-1.22 1.223 1.223 0 0 0-1.221 1.22zm.407 0a.815.815 0 0 1 1.627 0 .814.814 0 0 1-1.627 0zM27.202 18.817a1.221 1.221 0 0 0 2.444 0 1.221 1.221 0 0 0-2.444 0zm.407 0c0-.447.365-.811.814-.811.45 0 .816.363.816.811a.816.816 0 0 1-1.63 0zM25.545 22.504a1.222 1.222 0 0 0 2.442 0 1.222 1.222 0 0 0-2.442 0zm.408 0a.815.815 0 0 1 1.628 0 .814.814 0 0 1-1.628 0zM21.882 22.765a1.222 1.222 0 0 0 2.442 0 1.222 1.222 0 0 0-2.442 0zm.408 0a.814.814 0 0 1 1.627 0 .815.815 0 0 1-1.627 0zM15.922 24.505a1.222 1.222 0 0 0 2.442 0 1.222 1.222 0 0 0-2.442 0zm.408 0a.814.814 0 0 1 1.627 0 .814.814 0 0 1-1.627 0zM20.137 26.275a1.222 1.222 0 0 0 2.442 0c0-.672-.548-1.22-1.221-1.22a1.224 1.224 0 0 0-1.221 1.22zm.407 0a.814.814 0 1 1 .814.812.814.814 0 0 1-.814-.812zM23.715 28.045c0 .673.547 1.221 1.219 1.221a1.22 1.22 0 1 0-1.219-1.221zm.407 0a.812.812 0 1 1 1.625.003.812.812 0 0 1-1.625-.003zM27.376 26.016a1.222 1.222 0 1 0 2.443-.005 1.222 1.222 0 0 0-2.443.005zm.408 0a.815.815 0 0 1 1.629 0 .815.815 0 0 1-1.629 0zM30.876 20.573a1.222 1.222 0 0 0 2.444 0 1.222 1.222 0 0 0-2.444 0zm.407 0a.815.815 0 0 1 1.629 0 .814.814 0 1 1-1.629 0zM33.048 30.198a1.223 1.223 0 0 0 2.444 0 1.223 1.223 0 0 0-2.444 0zm.407 0a.816.816 0 0 1 1.629 0 .814.814 0 0 1-1.629 0zM34.937 18.992a1.22 1.22 0 0 0 2.443 0 1.221 1.221 0 1 0-2.443 0zm.407 0a.814.814 0 1 1 1.627.001.814.814 0 0 1-1.627-.001zM37 22.765a1.222 1.222 0 0 0 2.442 0 1.221 1.221 0 0 0-2.442 0zm.407 0a.815.815 0 0 1 1.628 0 .814.814 0 0 1-1.628 0zM31.04 24.505a1.222 1.222 0 0 0 2.442 0 1.22 1.22 0 0 0-2.442 0zm.406 0a.815.815 0 0 1 1.629 0 .813.813 0 0 1-1.629 0zM35.256 26.275a1.22 1.22 0 1 0 2.441-.003 1.22 1.22 0 0 0-2.441.003zm.407 0a.814.814 0 0 1 1.628 0 .815.815 0 0 1-1.628 0zM8.364 32.108a1.22 1.22 0 0 0 2.44 0 1.221 1.221 0 0 0-2.44 0zm.407 0a.814.814 0 0 1 1.626 0 .813.813 0 0 1-1.626 0zM12.083 33.937a1.223 1.223 0 0 0 2.444 0 1.221 1.221 0 1 0-2.444 0zm.407 0a.815.815 0 0 1 1.63 0 .815.815 0 0 1-1.63 0zM10.426 37.62c0 .674.548 1.223 1.223 1.223a1.22 1.22 0 1 0-1.223-1.223zm.407 0a.815.815 0 0 1 1.629 0 .815.815 0 1 1-1.629 0zM15.759 35.691a1.22 1.22 0 1 0 2.44-.003 1.22 1.22 0 0 0-2.44.003zm.407 0a.815.815 0 0 1 1.628 0 .815.815 0 0 1-1.628 0zM19.817 34.109a1.223 1.223 0 0 0 2.443 0 1.22 1.22 0 0 0-2.443 0zm.408 0a.813.813 0 0 1 1.627 0 .814.814 0 0 1-1.627 0zM23.481 32.108a1.22 1.22 0 0 0 2.442 0 1.221 1.221 0 0 0-2.442 0zm.407 0a.815.815 0 0 1 1.627 0 .813.813 0 0 1-1.627 0zM27.202 33.937a1.222 1.222 0 0 0 2.444 0 1.221 1.221 0 0 0-2.444 0zm.407 0a.814.814 0 0 1 1.63 0 .816.816 0 0 1-1.63 0zM25.545 37.62c0 .674.548 1.223 1.221 1.223s1.221-.549 1.221-1.223a1.221 1.221 0 0 0-2.442 0zm.408 0a.814.814 0 1 1 1.628.006.814.814 0 0 1-1.628-.006zM21.882 37.884c0 .672.548 1.22 1.221 1.22s1.221-.548 1.221-1.22c0-.673-.548-1.221-1.221-1.221s-1.221.548-1.221 1.221zm.408 0a.814.814 0 0 1 1.627 0 .815.815 0 0 1-1.627 0zM30.876 35.691a1.221 1.221 0 0 0 2.444 0 1.223 1.223 0 0 0-2.444 0zm.407 0a.815.815 0 0 1 1.629 0 .814.814 0 0 1-1.629 0zM34.937 34.109a1.222 1.222 0 0 0 2.443 0 1.222 1.222 0 0 0-2.443 0zm.407 0a.813.813 0 1 1 .813.813.812.812 0 0 1-.813-.813zM37 37.884a1.222 1.222 0 1 0 1.222-1.221c-.674 0-1.222.548-1.222 1.221zm.407 0a.815.815 0 0 1 1.628 0 .814.814 0 0 1-1.628 0z"/><path fill="none" d="M15.087.722c.42 0 .766-.316.811-.722H14.28a.813.813 0 0 0 .807.722z"/><circle fill="none" cx="9.583" cy="1.872" r=".813"/><path fill="none" d="M19.187.727A.816.816 0 0 0 19.999 0H18.38a.811.811 0 0 0 .807.727z"/><circle fill="none" cx="24.702" cy="1.872" r=".813"/><path fill="none" d="M30.177.727A.815.815 0 0 0 30.988 0h-1.619a.813.813 0 0 0 .808.727zM34.276.727A.815.815 0 0 0 35.087 0h-1.619a.813.813 0 0 0 .808.727z"/><path fill="param(fill)" d="M9.583.651a1.221 1.221 0 0 0 0 2.441c.673 0 1.221-.548 1.221-1.221 0-.672-.548-1.22-1.221-1.22zm0 2.034a.814.814 0 1 1 .001-1.625.814.814 0 0 1-.001 1.625zM24.702.651c-.673 0-1.221.548-1.221 1.22a1.222 1.222 0 0 0 2.442 0c0-.672-.548-1.22-1.221-1.22zm0 2.034c-.449 0-.814-.365-.814-.813a.815.815 0 0 1 1.627 0 .813.813 0 0 1-.813.813zM15.087.722A.812.812 0 0 1 14.28 0h-.408a1.22 1.22 0 0 0 2.433 0h-.407a.815.815 0 0 1-.811.722zM19.187.727A.814.814 0 0 1 18.379 0h-.407a1.22 1.22 0 0 0 2.434 0h-.407a.817.817 0 0 1-.812.727zM34.276.727A.813.813 0 0 1 33.468 0h-.407a1.22 1.22 0 0 0 2.433 0h-.407a.816.816 0 0 1-.811.727zM30.177.727A.812.812 0 0 1 29.369 0h-.407a1.22 1.22 0 0 0 2.433 0h-.407a.816.816 0 0 1-.811.727z"/><circle fill="none" cx="40.053" cy="12.928" r=".812"/><circle fill="none" cx="40.053" cy="28.046" r=".812"/><circle fill="none" cx="39.82" cy="1.872" r=".813"/><circle fill="none" cx="39.82" cy="16.99" r=".813"/><circle fill="none" cx="43.716" cy="10.896" r=".813"/><circle fill="none" cx="39.82" cy="32.107" r=".812"/><circle fill="none" cx="43.542" cy="33.937" r=".812"/><circle fill="none" cx="43.716" cy="26.014" r=".813"/><circle fill="none" cx="41.884" cy="22.504" r=".814"/><circle fill="none" cx="43.542" cy="18.818" r=".812"/><circle fill="none" cx="43.542" cy="3.7" r=".813"/><circle fill="none" cx="41.885" cy="7.386" r=".812"/><path fill="none" d="M44.57 30.264c0 .438.35.795.785.81v-1.621a.812.812 0 0 0-.785.811z"/><circle fill="none" cx="41.885" cy="37.623" r=".813"/><path fill="none" d="M44.453 15.063a.814.814 0 0 0 .902.807v-1.614a.813.813 0 0 0-.902.807z"/><path fill="param(fill)" d="M43.542 4.92c.673 0 1.221-.547 1.221-1.22a1.222 1.222 0 0 0-2.443 0c0 .673.549 1.22 1.222 1.22zm0-2.032a.814.814 0 1 1 0 1.628.814.814 0 0 1 0-1.628zM40.664 7.385a1.222 1.222 0 0 0 2.442 0 1.22 1.22 0 0 0-2.442 0zm1.221-.811a.813.813 0 1 1 0 1.624.815.815 0 0 1-.815-.813c0-.447.366-.811.815-.811zM40.053 11.709a1.22 1.22 0 0 0-1.22 1.218 1.221 1.221 0 0 0 2.442 0 1.222 1.222 0 0 0-1.222-1.218zm0 2.031a.813.813 0 1 1 0 0zM44.938 10.896a1.222 1.222 0 0 0-2.442 0 1.221 1.221 0 0 0 2.442 0zm-1.222.813a.814.814 0 1 1 .001-1.627.814.814 0 0 1-.001 1.627zM39.82 18.21c.673 0 1.222-.547 1.222-1.22a1.222 1.222 0 0 0-2.442 0c0 .673.547 1.22 1.22 1.22zm0-2.032a.814.814 0 1 1 0 1.628.814.814 0 0 1 0-1.628zM43.542 17.6c-.674 0-1.222.546-1.222 1.218a1.222 1.222 0 0 0 2.443 0 1.22 1.22 0 0 0-1.221-1.218zm0 2.03a.815.815 0 0 1-.815-.813.814.814 0 0 1 1.629 0 .814.814 0 0 1-.814.813zM43.105 22.504a1.221 1.221 0 1 0-2.442 0 1.221 1.221 0 0 0 2.442 0zm-2.035 0a.815.815 0 0 1 1.628 0 .814.814 0 0 1-1.628 0zM40.053 26.827a1.22 1.22 0 1 0 0 2.44 1.22 1.22 0 0 0 0-2.44zm0 2.031a.813.813 0 1 1 0 0zM44.938 26.016c0-.674-.548-1.222-1.222-1.222a1.22 1.22 0 1 0 1.222 1.222zm-1.222.811a.813.813 0 1 1 0-1.627.813.813 0 0 1 0 1.627zM39.82 33.326c.673 0 1.222-.547 1.222-1.218a1.221 1.221 0 0 0-2.442 0 1.22 1.22 0 0 0 1.22 1.218zm0-2.03c.449 0 .814.364.814.813a.813.813 0 0 1-1.627 0c0-.449.365-.813.813-.813zM42.32 33.937a1.223 1.223 0 0 0 2.443 0 1.222 1.222 0 0 0-2.443 0zm1.222-.812a.814.814 0 1 1 0 1.627.814.814 0 0 1 0-1.627zM43.105 37.62a1.22 1.22 0 1 0-2.441.005 1.22 1.22 0 0 0 2.441-.005zm-1.22.816a.816.816 0 0 1-.815-.815.815.815 0 0 1 1.628 0 .815.815 0 0 1-.813.815zM45.266 15.874a.813.813 0 1 1 .089-1.62v-.407c-.029-.002-.059-.005-.089-.005a1.22 1.22 0 0 0 0 2.439c.03 0 .06-.003.089-.005v-.407a.902.902 0 0 1-.089.005zM44.57 30.264c0-.438.35-.797.785-.812v-.407a1.221 1.221 0 0 0-1.192 1.219 1.22 1.22 0 0 0 1.192 1.217v-.407a.813.813 0 0 1-.785-.81zM39.82 3.092c.673 0 1.222-.548 1.222-1.221a1.221 1.221 0 1 0-1.222 1.221zm0-2.033a.814.814 0 1 1 0 1.628.814.814 0 0 1 0-1.628zM45.353.812a.812.812 0 0 1-.812-.811V0h-.407v.001a1.22 1.22 0 0 0 1.219 1.218h.002V.812h-.002z"/><circle fill="none" cx="21.358" cy="41.393" r=".811"/><path fill="none" d="M34.276 44.457a.814.814 0 0 0-.809.897h1.619a.813.813 0 0 0-.81-.897z"/><circle fill="none" cx="17.143" cy="39.624" r=".813"/><circle fill="none" cx="13.48" cy="41.133" r=".812"/><circle fill="none" cx="24.934" cy="43.164" r=".812"/><circle fill="none" cx="40.053" cy="43.164" r=".812"/><circle fill="none" cx="43.716" cy="41.133" r=".812"/><circle fill="none" cx="32.262" cy="39.624" r=".813"/><path fill="none" d="M36.475 42.204c.45 0 .816-.363.816-.81a.813.813 0 1 0-1.628 0c0 .447.364.81.812.81z"/><circle fill="none" cx="28.597" cy="41.133" r=".812"/><path fill="none" d="M30.177 44.457a.814.814 0 0 0-.809.897h1.619a.814.814 0 0 0-.81-.897zM15.087 44.453a.813.813 0 0 0-.807.902h1.618a.815.815 0 0 0-.811-.902zM19.187 44.457a.813.813 0 0 0-.808.897h1.619a.815.815 0 0 0-.811-.897z"/><path fill="param(fill)" d="M13.48 42.352c.673 0 1.221-.547 1.221-1.219a1.222 1.222 0 0 0-2.444 0c0 .672.549 1.219 1.223 1.219zm0-2.031c.449 0 .814.364.814.812a.814.814 0 0 1-1.629 0c0-.448.365-.812.815-.812zM10.09 44.957c.673 0 1.221-.547 1.221-1.219a1.222 1.222 0 0 0-2.444 0c0 .672.549 1.219 1.223 1.219zm0-2.03a.813.813 0 1 1 0 1.624c-.45 0-.816-.364-.816-.812s.366-.812.816-.812zM17.143 40.844c.673 0 1.221-.548 1.221-1.221a1.22 1.22 0 0 0-2.442 0c0 .673.548 1.221 1.221 1.221zm0-2.032a.814.814 0 1 1 0 1.627.814.814 0 0 1 0-1.627zM21.358 42.611a1.22 1.22 0 0 0 1.221-1.217 1.222 1.222 0 0 0-2.442 0 1.22 1.22 0 0 0 1.221 1.217zm0-2.029c.449 0 .813.364.813.813a.813.813 0 0 1-1.627 0c0-.449.365-.813.814-.813zM24.934 44.383c.673 0 1.221-.547 1.221-1.218 0-.673-.547-1.221-1.221-1.221a1.22 1.22 0 0 0 0 2.439zm0-2.031c.449 0 .814.365.814.813a.814.814 0 0 1-1.626 0c0-.448.364-.813.812-.813zM28.597 42.352c.674 0 1.223-.547 1.223-1.219a1.222 1.222 0 0 0-2.444 0c0 .672.548 1.219 1.221 1.219zm0-2.031c.45 0 .816.364.816.812a.815.815 0 0 1-1.629 0c0-.448.364-.812.813-.812zM32.262 40.844a1.22 1.22 0 0 0 0-2.439c-.674 0-1.223.546-1.223 1.218a1.224 1.224 0 0 0 1.223 1.221zm0-2.032a.813.813 0 1 1 0 1.627.813.813 0 0 1 0-1.627zM36.475 42.611c.674 0 1.223-.546 1.223-1.217a1.22 1.22 0 1 0-2.442 0 1.22 1.22 0 0 0 1.219 1.217zm0-2.029c.45 0 .816.364.816.813a.814.814 0 0 1-1.628 0c0-.449.364-.813.812-.813zM14.275 45.266a.813.813 0 1 1 1.623.089h.407c.002-.029.005-.059.005-.089a1.22 1.22 0 1 0-2.438.089h.408a.885.885 0 0 1-.005-.089zM18.375 45.271a.813.813 0 1 1 1.624.084h.407a1.223 1.223 0 0 0-1.219-1.304 1.22 1.22 0 0 0-1.219 1.22c0 .028.002.056.004.084h.407a.8.8 0 0 1-.004-.084zM33.463 45.271a.814.814 0 1 1 1.624.084h.407a1.222 1.222 0 0 0-1.219-1.304 1.22 1.22 0 0 0-1.219 1.22c0 .028.002.056.004.084h.407c-.002-.029-.004-.056-.004-.084zM29.364 45.271a.814.814 0 1 1 1.624.084h.407a1.223 1.223 0 0 0-1.219-1.304c-.672 0-1.22.547-1.22 1.22 0 .028.002.056.004.084h.407l-.003-.084zM40.053 44.383c.674 0 1.222-.547 1.222-1.218a1.222 1.222 0 0 0-2.442 0 1.22 1.22 0 0 0 1.22 1.218zm0-2.031c.449 0 .815.365.815.813a.815.815 0 0 1-1.628 0 .813.813 0 0 1 .813-.813zM43.716 42.352c.674 0 1.222-.547 1.222-1.219a1.222 1.222 0 0 0-2.442 0 1.22 1.22 0 0 0 1.22 1.219zm0-2.031c.449 0 .815.364.815.812a.815.815 0 0 1-1.628 0c0-.448.365-.812.813-.812zM45.353 44.542h.002v-.406l-.002-.001c-.672 0-1.218.547-1.219 1.22h.407c0-.449.364-.813.812-.813z"/><path fill="none" d="M5.921 18.18c-.45 0-.816.364-.816.813a.815.815 0 0 0 1.628 0 .813.813 0 0 0-.812-.813z"/><circle fill="none" cx="7.984" cy="7.646" r=".813"/><circle fill="none" cx="6.241" cy="26.275" r=".812"/><circle fill="none" cx="6.241" cy="11.158" r=".813"/><circle fill="none" cx="1.86" cy="5.455" r=".812"/><circle fill="none" cx="5.921" cy="3.875" r=".812"/><circle fill="none" cx="5.921" cy="34.111" r=".812"/><circle fill="none" cx="4.033" cy="15.081" r=".812"/><circle fill="none" cx="1.86" cy="35.691" r=".813"/><circle fill="none" cx="2.024" cy="24.505" r=".812"/><circle fill="none" cx="4.033" cy="30.198" r=".813"/><circle fill="none" cx="2.024" cy="9.388" r=".813"/><path fill="none" d="M.843 30.264a.816.816 0 0 0-.816-.813L0 29.452v1.621l.027.001c.45 0 .816-.363.816-.81z"/><circle fill="none" cx="7.984" cy="22.764" r=".813"/><circle fill="none" cx="7.984" cy="37.883" r=".813"/><circle fill="none" cx="2.024" cy="39.624" r=".813"/><circle fill="none" cx="1.86" cy="20.572" r=".812"/><path fill="none" d="M.727 15.063A.816.816 0 0 0 0 14.255v1.614a.815.815 0 0 0 .727-.806z"/><circle fill="none" cx="6.241" cy="41.393" r=".811"/><path fill="param(fill)" d="M.64 5.456a1.222 1.222 0 1 0 2.444 0 1.223 1.223 0 0 0-2.444 0zm1.22-.813c.45 0 .816.365.816.813a.815.815 0 0 1-1.63 0c0-.448.366-.813.814-.813zM4.033 16.3c.674 0 1.222-.547 1.222-1.219s-.548-1.219-1.222-1.219a1.22 1.22 0 0 0 0 2.438zm0-2.03c.45 0 .815.363.815.812a.815.815 0 0 1-1.628 0c0-.449.365-.812.813-.812zM4.698 3.874a1.221 1.221 0 0 0 2.442 0 1.222 1.222 0 0 0-2.442 0zm1.223-.811a.813.813 0 0 1 0 1.625.815.815 0 0 1-.816-.813c0-.448.366-.812.816-.812zM6.763 7.646a1.222 1.222 0 0 0 2.444 0 1.223 1.223 0 0 0-2.444 0zm1.221-.813c.45 0 .816.364.816.813a.815.815 0 0 1-1.629 0c0-.448.364-.813.813-.813zM2.024 8.168c-.673 0-1.221.547-1.221 1.219a1.223 1.223 0 0 0 2.444 0c0-.672-.549-1.219-1.223-1.219zm0 2.032a.814.814 0 1 1 .001-1.627.814.814 0 0 1-.001 1.627zM6.241 9.938c-.673 0-1.221.547-1.221 1.219 0 .673.548 1.221 1.221 1.221s1.221-.548 1.221-1.221a1.222 1.222 0 0 0-1.221-1.219zm0 2.033a.814.814 0 1 1 0 0zM.64 20.573a1.223 1.223 0 0 0 2.444 0 1.222 1.222 0 0 0-2.444 0zm1.22-.813c.45 0 .816.365.816.813a.815.815 0 0 1-1.63 0c0-.448.366-.813.814-.813zM4.033 31.418c.674 0 1.222-.547 1.222-1.22a1.221 1.221 0 0 0-2.441 0 1.22 1.22 0 0 0 1.219 1.22zm0-2.032a.814.814 0 1 1 .002 1.628.814.814 0 0 1-.002-1.628zM7.141 18.992a1.221 1.221 0 0 0-2.442 0 1.22 1.22 0 1 0 2.442 0zm-1.22.813c-.45 0-.816-.364-.816-.813a.815.815 0 0 1 1.628 0 .813.813 0 0 1-.812.813zM7.984 21.545c-.673 0-1.221.547-1.221 1.22a1.222 1.222 0 0 0 2.444 0c0-.673-.549-1.22-1.223-1.22zm0 2.032a.813.813 0 0 1 0-1.626c.45 0 .816.365.816.813s-.366.813-.816.813zM2.024 25.724c.674 0 1.223-.547 1.223-1.219a1.223 1.223 0 0 0-2.444 0c0 .672.548 1.219 1.221 1.219zm0-2.031c.45 0 .816.364.816.812a.815.815 0 0 1-1.629 0c0-.448.364-.812.813-.812zM6.241 25.056c-.673 0-1.221.548-1.221 1.22a1.222 1.222 0 0 0 2.442 0c0-.672-.548-1.22-1.221-1.22zm0 2.031a.814.814 0 1 1 0-1.627.814.814 0 0 1 0 1.627zM.64 35.691a1.222 1.222 0 0 0 2.444 0 1.223 1.223 0 0 0-2.444 0zm1.22-.812c.45 0 .816.364.816.813a.814.814 0 0 1-1.63-.001c0-.449.366-.812.814-.812zM5.921 35.33a1.22 1.22 0 0 0 0-2.439c-.674 0-1.223.546-1.223 1.218 0 .673.549 1.221 1.223 1.221zm0-2.031a.812.812 0 1 1 0 1.624.816.816 0 0 1-.816-.813c0-.448.366-.811.816-.811zM7.984 36.663c-.673 0-1.221.548-1.221 1.221a1.223 1.223 0 0 0 2.444 0c0-.673-.549-1.221-1.223-1.221zm0 2.033a.813.813 0 0 1 0-1.626c.45 0 .816.365.816.813s-.366.813-.816.813zM.727 15.063A.815.815 0 0 1 0 15.87v.407a1.221 1.221 0 0 0 1.134-1.214c0-.643-.501-1.169-1.134-1.215v.407c.408.045.727.39.727.808zM.027 29.451c.45 0 .816.364.816.813a.815.815 0 0 1-.816.811L0 31.074v.407l.027.001c.674 0 1.223-.546 1.223-1.218 0-.673-.549-1.22-1.223-1.22L0 29.045v.407l.027-.001zM1.221.001c0-.001 0-.001 0 0L.814 0v.001c0 .446-.365.81-.814.811v.407A1.221 1.221 0 0 0 1.221.001zM4.01 1.217c.674 0 1.222-.546 1.223-1.217h-.407a.814.814 0 0 1-1.628 0h-.407A1.22 1.22 0 0 0 4.01 1.217zM3.247 39.623a1.222 1.222 0 0 0-2.444 0 1.223 1.223 0 0 0 2.444 0zm-1.223.814a.814.814 0 1 1 .001-1.627.814.814 0 0 1-.001 1.627zM6.241 40.175c-.673 0-1.221.547-1.221 1.22a1.22 1.22 0 0 0 2.442 0 1.223 1.223 0 0 0-1.221-1.22zm0 2.029a.813.813 0 1 1 0-1.623c.449 0 .814.364.814.813 0 .447-.366.81-.814.81zM0 44.136v.406a.816.816 0 0 1 .814.813h.407c0-.672-.548-1.218-1.221-1.219zM4.01 44.133c-.672 0-1.219.548-1.219 1.22v.002h.407v-.002a.813.813 0 0 1 1.628 0v.002h.407v-.002c0-.672-.548-1.22-1.223-1.22z"/></svg>