<svg xmlns="http://www.w3.org/2000/svg" width="39.118" height="39.117" viewBox="0 0 39.118 39.117"><path fill="param(fill)" d="M17.953 19.54a1.616 1.616 0 0 0 3.231 0c0-.89-.725-1.615-1.615-1.615-.891 0-1.616.724-1.616 1.615zm.397 0a1.22 1.22 0 0 1 2.437 0 1.22 1.22 0 0 1-2.437 0zM10.034 16.703c0 .89.725 1.614 1.616 1.614a1.616 1.616 0 0 0 0-3.232c-.892 0-1.616.727-1.616 1.618zm.397 0c0-.673.546-1.221 1.219-1.221a1.218 1.218 0 1 1-1.219 1.221zM29.591 16.703a1.617 1.617 0 0 0 3.232 0c0-.892-.725-1.618-1.616-1.618s-1.616.727-1.616 1.618zm.397 0c0-.673.547-1.221 1.219-1.221s1.219.548 1.219 1.221a1.22 1.22 0 0 1-2.438 0zM22.649 19.284c0 .893.724 1.617 1.613 1.617.892 0 1.617-.725 1.617-1.617a1.616 1.616 0 0 0-3.23 0zm.397 0a1.218 1.218 0 1 1 2.437 0 1.218 1.218 0 0 1-2.437 0zM10.289 21.947c0 .892.725 1.617 1.616 1.617a1.617 1.617 0 0 0 0-3.232c-.891 0-1.616.725-1.616 1.615zm.397 0a1.22 1.22 0 0 1 1.219-1.219 1.22 1.22 0 0 1 0 2.439 1.22 1.22 0 0 1-1.219-1.22zM29.847 21.947c0 .892.725 1.617 1.616 1.617a1.617 1.617 0 0 0 0-3.232c-.891 0-1.616.725-1.616 1.615zm.397 0a1.22 1.22 0 0 1 1.219-1.219 1.22 1.22 0 0 1 0 2.439 1.22 1.22 0 0 1-1.219-1.22z"/><circle fill="none" cx="17.12" cy="24.214" r="1.219"/><circle fill="none" cx="21.541" cy="31.442" r="1.219"/><circle fill="none" cx="16.921" cy="34.191" r="1.219"/><circle fill="none" cx="21.853" cy="26.454" r="1.219"/><circle fill="none" cx="14.511" cy="29.09" r="1.219"/><circle fill="none" cx="26.729" cy="24.045" r="1.219"/><circle fill="none" cx="26.332" cy="33.853" r="1.219"/><circle fill="none" cx="31.208" cy="36.262" r="1.219"/><circle fill="none" cx="28.94" cy="29.175" r="1.22"/><circle fill="none" cx="11.649" cy="36.262" r="1.219"/><path fill="none" d="M24.236 37.614a1.22 1.22 0 0 0-1.184 1.503h2.369a1.22 1.22 0 0 0-1.185-1.503zM19.673 37.897a1.22 1.22 0 0 0-1.219 1.219v.001h2.438v-.001a1.22 1.22 0 0 0-1.219-1.219z"/><path fill="param(fill)" d="M17.12 25.83c.89 0 1.615-.725 1.615-1.615 0-.892-.725-1.616-1.615-1.616a1.616 1.616 0 0 0 0 3.231zm0-2.835a1.22 1.22 0 0 1 0 2.439 1.22 1.22 0 0 1 0-2.439zM14.511 30.705c.891 0 1.616-.724 1.616-1.613 0-.892-.725-1.618-1.616-1.618a1.62 1.62 0 0 0-1.616 1.618 1.618 1.618 0 0 0 1.616 1.613zm0-2.834a1.22 1.22 0 1 1-.001 2.437 1.22 1.22 0 0 1 .001-2.437zM10.034 36.262c0 .892.725 1.617 1.616 1.617a1.616 1.616 0 1 0-1.616-1.617zm1.615-1.219a1.22 1.22 0 0 1 0 2.439 1.22 1.22 0 0 1-1.219-1.22 1.221 1.221 0 0 1 1.219-1.219zM16.921 32.576a1.616 1.616 0 1 0 0 3.23 1.616 1.616 0 0 0 0-3.23zm0 2.834a1.219 1.219 0 1 1 0-2.437 1.219 1.219 0 0 1 0 2.437zM21.853 28.07c.892 0 1.617-.726 1.617-1.616s-.726-1.615-1.617-1.615-1.615.725-1.615 1.615.724 1.616 1.615 1.616zm0-2.835c.673 0 1.22.547 1.22 1.219s-.547 1.219-1.22 1.219a1.22 1.22 0 0 1 0-2.438zM26.729 25.66c.891 0 1.616-.725 1.616-1.616a1.617 1.617 0 0 0-3.232 0c0 .892.725 1.616 1.616 1.616zm0-2.834a1.22 1.22 0 0 1 0 2.438 1.22 1.22 0 0 1 0-2.438zM27.323 29.177a1.617 1.617 0 1 0 1.617-1.618 1.62 1.62 0 0 0-1.617 1.618zm1.617-1.222a1.22 1.22 0 1 1-1.22 1.222c0-.674.548-1.222 1.22-1.222zM21.541 33.058c.892 0 1.617-.725 1.617-1.614 0-.892-.725-1.617-1.617-1.617a1.616 1.616 0 0 0 0 3.231zm0-2.834c.672 0 1.22.547 1.22 1.22a1.22 1.22 0 1 1-1.22-1.22zM26.332 35.469c.892 0 1.617-.725 1.617-1.615a1.617 1.617 0 0 0-3.232 0c0 .89.724 1.615 1.615 1.615zm0-2.835c.673 0 1.22.547 1.22 1.22a1.22 1.22 0 1 1-1.22-1.22zM29.591 36.262c0 .892.725 1.617 1.616 1.617s1.616-.726 1.616-1.617a1.617 1.617 0 0 0-3.232 0zm1.617-1.219a1.22 1.22 0 0 1 0 2.439 1.22 1.22 0 1 1 0-2.439zM18.454 39.116a1.22 1.22 0 0 1 1.219-1.219 1.22 1.22 0 0 1 1.219 1.219v.001h.397v-.001a1.617 1.617 0 0 0-3.232 0v.001l.397-.001zM23.017 38.833c0-.672.547-1.219 1.219-1.219a1.22 1.22 0 0 1 1.184 1.503h.405a1.617 1.617 0 1 0-3.206-.284c0 .097.01.191.027.284h.405a1.269 1.269 0 0 1-.034-.284z"/><circle fill="none" cx="36.481" cy="34.191" r="1.219"/><path fill="none" d="M34.072 27.871a1.22 1.22 0 1 0 1.217 1.221 1.22 1.22 0 0 0-1.217-1.221z"/><circle fill="none" cx="36.678" cy="24.214" r="1.219"/><path fill="none" d="M37.786 19.473a1.222 1.222 0 0 0 1.332 1.215v-2.427a1.22 1.22 0 0 0-1.332 1.212z"/><path fill="param(fill)" d="M39.005 20.693a1.22 1.22 0 1 1 .113-2.433v-.397c-.037-.002-.075-.006-.113-.006-.891 0-1.616.725-1.616 1.615a1.618 1.618 0 0 0 1.729 1.611v-.396a1.4 1.4 0 0 1-.113.006zM35.063 24.215a1.617 1.617 0 0 0 3.232 0 1.617 1.617 0 0 0-3.232 0zm1.615-1.22c.673 0 1.22.547 1.22 1.22a1.22 1.22 0 1 1-1.22-1.22zM35.686 29.092c0-.892-.724-1.618-1.614-1.618a1.62 1.62 0 0 0-1.617 1.618 1.616 1.616 0 0 0 3.231 0zm-1.614 1.217a1.22 1.22 0 1 1 0-2.438 1.218 1.218 0 1 1 0 2.438zM38.096 34.194c0-.893-.725-1.618-1.615-1.618a1.616 1.616 0 1 0 1.615 1.618zm-1.615 1.216a1.219 1.219 0 1 1 0-2.437 1.219 1.219 0 0 1 0 2.437zM37.502 39.116l.397.001v-.001a1.22 1.22 0 0 1 1.219-1.218v-.397c-.891 0-1.616.725-1.616 1.615z"/><circle fill="none" cx="21.541" cy="11.884" r="1.219"/><circle fill="none" cx="21.853" cy="6.894" r="1.219"/><circle fill="none" cx="16.921" cy="14.632" r="1.218"/><circle fill="none" cx="26.332" cy="14.292" r="1.219"/><circle fill="none" cx="14.511" cy="9.531" r="1.218"/><path fill="none" d="M34.072 8.313c-.673 0-1.22.546-1.22 1.218s.547 1.219 1.22 1.219a1.22 1.22 0 0 0 0-2.437z"/><circle fill="none" cx="31.463" cy="2.386" r="1.219"/><circle fill="none" cx="28.94" cy="9.616" r="1.218"/><circle fill="none" cx="26.729" cy="4.485" r="1.218"/><circle fill="none" cx="11.904" cy="2.386" r="1.219"/><circle fill="none" cx="17.12" cy="4.654" r="1.219"/><path fill="none" d="M19.673 1.219c.672 0 1.218-.547 1.219-1.219h-2.438a1.221 1.221 0 0 0 1.219 1.219z"/><circle fill="none" cx="36.678" cy="4.654" r="1.219"/><path fill="none" d="M24.236.936c.574 0 1.056-.4 1.184-.936h-2.369c.13.535.611.936 1.185.936z"/><circle fill="none" cx="36.481" cy="14.632" r="1.218"/><path fill="param(fill)" d="M13.519 2.387c0-.892-.725-1.616-1.615-1.616-.891 0-1.616.725-1.616 1.616 0 .891.725 1.616 1.616 1.616.89 0 1.615-.726 1.615-1.616zm-1.615 1.218a1.22 1.22 0 0 1 0-2.439 1.22 1.22 0 0 1 0 2.439zM17.12 3.039c-.891 0-1.615.725-1.615 1.615 0 .892.725 1.616 1.615 1.616s1.615-.725 1.615-1.616a1.618 1.618 0 0 0-1.615-1.615zm0 2.834a1.22 1.22 0 0 1 0-2.438 1.22 1.22 0 0 1 1.218 1.219 1.22 1.22 0 0 1-1.218 1.219zM16.127 9.53a1.617 1.617 0 0 0-3.232 0 1.616 1.616 0 0 0 3.232 0zm-1.616 1.219A1.22 1.22 0 1 1 15.73 9.53a1.22 1.22 0 0 1-1.219 1.219zM16.921 13.018c-.891 0-1.616.725-1.616 1.616a1.617 1.617 0 0 0 3.232 0c0-.892-.725-1.616-1.616-1.616zm0 2.833a1.22 1.22 0 0 1 0-2.437 1.22 1.22 0 0 1 0 2.437zM21.853 5.278a1.616 1.616 0 1 0 .002 3.23 1.616 1.616 0 0 0-.002-3.23zm0 2.835a1.22 1.22 0 1 1 .003-2.44 1.22 1.22 0 0 1-.003 2.44zM26.729 6.101c.891 0 1.616-.726 1.616-1.616a1.617 1.617 0 0 0-3.232 0c0 .89.725 1.616 1.616 1.616zm0-2.834a1.22 1.22 0 0 1 1.219 1.218 1.22 1.22 0 0 1-1.219 1.219 1.22 1.22 0 0 1 0-2.437zM33.078 2.387c0-.892-.725-1.616-1.615-1.616-.891 0-1.616.725-1.616 1.616 0 .891.725 1.616 1.616 1.616.891 0 1.615-.726 1.615-1.616zm-1.615 1.218a1.22 1.22 0 0 1 0-2.439 1.22 1.22 0 0 1 0 2.439zM28.94 8.001c-.892 0-1.617.724-1.617 1.614s.726 1.615 1.617 1.615 1.615-.725 1.615-1.615-.724-1.614-1.615-1.614zm0 2.833c-.673 0-1.22-.547-1.22-1.219a1.22 1.22 0 0 1 2.438 0 1.22 1.22 0 0 1-1.218 1.219zM21.541 10.268c-.89 0-1.614.726-1.614 1.616s.724 1.616 1.614 1.616c.892 0 1.617-.726 1.617-1.616s-.725-1.616-1.617-1.616zm0 2.835a1.22 1.22 0 0 1 0-2.438c.672 0 1.22.547 1.22 1.219s-.548 1.219-1.22 1.219zM26.332 12.676a1.616 1.616 0 1 0 .002 3.23 1.616 1.616 0 0 0-.002-3.23zm0 2.835a1.219 1.219 0 1 1 .001-2.437 1.219 1.219 0 0 1-.001 2.437zM19.673 1.219A1.222 1.222 0 0 1 18.454 0h-.397a1.617 1.617 0 0 0 3.232 0h-.397a1.221 1.221 0 0 1-1.219 1.219zM24.236.936c-.574 0-1.056-.4-1.185-.936h-.405c.135.756.795 1.332 1.589 1.332S25.69.756 25.826 0h-.406a1.22 1.22 0 0 1-1.184.936zM36.678 3.039c-.891 0-1.615.725-1.615 1.615a1.617 1.617 0 0 0 3.232 0c0-.89-.725-1.615-1.617-1.615zm0 2.834a1.22 1.22 0 1 1 .002-2.438 1.22 1.22 0 0 1-.002 2.438zM35.686 9.53a1.616 1.616 0 0 0-3.231 0 1.616 1.616 0 0 0 3.231 0zm-1.614 1.219c-.673 0-1.22-.547-1.22-1.219s.547-1.218 1.22-1.218a1.219 1.219 0 0 1 0 2.437zM36.481 13.018c-.891 0-1.616.725-1.616 1.616a1.617 1.617 0 0 0 3.231 0c0-.892-.724-1.616-1.615-1.616zm0 2.833a1.22 1.22 0 0 1 0-2.437 1.219 1.219 0 0 1 0 2.437zM39.118 1.616v-.397A1.221 1.221 0 0 1 37.899 0h-.397a1.62 1.62 0 0 0 1.616 1.616z"/><path fill="none" d="M7.169 25.264a1.22 1.22 0 1 0-1.217-1.22c0 .673.546 1.22 1.217 1.22z"/><circle fill="none" cx="4.704" cy="19.284" r="1.22"/><path fill="none" d="M7.169 5.703c.673 0 1.221-.547 1.221-1.219a1.22 1.22 0 1 0-1.221 1.219z"/><circle fill="none" cx="2.294" cy="6.894" r="1.219"/><path fill="none" d="M1.106 19.473A1.22 1.22 0 0 0 0 18.261v2.427a1.222 1.222 0 0 0 1.106-1.215z"/><circle fill="none" cx="1.982" cy="11.884" r="1.219"/><path fill="none" d="M9.379 10.834c.673 0 1.221-.547 1.221-1.219a1.22 1.22 0 0 0-2.438 0 1.22 1.22 0 0 0 1.217 1.219z"/><circle fill="none" cx="2.294" cy="26.454" r="1.219"/><path fill="none" d="M7.992 14.294c0-.674-.547-1.222-1.219-1.222a1.218 1.218 0 1 0 1.219 1.222z"/><circle fill="none" cx="1.982" cy="31.442" r="1.219"/><circle fill="none" cx="6.772" cy="33.853" r="1.219"/><circle fill="none" cx="9.379" cy="29.175" r="1.22"/><path fill="param(fill)" d="M6.321 19.284a1.617 1.617 0 0 0-3.233 0 1.617 1.617 0 0 0 3.233 0zm-2.837 0a1.22 1.22 0 1 1 1.221 1.221 1.223 1.223 0 0 1-1.221-1.221zM1.106 19.473c0 .635-.487 1.157-1.106 1.215v.396a1.618 1.618 0 0 0 1.503-1.611c0-.853-.665-1.551-1.503-1.609v.397c.62.056 1.106.578 1.106 1.212zM.678 26.454c0 .891.725 1.616 1.616 1.616.891 0 1.615-.726 1.615-1.616s-.725-1.615-1.615-1.615c-.891 0-1.616.724-1.616 1.615zm1.616-1.219c.672 0 1.219.547 1.219 1.219s-.547 1.219-1.219 1.219-1.219-.547-1.219-1.219.547-1.219 1.219-1.219zM7.169 25.66c.892 0 1.618-.725 1.618-1.616a1.617 1.617 0 1 0-1.618 1.616zm0-2.834a1.22 1.22 0 0 1 1.221 1.218 1.22 1.22 0 1 1-1.221-1.218zM9.379 27.559a1.616 1.616 0 1 0 1.618 1.618 1.62 1.62 0 0 0-1.618-1.618zm0 2.836a1.22 1.22 0 1 1 .005-2.439 1.22 1.22 0 0 1-.005 2.439zM3.597 31.443c0-.892-.725-1.617-1.615-1.617-.891 0-1.616.726-1.616 1.617a1.615 1.615 0 1 0 3.231 0zm-1.615 1.218a1.22 1.22 0 0 1-1.219-1.218c0-.673.547-1.22 1.219-1.22a1.22 1.22 0 0 1 0 2.438zM6.772 32.237a1.616 1.616 0 1 0 1.616 1.616 1.617 1.617 0 0 0-1.616-1.616zm0 2.835a1.22 1.22 0 0 1 0-2.439 1.22 1.22 0 1 1 0 2.439zM0 37.501v.397a1.22 1.22 0 0 1 1.219 1.218v.001h.397v-.001c0-.89-.724-1.615-1.616-1.615zM4.678 37.246a1.618 1.618 0 0 0-1.594 1.871h.402a1.22 1.22 0 1 1 2.384 0h.402a1.618 1.618 0 0 0-1.594-1.871zM.678 6.895c0 .891.725 1.615 1.616 1.615.891 0 1.615-.725 1.615-1.615a1.617 1.617 0 0 0-3.231 0zm1.616-1.22a1.22 1.22 0 0 1 0 2.439 1.22 1.22 0 0 1 0-2.439zM5.555 4.484a1.617 1.617 0 0 0 3.232 0 1.616 1.616 0 0 0-3.232 0zm1.614-1.217c.673 0 1.221.547 1.221 1.218a1.22 1.22 0 1 1-1.221-1.218zM7.766 9.615a1.616 1.616 0 0 0 3.232 0 1.615 1.615 0 1 0-3.232 0zm1.613-1.218c.673 0 1.221.546 1.221 1.218s-.547 1.219-1.221 1.219a1.22 1.22 0 0 1 0-2.437zM3.597 11.884c0-.891-.725-1.616-1.615-1.616-.891 0-1.616.726-1.616 1.616S1.092 13.5 1.982 13.5c.891 0 1.615-.726 1.615-1.616zm-1.615 1.219c-.672 0-1.219-.547-1.219-1.219s.547-1.219 1.219-1.219a1.22 1.22 0 0 1 0 2.438zM8.389 14.294c0-.893-.725-1.618-1.616-1.618a1.615 1.615 0 1 0 1.616 1.618zm-2.834 0a1.22 1.22 0 0 1 1.217-1.222 1.22 1.22 0 0 1 0 2.439 1.22 1.22 0 0 1-1.217-1.217zM0 1.616A1.62 1.62 0 0 0 1.616 0h-.397A1.22 1.22 0 0 1 0 1.219v.397zM4.678 1.361c.803 0 1.47-.591 1.593-1.361H5.87c-.119.55-.608.964-1.192.964S3.604.55 3.486 0h-.402c.123.77.79 1.361 1.594 1.361z"/></svg>