<svg xmlns="http://www.w3.org/2000/svg" width="68.568" height="68.569" viewBox="0 0 68.568 68.569"><path fill="none" stroke="black" stroke-width="1" stroke-linejoin="round" stroke-miterlimit="10" d="M4.507 66.796l.222-.502h.669l.224 1.004-.67.752h-.668l-.222-.752.445-.502z"/><path fill="none" stroke="black" stroke-width="1" stroke-linejoin="round" stroke-miterlimit="10" d="M4.507 66.796l.222-.502h.669l.224 1.004-.67.752h-.668l-.222-.752.445-.502zM8.968 64.757l.222-.251.447.251-.224.752-.445.502-.447-.502v-.752h.447zM5.398 60.71h.447l.67 1.003v1.004l-.893.25-.446-.501-.669-.251-.223-.502.668-1.003h.446zM7.63 57.635l.445-.753 1.115-.251.894.251 1.337.251.446.502.446 1.254.893.753.445.502v1.002l-.222.753-.446.251-.67-.251-.446-.753H9.859l-.891-.751-.67-.502-.446-.251-.446-.502-.222-1.003.446-.502zM13.651 65.008l.223-.502.893.251v1.003l-.669.251h-.669l-.223-.753.445-.25zM16.105 61.713l-.223-.752.446-.753.67.251.669.251v1.003l-.223 1.004v1.003l-.671.502-.668-.502v-2.007zM16.773 57.635h.448v.502l-.67.251-.223-.753.223-.251.222.251zM20.12 64.004l.446-.502.447.251.446.502 1.114.502h1.563l-.223.752-.671 1.004-.891.251-.669-.251-.669-.502-1.116-.251-.223-1.254.446-.502M14.544 53.774l.223-.502.446.251.892 1.003-.668.502-.447.502-.67-.251v-1.004l.224-.501zM12.313 50.196v-.502l.67-.251h.668v.753l-.668 1.004-.446.752-1.339.251v-.502l.893-1.003.222-.502zM7.63 51.701l.222-.501.446-.251v.501l-.223.753-.223.251-.446-.251.224-.502zM10.307 46.87l.223.501-.223.753-.448.251-.446-1.004.224-1.003h.447l.223.502M4.284 52.771h.445l.447.501-.447 1.254-.222 1.254-.223.753-.669.251-1.34-.251-.222-.502.669-1.505v-1.254l.893-.501h.669zM19.897 48.691h.669l.447.251v.501l-.447.502-.892.251-.892.753-.669-.502-.223-.502.446-.752.893-.251.668-.251zM6.515 44.612h.222l.447.251-.224.752-.445.251-.893-.251-.224-.251.67-.752h.447zM2.499 44.361l.445-.251.671.251.223 1.254v1.004l-.447.752h-.669l-.447-1.003-.668-.502.446-1.003.446-.502zM14.544 44.11h.893l.891-.753.67.251.223.502v.753l-.67.752-.669.753v1.003l-.445.251-1.339-.502-1.115-.501v-1.004l.891-1.505h.67zM4.729 36.42h.669l1.562.503 1.338 1.254.446.753-.446 1.254-.892.502-.669.251-.892.251-.669.25-.447-1.003-.445-.251-.669-1.505-.224-1.254.447-1.005h.891zM.938 39.999v-.502h.669l.222.753-.668.501-.223-.251-.223-.25.223-.251zM7.63 33.846l.668-.752.892.251.223.752-.445 1.004-.893.25-.669-.501-.446-.251v-.251l.67-.502zM6.291 28.73h.669l.67.502.222.502-.446.502-.669-.251-1.339-.502-.446-.502.224-.251.446-.25.669.25zM5.398 23.146l.67.502 1.116.752.222.502-.222.502-.669.251h-.67l-.669-.251h-.669l-.223-.502v-.752l-.446-.753v-.501h1.114l.446.25zM1.161 20.823h.446l.446.502-.224.752-.445.251-.669-.502-.224-.501.224-.502h.446zM11.198 29.734l.669-.753.893-.501.669.25.222.753-.668.753-.892.501-.893.502-.446-.251v-.501l.446-.753zM7.406 19.503l.669-.25.669.25.893 1.004.222 1.254v.753l-.446.502-.669-.251-.892-.753-.668-.502-1.116-.501-.223-.502.223-.251.669-.753h.669zM4.284 16.46h.445l.223.251-.223.752h-.667l-.447-.251.223-.752h.446zM6.291 11.813h.224l.222.752-.222.502h-.67l-.447-.753.447-.501h.446zM8.744 14.638H10.307l.669.502.222 1.004-.446.752-.668.25H8.968l-1.338-.25-.446-.251v-.752l.222-.753.669-.502h.669zM4.507 7.101h.891l.893.753v.501l-.669.752h-.893l-1.338-.502-.669-.25-.223-.501.223-.502 1.116-.251h.669zM4.284 4.091v.251l-.222.752-.671-.251-.223-.752.223-.251h.671l.222.251zM12.983 8.923l.446-.502h.222l.893.752v.753l-.67.753.224.752v.502l-.669.251-.669-.502v-.502l-.223-2.007.446-.25zM11.421 37.174h.446l1.116 1.003 1.115 1.004v1.003l-.224.502-1.114-.502h-.669l-.67-.251-.223-1.254-.446-.753.224-.501.445-.251zM14.098 33.846h.222l.447.251-.223.753-.67.251-.223-.502v-.753h.447M18.56 30.737h.222v.753l-.446.251-.446-.251v-.251l.446-.752.224.25zM18.56 35.602l.669-.251 1.114-.752h.892l.67.752v1.004l-1.339 1.003-.669 1.004-.668.251-.669-.502-1.116-1.003-.223-.753.446-.753h.893zM24.358 40.783l.447.502v1.254h-1.563l-1.114.251-.446-.251.223-.752.668-1.004.669-.752.671.251.445.501zM25.251 47.688l.445-.25.224.5-.224.502-.445.251-.223-.251v-.502l.223-.25zM26.589 53.021l.223-.25h.446v1.003l-.223.25h-.669v-.752l.223-.251zM23.913 56.882h.892l.891.753.893.251v1.003l-.223.753-1.115 1.003h-1.563l-1.56.501-.223-1.002-.67-.502-.222-.753.892-1.254 1.115-.753h.893zM62.724 62.717l-.224-.753.224-1.003.892-.251.892.251.223.752.223 1.004.669.752-.223.753-.669.502-1.56-1.004-.447-.251v-.752zM59.154 65.008l.224-.502h.669l.446.752-.222.753-1.117.502-.445-.251.223-1.004.222-.25zM56.702 66.513l.223.502-.67.752-1.116-.251v-.752l.67-.251.446-.251.447.251zM54.916 62.466l.446-.502.447-1.505.446-.251h.67l.446.502v1.003l.445.502-.222.752-.447.502-.892.251-.446.251h-.893l-.445-1.004.445-.501zM59.378 55.028l.223-.502h.892l.224.753.445 1.254v1.254l-.445.753h-.446l-.447-1.003-.67-.502-.445-.502V55.53l.669-.502zM56.478 51.701h.669l.892.753v1.003l-.668.502-.893-.251-.669.502h-.224v-1.505l-.223-.753.669-.502.447.251zM52.017 60.71l.223-.251h.446l.223.502-.223.752h-.669l-.446-.502.446-.501zM52.909 53.021h.223l.223.753v1.003l.223.753-.223.752H52.24l-.445-.502v-2.006l-.224-.502.669-.501.669.25zM46.218 53.523l.222-.502h.447l.446.251.223 1.254-.669.502-.447-.251-.222-.753v-.501zM50.233 65.258l1.338-.25h1.115v.752l-.446 1.004-.891.752-1.116-.251-1.338-.501-.447-.502.447-.753 1.338-.251zM46.218 65.509l.445-.251.446.502-.222.502-.669.251-.224-.251v-.502l.224-.251zM64.285 8.421h.446l.447.502-.224.501-1.115.251-.445-.752.445-.502h.446zM58.932 6.098h.222l.447.501-.223.502h-.446l-.447-.502v-.501h.447zM54.693 2.52h.892l.893.251.224.752v1.003l-.671.502h-.669l-.669-.251h-.891l-.447-.752-.223-.753.892-.752h.669zM50.009 8.923l.224-.251h.446l-.223.752-.223.251h-.447v-.502l.223-.25zM55.139 10.995l.446-.753 1.786-.251.668.502.893.251 1.561-.251.445.251.224 1.505-.224 1.254-.445.502h-.892l-1.116-.502-1.338-.752H55.362l-.446-.502v-1.003l.223-.251zM51.349 14.137l.222.251-.222.25-.447.251h-.446l-.223-.251.223-.752h.669l.224.251zM54.916 16.962l.446.25v.753l-.223.753h-.446l-.445-.502-.224-.753.447-.501h.445zM59.601 18.216l.892-1.004.892-.501.892.251 1.562.25 1.115.251.224.502v1.756l-.67 1.254-.446.753h-1.116l-.892.501-1.337.251-.67.251-1.115-.752-.893-.502-.223-1.254 1.116-1.254.669-.753zM57.371 24.4l.668-.25.67.752.445.502v.251h-2.229l-.447-.753.447-.502h.446zM58.039 26.69h.67l.445.502v.502l-.669.251-.669-.251v-.753l.223-.251zM65.178 28.513h.222l.223.501-.445.502-.447-.251v-.251l.223-.501h.224zM60.938 28.513l.224-.251h.445l.447.251v1.003l.446.753.894 1.002v1.004l-.67.251h-1.117l-.89-.502v-1.755l-.224-1.255.445-.501zM65.178 33.595h.445l.446.502-.222.251H65.4l-.669-.251.223-.502h.224zM55.809 31.522l.446-.501.67-.501.891-.251.893.752v1.003l-.67.502h-.892l-1.562 1.254-.223-.251v-1.254l.447-.753zM53.132 26.69l.446-.25.893.501.668 1.004-.223 1.003-.445.502h-.669l-.447-.753-.669-1.003.223-.753.223-.251zM47.109 29.014l.447-.501h.892l.892.251h1.339l.892.501.446 1.255.223.751-.223 1.004-.892.752-.669.753-.893.753-1.338.501h-2.231l-.668-.501-.446-1.506.223-1.254.446-.752 1.114-1.505.446-.502zM51.571 22.394l.224-.501.445.251.446.501.223.752-.892.502-.668-.753v-.501l.222-.251zM49.563 18.5h.223l.67.502v.501h-1.34l-.221-.501.445-.502h.223zM47.779 22.144l.446-.251.446.501v.752l-.669.251-.669-.251v-.501l.223-.501h.223zM65.4 37.425l.223.251-.223.752-.669.251-.223-.502.223-.752.223-.251.446.251zM61.162 40.783l.445-.501 1.117-.251.67.502.222.501-.222.753.222.752.446 1.004v1.003l-.891.502-1.117.251-.892-1.003-1.115-.251-.223-.753.223-1.254.67-.753.445-.502zM30.604 43.859l.892-.753h1.115l.669 1.004 1.116.502.446 1.254-.224 1.254-.891 1.004-1.116 1.003-1.784 1.004-1.339-.251-.892-.251v-1.003l-.668-.753V46.87l.891-1.255 1.116-.752.669-1.004zM36.403 41.253l-1.339-.502-.446-.752.67-.502 1.563-.251h3.567l1.338.502.67.502v2.006l-.67.502-1.562.753H39.08l-.669-1.004-.892-.752-1.116-.502zM37.965 47.688h1.339l.89.752v1.003l-.445.753-.669.502-.446-.502-.446-.502-1.115-.251h-.67l-.446-.752.446-1.003h1.562zM47.779 38.428h.669l.668.502.224.502-.445.501-1.116-.25-.892-.502-.224-.502.446-.502.67.251zM48.225 42.038l.67.251 1.114 1.254.224.753-.447.501-.67.502-.668-.502-1.115-1.003-.893-1.004-.222-.501.445-.753h.893l.669.502zM44.656 45.113h.447l1.115.502.891.753.447.752-.223 1.004-.67.752-1.114-.25H44.21l-.445-.502v-.502l-.225-.502.225-1.254.222-.753h.669zM51.571 47.938l.669.251.669.502-.446 1.756h-.446l-.446-.502-1.338-.251v-.752l.223-.502.669-.502h.446zM55.139 46.368h.223l.669.502-.222.752h-.67l-.446-.502.223-.752h.223M51.795 36.169h.445l.669.251.223.754-.446.752-.891-.25-.67-.502.446-.754.224-.251zM43.765 33.595v.753l-.225.753h-.446l-.446-.753v-1.003l.446-.251h.446l.225.501zM56.478 40.5l.447.753-.447 2.258-1.339.251-1.337-.502-.447-.502-.223-.752-.669-.753-.223-.251.669-.752h.669l.893-.753 1.338.502.669.501zM44.656 26.69h.67l.446.502-.223.753-.223 1.003-1.116 1.004-.67.251-.446-.251-.446-.502.446-1.004.223-1.254.67-.502h.669zM37.741 30.018l.447-.251h2.23l.669 1.004-.223.5-.446.502-.669.251-.445.502-.67-.251-.669-.753-.446-.251v-.751l.222-.502zM35.288 32.592h.445l1.118.251 1.337.502.446 1.003.223.753-.446.752-.446.502-.892-.251-.67-.753-2.231-1.505v-.752l.446-.502h.67zM26.812 66.011h.223l.446.502-.223.251h-.669l-.223-.502.223-.251h.223zM27.258 63.001h.223l.447.752-.447.502-.669-.251-.446-.753.446-.501.446.251zM29.042 60.208h.223l.67.502v.752l-.67.251-.669-.752v-.502l.446-.251zM36.626 66.48l.225.251-.448.501-.446-.251.223-.501h.446zM34.842 62.084h.446l.445.753-.222.753-.669.25-.446-.501-.224-1.004.446-.251h.224zM40.194 62.805l.67.251.223.501-.223.753-.891.753-1.116-.251-.669-.753v-1.505l.669-1.004h.447l.445 1.004.445.251zM32.611 53.272l.447.251.222.752.892.502.224.753v1.003h-2.677l-1.562-2.007.225-1.254.669-.501h1.114l.446.501zM41.087 53.021h.892l.447 1.756-.224 1.254-1.115.753-2.23 1.003h-.669l-.669-.501v-1.004l1.338-.752.669-1.506.668-1.003h.893zM46.663 58.42h.67l1.115.501.668 1.004.67 1.003-.223 1.255-.223.752h-.669l-.669-.752-.893-.251-1.337-.251-.892-1.254-.224-1.004.447-.752.891-.502.669.251zM26.589 35.101l.446-.251.893.752 1.114 1.004.223.752v.753l-.892.251-.892.502h-1.115l-.223-.753-.223-1.756.223-1.254h.446zM29.488 31.239l.669-.502 1.116.502.446.753-.223.752-.892.251-1.339.251-.669-1.003.446-.753.446-.251zM44.434 19.253h.669v.752l-.223.502h-.67l-.223-.502.223-.752h.224zM18.782 5.345h.67l.891.502.223 1.003.223 1.254-.446.501h-.446l-.668-.751-.893-.753-.892-.502-.446-.501.223-.753h1.561zM28.15 16.525l.892-.251.223.502.223 1.505 1.116 1.255v1.003l-.669.753-.67.25-1.561-.501-1.115-1.255-.893-.501-.222-.753.892-.753 1.115-1.254h.669zM21.459 25.906h3.123l.446.752.223 1.255-.223.752-.446.502-.894-.753-1.56-.251h-1.562l-.223-.752.67-1.254.446-.251zM44.656 11.563l.67.25 2.23 1.003.223.753v1.254l-.446.753-.446.752h-.447l-.446-1.505-.891-.251-1.338-.251-.893-.501-.446-.502v-.753l.891-1.002.67-.251.669.251zM32.611 26.407l.447-.25h1.338l.222 1.003.224.753.891.501.224.502v.753l-.446.251h-1.115l-1.338-.753h-1.116l-.891-.753-.224-.501.224-.502.891-.502.669-.502zM26.392 6.788h.669l1.114.752-.223 1.004-1.115.752-.445.251-.448-.251-.446-.752V7.289l.446-.501h.448zM31.451 9.852h.446l.223.752.223.752-.223.502-.669-.251-.445-1.003-.225-.501.448-.251h.222M26.812 12.381h.669l.223.752-.446.502h-.892l-.446-.251v-.502l.446-.501h.446zM23.913 13.384l.223.251.669.753-.669.501h-.448l-.668-.752v-.753h.893zM22.573 19.067l.447.251.893.502v.501l-.893.502-.669-.251-.669-.752-.223-.502.446-.502.668.251zM14.32 22.579l.447-1.003.67-.753h.891l.445.251h1.563l.893.251.445.752v.502l-.668.502-1.116.251-1.339.752-1.114.753-.67-.251-.669-.502-.224-.501.446-1.004zM18.113 16.46l.447.251.222.501-.222.502-.447.251-.669-.753-.223-.752h.892zM17.444 11.563h2.008l1.114.25.447.752v1.255l-.224.752-.446.251-.446-.502-.223-.752-1.114-.502-1.339-.502-.223-.501.223-.251.223-.25zM33.727 16.776l.891-.251 1.115.251.447.753-.223 1.003-1.115.502-.67.251-.892-1.004-1.338-.502v-.501l.223-.502h1.562zM39.304 20.572l.445.251h.892l1.115.251.67.752v.753l-.447 1.004-.668.752-.67-.251-1.337-.752-1.116-.251-.447-.502-.222-.502.446-1.003.669-.753.67.251zM39.749 12.314l.669.502.223 1.004-.223 1.003h-.669l-.892-.251-.446-.752-.67-.502.224-1.004.446-.501h.893l.445.501zM36.403 8.17h.448l.445.502-.445.752-.671.251-.669-.502.669-1.003h.223zM66.516 57.133h.222l.447.502.222.753-.222.25h-.892l-.446-.501v-.753l.446-.502.223.251zM60.271 48.691l.446-.502h2.677l.668-.501h.892l.669.25.893 1.255 1.338 1.505v1.003l-.223.753-.446.753-1.116.25H62.724l-.67-.501-1.116-.502-.891-.753-.669-1.003v-.753l.446-1.003.447-.251zM66.293 41.787h.223l.891.251.447.501v.753l-.223.753h-1.784l.222-.753.224-1.254v-.251zM64.508 24.651V24.4l.67-.501 1.338-.251.669.752v1.255l.446.502.223.752v.753l-.447.501-.669-.25-1.115-1.004-1.115-1.505-.223-.753h.223zM66.069 6.85v-.251l.447-.501h1.115l.223.501v.753l-.447.502-1.114-.251-.224-.502V6.85zM9.859 5.028l-.669-.251-.669-.752v-.502l.447-.752L10.752.764h1.561l1.338.251.893 1.004.223.752v.752l-1.338.752-1.562.753-1.115.251-.893-.251zM18.56 3.021h-.224l-.446-1.755.223-.502.669.502.447.753v.25l-.447.752h-.222zM21.905 2.269h-.446l-.224-.501.224-.502h.669l.445.502-.222.251-.446.25zM26.589 4.777l-.446-.251-.447-.752-.891-1.003-.223-.752 1.114-1.004 1.339-.251.669.251 1.338-.251.446.502.223 1.254-.669.752-1.114.251-.224.502-.892.752h-.223zM33.058 6.282l-.447-.501-.669-.753-.669-.753V3.021l.223-.25 1.115-.752h.669l1.338.752h1.562l.671.501v.502l-.671.752-1.116.753-.668 1.254h-.669l-.669-.251zM45.326 6.784l-.223-.753-1.116-1.003-2.008-.753-.223-.501 1.338-1.505 1.562-.752 1.562-.502h1.338l1.339.502 1.338.752.223 1.003v.753l-.223.752-1.117.502-.668.752-.446 1.004-.446.753h-.893l-.891-.251-.446-.753zM61.385 4.275l-.668-.501-.446-1.505V1.266l1.56-.502h.669l.671.502.223 1.003v1.254l1.114 1.254-.223.502-1.561-.251-.67-.251-.669-.502z"/><path fill="none" stroke="black" stroke-width="1" stroke-linecap="square" stroke-linejoin="round" stroke-miterlimit="10" d="M.269 65.291h.222l.67.501.446 1.255-.446.501v.753M.269 34.599h.222l.893-1.004h.669l.222.502-.222.753-1.115.752-.447.753H.269M.269 11.813h.222l.67.501.668 1.004.224.502-.446 1.003-.669.502H.269M1.161.262v1.004l-.223.251-.447.251H.269M34.172.262v.251l-.222.251-.892.251-.893-.251-.446-.251V.262M68.3 1.768h-.224L67.631.513V.262M68.3 15.325h-.446l-1.338-.753-.669-.502h-1.116l-.446-.25-.223-.251v-.502l.446-.251h1.339l.891-.502.669-.501h.893M68.3 36.355h-.446v-.502l.222-1.254h.224M67.631 68.301v-.502l.223-2.508h.446M31.719 68.301v-.251l-.223-.251-.892-.251-.222-.501.445-1.255v-1.254l.446-.502.669.251.447 1.254.669 1.004.892.753.222.752v.251"/></svg>
