<svg xmlns="http://www.w3.org/2000/svg" width="42.876" height="42.52" viewBox="0 0 42.876 42.52"><ellipse fill="none" stroke="black" stroke-width="1" cx="26.844" cy="21.249" rx=".902" ry=".768"/><path fill="none" stroke="black" stroke-width="1" d="M4.257 33.085c-.599.333-1.28.246-1.524-.193-.244-.438.044-1.065.642-1.397.598-.333 1.021.056 1.264.494.244.441.216.763-.382 1.096z"/><ellipse transform="rotate(169.235 1.032 14.487)" fill="none" stroke="black" stroke-width="1" cx="1.031" cy="14.487" rx=".799" ry="1.092"/><ellipse transform="rotate(75.238 20.322 16.7)" fill="none" stroke="black" stroke-width="1" cx="20.323" cy="16.699" rx=".909" ry="1.238"/><ellipse fill="none" stroke="black" stroke-width="1" cx="12.131" cy="37.896" rx="1.155" ry=".786"/><ellipse fill="none" stroke="black" stroke-width="1" cx="9.385" cy="22.556" rx="1.155" ry=".786"/><path fill="none" stroke="black" stroke-width="1" d="M17.712 30.627c.541-.083.932-.461.873-.846-.059-.384-.545-.626-1.085-.544-.541.084-.667.482-.608.866.058.384.28.608.82.524zM24.781 31.941c.537.108 1.033-.114 1.11-.493.076-.382-.296-.777-.832-.887-.537-.107-.793.226-.869.606-.077.381.055.666.591.774zM42.031 39.236c.46-.047.646-.555.624-.784-.024-.23-.281-.44-.74-.394-.46.047-.814.272-.79.503.023.23.447.722.906.675z"/><ellipse fill="none" stroke="black" stroke-width="1" cx="34.873" cy="20.021" rx=".903" ry=".768"/><ellipse fill="none" stroke="black" stroke-width="1" cx="36.006" cy="28.956" rx="1.155" ry=".787"/><path fill="none" stroke="black" stroke-width="1" stroke-linecap="round" stroke-miterlimit="1.41" d="M36.703 25.287h.121M36.824 25.287"/><path fill="none" stroke="black" stroke-width="1" d="M29.696 40.674c.542-.082.933-.461.874-.844-.058-.385-.544-.629-1.085-.545-.541.082-.667.481-.608.864.057.385.279.608.819.525z"/><ellipse fill="none" stroke="black" stroke-width="1" cx="26.463" cy="5.25" rx=".867" ry=".828"/><path fill="none" stroke="black" stroke-width="1" d="M13.229 7.592c.548 0 .716-.314.716-.703 0-.388-.168-.703-.716-.703-.547 0-.991.315-.991.703 0 .388.444.703.991.703z"/><ellipse fill="none" stroke="black" stroke-width="1" cx="40.339" cy="11.174" rx="1.268" ry=".832"/><path fill="none" stroke="black" stroke-width="1" d="M34.641 2.106c.54-.083.931-.461.872-.845-.059-.385-.544-.629-1.085-.546-.54.085-.668.484-.608.869.057.383.28.606.821.522z"/><path fill="param(fill)" d="M13.654 25.538a.44.44 0 1 1 0 .878.44.44 0 0 1 0-.878M17.544 23.658a.44.44 0 1 1 .002.878.44.44 0 0 1-.002-.878M20.749 35.492a.44.44 0 1 1-.439.439.438.438 0 0 1 .439-.439M25.56 41.457a.44.44 0 1 1-.439.439.438.438 0 0 1 .439-.439M25.56 36.96a.439.439 0 1 1 0 .878.439.439 0 0 1 0-.878M24.668 26.708a.44.44 0 1 1-.439.439c0-.243.196-.439.439-.439M21.894 29.393a.439.439 0 1 1 0 .878.439.439 0 0 1 0-.878M21.343 23.198a.44.44 0 1 1 .002.878.44.44 0 0 1-.002-.878M27.07 14.803a.44.44 0 1 1 .002.878.44.44 0 0 1-.002-.878M23.129 18.151a.439.439 0 1 1 0 .878.439.439 0 0 1 0-.878M8.664 13.38a.44.44 0 1 1-.439.439c0-.243.196-.439.439-.439M15.164 41.457a.44.44 0 1 1-.439.439.438.438 0 0 1 .439-.439M8.114 41.64a.44.44 0 1 1 .002.878.44.44 0 0 1-.002-.878M3.17 38.796a.44.44 0 1 1-.439.439.438.438 0 0 1 .439-.439M1.796 27.327a.44.44 0 1 1 .002.878.44.44 0 0 1-.002-.878M18.551 38.703a.439.439 0 1 1 0 .878.439.439 0 0 1 0-.878M14.707 34.392a.44.44 0 1 1 0 .88.44.44 0 0 1 0-.88M7.656 34.942a.44.44 0 1 1 .002.878.44.44 0 0 1-.002-.878M10.311 31.641a.44.44 0 1 1 .002.878.44.44 0 0 1-.002-.878M6.467 27.145a.44.44 0 1 1-.439.439c0-.243.196-.439.439-.439M4.635 21.638a.439.439 0 1 1 0 .878.439.439 0 0 1 0-.878M5.458 17.233a.44.44 0 1 1-.439.439.44.44 0 0 1 .439-.439M12.143 17.968a.44.44 0 1 1-.439.439c0-.243.196-.439.439-.439M15.988 18.519a.439.439 0 1 1 0 .878.439.439 0 0 1 0-.878M30.169 32.281a.439.439 0 1 1-.439.439.44.44 0 0 1 .439-.439M37.814 15.031a.44.44 0 1 1-.001.88.44.44 0 0 1 .001-.88M34.061 40.999a.439.439 0 1 1 0 .878.439.439 0 0 1 0-.878M40.103 41.457a.439.439 0 1 1-.439.439c0-.243.196-.439.439-.439M42.3 34.392a.44.44 0 1 1 0 .88.44.44 0 0 1 0-.88M31.863 35.952a.44.44 0 1 1-.439.439.438.438 0 0 1 .439-.439M37.356 37.146a.439.439 0 1 1 0 .878.439.439 0 0 1 0-.878M41.66 28.152a.44.44 0 1 1 .002.878.44.44 0 0 1-.002-.878M31.863 26.594a.439.439 0 1 1 0 .878.439.439 0 0 1 0-.878M30.765 16.774a.44.44 0 1 1-.439.439c0-.242.196-.439.439-.439M31.405 22.189a.439.439 0 1 1 0 .878.439.439 0 0 1 0-.878M39.004 22.28a.439.439 0 1 1-.439.439.44.44 0 0 1 .439-.439"/><path fill="param(fill)" d="M39.004 22.28a.439.439 0 1 1-.439.439.44.44 0 0 1 .439-.439M11.32 0a.439.439 0 1 1 0 .878.439.439 0 0 1 0-.878M16.674.688a.44.44 0 1 1 0 .88.44.44 0 0 1 0-.88M27.94 7.34a.44.44 0 1 1-.439.439c0-.243.197-.439.439-.439M27.666 11.009a.439.439 0 1 1 0 .878.439.439 0 0 1 0-.878M22.123 10.001a.439.439 0 1 1 0 .878.439.439 0 0 1 0-.878M6.467 10.459a.44.44 0 1 1-.439.439.438.438 0 0 1 .439-.439M4.27 6.147a.439.439 0 1 1 0 .878.439.439 0 0 1 0-.878M1.063 5.688a.44.44 0 1 1 .002.878.44.44 0 0 1-.002-.878M2.163 1.833a.44.44 0 1 1 0 .88.44.44 0 0 1 0-.88M12.052 10.642a.439.439 0 1 1 0 .878.439.439 0 0 1 0-.878M6.923 3.301a.44.44 0 1 1 0 .88.44.44 0 0 1 0-.88M18.551 6.604a.439.439 0 1 1 0 .878.439.439 0 0 1 0-.878M20.749 2.844a.44.44 0 0 1 0 .879.44.44 0 0 1 0-.879M28.933.09a.44.44 0 1 1-.001.88.44.44 0 0 1 .001-.88M34.976 11.56a.44.44 0 1 1 .002.878.44.44 0 0 1-.002-.878M31.313 3.576a.44.44 0 1 1 0 .88.44.44 0 0 1 0-.88M35.25 7.705a.439.439 0 1 1 0 .878.439.439 0 0 1 0-.878M31.771 10.551a.44.44 0 1 1 0 .88.44.44 0 0 1 0-.88M40.653 2.936a.439.439 0 1 1 0 .878.439.439 0 0 1 0-.878M39.004 7.891a.44.44 0 1 1-.439.439c0-.243.197-.439.439-.439"/></svg>
