<svg xmlns="http://www.w3.org/2000/svg" width="69.166" height="69.165" viewBox="0 0 69.166 69.165"><path fill="none" stroke="black" stroke-width="1" stroke-linejoin="round" stroke-miterlimit="500" d="M29.636 2.864v-.461l.363-.552.602-.37.699-.123.484.153.072.494-.41.553-.628.491-.794.183zM24.233 6.279l-.266-.428.026-.339.457-.399.844-.124.554.155.169.43-.143.462-.723.306zM20.205 6.157l-.194-.645.122-.645.289-.495.481.093.314.708.047.863-.217.519-.385.093zM13.353 2.895l.025-.613.602-.553.919-.063.409.49-.024.679-.507.49-.869.092zM13.74 8.377l-.17-.676.265-.369.604-.092.604.647.145.582-.169.552h-.749zM6.388 6.187V5.173l.29-.554.482-.154.507.154.313.738.071.8-.36.675h-.749zM2.003 5.482l-.072-.552.386-.465.601.062.724.922.145.524-.265.582-.579.034-.626-.587zM4.313 13.883l-.121-.495.482-.613.797-.092.772.369.313.584-.096.522-.628.522-.674-.094-.459-.305zM1.134 27.829v-.858l.217-.278.941.093.675.429.338.678-.048.584-.362.4-.772-.031-.652-.555zM3.787 37.35l.315-.798.7-.401.843.033.41.519.025.709-.483.433-.65.182-.821-.153zM4.271 43.854l.047-1.875.362-.401.484.126.578.795.217.985-.145.831-.507.306-.602-.153zM2.027 52.012l-.024-.46.555-.769.747-.09.241.397-.144.709-.29.614-.482.244-.385-.183zM9.113 11.452l-.095-.489.434-.46.868-.063.53.429.096.525-.314.489-.674.062-.483-.155zM17.72 11.67l-.362-.402.023-.278.653-.487 1.179-.214.436.307-.024.457-.483.492-.53.125zM22.279 13.664l-.025-.858.339-.369.578.063.386.489.168.675-.119.71-.435.212-.458-.092zM26.163 11.576l-.097-.4.144-.368.507-.242.556-.033.507.583v.829l-.507.214-.724-.214zM30.385 9.083V7.915l.433-.675.579.03.436.399-.049.922-.531.829-.532.093zM32.846 18.188l-.339-.494-.312-.825.072-.676.434-.522.433-.031.482.646.05.766-.217.798-.363.369zM27.828 17.694l-.266-.394.072-.491.555-.645.555-.186.748.031.242.398-.026.645-.578.522-.627.183zM30.843 24.872l.99-.092.143.186-.023.951-.53.431-.363.491-.555.093-.361-.522-.048-.678zM27.442 23.947l-1.015-.062-.482-.307-.217-.582.097-.552.435-.462.675.029.579.492.266.707v.277zM21.796 18.748l.7-.126.578.432.386.83.024.675-.313.431-.77-.121-.749-.707-.267-.802zM19.142 21.642l.459.34.072.428-.361.586-.579.214-1.013-.029-.411-.368v-.647l.411-.4.603-.214zM15.308 15.577l.964-.03.579.369.675.802-.024.733-.289.429-.796.032-.723-.554-.459-.703-.096-.584zM10.922 15.888l.362-.311h.556l.506.554.314.862-.073.827-.362.492h-.385l-.579-.768-.315-.951zM13.546 24.752l.411-.306h.627l.555.581.145.583-.168.71-.579.09-.629-.552-.338-.553zM8.896 22.134l.435-.555.651-.183.723.125.314.52-.073.369-.505.403-.676.306-.724-.123-.168-.308zM4.077 20.438l-.218-.431.098-.583.603-.647.676-.213.819.245.097.43-.362.554-.965.645zM6.001 28.792l.048-.771.459-.46h.844l.723.431.241.553-.047.8-.531.277-1.085-.185zM8.727 33.563l1.135-.092.603.369.264.553-.024.615-.361.341h-.82l-.676-.617-.242-.583zM12.968 31.59l.264-.612.652-.398h.772l.41.307.098.551-.532.584-.844.152-.651-.186zM19.577 28.477l.024-.493.604-.955.722-.369.386.156.024.768-.459.8-.456.462h-.531zM23.507 28.236l.534-.462.553.063.557.617.167.706-.12.921-.459.492-.554-.155-.579-1.013zM29.564 31.805l.17-.672.843-.432.94-.057.339.489-.097.579-.723.401-.748-.032-.458-.093zM26.477 33.471l.819-.059.677.645.072.797-.434.309-.773-.063-.603-.338-.218-.522.098-.459zM23.581 36.214l.144.398-.218.553-.721.554-.772.032-.314-.494.314-.645.676-.428zM19.287 33.533l.195.368-.122.618-.556.425-.675-.09-.505-.335-.218-.311.048-.553.459-.336.65-.033zM32.628 38.617l.625.029.485.399.362.738-.05.951-.458.494-.555-.125-.53-.49-.264-.554-.025-.955zM28.937 39.144h.845l.434.553-.048.49-.434.617-.531.369-.677-.031-.553-.431.024-.645.289-.553zM30.288 47.146l.506.028.506.585.217.77-.047.738-.29.367-.386-.062-.433-.431-.409-.738-.122-.705zM26.983 45.088l.7.062.458.582.048.768-.098.491-.552.277-.725-.156-.53-.427-.169-.494.145-.549.336-.399zM22.665 42.193l.553-.214.459.122.218.617-.17.674-.507.43-.625.338-.7-.061-.169-.431.049-.461.481-.553zM19.07 45.426l.386.553.29.488-.073.369-.361.276-1.014-.028-.554-.462-.242-.584.024-.396.315-.244.674-.126zM17.309 39.943l.097.676-.12.523-.387.337-.531-.151-.578-.556-.216-.706-.049-.645.169-.336.578-.067.65.403zM11.573 39.236l.218-.092.411.398.095.771-.047.766-.193.555-.242.121-.459-.398-.24-.676.12-.984zM14.174 48.133l.869.093.41.4.024.676-.434.398-.628.186-.675-.093-.411-.462-.025-.461.339-.553zM9.934 44.661l.41-.094.288.462.073.977-.218.801-.361.461h-.457l-.169-.461v-.828l.192-.86zM6.388 51.09l.29-.46.723-.029.555.305.408.587-.144.888-.771.032-.554-.308-.411-.429zM4.174 60.051l.506-.459.7.03.53.612.217.582-.217.647-.555.121-.698-.214-.508-.674zM10.199 56.389l.578-.031.266.613v.737l-.266.738-.529.554-.531.093-.265-.307.023-.739.314-.95zM13.595 53.462l.483-.186.482.402.289.767.05.675-.17.709-.41.121-.386-.337-.315-.8zM18.106 55.896l.409-.124.362.37.216.829-.169 1.138-.361.461-.457-.062-.314-.551-.048-1.229zM19.963 51.307l.531-.8.458-.155.338.524.121 1.076-.194.705-.434.4-.531-.4-.241-.612zM24.304 50.601l.652.12.507.772.216.612-.168.645-.338.398-.579-.091-.385-.583-.266-.738.024-.737zM16.343 62.453l.966.031.289.46-.047.583-.46.557-.481.243-.508-.06-.337-.557.025-.645zM31.036 53.615l.531-.153.313.246-.096.645-.242.523-.531.52-.481.156-.434-.094-.05-.645.387-.582zM26.427 56.572l.725-.027.482.333.363.494.048.585-.362.522-.459.029-.651-.368-.435-.525-.048-.489zM22.254 59.807l.701-.122.722.122.12.488-.24.584-.675.398-.603.031-.483-.152-.121-.523.194-.525zM28.72 62.888l.385-.12.508.12-.024.616-.412.615-.651.584-.409-.153-.049-.677.29-.616zM32.364 62.329l.53-.369.505.183.507.524.194.554-.145.524-.506.028-.652-.46-.41-.43zM22.424 64.856l.458.065.241.582.048.893-.144.855-.409.247-.411-.125-.265-.519-.025-1.075.168-.583zM11.888 62.115l.409-.216.435.309.073.645-.024 1.629-.314.338-.554-.124-.363-.492-.072-.953.12-.705zM4.585 65.573l.337.058.385.83.169 1.073-.218.738-.408.213-.41-.305-.314-.617-.097-.515.073-.772.169-.52z"/><path fill="none" d="M18.966 68.106l-.19-.035-.652.696-.038.397h1.175l.043-.5a58.876 58.876 0 0 1-.338-.558zM10.136 68.479l-.485-.072-.366.468v.291h1.104v-.165l-.253-.522zM27.392 67.877l-.28-.201-.412.167-.467 1.132-.019.19h1.248l.047-.838c-.013-.055-.092-.352-.117-.45z"/><path fill="param(fill)" d="M9.285 68.874l.366-.468c.097.016.388.058.485.072l.253.521v.165h.295v-.218a.243.243 0 0 0-.022-.1l-.313-.645a.146.146 0 0 0-.108-.087l-.627-.093c-.044-.007-.089.013-.121.054l-.459.587a.22.22 0 0 0-.043.132v.369h.295l-.001-.289zM18.124 68.768l.652-.696.19.035c.054.091.282.47.337.559l-.043.5h.297l.046-.534a.233.233 0 0 0-.03-.134l-.409-.68a.143.143 0 0 0-.097-.071l-.313-.059a.129.129 0 0 0-.116.042l-.748.798a.205.205 0 0 0-.051.121l-.05.517h.297l.038-.398zM26.233 68.975l.467-1.132.412-.167.28.201c.024.098.104.396.117.45l-.047.838h.297l.046-.85a.218.218 0 0 0-.007-.072l-.145-.555a.195.195 0 0 0-.068-.104l-.385-.276a.126.126 0 0 0-.117-.016l-.531.216a.163.163 0 0 0-.086.092l-.507 1.229a.194.194 0 0 0-.015.063l-.028.271h.298l.019-.188z"/><path fill="none" d="M1.593 45.813l.017-.617-.589-.226-.882.085-.139.176v1.323l.865-.087.728-.654zM.746 58.54c.05-.024.508-.258.551-.279l.394-.45.016-.299-.128-.164-.938-.025c-.058.043-.408.298-.447.325L0 57.944v.567l.746.029zM.147 35.238c.104.023.464.106.547.127l.63-.5.338-.538v-.844l-.271-.393c-.122.026-.595.131-.67.146-.047.065-.517.681-.721.95v.889l.063-.041.084.204zM.42 10.45l-.099.572.126.646.379.508.324.109.252-.414.063-.75-.287-.647-.469-.201-.289.177zM1.361 23.239l.246-.313-.035-.404-.411-.608-.357-.24-.699-.053-.105.13v.936l.535.582.826-.03z"/><path fill="param(fill)" d="M.636 9.902l-.408.248a.184.184 0 0 0-.081.13l-.122.704a.249.249 0 0 0 .001.086l.144.737a.212.212 0 0 0 .036.084l.434.583a.164.164 0 0 0 .069.052l.459.155c.057.02.119-.008.154-.067l.337-.554a.191.191 0 0 0 .031-.094l.073-.862a.239.239 0 0 0-.018-.113l-.337-.763a.165.165 0 0 0-.082-.086l-.579-.248a.118.118 0 0 0-.111.008zm.828 1.22l-.063.75-.252.414-.324-.109-.379-.508a194.73 194.73 0 0 0-.126-.646l.099-.572.289-.177.469.201.287.647zM.105 21.621l.699.053.357.24.411.608.035.404-.246.313-.826.029L0 22.687v.493l.387.42a.125.125 0 0 0 .1.045l.941-.031a.136.136 0 0 0 .1-.055l.337-.43a.218.218 0 0 0 .042-.153l-.047-.552a.226.226 0 0 0-.035-.103l-.459-.68a.167.167 0 0 0-.043-.041l-.41-.276a.104.104 0 0 0-.06-.021l-.795-.061a.107.107 0 0 0-.058.01v.499l.105-.13zM.722 33.237l.67-.146c.069.1.222.32.271.393v.844l-.338.538-.63.5a40.792 40.792 0 0 0-.547-.127 515.78 515.78 0 0 1-.084-.205l-.064.04v.509a.558.558 0 0 0 .023.009l.675.155a.125.125 0 0 0 .104-.026l.7-.554a.169.169 0 0 0 .037-.042l.387-.614a.22.22 0 0 0 .033-.118v-.98a.216.216 0 0 0-.037-.124l-.362-.523c-.034-.049-.085-.072-.136-.061l-.799.174a.137.137 0 0 0-.081.055L0 33.646v.539l.722-.948zM.139 45.056l.882-.085.589.226-.017.617-.729.654-.864.087v.377l.928-.094a.133.133 0 0 0 .073-.034l.822-.736a.204.204 0 0 0 .062-.148l.023-.854c.002-.087-.041-.163-.105-.188l-.723-.276a.113.113 0 0 0-.054-.008l-.963.093a.118.118 0 0 0-.063.027v.518l.139-.176zM1.962 57.024l-.217-.279a.135.135 0 0 0-.102-.055l-1.038-.028a.125.125 0 0 0-.076.024l-.505.369c-.009.008-.016.018-.024.027v.579c.074-.113.176-.269.193-.297.039-.027.389-.282.447-.325l.938.025.128.164-.016.299-.394.45c-.042.021-.501.255-.551.279-.041 0-.505-.019-.745-.027v.375l.768.03c.02.001.04-.004.059-.014l.604-.306a.183.183 0 0 0 .044-.035l.458-.523a.214.214 0 0 0 .049-.128l.024-.459a.22.22 0 0 0-.044-.145zM.596 68.077l.742-.218.13.135-.148.545-.495.626h.418l.309-.391a.203.203 0 0 0 .036-.072l.192-.709a.218.218 0 0 0-.046-.206l-.265-.277a.126.126 0 0 0-.126-.037l-.846.248a.152.152 0 0 0-.059.036L0 68.2v.479l.596-.602z"/><path fill="none" d="M9.626 1.032c.072.019.307.074.393.095l.349-.325.022-.796H9.285v.515l.341.511zM26.292.845c.098.018.538.094.601.104.054-.026.313-.157.392-.197.035-.096.14-.38.156-.427l.021-.319h-1.248l-.045.622.123.217zM18.243 1.161l.444-.046.532-.731.041-.378h-1.174c-.023.189-.062.491-.069.556l.226.599z"/><path fill="param(fill)" d="M10.367.802l-.349.325c-.085-.021-.32-.076-.392-.095L9.285.521V.006H8.99V.59c0 .044.013.087.035.121l.41.615a.156.156 0 0 0 .085.064l.507.121c.04.01.082-.002.115-.033l.458-.427a.208.208 0 0 0 .06-.146l.025-.899h-.295l-.023.796zM19.219.384l-.532.731-.444.046-.226-.6.069-.556h-.299l-.068.555a.217.217 0 0 0 .012.11l.29.77c.026.069.084.112.145.105l.603-.063a.134.134 0 0 0 .097-.06l.603-.829a.214.214 0 0 0 .039-.102l.052-.487h-.3l-.041.38zM27.441.325l-.156.427c-.079.04-.338.171-.392.197l-.601-.104-.123-.217.045-.622h-.297l-.047.658a.235.235 0 0 0 .027.127l.193.34a.148.148 0 0 0 .1.076l.701.121a.11.11 0 0 0 .073-.011l.482-.243a.178.178 0 0 0 .079-.096l.192-.524a.22.22 0 0 0 .013-.063l.027-.385h-.297c-.006.134-.017.289-.019.319zM.804.037C.769.06.279.385.184.446.151.432.066.39 0 .359v.4l.142.068a.12.12 0 0 0 .12-.01L.96.357A.17.17 0 0 0 .997.323l.249-.317H.828L.804.037z"/><path fill="none" d="M34.095 46.382l.298.201c.03-.006.114-.018.188-.029v-1.336l-.522.593.036.571zM34.582 34.866v-.581l-.063.419.063.162zM34.402 22.356l.18.276v-.903l-.105.108-.075.519zM34.537 58.512h.045v-.466l-.122.219.077.247z"/><path fill="param(fill)" d="M34.402 22.356l.074-.519.105-.108v-.481l-.333.34a.206.206 0 0 0-.053.113l-.095.675a.226.226 0 0 0 .03.154l.451.69v-.588a22.441 22.441 0 0 1-.179-.276zM34.519 34.704l.063-.419v-.614l-.223.282a.205.205 0 0 0-.041.098l-.098.645a.226.226 0 0 0 .013.121l.284.722.064-.042v-.63a13.132 13.132 0 0 0-.062-.163zM34.393 46.583l-.298-.201-.036-.571.522-.593v-.503l-.773.877a.213.213 0 0 0-.049.155l.049.768a.196.196 0 0 0 .078.151l.409.275a.125.125 0 0 0 .087.021l.199-.03v-.379c-.074.012-.158.024-.188.03zM34.537 58.512l-.077-.247.122-.219v-.648l-.409.733a.236.236 0 0 0-.017.179l.145.459c.023.071.077.118.137.118h.145v-.375h-.046zM34.318 68.469a.188.188 0 0 0-.047.092l-.131.604h.306l.097-.449c.009-.008.022-.024.039-.042v-.492l-.264.287zM34.542.324c-.025-.057-.077-.167-.113-.246l.019-.072h-.311l-.009.033a.221.221 0 0 0 .013.154l.169.369a.172.172 0 0 0 .062.073l.21.133V.35l-.04-.026z"/><path fill="none" stroke="black" stroke-width="1" stroke-linejoin="round" stroke-miterlimit="500" d="M29.636 2.864v-.461l.363-.552.602-.37.699-.123.484.153.072.494-.41.553-.628.491-.794.183zM24.233 6.279l-.266-.428.026-.339.457-.399.844-.124.554.155.169.43-.143.462-.723.306zM20.205 6.157l-.194-.645.122-.645.289-.495.481.093.314.708.047.863-.217.519-.385.093zM13.353 2.895l.025-.613.602-.553.919-.063.409.49-.024.679-.507.49-.869.092zM13.74 8.377l-.17-.676.265-.369.604-.092.604.647.145.582-.169.552h-.749zM6.388 6.187V5.173l.29-.554.482-.154.507.154.313.738.071.8-.36.675h-.749zM2.003 5.482l-.072-.552.386-.465.601.062.724.922.145.524-.265.582-.579.034-.626-.587zM4.313 13.883l-.121-.495.482-.613.797-.092.772.369.313.584-.096.522-.628.522-.674-.094-.459-.305zM1.134 27.829v-.858l.217-.278.941.093.675.429.338.678-.048.584-.362.4-.772-.031-.652-.555zM3.787 37.35l.315-.798.7-.401.843.033.41.519.025.709-.483.433-.65.182-.821-.153zM4.271 43.854l.047-1.875.362-.401.484.126.578.795.217.985-.145.831-.507.306-.602-.153zM2.027 52.012l-.024-.46.555-.769.747-.09.241.397-.144.709-.29.614-.482.244-.385-.183zM9.113 11.452l-.095-.489.434-.46.868-.063.53.429.096.525-.314.489-.674.062-.483-.155zM17.72 11.67l-.362-.402.023-.278.653-.487 1.179-.214.436.307-.024.457-.483.492-.53.125zM22.279 13.664l-.025-.858.339-.369.578.063.386.489.168.675-.119.71-.435.212-.458-.092zM26.163 11.576l-.097-.4.144-.368.507-.242.556-.033.507.583v.829l-.507.214-.724-.214zM30.385 9.083V7.915l.433-.675.579.03.436.399-.049.922-.531.829-.532.093zM32.846 18.188l-.339-.494-.312-.825.072-.676.434-.522.433-.031.482.646.05.766-.217.798-.363.369zM27.828 17.694l-.266-.394.072-.491.555-.645.555-.186.748.031.242.398-.026.645-.578.522-.627.183zM30.843 24.872l.99-.092.143.186-.023.951-.53.431-.363.491-.555.093-.361-.522-.048-.678zM27.442 23.947l-1.015-.062-.482-.307-.217-.582.097-.552.435-.462.675.029.579.492.266.707v.277zM21.796 18.748l.7-.126.578.432.386.83.024.675-.313.431-.77-.121-.749-.707-.267-.802zM19.142 21.642l.459.34.072.428-.361.586-.579.214-1.013-.029-.411-.368v-.647l.411-.4.603-.214zM15.308 15.577l.964-.03.579.369.675.802-.024.733-.289.429-.796.032-.723-.554-.459-.703-.096-.584zM10.922 15.888l.362-.311h.556l.506.554.314.862-.073.827-.362.492h-.385l-.579-.768-.315-.951zM13.546 24.752l.411-.306h.627l.555.581.145.583-.168.71-.579.09-.629-.552-.338-.553zM8.896 22.134l.435-.555.651-.183.723.125.314.52-.073.369-.505.403-.676.306-.724-.123-.168-.308zM4.077 20.438l-.218-.431.098-.583.603-.647.676-.213.819.245.097.43-.362.554-.965.645zM6.001 28.792l.048-.771.459-.46h.844l.723.431.241.553-.047.8-.531.277-1.085-.185zM8.727 33.563l1.135-.092.603.369.264.553-.024.615-.361.341h-.82l-.676-.617-.242-.583zM12.968 31.59l.264-.612.652-.398h.772l.41.307.098.551-.532.584-.844.152-.651-.186zM19.577 28.477l.024-.493.604-.955.722-.369.386.156.024.768-.459.8-.456.462h-.531zM23.507 28.236l.534-.462.553.063.557.617.167.706-.12.921-.459.492-.554-.155-.579-1.013zM29.564 31.805l.17-.672.843-.432.94-.057.339.489-.097.579-.723.401-.748-.032-.458-.093zM26.477 33.471l.819-.059.677.645.072.797-.434.309-.773-.063-.603-.338-.218-.522.098-.459zM23.581 36.214l.144.398-.218.553-.721.554-.772.032-.314-.494.314-.645.676-.428zM19.287 33.533l.195.368-.122.618-.556.425-.675-.09-.505-.335-.218-.311.048-.553.459-.336.65-.033zM32.628 38.617l.625.029.485.399.362.738-.05.951-.458.494-.555-.125-.53-.49-.264-.554-.025-.955zM28.937 39.144h.845l.434.553-.048.49-.434.617-.531.369-.677-.031-.553-.431.024-.645.289-.553zM30.288 47.146l.506.028.506.585.217.77-.047.738-.29.367-.386-.062-.433-.431-.409-.738-.122-.705zM26.983 45.088l.7.062.458.582.048.768-.098.491-.552.277-.725-.156-.53-.427-.169-.494.145-.549.336-.399zM22.665 42.193l.553-.214.459.122.218.617-.17.674-.507.43-.625.338-.7-.061-.169-.431.049-.461.481-.553zM19.07 45.426l.386.553.29.488-.073.369-.361.276-1.014-.028-.554-.462-.242-.584.024-.396.315-.244.674-.126zM17.309 39.943l.097.676-.12.523-.387.337-.531-.151-.578-.556-.216-.706-.049-.645.169-.336.578-.067.65.403zM11.573 39.236l.218-.092.411.398.095.771-.047.766-.193.555-.242.121-.459-.398-.24-.676.12-.984zM14.174 48.133l.869.093.41.4.024.676-.434.398-.628.186-.675-.093-.411-.462-.025-.461.339-.553zM9.934 44.661l.41-.094.288.462.073.977-.218.801-.361.461h-.457l-.169-.461v-.828l.192-.86zM6.388 51.09l.29-.46.723-.029.555.305.408.587-.144.888-.771.032-.554-.308-.411-.429zM4.174 60.051l.506-.459.7.03.53.612.217.582-.217.647-.555.121-.698-.214-.508-.674zM10.199 56.389l.578-.031.266.613v.737l-.266.738-.529.554-.531.093-.265-.307.023-.739.314-.95zM13.595 53.462l.483-.186.482.402.289.767.05.675-.17.709-.41.121-.386-.337-.315-.8zM18.106 55.896l.409-.124.362.37.216.829-.169 1.138-.361.461-.457-.062-.314-.551-.048-1.229zM19.963 51.307l.531-.8.458-.155.338.524.121 1.076-.194.705-.434.4-.531-.4-.241-.612zM24.304 50.601l.652.12.507.772.216.612-.168.645-.338.398-.579-.091-.385-.583-.266-.738.024-.737zM16.343 62.453l.966.031.289.46-.047.583-.46.557-.481.243-.508-.06-.337-.557.025-.645zM31.036 53.615l.531-.153.313.246-.096.645-.242.523-.531.52-.481.156-.434-.094-.05-.645.387-.582zM26.427 56.572l.725-.027.482.333.363.494.048.585-.362.522-.459.029-.651-.368-.435-.525-.048-.489zM22.254 59.807l.701-.122.722.122.12.488-.24.584-.675.398-.603.031-.483-.152-.121-.523.194-.525zM28.72 62.888l.385-.12.508.12-.024.616-.412.615-.651.584-.409-.153-.049-.677.29-.616zM32.364 62.329l.53-.369.505.183.507.524.194.554-.145.524-.506.028-.652-.46-.41-.43zM22.424 64.856l.458.065.241.582.048.893-.144.855-.409.247-.411-.125-.265-.519-.025-1.075.168-.583zM11.888 62.115l.409-.216.435.309.073.645-.024 1.629-.314.338-.554-.124-.363-.492-.072-.953.12-.705zM4.585 65.573l.337.058.385.83.169 1.073-.218.738-.408.213-.41-.305-.314-.617-.097-.515.073-.772.169-.52z"/><path fill="none" d="M18.966 68.106l-.19-.035-.652.696-.038.397h1.175l.043-.5a58.876 58.876 0 0 1-.338-.558zM10.136 68.479l-.485-.072-.366.468v.291h1.104v-.165l-.253-.522zM27.392 67.877l-.28-.201-.412.167-.467 1.132-.019.19h1.248l.047-.838c-.013-.055-.092-.352-.117-.45z"/><path fill="param(fill)" d="M9.285 68.874l.366-.468c.097.016.388.058.485.072l.253.521v.165h.295v-.218a.243.243 0 0 0-.022-.1l-.313-.645a.146.146 0 0 0-.108-.087l-.627-.093c-.044-.007-.089.013-.121.054l-.459.587a.22.22 0 0 0-.043.132v.369h.295l-.001-.289zM18.124 68.768l.652-.696.19.035c.054.091.282.47.337.559l-.043.5h.297l.046-.534a.233.233 0 0 0-.03-.134l-.409-.68a.143.143 0 0 0-.097-.071l-.313-.059a.129.129 0 0 0-.116.042l-.748.798a.205.205 0 0 0-.051.121l-.05.517h.297l.038-.398zM26.233 68.975l.467-1.132.412-.167.28.201c.024.098.104.396.117.45l-.047.838h.297l.046-.85a.218.218 0 0 0-.007-.072l-.145-.555a.195.195 0 0 0-.068-.104l-.385-.276a.126.126 0 0 0-.117-.016l-.531.216a.163.163 0 0 0-.086.092l-.507 1.229a.194.194 0 0 0-.015.063l-.028.271h.298l.019-.188z"/><path fill="none" d="M1.593 45.813l.017-.617-.589-.226-.882.085-.139.176v1.323l.865-.087.728-.654zM.746 58.54c.05-.024.508-.258.551-.279l.394-.45.016-.299-.128-.164-.938-.025c-.058.043-.408.298-.447.325L0 57.944v.567l.746.029zM.147 35.238c.104.023.464.106.547.127l.63-.5.338-.538v-.844l-.271-.393c-.122.026-.595.131-.67.146-.047.065-.517.681-.721.95v.889l.063-.041.084.204zM.42 10.45l-.099.572.126.646.379.508.324.109.252-.414.063-.75-.287-.647-.469-.201-.289.177zM1.361 23.239l.246-.313-.035-.404-.411-.608-.357-.24-.699-.053-.105.13v.936l.535.582.826-.03z"/><path fill="param(fill)" d="M.636 9.902l-.408.248a.184.184 0 0 0-.081.13l-.122.704a.249.249 0 0 0 .001.086l.144.737a.212.212 0 0 0 .036.084l.434.583a.164.164 0 0 0 .069.052l.459.155c.057.02.119-.008.154-.067l.337-.554a.191.191 0 0 0 .031-.094l.073-.862a.239.239 0 0 0-.018-.113l-.337-.763a.165.165 0 0 0-.082-.086l-.579-.248a.118.118 0 0 0-.111.008zm.828 1.22l-.063.75-.252.414-.324-.109-.379-.508a194.73 194.73 0 0 0-.126-.646l.099-.572.289-.177.469.201.287.647zM.105 21.621l.699.053.357.24.411.608.035.404-.246.313-.826.029L0 22.687v.493l.387.42a.125.125 0 0 0 .1.045l.941-.031a.136.136 0 0 0 .1-.055l.337-.43a.218.218 0 0 0 .042-.153l-.047-.552a.226.226 0 0 0-.035-.103l-.459-.68a.167.167 0 0 0-.043-.041l-.41-.276a.104.104 0 0 0-.06-.021l-.795-.061a.107.107 0 0 0-.058.01v.499l.105-.13zM.722 33.237l.67-.146c.069.1.222.32.271.393v.844l-.338.538-.63.5a40.792 40.792 0 0 0-.547-.127 515.78 515.78 0 0 1-.084-.205l-.064.04v.509a.558.558 0 0 0 .023.009l.675.155a.125.125 0 0 0 .104-.026l.7-.554a.169.169 0 0 0 .037-.042l.387-.614a.22.22 0 0 0 .033-.118v-.98a.216.216 0 0 0-.037-.124l-.362-.523c-.034-.049-.085-.072-.136-.061l-.799.174a.137.137 0 0 0-.081.055L0 33.646v.539l.722-.948zM.139 45.056l.882-.085.589.226-.017.617-.729.654-.864.087v.377l.928-.094a.133.133 0 0 0 .073-.034l.822-.736a.204.204 0 0 0 .062-.148l.023-.854c.002-.087-.041-.163-.105-.188l-.723-.276a.113.113 0 0 0-.054-.008l-.963.093a.118.118 0 0 0-.063.027v.518l.139-.176zM1.962 57.024l-.217-.279a.135.135 0 0 0-.102-.055l-1.038-.028a.125.125 0 0 0-.076.024l-.505.369c-.009.008-.016.018-.024.027v.579c.074-.113.176-.269.193-.297.039-.027.389-.282.447-.325l.938.025.128.164-.016.299-.394.45c-.042.021-.501.255-.551.279-.041 0-.505-.019-.745-.027v.375l.768.03c.02.001.04-.004.059-.014l.604-.306a.183.183 0 0 0 .044-.035l.458-.523a.214.214 0 0 0 .049-.128l.024-.459a.22.22 0 0 0-.044-.145zM.596 68.077l.742-.218.13.135-.148.545-.495.626h.418l.309-.391a.203.203 0 0 0 .036-.072l.192-.709a.218.218 0 0 0-.046-.206l-.265-.277a.126.126 0 0 0-.126-.037l-.846.248a.152.152 0 0 0-.059.036L0 68.2v.479l.596-.602z"/><path fill="none" d="M9.626 1.032c.072.019.307.074.393.095l.349-.325.022-.796H9.285v.515l.341.511zM26.292.845c.098.018.538.094.601.104.054-.026.313-.157.392-.197.035-.096.14-.38.156-.427l.021-.319h-1.248l-.045.622.123.217zM18.243 1.161l.444-.046.532-.731.041-.378h-1.174c-.023.189-.062.491-.069.556l.226.599z"/><path fill="param(fill)" d="M10.367.802l-.349.325c-.085-.021-.32-.076-.392-.095L9.285.521V.006H8.99V.59c0 .044.013.087.035.121l.41.615a.156.156 0 0 0 .085.064l.507.121c.04.01.082-.002.115-.033l.458-.427a.208.208 0 0 0 .06-.146l.025-.899h-.295l-.023.796zM19.219.384l-.532.731-.444.046-.226-.6.069-.556h-.299l-.068.555a.217.217 0 0 0 .012.11l.29.77c.026.069.084.112.145.105l.603-.063a.134.134 0 0 0 .097-.06l.603-.829a.214.214 0 0 0 .039-.102l.052-.487h-.3l-.041.38zM27.441.325l-.156.427c-.079.04-.338.171-.392.197l-.601-.104-.123-.217.045-.622h-.297l-.047.658a.235.235 0 0 0 .027.127l.193.34a.148.148 0 0 0 .1.076l.701.121a.11.11 0 0 0 .073-.011l.482-.243a.178.178 0 0 0 .079-.096l.192-.524a.22.22 0 0 0 .013-.063l.027-.385h-.297c-.006.134-.017.289-.019.319zM.804.037C.769.06.279.385.184.446.151.432.066.39 0 .359v.4l.142.068a.12.12 0 0 0 .12-.01L.96.357A.17.17 0 0 0 .997.323l.249-.317H.828L.804.037z"/><path fill="none" d="M34.095 46.382l.298.201c.03-.006.114-.018.188-.029v-1.336l-.522.593.036.571zM34.582 34.866v-.581l-.063.419.063.162zM34.402 22.356l.18.276v-.903l-.105.108-.075.519zM34.537 58.512h.045v-.466l-.122.219.077.247z"/><path fill="param(fill)" d="M34.402 22.356l.074-.519.105-.108v-.481l-.333.34a.206.206 0 0 0-.053.113l-.095.675a.226.226 0 0 0 .03.154l.451.69v-.588a22.441 22.441 0 0 1-.179-.276zM34.519 34.704l.063-.419v-.614l-.223.282a.205.205 0 0 0-.041.098l-.098.645a.226.226 0 0 0 .013.121l.284.722.064-.042v-.63a13.132 13.132 0 0 0-.062-.163zM34.393 46.583l-.298-.201-.036-.571.522-.593v-.503l-.773.877a.213.213 0 0 0-.049.155l.049.768a.196.196 0 0 0 .078.151l.409.275a.125.125 0 0 0 .087.021l.199-.03v-.379c-.074.012-.158.024-.188.03zM34.537 58.512l-.077-.247.122-.219v-.648l-.409.733a.236.236 0 0 0-.017.179l.145.459c.023.071.077.118.137.118h.145v-.375h-.046zM34.318 68.469a.188.188 0 0 0-.047.092l-.131.604h.306l.097-.449c.009-.008.022-.024.039-.042v-.492l-.264.287zM34.542.324c-.025-.057-.077-.167-.113-.246l.019-.072h-.311l-.009.033a.221.221 0 0 0 .013.154l.169.369a.172.172 0 0 0 .062.073l.21.133V.35l-.04-.026z"/><path fill="none" stroke="black" stroke-width="1" stroke-linejoin="round" stroke-miterlimit="500" d="M64.218 2.864v-.461l.363-.552.602-.37.7-.123.483.153.072.494-.41.553-.628.491-.793.183zM58.815 6.279l-.266-.428.026-.339.457-.399.845-.124.553.155.17.43-.144.462-.723.306zM54.788 6.157l-.194-.645.121-.645.289-.495.481.093.314.708.048.863-.217.519-.385.093zM47.651 2.895l.025-.613.603-.553.918-.063.409.49-.023.679-.508.49-.869.092zM48.038 8.377l-.169-.676.264-.369.605-.092.604.647.145.582-.17.552h-.748zM40.969 6.187V5.173l.29-.554.483-.154.506.154.314.738.071.8-.361.675h-.748zM36.585 5.482l-.072-.552.386-.465.601.062.724.922.145.524-.265.582-.579.034-.626-.587zM38.895 13.883l-.121-.495.482-.613.796-.092.773.369.313.584-.096.522-.629.522-.673-.094-.459-.305zM35.716 27.829v-.858l.217-.278.942.093.674.429.337.678-.047.584-.362.4-.771-.031-.653-.555zM38.652 37.35l.314-.798.701-.401.843.033.41.519.025.709-.483.433-.65.182-.821-.153zM39.136 43.854l.047-1.875.362-.401.484.126.578.795.218.985-.146.831-.507.306-.602-.153zM36.609 52.012l-.024-.46.555-.769.746-.09.242.397-.144.709-.29.614-.482.244-.385-.183zM43.695 11.452l-.096-.489.435-.46.868-.063.529.429.097.525-.314.489-.673.062-.484-.155zM52.02 11.67l-.363-.402.023-.278.653-.487 1.18-.214.435.307-.024.457-.483.492-.53.125zM56.862 13.664l-.025-.858.338-.369.578.063.386.489.169.675-.12.71-.435.212-.458-.092zM60.746 11.576l-.098-.4.145-.368.506-.242.556-.033.508.583v.829l-.508.214-.723-.214zM64.967 9.083V7.915l.433-.675.579.03.436.399-.049.922-.531.829-.531.093zM67.428 18.188l-.338-.494-.313-.825.072-.676.435-.522.432-.031.483.646.049.766-.217.798-.363.369zM62.411 17.694l-.266-.394.072-.491.554-.645.555-.186.749.031.241.398-.024.645-.58.522-.627.183zM65.426 24.872l.989-.092.143.186-.023.951-.53.431-.362.491-.555.093-.362-.522-.048-.678zM62.024 23.947l-1.014-.062-.482-.307-.218-.582.097-.552.435-.462.675.029.579.492.267.707v.277zM56.378 18.748l.701-.126.578.432.386.83.024.675-.314.431-.77-.121-.748-.707-.268-.802zM53.441 21.642l.46.34.071.428-.361.586-.579.214-1.012-.029-.412-.368v-.647l.412-.4.602-.214zM49.606 15.577l.965-.03.579.369.675.802-.023.733-.29.429-.797.032-.722-.554-.459-.703-.097-.584zM45.504 15.888l.362-.311h.555l.507.554.314.862-.074.827-.362.492h-.385l-.579-.768-.314-.951zM47.843 24.752l.412-.306h.627l.555.581.146.583-.169.71-.58.09-.628-.552-.337-.553zM43.477 22.134l.435-.555.651-.183.724.125.313.52-.072.369-.505.403-.677.306-.723-.123-.169-.308zM38.943 20.438l-.218-.431.097-.583.603-.647.677-.213.818.245.097.43-.362.554-.964.645zM40.583 28.792l.047-.771.459-.46h.845l.723.431.241.553-.048.8-.53.277-1.086-.185zM43.308 33.563l1.136-.092.603.369.264.553-.024.615-.362.341h-.819l-.676-.617-.242-.583zM47.266 31.59l.264-.612.652-.398h.773l.41.307.096.551-.531.584-.845.152-.65-.186zM54.159 28.477l.025-.493.604-.955.721-.369.386.156.024.768-.458.8-.457.462h-.531zM58.09 28.236l.533-.462.553.063.557.617.168.706-.121.921-.458.492-.555-.155-.579-1.013zM64.146 31.805l.17-.672.843-.432.941-.057.338.489-.097.579-.723.401-.747-.032-.459-.093zM61.059 33.471l.819-.059.678.645.071.797-.433.309-.774-.063-.603-.338-.217-.522.097-.459zM58.163 36.214l.145.398-.218.553-.722.554-.772.032-.314-.494.314-.645.676-.428zM53.585 33.533l.196.368-.122.618-.555.425-.675-.09-.507-.335-.217-.311.047-.553.46-.336.65-.033zM67.21 38.617l.625.029.486.399.361.738-.05.951-.457.494-.556-.125-.529-.49-.265-.554-.025-.955zM63.519 39.144h.845l.434.553-.048.49-.434.617-.531.369-.677-.031-.552-.431.024-.645.288-.553zM64.871 47.146l.505.028.507.585.217.77-.048.738-.29.367-.386-.062-.433-.431-.409-.738-.122-.705zM61.566 45.088l.699.062.458.582.048.768-.097.491-.553.277-.724-.156-.531-.427-.169-.494.145-.549.337-.399zM57.248 42.193l.552-.214.46.122.218.617-.17.674-.508.43-.625.338-.7-.061-.169-.431.049-.461.482-.553zM53.369 45.426l.385.553.29.488-.072.369-.361.276-1.014-.028-.554-.462-.241-.584.023-.396.315-.244.674-.126zM51.608 39.943l.097.676-.121.523-.385.337-.532-.151-.58-.556-.215-.706-.049-.645.17-.336.578-.067.651.403zM46.155 39.236l.217-.092.411.398.096.771-.047.766-.193.555-.242.121-.459-.398-.24-.676.12-.984zM48.472 48.133l.87.093.409.4.025.676-.434.398-.629.186-.675-.093-.412-.462-.024-.461.339-.553zM44.515 44.661l.41-.094.289.462.073.977-.218.801-.361.461h-.458l-.169-.461v-.828l.193-.86zM40.969 51.09l.29-.46.724-.029.555.305.408.587-.145.888-.77.032-.555-.308-.411-.429zM39.04 60.051l.505-.459.7.03.531.612.217.582-.217.647-.556.121-.698-.214-.508-.674zM44.781 56.389l.578-.031.266.613v.737l-.266.738-.529.554-.532.093-.264-.307.023-.739.314-.95zM47.893 53.462l.482-.186.483.402.289.767.05.675-.17.709-.41.121-.386-.337-.314-.8zM52.406 55.896l.408-.124.362.37.216.829-.169 1.138-.361.461-.456-.062-.315-.551-.048-1.229zM54.545 51.307l.531-.8.458-.155.338.524.121 1.076-.194.705-.434.4-.531-.4-.24-.612zM58.887 50.601l.652.12.506.772.216.612-.167.645-.338.398-.58-.091-.384-.583-.266-.738.023-.737zM50.643 62.453l.965.031.289.46-.047.583-.46.557-.481.243-.507-.06-.339-.557.024-.645zM65.618 53.615l.531-.153.313.246-.096.645-.241.523-.532.52-.481.156-.434-.094-.049-.645.387-.582zM61.01 56.572l.725-.027.482.333.363.494.047.585-.362.522-.458.029-.651-.368-.436-.525-.048-.489zM56.837 59.807l.7-.122.723.122.119.488-.24.584-.674.398-.603.031-.484-.152-.12-.523.194-.525zM63.302 62.888l.386-.12.507.12-.024.616-.412.615-.651.584-.409-.153-.048-.677.289-.616zM66.946 62.329l.531-.369.505.183.506.524.194.554-.144.524-.507.028-.652-.46-.41-.43zM57.006 64.856l.459.065.241.582.047.893-.143.855-.41.247-.411-.125-.265-.519-.025-1.075.169-.583zM46.469 62.115l.41-.216.435.309.072.645-.023 1.629-.315.338-.553-.124-.364-.492-.071-.953.119-.705zM39.451 65.573l.337.058.384.83.169 1.073-.217.738-.409.213-.409-.305-.315-.617-.096-.515.071-.772.17-.52z"/><path fill="none" d="M53.265 68.106l-.19-.035-.651.696c-.006.061-.023.247-.039.397h1.176l.042-.5c-.055-.088-.283-.467-.338-.558zM44.717 68.479l-.484-.072-.366.468v.291h1.104v-.165l-.254-.522zM61.974 67.877l-.279-.201c-.085.034-.333.136-.413.167l-.466 1.132-.02.19h1.249l.046-.838a40.697 40.697 0 0 0-.117-.45z"/><path fill="param(fill)" d="M43.867 68.874l.366-.468c.097.016.387.058.484.072l.254.521v.165h.295v-.218a.243.243 0 0 0-.022-.1l-.313-.645a.146.146 0 0 0-.108-.087l-.627-.093a.128.128 0 0 0-.121.054l-.459.587a.22.22 0 0 0-.043.132v.369h.295l-.001-.289zM52.423 68.768l.651-.696.19.035.337.559-.042.5h.296l.046-.534a.226.226 0 0 0-.03-.134l-.409-.68a.143.143 0 0 0-.096-.071l-.314-.059a.13.13 0 0 0-.116.042l-.747.798a.213.213 0 0 0-.052.121l-.05.517h.297c.016-.151.033-.338.039-.398zM60.816 68.975l.466-1.132c.08-.031.328-.133.413-.167.069.05.217.155.279.201.025.098.104.396.117.45l-.046.838h.296l.046-.85a.218.218 0 0 0-.006-.072l-.146-.555a.199.199 0 0 0-.067-.104l-.385-.276a.126.126 0 0 0-.117-.016l-.532.216a.17.17 0 0 0-.086.092l-.507 1.229a.263.263 0 0 0-.015.063l-.026.273h.297l.019-.19z"/><path fill="none" d="M36.175 45.813l.018-.617-.59-.226-.882.085-.14.176v1.323l.865-.087.729-.654zM35.328 58.54c.05-.024.508-.258.551-.279.033-.036.325-.372.395-.45l.016-.299-.128-.164-.938-.025a43.17 43.17 0 0 1-.447.325c-.018.028-.118.184-.193.297v.567l.744.028zM34.729 35.238c.104.023.464.106.548.127.08-.065.593-.471.629-.5l.34-.538v-.844l-.271-.393c-.122.026-.596.131-.671.146l-.722.948v.889l.064-.041.083.206zM35.002 10.45l-.099.572.125.646.379.508.324.109.252-.414.063-.75-.287-.647-.469-.201-.288.177zM35.943 23.239c.053-.066.185-.233.246-.313a63.818 63.818 0 0 0-.035-.404l-.411-.608-.357-.24-.698-.053-.105.13v.936l.535.582.825-.03z"/><path fill="param(fill)" d="M35.218 9.902l-.408.248a.184.184 0 0 0-.081.13l-.121.704a.226.226 0 0 0 .001.086l.143.737a.228.228 0 0 0 .036.084l.435.583a.17.17 0 0 0 .069.052l.459.155c.057.02.119-.008.155-.067l.337-.554a.216.216 0 0 0 .029-.095l.073-.862a.239.239 0 0 0-.019-.113l-.338-.763a.167.167 0 0 0-.081-.086l-.579-.248a.12.12 0 0 0-.11.009zm.828 1.22l-.063.75-.252.414-.324-.109-.379-.508-.125-.646c.011-.066.076-.445.099-.572l.288-.177.469.201.287.647zM34.687 21.621l.698.053.357.24.411.608.035.404-.246.313-.826.029-.535-.582v.493l.387.42a.126.126 0 0 0 .1.045l.942-.031a.14.14 0 0 0 .1-.055l.338-.43a.218.218 0 0 0 .042-.153l-.048-.552a.225.225 0 0 0-.034-.103l-.46-.68a.168.168 0 0 0-.042-.042l-.41-.276a.107.107 0 0 0-.061-.021l-.795-.061a.122.122 0 0 0-.059.011v.499l.106-.129zM35.303 33.237l.671-.146c.069.1.222.32.271.393v.844l-.34.538c-.036.029-.549.435-.629.5a41.061 41.061 0 0 0-.548-.127l-.083-.205-.064.041v.509a.558.558 0 0 1 .023.009l.675.155a.125.125 0 0 0 .104-.026l.699-.554a.137.137 0 0 0 .037-.042l.387-.614a.22.22 0 0 0 .032-.118v-.98a.223.223 0 0 0-.036-.124l-.363-.523c-.033-.049-.084-.072-.135-.061l-.799.174a.134.134 0 0 0-.081.055l-.544.714v.539l.723-.951zM34.721 45.056l.882-.085.59.226-.018.617-.729.654-.865.087v.377l.929-.094a.133.133 0 0 0 .073-.034l.821-.736a.205.205 0 0 0 .063-.148l.022-.854c.002-.087-.04-.163-.104-.188l-.725-.275a.113.113 0 0 0-.054-.008l-.963.093a.14.14 0 0 0-.063.027v.518c.008-.01.125-.155.141-.177zM36.544 57.024l-.217-.279a.137.137 0 0 0-.102-.055l-1.038-.028a.125.125 0 0 0-.076.024l-.506.369c-.009.007-.016.018-.024.026v.579c.075-.113.176-.269.193-.297.04-.027.39-.282.447-.325l.938.025.128.164-.016.299c-.069.078-.361.414-.395.45-.043.021-.501.255-.551.279-.042-.001-.506-.02-.746-.028v.375l.768.03a.115.115 0 0 0 .06-.014l.604-.306a.166.166 0 0 0 .044-.035l.459-.523a.22.22 0 0 0 .048-.128l.024-.459a.206.206 0 0 0-.042-.143zM35.178 68.077l.742-.218.13.135c-.043.157-.133.484-.148.545l-.495.626h.418l.31-.391a.186.186 0 0 0 .035-.072l.193-.709a.221.221 0 0 0-.047-.206l-.265-.277a.126.126 0 0 0-.127-.037l-.845.248a.16.16 0 0 0-.059.036l-.438.443v.479l.596-.602z"/><path fill="none" d="M44.208 1.032c.072.019.307.074.393.095.07-.064.271-.254.349-.325.003-.103.016-.537.022-.796h-1.104v.515c.052.08.289.435.34.511zM60.875.845l.6.104c.055-.026.313-.157.392-.197l.157-.427.021-.319h-1.249l-.044.622.123.217zM52.542 1.161l.445-.046.532-.731.04-.378h-1.174l-.069.556.226.599z"/><path fill="param(fill)" d="M44.949.802l-.349.325c-.086-.021-.32-.076-.393-.095L43.866.52V.005h-.295V.59c0 .044.013.087.035.121l.409.615a.151.151 0 0 0 .086.063l.506.121a.122.122 0 0 0 .115-.033l.458-.427a.208.208 0 0 0 .06-.146l.025-.899h-.295l-.021.797zM53.519.384l-.532.731-.445.046-.226-.6c.009-.064.046-.366.069-.556h-.299l-.068.555a.218.218 0 0 0 .013.11l.289.77c.026.069.084.112.146.105l.603-.063a.132.132 0 0 0 .096-.06l.603-.829a.204.204 0 0 0 .039-.102l.052-.487h-.298c-.018.149-.037.33-.042.38zM62.024.325l-.157.427c-.078.04-.337.171-.392.197l-.6-.104a20.44 20.44 0 0 1-.123-.217l.044-.622H60.5l-.047.658a.218.218 0 0 0 .027.127l.192.34c.024.041.06.068.1.076l.701.121a.112.112 0 0 0 .074-.011l.481-.243a.18.18 0 0 0 .08-.096l.191-.524a.222.222 0 0 0 .014-.063l.026-.385h-.296l-.019.319zM35.386.037c-.035.023-.524.348-.619.409-.033-.015-.119-.057-.186-.087v.4l.143.068a.12.12 0 0 0 .12-.01l.698-.461a.192.192 0 0 0 .036-.034l.249-.317h-.417l-.024.032z"/><path fill="none" d="M68.678 46.382l.297.201c.03-.006.114-.018.189-.029v-1.336l-.523.593c.008.121.027.439.037.571zM69.165 34.866v-.581l-.063.419.063.162zM68.984 22.356l.181.276v-.903c-.046.047-.087.088-.105.108-.016.097-.059.404-.076.519zM69.119 58.512h.046v-.466l-.122.219.076.247z"/><path fill="param(fill)" d="M68.984 22.356c.018-.115.061-.423.075-.519.019-.021.06-.062.105-.108v-.481l-.333.34a.2.2 0 0 0-.053.113l-.097.675a.221.221 0 0 0 .031.154l.451.69v-.588l-.179-.276zM69.101 34.704a32.6 32.6 0 0 0 .063-.419v-.614l-.224.282a.205.205 0 0 0-.041.098l-.098.645a.247.247 0 0 0 .013.121l.284.722.065-.042v-.63a5.756 5.756 0 0 0-.062-.163zM68.975 46.583l-.297-.201c-.01-.132-.029-.45-.037-.571l.523-.593v-.503l-.774.877a.218.218 0 0 0-.049.155l.049.768a.196.196 0 0 0 .078.151l.41.275a.121.121 0 0 0 .086.021l.2-.03v-.379c-.075.012-.159.024-.189.03zM69.119 58.512l-.076-.247.122-.219v-.648l-.409.733a.24.24 0 0 0-.018.179l.146.459c.022.071.077.118.136.118h.146v-.375h-.047zM68.9 68.469a.197.197 0 0 0-.047.092l-.131.604h.306l.097-.449.04-.042v-.492l-.265.287zM69.125.607l-.112-.246.019-.072h-.312l-.01.033a.227.227 0 0 0 .013.154l.169.369a.174.174 0 0 0 .063.073l.21.133V.633l-.04-.026z"/><path fill="none" stroke="black" stroke-width="1" stroke-linejoin="round" stroke-miterlimit="500" d="M64.218 2.864v-.461l.363-.552.602-.37.7-.123.483.153.072.494-.41.553-.628.491-.793.183zM58.815 6.279l-.266-.428.026-.339.457-.399.845-.124.553.155.17.43-.144.462-.723.306zM54.788 6.157l-.194-.645.121-.645.289-.495.481.093.314.708.048.863-.217.519-.385.093zM47.651 2.895l.025-.613.603-.553.918-.063.409.49-.023.679-.508.49-.869.092zM48.038 8.377l-.169-.676.264-.369.605-.092.604.647.145.582-.17.552h-.748zM40.969 6.187V5.173l.29-.554.483-.154.506.154.314.738.071.8-.361.675h-.748zM36.585 5.482l-.072-.552.386-.465.601.062.724.922.145.524-.265.582-.579.034-.626-.587zM38.895 13.883l-.121-.495.482-.613.796-.092.773.369.313.584-.096.522-.629.522-.673-.094-.459-.305zM35.716 27.829v-.858l.217-.278.942.093.674.429.337.678-.047.584-.362.4-.771-.031-.653-.555zM38.652 37.35l.314-.798.701-.401.843.033.41.519.025.709-.483.433-.65.182-.821-.153zM39.136 43.854l.047-1.875.362-.401.484.126.578.795.218.985-.146.831-.507.306-.602-.153zM36.609 52.012l-.024-.46.555-.769.746-.09.242.397-.144.709-.29.614-.482.244-.385-.183zM43.695 11.452l-.096-.489.435-.46.868-.063.529.429.097.525-.314.489-.673.062-.484-.155zM52.02 11.67l-.363-.402.023-.278.653-.487 1.18-.214.435.307-.024.457-.483.492-.53.125zM56.862 13.664l-.025-.858.338-.369.578.063.386.489.169.675-.12.71-.435.212-.458-.092zM60.746 11.576l-.098-.4.145-.368.506-.242.556-.033.508.583v.829l-.508.214-.723-.214zM64.967 9.083V7.915l.433-.675.579.03.436.399-.049.922-.531.829-.531.093zM67.428 18.188l-.338-.494-.313-.825.072-.676.435-.522.432-.031.483.646.049.766-.217.798-.363.369zM62.411 17.694l-.266-.394.072-.491.554-.645.555-.186.749.031.241.398-.024.645-.58.522-.627.183zM65.426 24.872l.989-.092.143.186-.023.951-.53.431-.362.491-.555.093-.362-.522-.048-.678zM62.024 23.947l-1.014-.062-.482-.307-.218-.582.097-.552.435-.462.675.029.579.492.267.707v.277zM56.378 18.748l.701-.126.578.432.386.83.024.675-.314.431-.77-.121-.748-.707-.268-.802zM53.441 21.642l.46.34.071.428-.361.586-.579.214-1.012-.029-.412-.368v-.647l.412-.4.602-.214zM49.606 15.577l.965-.03.579.369.675.802-.023.733-.29.429-.797.032-.722-.554-.459-.703-.097-.584zM45.504 15.888l.362-.311h.555l.507.554.314.862-.074.827-.362.492h-.385l-.579-.768-.314-.951zM47.843 24.752l.412-.306h.627l.555.581.146.583-.169.71-.58.09-.628-.552-.337-.553zM43.477 22.134l.435-.555.651-.183.724.125.313.52-.072.369-.505.403-.677.306-.723-.123-.169-.308zM38.943 20.438l-.218-.431.097-.583.603-.647.677-.213.818.245.097.43-.362.554-.964.645zM40.583 28.792l.047-.771.459-.46h.845l.723.431.241.553-.048.8-.53.277-1.086-.185zM43.308 33.563l1.136-.092.603.369.264.553-.024.615-.362.341h-.819l-.676-.617-.242-.583zM47.266 31.59l.264-.612.652-.398h.773l.41.307.096.551-.531.584-.845.152-.65-.186zM54.159 28.477l.025-.493.604-.955.721-.369.386.156.024.768-.458.8-.457.462h-.531zM58.09 28.236l.533-.462.553.063.557.617.168.706-.121.921-.458.492-.555-.155-.579-1.013zM64.146 31.805l.17-.672.843-.432.941-.057.338.489-.097.579-.723.401-.747-.032-.459-.093zM61.059 33.471l.819-.059.678.645.071.797-.433.309-.774-.063-.603-.338-.217-.522.097-.459zM58.163 36.214l.145.398-.218.553-.722.554-.772.032-.314-.494.314-.645.676-.428zM53.585 33.533l.196.368-.122.618-.555.425-.675-.09-.507-.335-.217-.311.047-.553.46-.336.65-.033zM67.21 38.617l.625.029.486.399.361.738-.05.951-.457.494-.556-.125-.529-.49-.265-.554-.025-.955zM63.519 39.144h.845l.434.553-.048.49-.434.617-.531.369-.677-.031-.552-.431.024-.645.288-.553zM64.871 47.146l.505.028.507.585.217.77-.048.738-.29.367-.386-.062-.433-.431-.409-.738-.122-.705zM61.566 45.088l.699.062.458.582.048.768-.097.491-.553.277-.724-.156-.531-.427-.169-.494.145-.549.337-.399zM57.248 42.193l.552-.214.46.122.218.617-.17.674-.508.43-.625.338-.7-.061-.169-.431.049-.461.482-.553zM53.369 45.426l.385.553.29.488-.072.369-.361.276-1.014-.028-.554-.462-.241-.584.023-.396.315-.244.674-.126zM51.608 39.943l.097.676-.121.523-.385.337-.532-.151-.58-.556-.215-.706-.049-.645.17-.336.578-.067.651.403zM46.155 39.236l.217-.092.411.398.096.771-.047.766-.193.555-.242.121-.459-.398-.24-.676.12-.984zM48.472 48.133l.87.093.409.4.025.676-.434.398-.629.186-.675-.093-.412-.462-.024-.461.339-.553zM44.515 44.661l.41-.094.289.462.073.977-.218.801-.361.461h-.458l-.169-.461v-.828l.193-.86zM40.969 51.09l.29-.46.724-.029.555.305.408.587-.145.888-.77.032-.555-.308-.411-.429zM39.04 60.051l.505-.459.7.03.531.612.217.582-.217.647-.556.121-.698-.214-.508-.674zM44.781 56.389l.578-.031.266.613v.737l-.266.738-.529.554-.532.093-.264-.307.023-.739.314-.95zM47.893 53.462l.482-.186.483.402.289.767.05.675-.17.709-.41.121-.386-.337-.314-.8zM52.406 55.896l.408-.124.362.37.216.829-.169 1.138-.361.461-.456-.062-.315-.551-.048-1.229zM54.545 51.307l.531-.8.458-.155.338.524.121 1.076-.194.705-.434.4-.531-.4-.24-.612zM58.887 50.601l.652.12.506.772.216.612-.167.645-.338.398-.58-.091-.384-.583-.266-.738.023-.737zM50.643 62.453l.965.031.289.46-.047.583-.46.557-.481.243-.507-.06-.339-.557.024-.645zM65.618 53.615l.531-.153.313.246-.096.645-.241.523-.532.52-.481.156-.434-.094-.049-.645.387-.582zM61.01 56.572l.725-.027.482.333.363.494.047.585-.362.522-.458.029-.651-.368-.436-.525-.048-.489zM56.837 59.807l.7-.122.723.122.119.488-.24.584-.674.398-.603.031-.484-.152-.12-.523.194-.525zM63.302 62.888l.386-.12.507.12-.024.616-.412.615-.651.584-.409-.153-.048-.677.289-.616zM66.946 62.329l.531-.369.505.183.506.524.194.554-.144.524-.507.028-.652-.46-.41-.43zM57.006 64.856l.459.065.241.582.047.893-.143.855-.41.247-.411-.125-.265-.519-.025-1.075.169-.583zM46.469 62.115l.41-.216.435.309.072.645-.023 1.629-.315.338-.553-.124-.364-.492-.071-.953.119-.705zM39.451 65.573l.337.058.384.83.169 1.073-.217.738-.409.213-.409-.305-.315-.617-.096-.515.071-.772.17-.52z"/><path fill="none" d="M53.265 68.106l-.19-.035-.651.696c-.006.061-.023.247-.039.397h1.176l.042-.5c-.055-.088-.283-.467-.338-.558zM44.717 68.479l-.484-.072-.366.468v.291h1.104v-.165l-.254-.522zM61.974 67.877l-.279-.201c-.085.034-.333.136-.413.167l-.466 1.132-.02.19h1.249l.046-.838a40.697 40.697 0 0 0-.117-.45z"/><path fill="param(fill)" d="M43.867 68.874l.366-.468c.097.016.387.058.484.072l.254.521v.165h.295v-.218a.243.243 0 0 0-.022-.1l-.313-.645a.146.146 0 0 0-.108-.087l-.627-.093a.128.128 0 0 0-.121.054l-.459.587a.22.22 0 0 0-.043.132v.369h.295l-.001-.289zM52.423 68.768l.651-.696.19.035.337.559-.042.5h.296l.046-.534a.226.226 0 0 0-.03-.134l-.409-.68a.143.143 0 0 0-.096-.071l-.314-.059a.13.13 0 0 0-.116.042l-.747.798a.213.213 0 0 0-.052.121l-.05.517h.297c.016-.151.033-.338.039-.398zM60.816 68.975l.466-1.132c.08-.031.328-.133.413-.167.069.05.217.155.279.201.025.098.104.396.117.45l-.046.838h.296l.046-.85a.218.218 0 0 0-.006-.072l-.146-.555a.199.199 0 0 0-.067-.104l-.385-.276a.126.126 0 0 0-.117-.016l-.532.216a.17.17 0 0 0-.086.092l-.507 1.229a.263.263 0 0 0-.015.063l-.026.273h.297l.019-.19z"/><path fill="none" d="M36.175 45.813l.018-.617-.59-.226-.882.085-.14.176v1.323l.865-.087.729-.654zM35.328 58.54c.05-.024.508-.258.551-.279.033-.036.325-.372.395-.45l.016-.299-.128-.164-.938-.025a43.17 43.17 0 0 1-.447.325c-.018.028-.118.184-.193.297v.567l.744.028zM34.729 35.238c.104.023.464.106.548.127.08-.065.593-.471.629-.5l.34-.538v-.844l-.271-.393c-.122.026-.596.131-.671.146l-.722.948v.889l.064-.041.083.206zM35.002 10.45l-.099.572.125.646.379.508.324.109.252-.414.063-.75-.287-.647-.469-.201-.288.177zM35.943 23.239c.053-.066.185-.233.246-.313a63.818 63.818 0 0 0-.035-.404l-.411-.608-.357-.24-.698-.053-.105.13v.936l.535.582.825-.03z"/><path fill="param(fill)" d="M35.218 9.902l-.408.248a.184.184 0 0 0-.081.13l-.121.704a.226.226 0 0 0 .001.086l.143.737a.228.228 0 0 0 .036.084l.435.583a.17.17 0 0 0 .069.052l.459.155c.057.02.119-.008.155-.067l.337-.554a.216.216 0 0 0 .029-.095l.073-.862a.239.239 0 0 0-.019-.113l-.338-.763a.167.167 0 0 0-.081-.086l-.579-.248a.12.12 0 0 0-.11.009zm.828 1.22l-.063.75-.252.414-.324-.109-.379-.508-.125-.646c.011-.066.076-.445.099-.572l.288-.177.469.201.287.647zM34.687 21.621l.698.053.357.24.411.608.035.404-.246.313-.826.029-.535-.582v.493l.387.42a.126.126 0 0 0 .1.045l.942-.031a.14.14 0 0 0 .1-.055l.338-.43a.218.218 0 0 0 .042-.153l-.048-.552a.225.225 0 0 0-.034-.103l-.46-.68a.168.168 0 0 0-.042-.042l-.41-.276a.107.107 0 0 0-.061-.021l-.795-.061a.122.122 0 0 0-.059.011v.499l.106-.129zM35.303 33.237l.671-.146c.069.1.222.32.271.393v.844l-.34.538c-.036.029-.549.435-.629.5a41.061 41.061 0 0 0-.548-.127l-.083-.205-.064.041v.509a.558.558 0 0 1 .023.009l.675.155a.125.125 0 0 0 .104-.026l.699-.554a.137.137 0 0 0 .037-.042l.387-.614a.22.22 0 0 0 .032-.118v-.98a.223.223 0 0 0-.036-.124l-.363-.523c-.033-.049-.084-.072-.135-.061l-.799.174a.134.134 0 0 0-.081.055l-.544.714v.539l.723-.951zM34.721 45.056l.882-.085.59.226-.018.617-.729.654-.865.087v.377l.929-.094a.133.133 0 0 0 .073-.034l.821-.736a.205.205 0 0 0 .063-.148l.022-.854c.002-.087-.04-.163-.104-.188l-.725-.275a.113.113 0 0 0-.054-.008l-.963.093a.14.14 0 0 0-.063.027v.518c.008-.01.125-.155.141-.177zM36.544 57.024l-.217-.279a.137.137 0 0 0-.102-.055l-1.038-.028a.125.125 0 0 0-.076.024l-.506.369c-.009.007-.016.018-.024.026v.579c.075-.113.176-.269.193-.297.04-.027.39-.282.447-.325l.938.025.128.164-.016.299c-.069.078-.361.414-.395.45-.043.021-.501.255-.551.279-.042-.001-.506-.02-.746-.028v.375l.768.03a.115.115 0 0 0 .06-.014l.604-.306a.166.166 0 0 0 .044-.035l.459-.523a.22.22 0 0 0 .048-.128l.024-.459a.206.206 0 0 0-.042-.143zM35.178 68.077l.742-.218.13.135c-.043.157-.133.484-.148.545l-.495.626h.418l.31-.391a.186.186 0 0 0 .035-.072l.193-.709a.221.221 0 0 0-.047-.206l-.265-.277a.126.126 0 0 0-.127-.037l-.845.248a.16.16 0 0 0-.059.036l-.438.443v.479l.596-.602z"/><path fill="none" d="M44.208 1.032c.072.019.307.074.393.095.07-.064.271-.254.349-.325.003-.103.016-.537.022-.796h-1.104v.515c.052.08.289.435.34.511zM60.875.845l.6.104c.055-.026.313-.157.392-.197l.157-.427.021-.319h-1.249l-.044.622.123.217zM52.542 1.161l.445-.046.532-.731.04-.378h-1.174l-.069.556.226.599z"/><path fill="param(fill)" d="M44.949.802l-.349.325c-.086-.021-.32-.076-.393-.095L43.866.52V.005h-.295V.59c0 .044.013.087.035.121l.409.615a.151.151 0 0 0 .086.063l.506.121a.122.122 0 0 0 .115-.033l.458-.427a.208.208 0 0 0 .06-.146l.025-.899h-.295l-.021.797zM53.519.384l-.532.731-.445.046-.226-.6c.009-.064.046-.366.069-.556h-.299l-.068.555a.218.218 0 0 0 .013.11l.289.77c.026.069.084.112.146.105l.603-.063a.132.132 0 0 0 .096-.06l.603-.829a.204.204 0 0 0 .039-.102l.052-.487h-.298c-.018.149-.037.33-.042.38zM62.024.325l-.157.427c-.078.04-.337.171-.392.197l-.6-.104a20.44 20.44 0 0 1-.123-.217l.044-.622H60.5l-.047.658a.218.218 0 0 0 .027.127l.192.34c.024.041.06.068.1.076l.701.121a.112.112 0 0 0 .074-.011l.481-.243a.18.18 0 0 0 .08-.096l.191-.524a.222.222 0 0 0 .014-.063l.026-.385h-.296l-.019.319zM35.386.037c-.035.023-.524.348-.619.409-.033-.015-.119-.057-.186-.087v.4l.143.068a.12.12 0 0 0 .12-.01l.698-.461a.192.192 0 0 0 .036-.034l.249-.317h-.417l-.024.032z"/><path fill="none" d="M68.678 46.382l.297.201c.03-.006.114-.018.189-.029v-1.336l-.523.593c.008.121.027.439.037.571zM69.165 34.866v-.581l-.063.419.063.162zM68.984 22.356l.181.276v-.903c-.046.047-.087.088-.105.108-.016.097-.059.404-.076.519zM69.119 58.512h.046v-.466l-.122.219.076.247z"/><path fill="param(fill)" d="M68.984 22.356c.018-.115.061-.423.075-.519.019-.021.06-.062.105-.108v-.481l-.333.34a.2.2 0 0 0-.053.113l-.097.675a.221.221 0 0 0 .031.154l.451.69v-.588l-.179-.276zM69.101 34.704a32.6 32.6 0 0 0 .063-.419v-.614l-.224.282a.205.205 0 0 0-.041.098l-.098.645a.247.247 0 0 0 .013.121l.284.722.065-.042v-.63a5.756 5.756 0 0 0-.062-.163zM68.975 46.583l-.297-.201c-.01-.132-.029-.45-.037-.571l.523-.593v-.503l-.774.877a.218.218 0 0 0-.049.155l.049.768a.196.196 0 0 0 .078.151l.41.275a.121.121 0 0 0 .086.021l.2-.03v-.379c-.075.012-.159.024-.189.03zM69.119 58.512l-.076-.247.122-.219v-.648l-.409.733a.24.24 0 0 0-.018.179l.146.459c.022.071.077.118.136.118h.146v-.375h-.047zM68.9 68.469a.197.197 0 0 0-.047.092l-.131.604h.306l.097-.449.04-.042v-.492l-.265.287zM69.125.607l-.112-.246.019-.072h-.312l-.01.033a.227.227 0 0 0 .013.154l.169.369a.174.174 0 0 0 .063.073l.21.133V.633l-.04-.026z"/></svg>
