<svg xmlns="http://www.w3.org/2000/svg" width="62.631" height="62.636" viewBox="0 0 62.631 62.636"><path fill="none" stroke="black" stroke-width="1" stroke-linejoin="bevel" stroke-miterlimit="1.414" d="M15.091 42.186a.793.793 0 0 0-.803-.805c-.402 0-.804.402-.804.805 0 .503.402.905.804.905.502 0 .803-.403.803-.905M50.239 42.286c0-.503-.301-.805-.804-.805a.794.794 0 0 0-.804.805c0 .402.402.805.804.805a.793.793 0 0 0 .804-.805M.128 39.067c.502-.302.803-.905.803-1.509S.63 36.352.128 36.05M2.839 62.504c-.402-1.107-1.807-1.509-2.711-.905M9.568 62.504c-.703-.806-2.008-.806-2.711 0M50.54 62.504c-.803-1.006-2.209-1.006-2.912 0M62.49 61.599c-.302.301-.502.503-.603.905M62.49 36.05c-.703-.503-1.707-.302-2.311.302a1.84 1.84 0 0 0 0 2.414c.604.604 1.607.805 2.311.302M61.887 31.323c-.301.804 0 1.608.603 2.111M47.627 31.323c-.603.804-.502 1.81.201 2.413s1.707.604 2.41 0 .803-1.609.301-2.413M6.856 31.323c-.602.804-.502 1.81.1 2.515.703.603 1.808.603 2.51 0 .703-.705.703-1.711.101-2.515M.128 33.435c.603.503 1.506.403 2.109 0 .602-.503.803-1.308.602-2.111M59.677 57.675l1.005-1.106M60.08 61.8l1.003-2.213M52.648 61.297l2.109-.102M53.853 53.25l.604 1.71M46.824 54.256l-.803 2.413M49.334 57.172l-.802 2.415M44.113 62.303l1.406-1.409M43.811 58.178l.201 1.811M35.878 56.771l.804 1.91M30.657 59.989l.301 2.012M26.64 61.599l1.807-.805M21.318 57.475l.502 1.709M17.702 57.172l1.807-1.509M14.488 60.593l1.909-.705M8.363 58.48l1.305 2.012M3.542 61.698l2.41-.602M.731 59.285l1.405-1.307M4.246 55.663l.903-2.413M6.856 55.262l2.21-1.308M13.284 51.842l.702 1.809M6.655 46.511l2.11.905M1.333 47.517l1.606.905M16.497 51.037l1.908 1.911M15.593 46.61l-.502 1.812M9.066 50.836l1.807 1.609M16.899 44.298h2.108M25.937 53.25l1.807.604M30.657 50.534l.502 2.012M29.653 41.683l.301 1.911M23.225 46.61l.703 2.114M27.343 49.227l1.506-1.409M29.653 56.367l1.103-2.011M39.393 53.753l1.005 2.112M37.987 47.919l-.201 2.012M32.966 44.7l1.808.905M44.615 49.931l2.008.603M43.008 45.706l.905 1.71M38.992 46.008l1.406-1.308M50.54 48.522l.602 2.012M54.255 50.634l1.808-1.509M59.277 44.197l1.405 1.107M56.766 38.263l1.907 2.213M53.251 43.694l.803 1.71M49.536 44.298l1.908.905M56.364 35.245l2.41-1.106M52.347 41.381l1.406-1.509M46.925 40.476l.401 1.408M45.619 32.026l-.803 1.812M42.606 35.245l1.707.201M39.794 38.464l.403 1.911M36.983 37.86l1.406-1.408M35.175 40.073l1.908.604M30.356 34.34l-.303 2.012M24.531 39.671l1.406-1.207M22.723 40.073l.101 1.71M15.593 40.476l1.406 1.508M11.978 43.594l1.707.402M26.238 34.44l2.009-.502M30.155 32.429l1.707.201M20.113 34.139l1.304 2.011M14.388 34.642l1.406 1.71M11.877 32.529l1.808.303M8.563 35.647l1.607-.603M5.852 39.067l2.108.805M4.748 42.588l.401 1.508M1.032 43.493l1.607.704M1.735 41.18l1.004-1.308M1.935 34.642l1.307 1.81M38.992 62.102l.3.402M20.011 62.001l.102.503M15.794 62.201l.101.303M56.063 31.323l-1.205 1.206M39.292 31.323l1.106 1.709M20.113 31.323v.402M15.895 31.323l.803 1.81M58.673 59.587c0-.503-.301-.906-.803-.906-.401 0-.804.403-.804.906 0 .402.402.804.804.804a.792.792 0 0 0 .803-.804M37.585 61.297c0-.403-.401-.805-.804-.805-.502 0-.803.401-.803.805 0 .503.301.805.803.805a.793.793 0 0 0 .804-.805M21.016 59.989a.794.794 0 0 0-.804-.806c-.502 0-.803.303-.803.806 0 .401.301.805.803.805.403 0 .804-.403.804-.805M13.284 61.195a.794.794 0 0 0-.804-.805c-.401 0-.803.403-.803.805 0 .503.402.806.803.806.501 0 .804-.303.804-.806M2.438 45.807c0-.503-.301-.805-.803-.805a.793.793 0 0 0-.803.805c0 .402.402.804.803.804a.793.793 0 0 0 .803-.804M6.153 36.553c0-.503-.401-.905-.803-.905a.9.9 0 0 0-.904.905c0 .402.402.805.904.805.402-.001.803-.403.803-.805M17.1 53.552c0-.403-.402-.805-.804-.805a.793.793 0 0 0-.804.805c0 .503.302.905.804.905.402 0 .804-.402.804-.905M29.752 51.439a.793.793 0 0 0-.803-.806c-.503 0-.804.303-.804.806 0 .402.301.805.804.805.402 0 .803-.402.803-.805M22.623 44.901a.793.793 0 0 0-.803-.806c-.502 0-.804.303-.804.806 0 .402.302.805.804.805.401 0 .803-.402.803-.805M42.305 48.824c0-.402-.401-.805-.804-.805-.502 0-.803.402-.803.805 0 .503.301.804.803.804a.792.792 0 0 0 .804-.804M54.356 47.616c0-.401-.401-.804-.804-.804a.792.792 0 0 0-.803.804c0 .503.301.806.803.806a.794.794 0 0 0 .804-.806M61.486 41.884c0-.503-.302-.805-.804-.805a.794.794 0 0 0-.804.805c0 .402.402.805.804.805a.794.794 0 0 0 .804-.805M60.179 32.63c0-.402-.4-.804-.902-.804-.402 0-.804.401-.804.804 0 .503.401.805.804.805.502 0 .902-.302.902-.805M42.708 38.162c0-.402-.402-.805-.804-.805a.793.793 0 0 0-.804.805c0 .503.302.805.804.805a.794.794 0 0 0 .804-.805M28.347 36.854c0-.503-.302-.805-.804-.805a.794.794 0 0 0-.804.805c0 .402.402.805.804.805a.793.793 0 0 0 .804-.805M55.159 57.776c0-1.006-.803-1.811-1.706-1.811-1.005 0-1.809.805-1.809 1.811s.804 1.811 1.809 1.811c.903 0 1.706-.805 1.706-1.811M42.104 58.581a1.802 1.802 0 0 0-1.808-1.811c-1.004 0-1.807.805-1.807 1.811s.803 1.81 1.807 1.81a1.8 1.8 0 0 0 1.808-1.81M35.175 59.084a1.801 1.801 0 0 0-1.807-1.811c-1.005 0-1.809.805-1.809 1.811s.804 1.81 1.809 1.81a1.8 1.8 0 0 0 1.807-1.81M13.886 56.871a1.801 1.801 0 0 0-1.807-1.811 1.802 1.802 0 0 0-1.808 1.811c0 1.005.803 1.81 1.808 1.81a1.801 1.801 0 0 0 1.807-1.81M7.258 58.078a1.802 1.802 0 0 0-1.808-1.811c-1.004 0-1.808.805-1.808 1.811s.803 1.71 1.808 1.71c1.004 0 1.808-.704 1.808-1.71M3.844 53.049a1.802 1.802 0 0 0-1.808-1.811c-1.004 0-1.807.805-1.807 1.811s.803 1.811 1.807 1.811a1.802 1.802 0 0 0 1.808-1.811M7.86 49.83a1.801 1.801 0 0 0-1.807-1.811 1.802 1.802 0 0 0-1.808 1.811c0 .905.803 1.71 1.808 1.71 1.004 0 1.807-.805 1.807-1.71M13.786 47.818c0-1.006-.804-1.711-1.808-1.711s-1.808.705-1.808 1.711.803 1.81 1.808 1.81a1.802 1.802 0 0 0 1.808-1.81M10.07 43.493a1.801 1.801 0 0 0-1.807-1.811c-1.004 0-1.708.805-1.708 1.811s.703 1.811 1.708 1.811a1.801 1.801 0 0 0 1.807-1.811M27.744 57.776a1.801 1.801 0 0 0-1.807-1.811c-1.005 0-1.808.805-1.808 1.811s.803 1.811 1.808 1.811a1.801 1.801 0 0 0 1.807-1.811M24.331 53.25c0-.905-.805-1.71-1.809-1.71s-1.808.805-1.808 1.71c0 1.006.804 1.811 1.808 1.811s1.809-.805 1.809-1.811M21.518 48.724c0-1.006-.804-1.811-1.808-1.811s-1.808.805-1.808 1.811c0 .904.804 1.71 1.808 1.71s1.808-.806 1.808-1.71M27.744 43.493a1.801 1.801 0 0 0-1.807-1.811c-1.005 0-1.808.805-1.808 1.811s.803 1.811 1.808 1.811a1.801 1.801 0 0 0 1.807-1.811M37.485 52.646c0-1.006-.803-1.81-1.707-1.81a1.801 1.801 0 0 0-1.808 1.81c0 .906.804 1.711 1.808 1.711.904-.001 1.707-.805 1.707-1.711M33.97 47.315a1.802 1.802 0 0 0-1.808-1.811c-1.004 0-1.807.805-1.807 1.811s.803 1.81 1.807 1.81a1.8 1.8 0 0 0 1.808-1.81M38.791 43.594c0-1.006-.804-1.811-1.808-1.811s-1.808.805-1.808 1.811c0 .905.804 1.71 1.808 1.71s1.808-.805 1.808-1.71M44.816 53.25c0-1.006-.804-1.811-1.808-1.811s-1.808.805-1.808 1.811.804 1.811 1.808 1.811 1.808-.805 1.808-1.811M49.836 47.014a1.802 1.802 0 0 0-1.808-1.811c-.903 0-1.707.805-1.707 1.811s.804 1.811 1.707 1.811a1.802 1.802 0 0 0 1.808-1.811M51.543 53.25c0-1.006-.803-1.811-1.707-1.811-1.004 0-1.808.805-1.808 1.811s.804 1.811 1.808 1.811c.905 0 1.707-.805 1.707-1.811M59.779 53.552c0-1.006-.804-1.811-1.808-1.811s-1.809.805-1.809 1.811.805 1.811 1.809 1.811 1.808-.805 1.808-1.811M61.988 48.522c0-1.006-.804-1.811-1.707-1.811-1.004 0-1.808.805-1.808 1.811s.804 1.811 1.808 1.811c.903 0 1.707-.805 1.707-1.811M58.473 43.292a1.803 1.803 0 0 0-1.809-1.811c-1.004 0-1.807.805-1.807 1.811s.803 1.81 1.807 1.81a1.802 1.802 0 0 0 1.809-1.81M54.155 36.754c0-1.006-.804-1.811-1.808-1.811s-1.808.805-1.808 1.811.804 1.811 1.808 1.811 1.808-.805 1.808-1.811M48.129 37.559c0-.905-.804-1.71-1.808-1.71-.903 0-1.707.805-1.707 1.71 0 1.006.804 1.811 1.707 1.811a1.803 1.803 0 0 0 1.808-1.811M45.318 42.487c0-.905-.804-1.71-1.808-1.71s-1.808.805-1.808 1.71c0 1.006.804 1.811 1.808 1.811s1.808-.805 1.808-1.811M34.071 38.866c0-1.006-.804-1.811-1.808-1.811s-1.808.805-1.808 1.811.804 1.71 1.808 1.71 1.808-.704 1.808-1.71M37.585 34.139c0-1.006-.702-1.81-1.707-1.81-1.004 0-1.808.804-1.808 1.81s.804 1.811 1.808 1.811c1.005-.001 1.707-.805 1.707-1.811M20.615 39.067c0-.905-.804-1.71-1.808-1.71s-1.809.805-1.809 1.71c0 1.006.805 1.811 1.809 1.811s1.808-.805 1.808-1.811M25.435 33.334a1.803 1.803 0 0 0-1.808-1.811 1.802 1.802 0 0 0-1.808 1.811c0 1.006.803 1.811 1.808 1.811a1.802 1.802 0 0 0 1.808-1.811M19.208 34.239a.794.794 0 0 0-.804-.805c-.401 0-.803.403-.803.805 0 .503.401.805.803.805.504 0 .804-.302.804-.805M13.584 37.559c0-1.006-.803-1.811-1.807-1.811s-1.809.805-1.809 1.811.804 1.811 1.809 1.811 1.807-.806 1.807-1.811M15.091 11.005a.793.793 0 0 0-.804-.805c-.402 0-.804.401-.804.805 0 .503.402.904.804.904.503 0 .804-.401.804-.904M50.239 11.104c0-.503-.301-.804-.804-.804a.793.793 0 0 0-.804.804c0 .403.402.805.804.805a.792.792 0 0 0 .804-.805M.128 7.886c.502-.302.803-.905.803-1.509 0-.603-.301-1.206-.803-1.509M2.839 31.323c-.402-1.107-1.807-1.509-2.711-.906M9.568 31.323c-.703-.806-2.008-.806-2.711 0M50.54 31.323c-.803-1.006-2.209-1.006-2.912 0M62.49 30.417c-.302.302-.502.503-.603.906M62.49 4.868c-.703-.503-1.707-.302-2.311.303a1.838 1.838 0 0 0 0 2.413c.604.604 1.607.805 2.311.302M61.887.142c-.301.805 0 1.609.603 2.112M47.627.142c-.603.805-.502 1.811.201 2.413a1.83 1.83 0 0 0 2.41 0c.703-.603.803-1.608.301-2.413M6.856.142c-.602.805-.502 1.811.1 2.515.703.604 1.808.604 2.51 0 .704-.704.704-1.71.101-2.515M.128 2.254c.603.503 1.506.402 2.109 0 .602-.503.803-1.308.602-2.112M59.677 26.494l1.005-1.106M60.08 30.618l1.003-2.213M52.648 30.115l2.109-.1M53.853 22.068l.604 1.711M46.824 23.074l-.803 2.414M49.334 25.991l-.802 2.414M44.113 31.121l1.406-1.408M43.811 26.997l.201 1.812M35.878 25.589l.804 1.911M30.657 28.809l.301 2.011M26.64 30.417l1.807-.805M21.318 26.294l.502 1.709M17.702 25.991l1.807-1.509M14.487 29.411l1.91-.704M8.363 27.3l1.305 2.012M3.542 30.518l2.41-.604M.731 28.104l1.405-1.307"/><path fill="none" stroke="black" stroke-width="1" d="M4.246 24.482l.903-2.414"/><path fill="none" stroke="black" stroke-width="1" stroke-linejoin="bevel" stroke-miterlimit="1.414" d="M6.856 24.08l2.21-1.307M13.283 20.66l.702 1.811M6.655 15.329l2.11.906M1.333 16.335l1.606.906M16.497 19.855l1.908 1.913M15.594 15.43l-.503 1.811M9.066 19.654l1.807 1.611M16.899 13.116h2.108M25.937 22.068l1.807.604M30.657 19.353l.502 2.011M29.653 10.502l.301 1.91M23.225 15.43l.703 2.113M27.343 18.046l1.506-1.409M29.653 25.187l1.103-2.012M39.393 22.572l1.005 2.112M37.987 16.738l-.201 2.012M32.966 13.52l1.808.904M44.615 18.75l2.008.603M43.008 14.525l.905 1.71M38.992 14.826l1.406-1.306M50.54 17.341l.602 2.012M54.255 19.453l1.808-1.509M59.277 13.017l1.405 1.105M56.766 7.081l1.907 2.214M53.251 12.514l.803 1.71M49.536 13.116l1.908.906M56.364 4.063l2.41-1.105M52.347 10.2l1.406-1.509M46.925 9.295l.401 1.408M45.619.845l-.803 1.811M42.606 4.063l1.707.203M39.794 7.283l.403 1.911M36.983 6.68l1.406-1.409M35.175 8.892l1.908.604M30.356 3.159l-.303 2.012M24.531 8.49l1.406-1.207M22.723 8.892l.101 1.71M15.594 9.295l1.405 1.508M11.977 12.412l1.708.402M26.238 3.26l2.009-.503M30.155 1.248l1.707.201M20.113 2.958l1.304 2.012M14.387 3.461l1.407 1.71M11.877 1.348l1.808.302M8.563 4.467l1.607-.605M5.852 7.886l2.108.805M4.748 11.406l.401 1.509M1.032 12.312l1.607.705M1.735 9.999l1.004-1.308M1.935 3.461l1.307 1.81M38.992 30.92l.3.403M20.011 30.82l.102.503M15.794 31.021l.101.302M56.063.142l-1.205 1.206M39.292.142l1.106 1.709M20.113.142v.401M15.895.142l.803 1.81M58.673 28.405c0-.503-.301-.905-.803-.905-.401 0-.804.402-.804.905 0 .403.402.805.804.805.503 0 .803-.401.803-.805M37.585 30.115c0-.402-.401-.804-.804-.804a.792.792 0 0 0-.803.804c0 .503.301.805.803.805a.793.793 0 0 0 .804-.805M21.016 28.809a.794.794 0 0 0-.804-.806c-.502 0-.803.303-.803.806 0 .401.301.804.803.804.403-.001.804-.403.804-.804M13.283 30.015a.794.794 0 0 0-.804-.805c-.4 0-.802.402-.802.805 0 .503.402.806.802.806.502-.001.804-.303.804-.806M2.438 14.625c0-.503-.301-.805-.803-.805a.793.793 0 0 0-.803.805c0 .403.402.805.803.805a.793.793 0 0 0 .803-.805M6.153 5.371c0-.503-.401-.904-.803-.904a.9.9 0 0 0-.904.904c0 .403.402.806.904.806.402 0 .803-.403.803-.806M17.1 22.37c0-.402-.402-.804-.804-.804a.793.793 0 0 0-.805.804c0 .503.303.906.805.906.402 0 .804-.403.804-.906M29.752 20.259a.793.793 0 0 0-.803-.806c-.503 0-.804.303-.804.806 0 .401.301.805.804.805.402-.001.803-.404.803-.805M22.623 13.721a.793.793 0 0 0-.803-.806c-.502 0-.804.303-.804.806 0 .401.302.805.804.805.401-.001.803-.404.803-.805M42.305 17.643c0-.401-.401-.805-.804-.805a.793.793 0 0 0-.803.805c0 .503.301.805.803.805a.793.793 0 0 0 .804-.805M54.356 16.436c0-.401-.401-.805-.804-.805a.793.793 0 0 0-.803.805c0 .503.301.806.803.806a.795.795 0 0 0 .804-.806M61.486 10.703c0-.503-.302-.806-.804-.806a.795.795 0 0 0-.804.806c0 .401.402.805.804.805a.794.794 0 0 0 .804-.805M60.179 1.449c0-.403-.4-.805-.902-.805-.402 0-.804.401-.804.805 0 .503.401.805.804.805.502 0 .902-.302.902-.805M42.708 6.981c0-.403-.402-.805-.804-.805a.793.793 0 0 0-.804.805c0 .503.302.805.804.805a.794.794 0 0 0 .804-.805M28.347 5.674c0-.503-.302-.806-.804-.806a.795.795 0 0 0-.804.806c0 .401.402.805.804.805a.794.794 0 0 0 .804-.805M55.159 26.595c0-1.006-.803-1.81-1.706-1.81-1.005 0-1.809.804-1.809 1.81s.804 1.811 1.809 1.811c.903-.001 1.706-.805 1.706-1.811M42.104 27.399a1.802 1.802 0 0 0-1.808-1.811c-1.004 0-1.807.805-1.807 1.811s.803 1.811 1.807 1.811a1.802 1.802 0 0 0 1.808-1.811M35.175 27.902a1.801 1.801 0 0 0-1.807-1.811c-1.005 0-1.809.805-1.809 1.811s.804 1.811 1.809 1.811a1.8 1.8 0 0 0 1.807-1.811M13.885 25.689a1.8 1.8 0 0 0-1.807-1.811c-1.004 0-1.808.805-1.808 1.811s.804 1.811 1.808 1.811a1.8 1.8 0 0 0 1.807-1.811M7.258 26.896a1.802 1.802 0 0 0-1.808-1.811c-1.004 0-1.808.805-1.808 1.811s.803 1.71 1.808 1.71c1.004 0 1.808-.704 1.808-1.71"/><path fill="none" stroke="black" stroke-width="1" d="M3.844 21.867a1.8 1.8 0 0 0-1.808-1.81c-1.004 0-1.807.804-1.807 1.81s.803 1.811 1.807 1.811a1.802 1.802 0 0 0 1.808-1.811M7.86 18.648a1.801 1.801 0 0 0-1.807-1.811 1.802 1.802 0 0 0-1.808 1.811c0 .906.803 1.71 1.808 1.71 1.004 0 1.807-.803 1.807-1.71"/><path fill="none" stroke="black" stroke-width="1" stroke-linejoin="bevel" stroke-miterlimit="1.414" d="M13.785 16.637c0-1.006-.804-1.71-1.808-1.71s-1.807.704-1.807 1.71.802 1.811 1.807 1.811a1.803 1.803 0 0 0 1.808-1.811M10.07 12.312c0-1.005-.804-1.81-1.808-1.81s-1.708.805-1.708 1.81c0 1.006.703 1.811 1.708 1.811a1.803 1.803 0 0 0 1.808-1.811M27.744 26.595a1.8 1.8 0 0 0-1.807-1.81c-1.005 0-1.808.804-1.808 1.81s.803 1.811 1.808 1.811a1.802 1.802 0 0 0 1.807-1.811M24.331 22.068c0-.905-.805-1.71-1.809-1.71s-1.808.805-1.808 1.71c0 1.006.804 1.811 1.808 1.811s1.809-.805 1.809-1.811M21.518 17.543c0-1.006-.804-1.811-1.808-1.811s-1.808.805-1.808 1.811c0 .904.804 1.71 1.808 1.71s1.808-.806 1.808-1.71M27.744 12.312c0-1.005-.803-1.81-1.807-1.81a1.801 1.801 0 0 0-1.808 1.81c0 1.006.803 1.811 1.808 1.811a1.803 1.803 0 0 0 1.807-1.811M37.485 21.465c0-1.006-.803-1.811-1.707-1.811a1.802 1.802 0 0 0-1.808 1.811c0 .905.804 1.71 1.808 1.71.904 0 1.707-.805 1.707-1.71M33.97 16.134a1.802 1.802 0 0 0-1.808-1.811c-1.004 0-1.807.805-1.807 1.811s.803 1.811 1.807 1.811a1.802 1.802 0 0 0 1.808-1.811M38.791 12.412c0-1.006-.804-1.811-1.808-1.811s-1.808.805-1.808 1.811c0 .905.804 1.71 1.808 1.71s1.808-.805 1.808-1.71M44.816 22.068c0-1.005-.804-1.81-1.808-1.81s-1.808.805-1.808 1.81c0 1.006.804 1.811 1.808 1.811s1.808-.805 1.808-1.811M49.836 15.832a1.8 1.8 0 0 0-1.808-1.81c-.903 0-1.707.804-1.707 1.81s.804 1.811 1.707 1.811a1.801 1.801 0 0 0 1.808-1.811M51.543 22.068c0-1.005-.803-1.81-1.707-1.81a1.802 1.802 0 0 0-1.808 1.81c0 1.006.804 1.811 1.808 1.811.905 0 1.707-.805 1.707-1.811M59.779 22.37c0-1.006-.804-1.81-1.808-1.81s-1.809.804-1.809 1.81.805 1.811 1.809 1.811 1.808-.805 1.808-1.811M61.988 17.341c0-1.006-.804-1.81-1.707-1.81-1.004 0-1.808.804-1.808 1.81s.804 1.811 1.808 1.811c.903-.001 1.707-.805 1.707-1.811M58.473 12.11c0-1.006-.804-1.81-1.809-1.81-1.004 0-1.807.804-1.807 1.81s.803 1.811 1.807 1.811a1.803 1.803 0 0 0 1.809-1.811M54.155 5.572c0-1.006-.804-1.81-1.808-1.81s-1.808.804-1.808 1.81.804 1.811 1.808 1.811 1.808-.805 1.808-1.811M48.129 6.377c0-.904-.804-1.709-1.808-1.709-.903 0-1.707.805-1.707 1.709 0 1.006.804 1.812 1.707 1.812a1.803 1.803 0 0 0 1.808-1.812M45.318 11.307c0-.906-.804-1.711-1.808-1.711s-1.808.805-1.808 1.711c0 1.005.804 1.81 1.808 1.81s1.808-.805 1.808-1.81M34.071 7.686c0-1.006-.804-1.812-1.808-1.812s-1.808.806-1.808 1.812.804 1.709 1.808 1.709 1.808-.704 1.808-1.709M37.585 2.958c0-1.006-.702-1.811-1.707-1.811-1.004 0-1.808.805-1.808 1.811s.804 1.811 1.808 1.811c1.005 0 1.707-.805 1.707-1.811M20.615 7.886c0-.904-.804-1.709-1.808-1.709s-1.809.805-1.809 1.709c0 1.006.805 1.812 1.809 1.812s1.808-.806 1.808-1.812M25.435 2.153A1.803 1.803 0 0 0 23.627.341c-1.005 0-1.808.806-1.808 1.812s.803 1.811 1.808 1.811a1.802 1.802 0 0 0 1.808-1.811M19.208 3.058a.793.793 0 0 0-.804-.804c-.401 0-.803.402-.803.804 0 .503.401.805.803.805.504-.001.804-.302.804-.805M13.585 6.377a1.802 1.802 0 0 0-1.808-1.811c-1.004 0-1.809.805-1.809 1.811s.804 1.812 1.809 1.812a1.804 1.804 0 0 0 1.808-1.812"/></svg>
