<svg xmlns="http://www.w3.org/2000/svg" width="34.017" height="34.016" viewBox="0 0 34.017 34.016"><path fill="none" stroke="black" stroke-width="1" stroke-miterlimit="500" d="M3.25 23.887l1.682 2.801 1.681-2.801M9.88 23.887l1.681 2.801 1.682-2.801M16.51 23.887l1.681 2.801 1.681-2.801M23.691 23.887l1.682 2.801 1.68-2.801M30.305 23.887l1.68 2.801 1.682-2.801M3.25 12.579l1.682 2.801 1.681-2.801M9.88 12.579l1.681 2.801 1.682-2.801M16.51 12.579l1.681 2.801 1.681-2.801M23.691 12.579l1.682 2.801 1.68-2.801M30.305 12.579l1.68 2.801 1.682-2.801M3.25 1.272l1.682 2.801 1.681-2.801M9.88 1.272l1.681 2.801 1.682-2.801M16.51 1.272l1.681 2.801 1.681-2.801M23.691 1.272l1.682 2.801 1.68-2.801M30.305 1.272l1.68 2.801 1.682-2.801M.336 7.138l1.682 2.8 1.681-2.8M6.658 7.138l1.681 2.8 1.681-2.8M13.287 7.138l1.682 2.8 1.68-2.8M20.469 7.138l1.681 2.8 1.682-2.8M27.098 7.138l1.682 2.8 1.681-2.8M.336 18.399l1.682 2.8 1.681-2.8M6.658 18.399l1.681 2.8 1.681-2.8M13.287 18.399l1.682 2.8 1.68-2.8M20.469 18.399l1.681 2.8 1.682-2.8M27.098 18.399l1.682 2.8 1.681-2.8M.336 29.661l1.682 2.801 1.681-2.801M6.658 29.661l1.681 2.801 1.681-2.801M13.287 29.661l1.682 2.801 1.68-2.801M20.469 29.661l1.681 2.801 1.682-2.801M27.098 29.661l1.682 2.801 1.681-2.801M14.179 3.721l1.316 2.675M13.87 16.053l1.177-1.353M7.481 16.053l2.354.731M5.38 9.521l-1.625 1.323M3.447 5.663L1.682 4.171M17.737 10.394l.728-1.494M11.488 9.661L10.9 7.746M9.247 5.354l-2.354-.761M2.41 16.926l-.869-1.465M5.548 21.092l1.765.592M2.13 23.176L1.093 24.81M3.615 28.075L5.1 29.708M8.378 28.216l.588-1.183M13.114 28.216l2.101-1.183M7.93 25.118l.868-1.181M11.629 21.402l2.241 1.042M19.054 21.571l-1.177-1.802M21.674 3.41l1.177 1.493M25.232 8.9l-.448 1.494M22.122 13.688l-1.345 1.915M24.056 17.376l1.036 1.211M22.122 23.316l-.308 2.394M28.51 24.527l1.178 1.774M26.269 21.853l-1.037-.761M28.959 15.742l1.933.902M31.173 10.984l1.036-1.463M31.649 6.086l-1.765-.901M10.9 31.791l.588 1.183M25.541 31.059l.588-1.942M23.299 28.216l-1.933-.141M8.07.624l.728 1.632M31.929 19.318l1.346 1.493M9.555 10.984l-1.037 1.211M1.233 2.115l-.14-1.66M13.114 11.153l1.344.733M18.465 30.018l-.308 1.942"/><path fill="param(fill)" d="M32.869 11.717h1.148v.338h-1.148zM32.981 27.456l-.03.337 1.066.098v-.339zM0 11.717h.645v.338H0zM0 27.891l.77.071.03-.337-.8-.073zM28.976 1.922l.246-.232L27.658 0h-.459zM15.419 1.398l.296-.162L15.044 0h-.383zM4.733.81l.196.274L6.427 0h-.575zM32.259.711l.238-.239-.47-.472h-.476zM26.762 33.543l.437.473h.459l-.65-.703zM14.071 32.928l.59 1.088h.383l-.678-1.249zM5.852 34.016h.575l.497-.36-.196-.274zM30.634 33.093l.917.923h.476l-1.156-1.162z"/><path fill="none" stroke="black" stroke-width="1" stroke-miterlimit="500" d="M31.537 29.877l1.765 1.38"/></svg>
