<svg xmlns="http://www.w3.org/2000/svg" width="48.188" height="48.188" viewBox="0 0 48.188 48.188"><path fill="param(fill)" d="M17.123 6.41l3.644.108-1.733-3.236-1.911 3.128zm1.885-2.216c.234.438.757 1.413.988 1.848l-2.079-.063 1.091-1.785zM23.124 7.107l3.577-.58-2.314-2.84-1.263 3.42zm1.413-2.517l1.316 1.615-2.035.33.719-1.945zM29.969 10.542l3.396 1.275-.575-3.6-2.821 2.325zm2.498-1.471l.328 2.048-1.932-.726 1.604-1.322zM35.722 6.327l3.11 1.927.034-3.674-3.144 1.747zm2.683-.972l-.02 2.089-1.769-1.096a844.54 844.54 0 0 0 1.789-.993zM33.144 17.761l3.612.579-1.37-3.415-2.242 2.836zm2.113-1.941l.78 1.945-2.058-.33 1.278-1.615zM33.681 25.23l3.647.069-1.805-3.195-1.842 3.126zm1.834-2.218l1.028 1.819-2.077-.039 1.049-1.78zM34.122 30.59l2.565 2.619.903-3.562-3.468.943zm2.839-.301l-.515 2.026-1.46-1.491 1.975-.535zM31.843 38.592l2.853 2.33.504-3.642-3.357 1.312zm2.802-.608c-.066.481-.219 1.576-.287 2.075l-1.626-1.327 1.913-.748zM23.19 39.474l1.911 3.162 1.697-3.271-3.608.109zm2.851.367l-.97 1.868-1.091-1.806 2.061-.062zM20.304 33.279l2.272 2.906 1.301-3.45-3.573.544zm2.875.022l-.742 1.97c-.312-.397-.997-1.275-1.298-1.66l2.04-.31zM26.147 29.491l3.461-1.233-2.739-2.397-.722 3.63zm1.013-2.773l1.568 1.372-1.98.706.412-2.078zM27.024 33.32l2.854 2.33.502-3.671-3.356 1.341zm2.801-.631l-.287 2.098-1.63-1.331 1.917-.767zM21.222 23.198l2.67 2.54.79-3.628-3.46 1.088zm2.85-.421l-.452 2.076-1.528-1.454a711.5 711.5 0 0 0 1.98-.622zM21.323 13.271l1.873 3.189 1.764-3.263-3.637.074zm2.867.396l-1.011 1.87-1.073-1.827 2.084-.043zM25.434 16.575l3.496 1.161-.722-3.594-2.774 2.433zM27.918 15l.413 2.06-2.003-.665c.374-.33 1.219-1.069 1.59-1.395zM27.269 21.375l2.884 2.285.578-3.593-3.462 1.308zm2.889-.606l-.33 2.056-1.65-1.308c.469-.178 1.519-.575 1.98-.748zM15.913 14.577l3.645-.036-1.875-3.162-1.77 3.198zm1.783-2.286l1.069 1.805-2.079.021 1.01-1.826zM15.207 23.448l3.612-.073-1.878-3.162-1.734 3.235zm1.755-2.312l1.07 1.802-2.059.042.989-1.844zM16.157 29.137l2.276 2.876 1.335-3.384-3.611.508zm2.905.05c-.18.453-.58 1.469-.761 1.928l-1.297-1.639c.49-.07 1.574-.222 2.058-.289zM16.961 40.114l1.803 3.197 1.841-3.197h-3.644zm2.859.454l-1.053 1.827-1.03-1.827h2.083z"/><path fill="none" d="M30.552 3.938l1.008-1.819-2.056.021 1.048 1.798z"/><path fill="param(fill)" d="M30.563 4.856l1.771-3.198-3.614.035 1.843 3.163zm-.011-.918l-1.048-1.799 2.056-.021-1.008 1.82z"/><path fill="none" d="M13.531 7.442l-1.316 1.616 2.037.35-.721-1.966zM8.107 8.311V6.218L6.318 7.274l1.789 1.037zM11.927 15.976l-.042 2.091 1.811-.995c-.414-.258-1.346-.835-1.769-1.096zM12.761 27.281l-2.08-.021 1.031 1.825 1.049-1.804zM13.809 37.613l-1.051-1.802-1.028 1.822 2.079-.02zM8.385 35.764l.661-1.99-2.04.416 1.379 1.574z"/><path fill="param(fill)" d="M13.682 6.255l-2.309 2.837 3.574.612-1.265-3.449zm-.151.904l.721 1.966-2.037-.35 1.316-1.616zM11.416 18.841l3.179-1.746-3.105-1.924-.074 3.67zm.511-2.865l1.769 1.096-1.811.995.042-2.091zM13.545 26.836l-3.646-.038 1.807 3.198 1.839-3.16zm-.784.445l-1.049 1.804-1.031-1.825 2.08.021zM10.949 38.095l3.646-.036-1.843-3.159-1.803 3.195zm2.86-.482l-2.079.021 1.028-1.822 1.051 1.801z"/><path fill="none" d="M21.37 46.502l1.811 1.057-.042-2.094-1.769 1.037zM10.619 43.793l-.062 2.099 1.833-.998-1.771-1.101zM34.677 46.87l.785 1.318h.553l.725-1.37-2.063.052zM29.948 45.551l-1.912-.725.33 2.07 1.582-1.345zM16.865 47.927l-1.608-.614.139.876h1.612l.172-.138-.315-.124z"/><path fill="param(fill)" d="M23.577 44.399l-3.105 1.819 2.889 1.687h.286l-.07-3.506zm-2.207 1.82l1.769-1.037.042 2.094-1.811-1.057zM30.826 45.115l-3.36-1.274.579 3.642 2.781-2.368zm-.878.153l-1.582 1.346-.33-2.07 1.912.724zM10.188 42.992l-.107 3.675 3.21-1.747-3.103-1.928zm.431.801l1.771 1.101-1.833.998.062-2.099zM34.677 46.87l2.063-.052-.725 1.37h.513l.975-1.843-3.612.09 1.045 1.753h.527c-.275-.459-.61-1.022-.786-1.318zM15.396 48.188l-.139-.876 1.608.614.314.124-.172.138h.734l.338-.269-.008-.003.013-.011-1.06-.404-2.344-.929.006.036-.026-.01.247 1.589h.489z"/><path d="M7.121 47.832l-.303.356h.425z"/><path fill="none" d="M45.467 22.445l-1.935-.788.267 2.051 1.668-1.263zM42.693 47.548l1.397-1.552-2.055-.372c.157.457.503 1.467.658 1.924zM42.281 35.548l-.062 2.047 1.85-.97-1.788-1.077zM39.614 40.311l-.965 1.802 2.076-.021-1.111-1.781zM43.869 30.137l1.974.684-.432-2.049c-.365.323-1.179 1.042-1.542 1.365zM41.131 11.949l-1.544 1.368 1.976.684-.432-2.052zM39.11 20.156l1.811 1.035-.062-2.091-1.749 1.056zM43.66 4.562l-1.008 1.803 2.076-.022c-.253-.425-.815-1.362-1.068-1.781zM48.188 41.225v-1.542l-.567 1.639.567-.097zM48.188 16.59v-1.002l-.873.523c.207.114.538.294.873.479z"/><path fill="param(fill)" d="M41.415 10.81l-2.71 2.399 3.466 1.199-.756-3.598zm-.284.856c.102.479.329 1.562.432 2.052l-1.976-.684 1.544-1.368zM41.289 18.027l-3.074 1.856 3.184 1.82-.11-3.676zm-2.179 1.846l1.749-1.056.062 2.091-1.811-1.035zM39.584 39.406l-1.695 3.167 3.649-.036-1.954-3.131zm.03.905l1.111 1.781-2.076.021.965-1.802zM43.646 3.656l-1.771 3.17 3.649-.039-1.878-3.131zm.014.906l1.068 1.78c-.494.006-1.586.018-2.076.022l1.008-1.802zM43.45 24.258l2.926-2.215-3.395-1.383.469 3.598zm2.017-2.096l-1.668 1.263-.267-2.051 1.935.788zM42.987 30.028l3.465 1.199-.758-3.596-2.707 2.397zm.882-.174l1.542-1.365.432 2.049c-.473-.165-1.514-.524-1.974-.684zM41.743 38.357l3.251-1.706-3.144-1.892-.107 3.598zm.538-2.809l1.788 1.077-1.85.97.062-2.047zM47.621 41.038l.567-1.639V38.3l-.07-.082-1.177 3.395 1.247-.212v-.46l-.567.097zM47.315 16.111l.873-.523v-.528l-1.786 1.069 1.786.978v-.517c-.335-.185-.666-.365-.873-.479zM42.434 48.188h.294l2.245-2.494-3.615-.654 1.076 3.148zm.259-.64l-.657-1.924 2.055.372-1.398 1.552zM47.412 48.188h.521l.255-.451v-.92l-.776 1.371z"/><path fill="none" d="M36.015.005h-.553l.293.491.26-.491zM17.007.005h-1.641l.182 1.169L17.007.005z"/><path fill="param(fill)" d="M35.755.496l-.293-.491h-.527l.844 1.416.749-1.416h-.513l-.26.491zM15.548 1.174L15.366.005h-.459l.312 2.013L17.732.005h-.726l-1.458 1.169zM46.65 1.35l1.538.003V.899l-.761-.002.506-.893h-.521L46.65 1.35z"/><path fill="none" d="M.101 39.391L0 39.683v1.542l1.479-.25-1.378-1.584zM.94 15.025l-.94.563v1.002l.978.535-.038-2.1zM6.95.549L5.598 2.136l2.028.394L6.95.549zM2.475 9.027L.54 8.258l.309 2.073 1.626-1.304zM5.303 14.725l1.113 1.76.968-1.864-2.081.104zM8.107 8.311V6.218L6.318 7.274l1.789 1.037zM2.443 23.318L.651 24.376l1.812 1.038-.02-2.096zM6.356 25.441l1.275-1.659-2.057-.27.782 1.929zM7.006 34.189l1.378 1.574.661-1.99-2.039.416zM4.895 41.797l1.979.659-.413-2.052-1.566 1.393zM1.449 32.475l1.379 1.554.659-1.99-2.038.436z"/><path fill="param(fill)" d="M8.561 9.098V5.423L5.42 7.278l3.141 1.82zm-.454-.787L6.318 7.274l1.789-1.056v2.093zM6.15 33.901l2.416 2.757 1.158-3.486-3.574.729zm2.235 1.863L7.007 34.19l2.04-.416-.662 1.99zM.516 11.179l2.85-2.285L0 7.556v.156l.516 3.467zm1.959-2.152L.849 10.331C.775 9.842.612 8.747.54 8.258l1.935.769zM2.924 26.201l-.036-3.673L0 24.234v.292l2.924 1.675zm-.481-2.883l.02 2.096-1.812-1.038 1.792-1.058zM.594 32.194l2.418 2.724 1.155-3.489-3.573.765zm2.235 1.834L1.45 32.474l2.039-.437-.66 1.991zM4.007 41.979l3.465 1.155-.722-3.593-2.743 2.438zm.888-.182l1.566-1.393.413 2.052-1.979-.659zM6.233 26.346l2.237-2.911-3.609-.473 1.372 3.384zm.123-.905l-.782-1.929 2.057.27-1.275 1.659zM8.151 14.127l-3.646.184 1.951 3.083 1.695-3.267zm-2.848.598l2.082-.104-.968 1.864-1.114-1.76zM.101 39.107l1.378 1.584-1.479.25v.46l2.352-.397L0 38.301V39.4l.101-.293zM.94 15.025l.038 2.1L0 16.59v.517l1.445.791-.066-3.664L0 15.06v.528l.94-.563zM.266 47.268l.526.921h.522L.263 46.352 0 46.817v.92l.266-.469zM7.243.005h-.426L4.75 2.433l3.56.692L7.243.005zM6.95.549l.676 1.981-2.028-.395C5.915 1.765 6.626.929 6.95.549zM2.088 1.356L1.315.005H.792l.513.896L0 .899v.453l2.088.004z"/></svg>