<svg xmlns="http://www.w3.org/2000/svg" width="34.016" height="34.016" viewBox="0 0 34.016 34.016"><path fill="none" d="M0 0h34.016v34.016H0z"/><path fill="none" stroke="black" stroke-width="1" d="M3.94 22.474l-.604-3.13 2.976.945zM11.127 24.483l.893-3.061 2.215 2.2zM6.798 30.395l-3.188.041 1.457-2.763zM12.598 31.997l2.427-2.068.644 3.053z"/><g fill="param(fill)"><path d="M5.383 32.479a.342.342 0 1 1-.683-.001.342.342 0 0 1 .683.001M1.766 32.791a.342.342 0 0 1-.684 0 .342.342 0 1 1 .684 0M2.25 29.374a.342.342 0 1 1-.685-.001.342.342 0 0 1 .685.001M1.453 23.535a.342.342 0 1 1-.685 0 .342.342 0 0 1 .685 0M1.965 18.95a.342.342 0 0 1-.684 0c0-.189.153-.341.342-.341s.342.152.342.341M7.746 18.21a.341.341 0 1 1-.683 0 .341.341 0 0 1 .683 0M9.711 20.289a.342.342 0 1 1-.683-.001.342.342 0 0 1 .683.001M6.208 24.674a.342.342 0 1 1 0 0M3.503 26.354a.342.342 0 1 1-.685 0 .342.342 0 0 1 .685 0M8.486 27.152a.342.342 0 1 1-.683 0 .342.342 0 0 1 .683 0M11.875 18.609a.342.342 0 1 1-.683-.001.342.342 0 0 1 .683.001M9.825 23.563a.342.342 0 1 1 0 0M13.926 25.472a.342.342 0 0 1-.684 0c0-.189.153-.341.342-.341.189 0 .342.152.342.341M11.791 28.661a.342.342 0 0 1-.684 0 .342.342 0 0 1 .684 0M16.205 27.607a.342.342 0 0 1-.684 0 .342.342 0 0 1 .684 0M9.683 31.852A.342.342 0 1 1 9 31.851a.342.342 0 0 1 .683.001M15.378 21.086a.342.342 0 0 1-.684 0c0-.189.153-.341.342-.341a.34.34 0 0 1 .342.341M15.493 18.039a.342.342 0 1 1-.683-.001.342.342 0 0 1 .683.001"/></g><path fill="none" stroke="black" stroke-width="1" d="M20.948 22.474l-.604-3.13 2.976.945zM28.135 24.483l.893-3.061 2.215 2.2zM23.806 30.395l-3.187.041 1.457-2.763zM29.606 31.997l2.428-2.068.643 3.053z"/><g fill="param(fill)"><path d="M22.391 32.479a.342.342 0 1 1-.683-.001.342.342 0 0 1 .683.001M18.774 32.791a.342.342 0 0 1-.684 0 .342.342 0 1 1 .684 0M19.258 29.374a.342.342 0 1 1-.685-.001.342.342 0 0 1 .685.001M18.46 23.535a.342.342 0 1 1-.685 0 .342.342 0 0 1 .685 0M18.973 18.95a.342.342 0 0 1-.684 0c0-.189.153-.341.342-.341s.342.152.342.341M24.754 18.21a.342.342 0 1 1-.683-.001.342.342 0 0 1 .683.001M26.719 20.289a.342.342 0 1 1-.342-.342c.19 0 .342.154.342.342M23.216 24.674a.342.342 0 1 1-.685.001.342.342 0 0 1 .685-.001M20.511 26.354a.342.342 0 0 1-.684 0 .342.342 0 1 1 .684 0M25.495 27.152a.342.342 0 1 1-.684 0 .342.342 0 0 1 .684 0M28.883 18.609a.342.342 0 1 1-.342-.343c.19.001.342.154.342.343M26.833 23.563a.342.342 0 0 1-.684 0 .342.342 0 1 1 .684 0M30.934 25.472a.342.342 0 0 1-.684 0 .34.34 0 0 1 .342-.341c.189 0 .342.152.342.341M28.798 28.661a.342.342 0 0 1-.685 0 .342.342 0 0 1 .685 0M33.212 27.607a.342.342 0 0 1-.684 0 .342.342 0 0 1 .684 0M26.691 31.852a.342.342 0 1 1-.683-.001.342.342 0 0 1 .683.001M32.386 21.086a.342.342 0 0 1-.684 0c0-.189.153-.341.342-.341s.342.151.342.341M32.5 18.039a.342.342 0 1 1-.683-.001.342.342 0 0 1 .683.001"/></g><path fill="none" stroke="black" stroke-width="1" d="M3.94 5.466l-.604-3.13 2.976.945zM11.127 7.476l.893-3.062 2.215 2.2zM6.798 13.387l-3.188.041 1.457-2.763zM12.598 14.989l2.427-2.068.644 3.054z"/><g fill="param(fill)"><path d="M5.383 15.471a.342.342 0 1 1-.683-.001.342.342 0 0 1 .683.001M1.766 15.783a.342.342 0 0 1-.684 0 .342.342 0 1 1 .684 0M2.25 12.366a.342.342 0 1 1-.685-.001.342.342 0 0 1 .685.001M1.453 6.527a.342.342 0 1 1-.685 0 .342.342 0 0 1 .685 0M1.965 1.942a.341.341 0 1 1-.341-.341.34.34 0 0 1 .341.341M7.746 1.202a.341.341 0 1 1-.683 0 .341.341 0 0 1 .683 0M9.711 3.281a.342.342 0 1 1-.683-.001.342.342 0 0 1 .683.001M6.208 7.666a.342.342 0 1 1 0 0M3.503 9.347a.342.342 0 1 1-.685 0 .342.342 0 0 1 .685 0M8.486 10.145a.342.342 0 1 1-.683 0 .342.342 0 0 1 .683 0M11.875 1.602a.342.342 0 1 1-.683-.001.342.342 0 0 1 .683.001M9.825 6.556a.342.342 0 1 1 0 0M13.926 8.464a.342.342 0 0 1-.684 0c0-.189.153-.341.342-.341.189 0 .342.152.342.341M11.791 11.653a.342.342 0 0 1-.684 0 .342.342 0 0 1 .684 0M16.205 10.6a.342.342 0 0 1-.684 0 .342.342 0 0 1 .684 0M9.683 14.844A.342.342 0 1 1 9 14.843a.342.342 0 0 1 .683.001M15.378 4.078a.342.342 0 0 1-.684 0c0-.189.153-.341.342-.341a.34.34 0 0 1 .342.341M15.493 1.031a.342.342 0 1 1-.683-.001.342.342 0 0 1 .683.001"/></g><path fill="none" stroke="black" stroke-width="1" d="M20.948 5.466l-.604-3.13 2.976.945zM28.135 7.476l.893-3.062 2.215 2.2zM23.806 13.387l-3.187.041 1.457-2.763zM29.606 14.989l2.428-2.068.643 3.054z"/><g fill="param(fill)"><path d="M22.391 15.471a.342.342 0 1 1-.683-.001.342.342 0 0 1 .683.001M18.774 15.783a.342.342 0 0 1-.684 0 .342.342 0 1 1 .684 0M19.258 12.366a.342.342 0 1 1-.685-.001.342.342 0 0 1 .685.001M18.46 6.527a.342.342 0 1 1-.685 0 .342.342 0 0 1 .685 0M18.973 1.942a.341.341 0 1 1-.341-.341.34.34 0 0 1 .341.341M24.754 1.202a.342.342 0 1 1-.683-.001.342.342 0 0 1 .683.001M26.719 3.281a.342.342 0 1 1-.342-.342c.19 0 .342.154.342.342M23.216 7.666a.342.342 0 1 1-.685.001.342.342 0 0 1 .685-.001M20.511 9.347a.342.342 0 0 1-.684 0c0-.189.153-.341.342-.341s.342.152.342.341M25.495 10.145a.342.342 0 1 1-.684 0 .342.342 0 0 1 .684 0M28.883 1.602a.342.342 0 1 1-.342-.343c.19 0 .342.153.342.343M26.833 6.556a.342.342 0 1 1 0 0M30.934 8.464a.342.342 0 0 1-.684 0 .34.34 0 0 1 .342-.341c.189 0 .342.152.342.341M28.798 11.653a.342.342 0 0 1-.685 0 .342.342 0 0 1 .685 0M33.212 10.6a.342.342 0 0 1-.684 0 .342.342 0 0 1 .684 0M26.691 14.844a.342.342 0 1 1-.683-.001.342.342 0 0 1 .683.001M32.386 4.078a.342.342 0 0 1-.684 0c0-.189.153-.341.342-.341s.342.152.342.341M32.5 1.031a.342.342 0 1 1-.683-.001.342.342 0 0 1 .683.001"/></g></svg>
