<svg xmlns="http://www.w3.org/2000/svg" width="48.189" height="48.189" viewBox="0 0 48.189 48.189"><path fill="none" d="M0 0h48.189v48.189H0z"/><path fill="none" stroke="black" stroke-width="1" stroke-linejoin="round" d="M14.145 25.739l-.595 2.664 2.749-.708M17.687 34.009l1.7-2.136-2.782-.565M7.795 33.068l2.721.233-1.071-2.63M.51 35.15l1.191-2.495 1.673 2.155M8.249 40.706l-.992-2.551 2.749.199M13.89 40.054l2.609-1.162-.142 2.721M21.969 38.297l-1.247 2.494 2.862-.085M20.75 25.853l1.587 2.097 1.247-2.409M2.211 26.76l1.729-2.155 1.219 2.466M2.296 42.01l1.644 2.097-2.692.653"/><g fill="none" stroke="black" stroke-width="1" stroke-linejoin="round"><path d="M10.403 44.93l-1.19 2.466 2.778-.057M17.944 44.901l2.693.738L18.8 47.68"/></g><path fill="none" stroke="black" stroke-width="1" stroke-linejoin="round" d="M38.241 25.739l-.596 2.664 2.75-.708M41.782 34.009l1.701-2.136-2.783-.565M31.891 33.068l2.72.233-1.071-2.63M24.606 35.15l1.19-2.495 1.673 2.155M32.344 40.706l-.992-2.551 2.75.199M37.985 40.054l2.608-1.162-.141 2.721M46.064 38.297l-1.247 2.494 2.863-.085M44.845 25.853l1.587 2.097 1.248-2.409M26.307 26.76l1.729-2.155 1.218 2.466M26.391 42.01l1.645 2.097-2.694.653"/><g fill="none" stroke="black" stroke-width="1" stroke-linejoin="round"><path d="M34.499 44.93l-1.191 2.466 2.778-.057M42.039 44.901l2.693.738-1.837 2.041"/></g><path fill="none" stroke="black" stroke-width="1" stroke-linejoin="round" d="M14.146 1.645l-.596 2.664 2.75-.708M17.687 9.914l1.701-2.136-2.783-.565M7.796 8.974l2.72.232-1.072-2.63M.511 11.056l1.19-2.495 1.673 2.154M8.249 16.611l-.992-2.55 2.75.198M13.89 15.959l2.609-1.162-.142 2.722M21.969 14.202l-1.247 2.494 2.863-.085M20.75 1.758l1.587 2.097 1.248-2.409M2.212 2.665L3.94.511l1.219 2.466M2.296 17.915l1.644 2.098-2.693.652"/><g fill="none" stroke="black" stroke-width="1" stroke-linejoin="round"><path d="M10.403 20.835l-1.19 2.466 2.778-.057M17.944 20.807l2.693.737-1.837 2.041"/></g><path fill="none" stroke="black" stroke-width="1" stroke-linejoin="round" d="M38.241 1.645l-.596 2.664 2.75-.708M41.782 9.914l1.701-2.136-2.783-.565M31.891 8.974l2.72.232-1.071-2.63M24.606 11.056l1.19-2.495 1.673 2.154M32.344 16.611l-.992-2.55 2.75.198M37.985 15.959l2.608-1.162-.141 2.722M46.064 14.202l-1.247 2.494 2.863-.085M44.845 1.758l1.587 2.097 1.248-2.409M26.307 2.665L28.036.511l1.218 2.466M26.391 17.915l1.645 2.098-2.694.652"/><g fill="none" stroke="black" stroke-width="1" stroke-linejoin="round"><path d="M34.499 20.835l-1.191 2.466 2.778-.057M42.039 20.807l2.693.737-1.837 2.041"/></g></svg>
