<svg xmlns="http://www.w3.org/2000/svg" width="34.018" height="34.016" viewBox="0 0 34.018 34.016"><path fill="param(fill)" d="M12.296 11.251L10.99 9.855l.255-.239 1.306 1.397zM17.27 14.886l-1.307-1.396.255-.238 1.306 1.396zM2.568 13.983l-.38-1.568.34-.082.38 1.568zM7.355 22.677L5.73 21.223l.232-.26 1.626 1.454zM10.522 26.283l-.579-1.658.33-.115.578 1.658zM12.939 28.154l-.216-.276 1.745-1.364.216.276zM21.815 24.766l-.214-.276 1.75-1.359.214.276zM11.53 22.308l.18-.3 1.9 1.143-.18.299zM4.101 26.049l-.176-.302 2.04-1.19.175.3zM1.396 33.147l-.083-.34 2.294-.56.083.34zM6.474 31.564l-1.27-1.923.29-.192 1.271 1.923zM10.203 32.067l-.117-.33 1.862-.655.116.33zM2.065 26.341l-.325-.128.902-2.268.324.13zM20.76 27.04l-.959-1.975.313-.152.96 1.975zM16.073 30.38l-.546-1.67.332-.109.547 1.67zM9.77 1.105L7.937.903l.039-.347 1.832.202zM9.866 2.969l.265-.226 1.44 1.683-.263.226zM3.926 8.941L2.093 7.545l.212-.278 1.832 1.397zM7.924 11.942l.49-1.796.338.092-.491 1.796zM10.526 18.37l.491-1.796.337.092-.492 1.796zM12.106 14.477l-.01-.349 1.973-.058.01.35zM3.942 5.55l-.101-.333 1.75-.535.103.333zM18.347 9.04l-.231-.26 1.367-1.218.231.26zM16.866 11.09l-.204-1.746.346-.04.204 1.746zM16.11 4.063l-.297.182-1.275-2.083.297-.182zM23.43 16.57l.301-.174.936 1.624-.302.173zM24.003 19.886l.104-.333 1.844.579-.104.333zM25.29 29.71l.106-.334 1.841.589-.106.333zM19.103 21.382l.104-.332 1.844.58-.104.332zM25.435 11.252l-1.193-1.425.267-.224 1.194 1.425zM28.794 22.538l-.238-.258 1.57-1.45.237.257zM26.07 16.33l-.216-.274 1.484-1.162.215.275zM26.474 24.523l-.58-1.661.329-.115.58 1.66zM22.415 33.668l-.233-.26 1.363-1.225.233.26zM29.25 30.03l.971-1.086.26.232-.97 1.087zM22.352 31.166l-.202-1.746.347-.04.202 1.746zM24.14 27.496l-.334-.103.722-2.331.334.104zM31.195 15.587l-.38-.32.224-.268.38.322zM30.857 33.244l-.324-.129.902-2.268.324.129zM29.624 9.764l-1.688-2.01.268-.224 1.688 2.009zM24.396 2.165l-.316-.145.881-1.917.316.145zM20.878 3.72l.028-.348 1.825.149-.028.348z"/><path fill="param(fill)" d="M30.819 15.268l-.928-.753.22-.271.928.753zM27.738 3.723l-.142-.318 2.227-.997.142.318zM6.776 28.367a.176.176 0 0 0-.055.165c.012.06.056.109.114.13l2.666.93.115-.329-2.387-.833 1.859-1.664-.233-.261-2.079 1.862zM6.861 6.237a.173.173 0 0 0 .059.294l2.667.93.115-.329-2.387-.833 1.859-1.665-.233-.259-2.08 1.862zM15.065 5.902l-2.79.403.05.346 2.491-.36-.912 2.325.325.127 1.022-2.604a.175.175 0 0 0-.186-.237M5 12.223a.173.173 0 0 0-.112.133l-.498 2.759.343.062.445-2.464 1.909 1.577.222-.269-2.139-1.768a.171.171 0 0 0-.17-.03M21.889 10.686l-2.109 1.858.23.263 1.883-1.66.496 2.436.342-.07-.556-2.729a.17.17 0 0 0-.116-.13.168.168 0 0 0-.17.032M23.545 4.806a.169.169 0 0 0-.113.13l-.561 2.758.342.069s.406-2.004.501-2.465l1.883 1.635.229-.264-2.109-1.83a.174.174 0 0 0-.172-.033M2.024 17.421a.174.174 0 0 0-.115.13l-.558 2.761.342.068.499-2.466 1.883 1.635.229-.265-2.109-1.83a.177.177 0 0 0-.171-.033M17.011 22.022l-2.109 1.859.231.261 1.882-1.659.497 2.434.341-.068-.555-2.73a.178.178 0 0 0-.116-.13.171.171 0 0 0-.171.033M6.861 18.156a.175.175 0 0 0 .059.295l2.667.932.115-.33-2.387-.834 1.859-1.664-.232-.261-2.081 1.862zM15.065 17.531l-2.79.403.05.346 2.491-.36-.912 2.325.325.127 1.022-2.604a.175.175 0 0 0-.186-.237M28.257 14.313l-1.273-2.133-.299.179 1.427 2.39a.172.172 0 0 0 .15.085.171.171 0 0 0 .15-.088l1.395-2.448-.303-.173-1.247 2.188M2.009 27.917a.174.174 0 0 0-.115.131l-.558 2.76.342.069.498-2.467 1.883 1.636.229-.264-2.109-1.831a.173.173 0 0 0-.17-.034M20.088 28.579l-2.788.403.05.346 2.491-.36-.913 2.324.326.127 1.021-2.604a.18.18 0 0 0-.025-.173.178.178 0 0 0-.162-.063M29.47 27.331l-1.273-2.134-.299.179 1.426 2.391a.174.174 0 0 0 .302-.003l1.395-2.448-.305-.174s-1.012 1.78-1.246 2.189M14.902 1.056l.231.262L16.627.001H16.1l-1.198 1.055zM17.511 2.093l.342-.07L17.442 0h-.356l.425 2.093M7.03 1.488l.222-.27L5.778 0H5.23l1.8 1.488M4.333 2.313l.343.062L5.105 0H4.75l-.417 2.313zM.706 2.093l.342-.07L.636 0H.28l.426 2.093M32.028 6.291c-.17.438-.911 2.325-.911 2.325l.324.127 1.022-2.604a.174.174 0 0 0-.186-.236l-2.788.403.05.346 2.489-.361M31.051 17.543l-.296 2.48.347.041.33-2.777a.172.172 0 0 0-.068-.161.176.176 0 0 0-.172-.021l-2.596 1.094.136.321c0 .001 1.885-.793 2.319-.977M32.116 23.882l.23.261s1.132-.997 1.672-1.475v-.466l-1.902 1.68zM33.846 0h-.526l-1.204 1.061.23.262L33.846 0M5.104 34.016h.126a6.175 6.175 0 0 1-.109-.09 3.06 3.06 0 0 1-.017.09"/><path fill="param(fill)" d="M5.121 33.926l.109.09h.547l-.664-.549a.174.174 0 0 0-.283.103l-.08.446h.354a3.06 3.06 0 0 0 .017-.09M34.018 33.863v-.465l-.698.617h.526c.063-.053.12-.105.172-.152M.21 22.483l.496 2.434.342-.068-.556-2.73a.174.174 0 0 0-.116-.13.17.17 0 0 0-.17.034l-.206.18v.465l.21-.185M.21 33.673l.069.343h.356l-.144-.707a.175.175 0 0 0-.287-.097L0 33.394v.465l.21-.186M1.439 4.535L.167 2.775 0 2.896v.245l1.156 1.598zM33.277 13.216l-.146.316.887.412v-.383zM32.939 30.271l.238.255.841-.788v-.478zM33.744 10.427l.274.203v-.575zM33.902 2.98l.116.161v-.245zM33.636 17.776l-.169.305.551.309v-.4zM.741 14.289l.147-.316L0 13.561v.383zM.494 29.275l-.238-.254L0 29.26v.478zM.006 10.635l1.088-1.473-.28-.207-.814 1.1v.575zM.962 18.927l.17-.306L0 17.99v.4zM11.939 1.418l.325-.128L11.751 0h-.375zM26.33.718l.237.256L27.616 0h-.514zM19.453 1.375l.292-.19L18.973 0h-.415zM11.408 33.149l-.325.129.293.738h.375zM28.043 33.618l-.237-.256-.704.654h.513zM18.42 33.164l-.292.19.43.662h.415zM17.015 33.673c.017.078.04.197.07.343h.356l-.144-.707a.176.176 0 0 0-.287-.097l-.91.804h.527l.388-.343M19.792 17.495l-.259-.233 1.48-1.649.26.233zM17.998 18.814l-.647-1.633.324-.129.647 1.634z"/></svg>