<svg xmlns="http://www.w3.org/2000/svg" width="45.354" height="45.354" viewBox="0 0 45.354 45.354"><path fill="none" d="M0 0h45.354v45.354H0z"/><path fill="none" stroke="black" stroke-width="1" d="M1.206 41.123h3.259l-1.63 2.792zM4.04 35.454H7.3l-1.63 2.792zM1.206 29.785h3.259l-1.63 2.792zM4.04 24.115H7.3l-1.63 2.792z"/><path fill="none" stroke="black" stroke-width="1" d="M1.206 41.123h3.259l-1.63 2.792zM4.04 35.454H7.3l-1.63 2.792zM1.206 29.785h3.259l-1.63 2.792zM4.04 24.115H7.3l-1.63 2.792zM6.875 41.123h3.26l-1.63 2.792zM9.709 35.454h3.26l-1.63 2.792zM6.875 29.785h3.26l-1.63 2.792zM9.709 24.115h3.26l-1.63 2.792zM12.544 41.123h3.26l-1.63 2.792zM15.378 35.454h3.261l-1.63 2.792zM21.048 35.454h3.26l-1.63 2.792zM12.544 29.785h3.26l-1.63 2.792zM15.378 24.115h3.261l-1.63 2.792zM21.048 24.115h3.26l-1.63 2.792zM18.213 41.123h3.26l-1.63 2.792zM18.213 29.785h3.26l-1.63 2.792zM23.882 41.123h3.26l-1.63 2.792zM26.717 35.454h3.26l-1.63 2.792zM23.882 29.785h3.26l-1.63 2.792zM26.717 24.115h3.26l-1.63 2.792z"/><path fill="none" stroke="black" stroke-width="1" d="M23.882 41.123h3.26l-1.63 2.792zM26.717 35.454h3.26l-1.63 2.792zM23.882 29.785h3.26l-1.63 2.792zM26.717 24.115h3.26l-1.63 2.792zM29.551 41.123h3.261l-1.63 2.792zM32.386 35.454h3.26l-1.63 2.792zM29.551 29.785h3.261l-1.63 2.792zM32.386 24.115h3.26l-1.63 2.792zM35.221 41.123h3.259l-1.629 2.792zM38.055 35.454h3.26l-1.629 2.792zM35.221 29.785h3.259l-1.629 2.792zM38.055 24.115h3.26l-1.629 2.792zM40.89 41.123h3.26l-1.63 2.792zM40.89 29.785h3.26l-1.63 2.792zM1.205 18.445h3.26l-1.63 2.792zM4.04 12.776h3.259l-1.63 2.792zM1.205 7.107h3.26l-1.63 2.792zM4.04 1.438h3.259l-1.63 2.791z"/><path fill="none" stroke="black" stroke-width="1" d="M1.205 18.445h3.26l-1.63 2.792zM4.04 12.776h3.259l-1.63 2.792zM1.205 7.107h3.26l-1.63 2.792zM4.04 1.438h3.259l-1.63 2.791zM6.874 18.445h3.26l-1.63 2.792zM9.709 12.776h3.26l-1.63 2.792zM6.874 7.107h3.26l-1.63 2.792zM9.709 1.438h3.26l-1.63 2.791zM12.543 18.445h3.26l-1.63 2.792zM15.378 12.776h3.26l-1.63 2.792zM21.047 12.776h3.261l-1.63 2.792zM12.543 7.107h3.26l-1.63 2.792zM15.378 1.438h3.26l-1.63 2.791zM21.047 1.438h3.261l-1.63 2.791zM18.213 18.445h3.26l-1.63 2.792zM18.213 7.107h3.26l-1.63 2.792zM23.882 18.445h3.26l-1.63 2.792zM26.716 12.776h3.26l-1.63 2.792zM23.882 7.107h3.26l-1.63 2.792zM26.716 1.438h3.26l-1.63 2.791z"/><path fill="none" stroke="black" stroke-width="1" d="M23.882 18.445h3.26l-1.63 2.792zM26.716 12.776h3.26l-1.63 2.792zM23.882 7.107h3.26l-1.63 2.792zM26.716 1.438h3.26l-1.63 2.791zM29.551 18.445h3.26l-1.63 2.792zM32.386 12.776h3.26l-1.63 2.792zM29.551 7.107h3.26l-1.63 2.792zM32.386 1.438h3.26l-1.63 2.791zM35.22 18.445h3.26l-1.63 2.792zM38.055 12.776h3.26l-1.63 2.792zM35.22 7.107h3.26l-1.63 2.792zM38.055 1.438h3.26l-1.63 2.791zM40.89 18.445h3.259l-1.629 2.792zM40.89 7.107h3.259L42.52 9.899z"/><path fill="none" d="M0 24.341v2.114l1.236-2.114zM0 1.664v2.109l1.233-2.109zM1.235 35.68H0v2.113zM0 13.002v2.113l1.235-2.113z"/><path fill="param(fill)" d="M0 35.226v.454h1.235L0 37.793v.9l2.024-3.467zM1.236 24.341L0 26.455v.901l2.025-3.469H0v.454zM1.235 13.002L0 15.115v.9l2.024-3.466H0v.453zM1.233 1.664L0 3.773v.904l2.024-3.468H0v.455z"/><path fill="none" d="M45.354 26.453v-2.111h-1.233zM45.354 15.116v-2.113H44.12zM45.354 3.776V1.663h-1.235zM45.354 37.793v-2.112h-1.233z"/><path fill="param(fill)" d="M44.121 35.681h1.233v-.454h-2.025l.199.341 1.826 3.127v-.902zM44.121 24.342h1.233v-.454h-2.026l.2.341 1.826 3.127v-.903zM44.12 13.003h1.234v-.455h-2.026l.2.342 1.826 3.129v-.903zM45.354 3.776l-1.235-2.113h1.235v-.455h-2.026l.2.343 1.826 3.126v-.902z"/></svg>
