<svg xmlns="http://www.w3.org/2000/svg" width="52.725" height="52.725" viewBox="0 0 52.725 52.725"><path fill="none" d="M0 0h52.725v52.725H0z"/><path fill="param(fill)" d="M2.1 30.055a.171.171 0 0 0-.112.128l-.544 2.688.333.067.486-2.403 1.836 1.594.223-.257-2.056-1.784a.168.168 0 0 0-.166-.033zM17.775 34.366l-2.056 1.813.225.255 1.835-1.618.483 2.374.333-.068-.542-2.661a.168.168 0 0 0-.113-.127.164.164 0 0 0-.165.032zM7.256 31.592c-.045.04-.065.102-.054.16s.054.107.111.127l2.6.907.112-.321-2.328-.812L9.51 30.03l-.227-.254-2.027 1.816zM15.736 30.559l-2.719.394.049.336s1.974-.285 2.429-.352l-.889 2.267.317.125.996-2.539a.17.17 0 0 0-.183-.231z"/><path stroke="black" stroke-width="1" d="M5.102 34.585a.17.17 0 0 0-.109.13l-.485 2.689.334.061.434-2.403 1.861 1.539.217-.263-2.085-1.724a.169.169 0 0 0-.167-.029z"/><path fill="param(fill)" d="M19.675 30.055a.171.171 0 0 0-.112.128l-.544 2.688.333.067.486-2.403 1.835 1.594.223-.257-2.055-1.784a.168.168 0 0 0-.166-.033zM35.35 34.371l-2.057 1.813.225.255 1.836-1.617.483 2.373.333-.067-.542-2.662a.171.171 0 0 0-.113-.127.164.164 0 0 0-.165.032zM24.832 31.592a.173.173 0 0 0-.054.16.17.17 0 0 0 .111.127l2.597.907.112-.321-2.325-.812 1.812-1.623-.227-.254-2.026 1.816zM33.311 30.559l-2.719.394.049.336s1.975-.285 2.43-.352l-.89 2.267.317.125.996-2.539a.17.17 0 0 0-.183-.231zM22.677 34.591a.17.17 0 0 0-.109.13l-.485 2.688.334.061.434-2.403 1.861 1.539.217-.262-2.085-1.725a.171.171 0 0 0-.167-.028zM37.249 30.055a.172.172 0 0 0-.112.127l-.545 2.689.333.067.487-2.403 1.836 1.594.223-.257-2.056-1.784a.168.168 0 0 0-.166-.033zM42.405 31.592a.17.17 0 0 0 .057.287l2.599.907.112-.321-2.327-.812 1.811-1.623-.227-.254-2.025 1.816zM40.25 34.596a.17.17 0 0 0-.109.13l-.484 2.689.334.06.433-2.402 1.862 1.539.217-.263-2.086-1.724a.17.17 0 0 0-.167-.029z"/><path fill="param(fill)" d="M40.25 34.596a.17.17 0 0 0-.109.13l-.484 2.689.334.06.433-2.402 1.862 1.539.217-.263-2.086-1.724a.17.17 0 0 0-.167-.029zM2.1 38.842a.17.17 0 0 0-.112.128l-.544 2.689.333.067.486-2.403 1.836 1.593.223-.257-2.056-1.784a.168.168 0 0 0-.166-.033zM17.775 43.157l-2.056 1.812.225.255 1.835-1.617.484 2.373.333-.068-.542-2.661c-.012-.06-.055-.107-.113-.127s-.121-.008-.166.033zM7.256 40.379c-.045.04-.065.102-.054.16s.054.107.111.127l2.6.908.112-.321-2.328-.813 1.813-1.623-.227-.253-2.027 1.815zM15.736 39.345l-2.719.394.049.337s1.974-.285 2.429-.352l-.889 2.267.317.124.996-2.539a.168.168 0 0 0-.025-.167.17.17 0 0 0-.158-.064zM11.535 37.33a3778.61 3778.61 0 0 0-1.241-2.079l-.292.174 1.391 2.33a.171.171 0 0 0 .148.083.172.172 0 0 0 .146-.086l1.359-2.387-.295-.169-1.216 2.134zM5.102 43.38a.17.17 0 0 0-.109.13l-.485 2.688.335.061.433-2.403 1.862 1.538.217-.263-2.086-1.723a.171.171 0 0 0-.167-.028zM19.675 38.842a.171.171 0 0 0-.112.128l-.544 2.689.333.067.486-2.403 1.835 1.593.223-.257-2.055-1.784a.168.168 0 0 0-.166-.033zM35.35 43.156l-2.056 1.813.225.255 1.836-1.617.484 2.373.333-.068-.542-2.661a.17.17 0 0 0-.113-.127.169.169 0 0 0-.167.032zM24.832 40.379a.173.173 0 0 0-.054.16.17.17 0 0 0 .111.127l2.597.908.112-.32-2.325-.813 1.812-1.623-.227-.253-2.026 1.814zM33.311 39.345l-2.719.394.049.337s1.975-.285 2.43-.352l-.89 2.267.317.124.996-2.539a.168.168 0 0 0-.025-.167.17.17 0 0 0-.158-.064zM29.107 37.335a3778.61 3778.61 0 0 0-1.241-2.079l-.292.175 1.391 2.329a.17.17 0 0 0 .294-.003l1.36-2.387-.296-.168-1.216 2.133zM22.676 43.38a.17.17 0 0 0-.109.13l-.484 2.688.334.061.433-2.403 1.862 1.538.217-.263-2.086-1.723a.17.17 0 0 0-.167-.028zM37.249 38.842a.171.171 0 0 0-.112.128l-.545 2.689.333.067.487-2.404 1.836 1.594.223-.257-2.056-1.784a.168.168 0 0 0-.166-.033zM42.405 40.379a.17.17 0 0 0 .057.287l2.599.908.112-.321-2.327-.813a2637.6 2637.6 0 0 1 1.811-1.623l-.227-.253-2.025 1.815zM46.683 37.341l-1.241-2.08-.292.175 1.391 2.329a.166.166 0 0 0 .147.083.167.167 0 0 0 .146-.086l1.36-2.387-.295-.168-1.216 2.134zM40.249 43.38a.17.17 0 0 0-.109.13l-.483 2.688.334.061.433-2.403 1.862 1.538.217-.263-2.087-1.723a.17.17 0 0 0-.167-.028zM2.1 47.629a.172.172 0 0 0-.112.127l-.544 2.69.333.067.486-2.404L4.1 49.704l.223-.257-2.056-1.786a.172.172 0 0 0-.167-.032zM7.256 49.167a.169.169 0 0 0 .057.287l2.6.907.112-.321-2.328-.812 1.813-1.623-.227-.253-2.027 1.815zM15.736 48.133l-2.719.393.049.337s1.974-.285 2.429-.352l-.889 2.267.317.124.996-2.538a.17.17 0 0 0-.025-.168.167.167 0 0 0-.158-.063zM11.535 46.122l-1.242-2.081-.292.175 1.391 2.331a.168.168 0 0 0 .148.082.167.167 0 0 0 .146-.086l1.358-2.387-.295-.168-1.214 2.134zM19.675 47.629a.172.172 0 0 0-.112.127l-.544 2.69.333.067.486-2.404 1.835 1.595.223-.257-2.055-1.786a.17.17 0 0 0-.166-.032zM24.832 49.167a.169.169 0 0 0 .057.287l2.597.907.112-.321-2.325-.812 1.812-1.623-.227-.253-2.026 1.815zM33.311 48.133l-2.719.393.049.337s1.975-.285 2.43-.352l-.89 2.267.317.124.996-2.538a.17.17 0 0 0-.025-.168.167.167 0 0 0-.158-.063zM29.108 46.122l-1.242-2.081-.292.175 1.391 2.331a.171.171 0 0 0 .148.083.172.172 0 0 0 .146-.086l1.359-2.388-.295-.168-1.215 2.134zM37.249 47.629a.172.172 0 0 0-.112.127l-.545 2.69.333.068.487-2.405 1.836 1.595.223-.257-2.056-1.786a.17.17 0 0 0-.166-.032zM42.405 49.167a.17.17 0 0 0 .057.287l2.599.907.112-.321-2.327-.812 1.811-1.623-.227-.253-2.025 1.815zM46.683 46.122l-1.242-2.081-.292.175 1.392 2.331a.17.17 0 0 0 .147.083.172.172 0 0 0 .146-.086l1.359-2.388-.295-.168-1.215 2.134zM11.535 28.547l-1.242-2.078-.292.175 1.391 2.327a.167.167 0 0 0 .148.083.167.167 0 0 0 .146-.086l1.358-2.386-.295-.168-1.214 2.133zM29.108 28.547l-1.242-2.078-.292.175 1.391 2.327a.167.167 0 0 0 .148.083.167.167 0 0 0 .146-.086l1.359-2.386-.295-.168-1.215 2.133zM46.683 28.547l-1.242-2.078-.292.175 1.392 2.327a.166.166 0 0 0 .147.083.167.167 0 0 0 .146-.086l1.359-2.386-.295-.168-1.215 2.133zM15.719 27.391l.225.256 1.457-1.284h-.515l-1.167 1.028zM18.263 28.401l.333-.067-.401-1.972h-.347l.415 2.039zM7.138 27.813l.217-.262-1.438-1.188h-.534l1.755 1.45zM4.508 28.616l.334.061.418-2.314h-.345l-.407 2.253zM35.837 28.407l.333-.068-.402-1.977h-.347l.416 2.045zM33.293 27.396l.225.255 1.464-1.289h-.515l-1.174 1.034zM24.712 27.818l.217-.263-1.444-1.193h-.534l1.761 1.456zM22.083 28.622l.334.061.419-2.32h-.346l-.407 2.259zM39.656 28.627l.334.061.419-2.325h-.346l-.407 2.264zM42.286 27.823l.217-.262-1.451-1.199h-.534l1.768 1.461zM.688 28.401l.333-.067-.401-1.972H.273l.415 2.039zM50.643 30.937l-.89 2.267.317.125.996-2.539a.17.17 0 0 0-.183-.231l-2.719.394.048.336 2.431-.352zM50.643 39.724l-.89 2.267.317.124.996-2.539a.168.168 0 0 0-.025-.167.172.172 0 0 0-.158-.063l-2.719.394.048.337c.001-.002 1.976-.287 2.431-.353zM51.042 48.195a.172.172 0 0 0-.158-.063l-2.719.393.048.337s1.975-.285 2.43-.352l-.89 2.267.317.124.996-2.538a.172.172 0 0 0-.024-.168zM50.868 36.184l.225.255 1.632-1.438v-.453l-1.857 1.636zM50.868 44.969l.225.255 1.632-1.438v-.453l-1.857 1.636zM52.557 26.362h-.515l-1.174 1.034.225.255 1.464-1.289z"/><path fill="none" d="M40.41 52.725h.107l-.094-.078-.013.078zM17.401 52.725h.446l-.068-.334-.378.334zM5.26 52.725h.123a10.945 10.945 0 0 1-.106-.089l-.017.089zM22.836 52.725h.115a6.973 6.973 0 0 0-.1-.083 6.409 6.409 0 0 1-.015.083zM34.982 52.725h.439l-.067-.329-.372.329z"/><path fill="param(fill)" d="M17.78 52.391l.068.334h.347l-.14-.689a.17.17 0 0 0-.28-.094l-.889.783h.515c.164-.146.301-.266.379-.334zM5.276 52.636l.106.089h.534l-.647-.536a.17.17 0 0 0-.276.102l-.079.435h.346l.016-.09zM35.354 52.396l.067.329h.347l-.139-.685a.168.168 0 0 0-.113-.127.17.17 0 0 0-.167.033l-.883.778h.515c.163-.142.296-.26.373-.328zM22.851 52.642l.1.083h.534l-.641-.53a.17.17 0 0 0-.276.101l-.078.43h.346l.015-.084zM40.424 52.646l.094.078h.534l-.635-.525a.17.17 0 0 0-.276.101l-.076.425h.346l.013-.079zM52.725 52.576v-.453l-.683.602h.515l.168-.149zM.205 34.815l.483 2.374.333-.068L.48 34.46a.168.168 0 0 0-.113-.127.17.17 0 0 0-.167.033l-.2.177v.453l.205-.181zM.205 43.606l.484 2.373.333-.068-.543-2.661c-.012-.06-.055-.107-.113-.127s-.12-.007-.166.034l-.2.176v.453l.205-.18zM.205 52.391l.068.334H.62l-.14-.689a.17.17 0 0 0-.279-.095L0 52.117v.454l.205-.18zM2.1 3.692a.173.173 0 0 0-.112.128l-.544 2.689.333.067.486-2.403L4.1 5.767l.223-.257-2.056-1.784a.173.173 0 0 0-.167-.034zM17.775 8.004l-2.056 1.813.225.255 1.835-1.618.483 2.374.333-.068-.542-2.661a.162.162 0 0 0-.111-.128.17.17 0 0 0-.167.033zM7.256 5.229a.171.171 0 0 0 .058.288l2.6.907.112-.321-2.328-.812 1.813-1.623-.227-.254-2.028 1.815zM15.736 4.196l-2.719.394.049.336s1.974-.285 2.429-.352l-.889 2.267.317.125.996-2.539a.17.17 0 0 0-.183-.231z"/><path stroke="black" stroke-width="1" d="M5.102 8.223a.17.17 0 0 0-.109.13l-.485 2.689.334.061.434-2.403 1.861 1.539.217-.263-2.085-1.724a.169.169 0 0 0-.167-.029z"/><path fill="param(fill)" d="M19.675 3.692a.171.171 0 0 0-.112.128l-.544 2.688.333.067.486-2.403 1.835 1.594.223-.257-2.055-1.784a.173.173 0 0 0-.166-.033zM35.35 8.009l-2.057 1.813.225.255 1.836-1.617.483 2.373.333-.067-.542-2.662a.171.171 0 0 0-.113-.127.164.164 0 0 0-.165.032zM24.832 5.229a.173.173 0 0 0-.054.16.17.17 0 0 0 .111.127l2.597.907.112-.321-2.325-.812 1.812-1.623-.227-.254-2.026 1.816zM33.311 4.196l-2.719.394.049.336s1.975-.285 2.43-.352l-.89 2.267.317.125.996-2.539a.17.17 0 0 0-.183-.231zM22.677 8.229a.17.17 0 0 0-.109.13l-.485 2.688.334.061.434-2.403 1.861 1.539.217-.262-2.085-1.725a.171.171 0 0 0-.167-.028zM37.249 3.692a.172.172 0 0 0-.112.127l-.545 2.689.333.067.487-2.403 1.836 1.594.223-.257-2.056-1.784a.173.173 0 0 0-.166-.033zM42.405 5.229a.17.17 0 0 0 .057.287l2.599.907.112-.321-2.327-.812 1.811-1.623-.227-.253-2.025 1.815zM40.25 8.233a.17.17 0 0 0-.109.13l-.484 2.689.334.06.433-2.402 1.862 1.539.217-.263-2.086-1.724a.174.174 0 0 0-.167-.029z"/><path fill="param(fill)" d="M40.25 8.233a.17.17 0 0 0-.109.13l-.484 2.689.334.06.433-2.402 1.862 1.539.217-.263-2.086-1.724a.174.174 0 0 0-.167-.029zM2.1 12.479a.171.171 0 0 0-.112.128l-.544 2.689.333.067.486-2.403 1.836 1.593.223-.257-2.056-1.784a.172.172 0 0 0-.166-.033zM17.775 16.795l-2.056 1.812.225.255 1.835-1.617.484 2.373.333-.068-.542-2.661c-.012-.06-.055-.107-.113-.127s-.121-.008-.166.033zM7.256 14.017c-.045.04-.065.102-.054.16s.054.107.111.127l2.6.908.112-.321-2.328-.813 1.813-1.623-.227-.253-2.027 1.815zM15.736 12.982l-2.719.394.049.337s1.974-.285 2.429-.352l-.889 2.267.317.124.996-2.539a.168.168 0 0 0-.025-.167.175.175 0 0 0-.158-.064zM11.535 10.968a3778.61 3778.61 0 0 0-1.241-2.079l-.292.174 1.391 2.33a.171.171 0 0 0 .148.083.172.172 0 0 0 .146-.086l1.359-2.387-.296-.169-1.215 2.134zM5.102 17.018a.17.17 0 0 0-.109.13l-.485 2.688.335.061.433-2.403 1.862 1.538.217-.263-2.086-1.723a.171.171 0 0 0-.167-.028zM19.675 12.479a.171.171 0 0 0-.112.128l-.544 2.689.333.067.486-2.403 1.835 1.593.223-.257-2.055-1.784a.173.173 0 0 0-.166-.033zM35.35 16.794l-2.056 1.813.225.255 1.836-1.617.484 2.373.333-.068-.542-2.661a.17.17 0 0 0-.113-.127.166.166 0 0 0-.167.032zM24.832 14.017a.173.173 0 0 0-.054.16.17.17 0 0 0 .111.127l2.597.908.112-.32-2.325-.813 1.812-1.623-.227-.253-2.026 1.814zM33.311 12.982l-2.719.394.049.337s1.975-.285 2.43-.352l-.89 2.267.317.124.996-2.539a.168.168 0 0 0-.025-.167.175.175 0 0 0-.158-.064zM29.107 10.973a3778.61 3778.61 0 0 0-1.241-2.079l-.292.175 1.391 2.329a.17.17 0 0 0 .294-.003l1.36-2.387-.296-.168-1.216 2.133zM22.676 17.018a.17.17 0 0 0-.109.13l-.484 2.688.334.061.433-2.403 1.862 1.538.217-.263-2.086-1.723a.17.17 0 0 0-.167-.028zM37.249 12.479a.171.171 0 0 0-.112.128l-.545 2.689.333.067.487-2.404 1.836 1.594.223-.257-2.056-1.784a.173.173 0 0 0-.166-.033zM42.405 14.017a.17.17 0 0 0 .057.287l2.599.908.112-.321-2.327-.813a2637.6 2637.6 0 0 1 1.811-1.623l-.227-.253-2.025 1.815zM46.683 10.979l-1.241-2.08-.292.175 1.391 2.329a.166.166 0 0 0 .147.083.167.167 0 0 0 .146-.086l1.36-2.387-.295-.168-1.216 2.134zM40.249 17.018a.17.17 0 0 0-.109.13l-.483 2.688.334.061.433-2.403 1.862 1.538.217-.263-2.087-1.723a.17.17 0 0 0-.167-.028zM2.1 21.267a.172.172 0 0 0-.112.127l-.544 2.69.333.067.486-2.404L4.1 23.342l.223-.257-2.056-1.786a.172.172 0 0 0-.167-.032zM7.256 22.805a.169.169 0 0 0 .057.287l2.6.907.112-.321-2.328-.812 1.813-1.623-.226-.253-2.028 1.815zM15.736 21.771l-2.719.393.049.337s1.974-.285 2.429-.352l-.889 2.267.317.124.996-2.538a.17.17 0 0 0-.025-.168.167.167 0 0 0-.158-.063zM11.535 19.76l-1.242-2.081-.292.175 1.391 2.331a.168.168 0 0 0 .148.082.167.167 0 0 0 .146-.086l1.358-2.387-.295-.168-1.214 2.134zM19.675 21.267a.172.172 0 0 0-.112.127l-.544 2.69.333.067.486-2.404 1.835 1.595.223-.257-2.055-1.786a.17.17 0 0 0-.166-.032zM24.832 22.805a.169.169 0 0 0 .057.287l2.597.907.112-.321-2.325-.812 1.812-1.623-.227-.253-2.026 1.815zM33.311 21.771l-2.719.393.049.337s1.975-.285 2.43-.352l-.89 2.267.317.124.996-2.538a.17.17 0 0 0-.025-.168.167.167 0 0 0-.158-.063zM29.108 19.76l-1.242-2.081-.292.175 1.391 2.331a.171.171 0 0 0 .148.083.172.172 0 0 0 .146-.086l1.359-2.388-.295-.168-1.215 2.134zM37.249 21.267a.172.172 0 0 0-.112.127l-.545 2.69.333.068.487-2.405 1.836 1.595.223-.257-2.056-1.786a.17.17 0 0 0-.166-.032zM42.405 22.805a.17.17 0 0 0 .057.287l2.599.907.112-.321-2.327-.812 1.811-1.623-.227-.253-2.025 1.815zM46.683 19.76l-1.242-2.081-.292.175 1.392 2.331a.17.17 0 0 0 .147.083.172.172 0 0 0 .146-.086l1.359-2.388-.295-.168-1.215 2.134zM11.535 2.185L10.293.107l-.292.175 1.391 2.327a.167.167 0 0 0 .148.083.167.167 0 0 0 .146-.086L13.044.22 12.75.052l-1.215 2.133zM29.108 2.185L27.866.107l-.292.175 1.391 2.327a.167.167 0 0 0 .148.083.167.167 0 0 0 .146-.086L30.618.22l-.295-.168-1.215 2.133zM46.683 2.185L45.441.107l-.292.175 1.392 2.327a.166.166 0 0 0 .147.083.167.167 0 0 0 .146-.086L48.193.22l-.295-.168-1.215 2.133zM15.719 1.028l.225.256L17.401 0h-.515l-1.167 1.028zM18.263 2.039l.333-.067L18.195 0h-.347l.415 2.039zM7.138 1.45l.217-.262L5.917 0h-.534l1.755 1.45zM4.508 2.254l.334.061L5.26.001h-.345l-.407 2.253zM35.837 2.045l.333-.068L35.769 0h-.347l.415 2.045zM33.293 1.034l.225.255L34.982 0h-.515l-1.174 1.034zM24.712 1.456l.217-.263L23.485 0h-.534l1.761 1.456zM22.083 2.26l.334.061.419-2.32h-.346l-.407 2.259zM39.656 2.265l.334.061.419-2.325h-.346l-.407 2.264zM42.286 1.461l.217-.262L41.052 0h-.534l1.768 1.461zM.688 2.039l.333-.067L.62 0H.273l.415 2.039zM50.643 4.574l-.89 2.267.317.125.996-2.539a.17.17 0 0 0-.183-.231l-2.718.394.048.336s1.975-.285 2.43-.352zM50.643 13.361l-.89 2.267.317.124.996-2.539a.168.168 0 0 0-.025-.167.172.172 0 0 0-.158-.063l-2.719.394.048.337 2.431-.353zM51.042 21.833a.172.172 0 0 0-.158-.063l-2.719.393.048.337s1.975-.285 2.43-.352l-.89 2.267.317.124.996-2.538a.172.172 0 0 0-.024-.168zM50.868 9.821l.225.255 1.632-1.438v-.452l-1.857 1.635zM50.868 18.606l.225.255 1.632-1.438v-.453l-1.857 1.636zM52.557 0h-.515l-1.174 1.034.225.255L52.557 0z"/><path fill="none" d="M40.41 26.362h.107l-.094-.078-.013.078zM17.401 26.362h.446l-.068-.334-.378.334zM5.26 26.362h.123a10.945 10.945 0 0 1-.106-.089l-.017.089zM22.836 26.362h.115a6.973 6.973 0 0 0-.1-.083 3.265 3.265 0 0 1-.015.083zM34.982 26.362h.439l-.067-.329-.372.329z"/><path fill="param(fill)" d="M17.78 26.028l.068.334h.347l-.14-.689a.17.17 0 0 0-.28-.094l-.889.783h.515l.379-.334zM5.276 26.273l.106.089h.534l-.647-.536a.17.17 0 0 0-.276.102l-.079.435h.346l.016-.09zM35.354 26.033l.067.329h.347l-.139-.685a.168.168 0 0 0-.113-.127.17.17 0 0 0-.167.033l-.883.778h.515c.163-.141.296-.259.373-.328zM22.851 26.279l.1.083h.534l-.641-.53a.17.17 0 0 0-.276.101l-.078.43h.346l.015-.084zM40.424 26.284l.094.078h.534l-.635-.525a.17.17 0 0 0-.276.101l-.076.425h.346l.013-.079zM52.725 26.214v-.453l-.683.602h.515l.168-.149zM.205 8.453l.483 2.374.333-.068L.48 8.098a.168.168 0 0 0-.113-.127.168.168 0 0 0-.166.033L0 8.181v.453l.205-.181zM.205 17.244l.484 2.373.333-.068-.542-2.661c-.012-.06-.055-.107-.113-.127s-.121-.007-.167.034l-.2.176v.453l.205-.18zM.205 26.028l.068.334H.62l-.14-.689a.17.17 0 0 0-.28-.094l-.2.176v.454l.205-.181z"/></svg>
