<svg xmlns="http://www.w3.org/2000/svg" width="70.866" height="70.871" viewBox="0 0 70.866 70.871"><path fill="none" d="M0 .005h70.866v70.866H0z"/><path fill="none" stroke="black" stroke-width="1" stroke-linejoin="round" d="M20.918 38.472l-.85 3.802 3.924-1.011M25.971 50.272l2.427-3.047-3.971-.807M11.857 48.931l3.882.332-1.528-3.753M1.462 51.901l1.699-3.559 2.386 3.073M12.505 59.829l-1.416-3.641 3.924.284M20.554 58.898l3.721-1.658-.202 3.883M32.082 56.391l-1.78 3.559 4.086-.121M30.343 38.634l2.265 2.993 1.78-3.439M3.889 39.928l2.467-3.074 1.74 3.519M4.01 61.689l2.346 2.994-3.842.93"/><g fill="none" stroke="black" stroke-width="1" stroke-linejoin="round"><path d="M15.579 65.855l-1.699 3.52 3.964-.081M26.338 65.815l3.843 1.052-2.62 2.912"/></g><path fill="none" stroke="black" stroke-width="1" stroke-linejoin="round" d="M56.662 38.472l-.849 3.802 3.923-1.011M61.715 50.272l2.427-3.047-3.971-.807M47.602 48.931l3.881.332-1.528-3.753M37.207 51.901l1.698-3.559 2.387 3.073M48.249 59.829l-1.416-3.641 3.924.284M56.298 58.898l3.722-1.658-.203 3.883M67.826 56.391l-1.78 3.559 4.086-.121M66.087 38.634l2.265 2.993 1.78-3.439M39.633 39.928l2.468-3.074 1.739 3.519M39.754 61.689l2.347 2.994-3.843.93"/><g fill="none" stroke="black" stroke-width="1" stroke-linejoin="round"><path d="M51.323 65.855l-1.699 3.52 3.964-.081M62.083 65.815l3.842 1.052-2.62 2.912"/></g><path fill="none" stroke="black" stroke-width="1" stroke-linejoin="round" d="M20.918 1.986l-.85 3.803 3.924-1.012M25.971 13.787l2.427-3.048-3.971-.806M11.857 12.445l3.882.332-1.528-3.753M1.462 15.416l1.699-3.56 2.386 3.074M12.505 23.344l-1.416-3.641 3.924.283M20.554 22.413l3.721-1.658-.202 3.883M32.082 19.905l-1.78 3.56 4.086-.121M30.343 2.148l2.265 2.994 1.78-3.439M3.889 3.442L6.356.368l1.74 3.52M4.01 25.204l2.346 2.993-3.842.931"/><g fill="none" stroke="black" stroke-width="1" stroke-linejoin="round"><path d="M15.579 29.37l-1.699 3.52 3.964-.081M26.338 29.33l3.843 1.052-2.62 2.912"/></g><path fill="none" stroke="black" stroke-width="1" stroke-linejoin="round" d="M56.662 1.986l-.849 3.803 3.923-1.012M61.715 13.787l2.427-3.048-3.971-.806M47.602 12.445l3.881.332-1.528-3.753M37.207 15.416l1.698-3.56 2.387 3.074M48.249 23.344l-1.416-3.641 3.924.283M56.298 22.413l3.722-1.658-.203 3.883M67.826 19.905l-1.78 3.56 4.086-.121M66.087 2.148l2.265 2.994 1.78-3.439M39.633 3.442L42.101.368l1.739 3.52M39.754 25.204l2.347 2.993-3.843.931"/><g fill="none" stroke="black" stroke-width="1" stroke-linejoin="round"><path d="M51.323 29.37l-1.699 3.52 3.964-.081M62.083 29.33l3.842 1.052-2.62 2.912"/></g></svg>
