<svg xmlns="http://www.w3.org/2000/svg" width="59.527" height="59.527" viewBox="0 0 59.527 59.527"><path fill="none" d="M0 0h59.527v59.527H0z"/><g fill="none" stroke="black" stroke-width="1"><path d="M9.024 58.703l-3.166-.013v-3.3M4.064 53.743L.897 53.73v-3.299"/></g><g fill="none" stroke="black" stroke-width="1"><path d="M18.945 58.703l-3.166-.013v-3.3M13.985 53.743l-3.166-.013v-3.299"/></g><g fill="none" stroke="black" stroke-width="1"><path d="M28.867 58.703l-3.166-.013v-3.3M23.907 53.743l-3.167-.013v-3.299"/></g><g fill="none" stroke="black" stroke-width="1"><path d="M38.788 58.703l-3.166-.013v-3.3M33.828 53.743l-3.166-.013v-3.299"/></g><g fill="none" stroke="black" stroke-width="1"><path d="M48.709 58.703l-3.166-.013v-3.3M43.749 53.743l-3.166-.013v-3.299"/></g><g fill="none" stroke="black" stroke-width="1"><path d="M58.63 58.703l-3.166-.013v-3.3M53.67 53.743l-3.166-.013v-3.299"/></g><g fill="none" stroke="black" stroke-width="1"><path d="M9.024 48.781l-3.166-.012v-3.301M4.064 43.821l-3.167-.012v-3.3"/></g><g fill="none" stroke="black" stroke-width="1"><path d="M18.945 48.781l-3.166-.012v-3.301M13.985 43.821l-3.166-.012v-3.3"/></g><g fill="none" stroke="black" stroke-width="1"><path d="M28.867 48.781l-3.166-.012v-3.301M23.907 43.821l-3.167-.012v-3.3"/></g><g fill="none" stroke="black" stroke-width="1"><path d="M38.788 48.781l-3.166-.012v-3.301M33.828 43.821l-3.166-.012v-3.3"/></g><g fill="none" stroke="black" stroke-width="1"><path d="M48.709 48.781l-3.166-.012v-3.301M43.749 43.821l-3.166-.012v-3.3"/></g><g fill="none" stroke="black" stroke-width="1"><path d="M58.63 48.781l-3.166-.012v-3.301M53.67 43.821l-3.166-.012v-3.3"/></g><g fill="none" stroke="black" stroke-width="1"><path d="M9.024 38.86l-3.166-.012v-3.301M4.064 33.9l-3.167-.012v-3.3"/></g><g fill="none" stroke="black" stroke-width="1"><path d="M18.945 38.86l-3.166-.012v-3.301M13.985 33.9l-3.166-.012v-3.3"/></g><g fill="none" stroke="black" stroke-width="1"><path d="M28.867 38.86l-3.166-.012v-3.301M23.907 33.9l-3.167-.012v-3.3"/></g><g fill="none" stroke="black" stroke-width="1"><path d="M38.788 38.86l-3.166-.012v-3.301M33.828 33.9l-3.166-.012v-3.3"/></g><g fill="none" stroke="black" stroke-width="1"><path d="M48.709 38.86l-3.166-.012v-3.301M43.749 33.9l-3.166-.012v-3.3"/></g><g fill="none" stroke="black" stroke-width="1"><path d="M58.63 38.86l-3.166-.012v-3.301M53.67 33.9l-3.166-.012v-3.3"/></g><g fill="none" stroke="black" stroke-width="1"><path d="M9.024 28.938l-3.166-.012v-3.301M4.064 23.979l-3.167-.013v-3.3"/></g><g fill="none" stroke="black" stroke-width="1"><path d="M18.945 28.938l-3.166-.012v-3.301M13.985 23.979l-3.166-.013v-3.3"/></g><g fill="none" stroke="black" stroke-width="1"><path d="M28.867 28.938l-3.166-.012v-3.301M23.907 23.979l-3.167-.013v-3.3"/></g><g fill="none" stroke="black" stroke-width="1"><path d="M38.788 28.938l-3.166-.012v-3.301M33.828 23.979l-3.166-.013v-3.3"/></g><g fill="none" stroke="black" stroke-width="1"><path d="M48.709 28.938l-3.166-.012v-3.301M43.749 23.979l-3.166-.013v-3.3"/></g><g fill="none" stroke="black" stroke-width="1"><path d="M58.63 28.938l-3.166-.012v-3.301M53.67 23.979l-3.166-.013v-3.3"/></g><g fill="none" stroke="black" stroke-width="1"><path d="M9.024 19.018l-3.166-.013v-3.301M4.064 14.058l-3.167-.013v-3.3"/></g><g fill="none" stroke="black" stroke-width="1"><path d="M18.945 19.018l-3.166-.013v-3.301M13.985 14.058l-3.166-.013v-3.3"/></g><g fill="none" stroke="black" stroke-width="1"><path d="M28.867 19.018l-3.166-.013v-3.301M23.907 14.058l-3.167-.013v-3.3"/></g><g fill="none" stroke="black" stroke-width="1"><path d="M38.788 19.018l-3.166-.013v-3.301M33.828 14.058l-3.166-.013v-3.3"/></g><g fill="none" stroke="black" stroke-width="1"><path d="M48.709 19.018l-3.166-.013v-3.301M43.749 14.058l-3.166-.013v-3.3"/></g><g fill="none" stroke="black" stroke-width="1"><path d="M58.63 19.018l-3.166-.013v-3.301M53.67 14.058l-3.166-.013v-3.3"/></g><g fill="none" stroke="black" stroke-width="1"><path d="M9.024 9.097l-3.166-.013V5.783M4.064 4.137L.897 4.124v-3.3"/></g><g fill="none" stroke="black" stroke-width="1"><path d="M18.945 9.097l-3.166-.013V5.783M13.985 4.137l-3.166-.013v-3.3"/></g><g fill="none" stroke="black" stroke-width="1"><path d="M28.867 9.097l-3.166-.013V5.783M23.907 4.137l-3.167-.013v-3.3"/></g><g fill="none" stroke="black" stroke-width="1"><path d="M38.788 9.097l-3.166-.013V5.783M33.828 4.137l-3.166-.013v-3.3"/></g><g fill="none" stroke="black" stroke-width="1"><path d="M48.709 9.097l-3.166-.013V5.783M43.749 4.137l-3.166-.013v-3.3"/></g><g fill="none" stroke="black" stroke-width="1"><path d="M58.63 9.097l-3.166-.013V5.783M53.67 4.137l-3.166-.013v-3.3"/></g></svg>
