<svg xmlns="http://www.w3.org/2000/svg" width="45.354" height="45.355" viewBox="0 0 45.354 45.355"><path fill="none" d="M0 0h45.354v45.355H0z"/><path fill="none" stroke="black" stroke-width="1" d="M1.205 41.125h3.26l-1.63 2.792z"/><path fill="param(fill)" d="M4.039 35.455h3.26l-1.63 2.793z"/><path fill="none" stroke="black" stroke-width="1" d="M4.039 35.455h3.26l-1.63 2.793zM1.205 29.786h3.26l-1.63 2.792z"/><path fill="param(fill)" d="M4.039 24.117h3.26l-1.63 2.792z"/><path fill="none" stroke="black" stroke-width="1" d="M4.039 24.117h3.26l-1.63 2.792z"/><path fill="param(fill)" d="M1.205 41.125h3.26l-1.63 2.792z"/><path fill="none" stroke="black" stroke-width="1" d="M1.205 41.125h3.26l-1.63 2.792z"/><path fill="param(fill)" d="M4.039 35.455h3.26l-1.63 2.793z"/><path fill="none" stroke="black" stroke-width="1" d="M4.039 35.455h3.26l-1.63 2.793z"/><path fill="param(fill)" d="M1.205 29.786h3.26l-1.63 2.792z"/><path fill="none" stroke="black" stroke-width="1" d="M1.205 29.786h3.26l-1.63 2.792z"/><path fill="param(fill)" d="M4.039 24.117h3.26l-1.63 2.792z"/><path fill="none" stroke="black" stroke-width="1" d="M4.039 24.117h3.26l-1.63 2.792z"/><path fill="param(fill)" d="M6.874 41.125h3.26l-1.63 2.792z"/><path fill="none" stroke="black" stroke-width="1" d="M6.874 41.125h3.26l-1.63 2.792z"/><path fill="param(fill)" d="M9.709 35.455h3.26l-1.63 2.793z"/><path fill="none" stroke="black" stroke-width="1" d="M9.709 35.455h3.26l-1.63 2.793z"/><path fill="param(fill)" d="M6.874 29.786h3.26l-1.63 2.792z"/><path fill="none" stroke="black" stroke-width="1" d="M6.874 29.786h3.26l-1.63 2.792z"/><path fill="param(fill)" d="M9.709 24.117h3.26l-1.63 2.792z"/><path fill="none" stroke="black" stroke-width="1" d="M9.709 24.117h3.26l-1.63 2.792z"/><path fill="param(fill)" d="M12.543 41.125h3.26l-1.63 2.792z"/><path fill="none" stroke="black" stroke-width="1" d="M12.543 41.125h3.26l-1.63 2.792z"/><path fill="param(fill)" d="M15.378 35.455h3.26l-1.63 2.793z"/><path fill="none" stroke="black" stroke-width="1" d="M15.378 35.455h3.26l-1.63 2.793z"/><path fill="param(fill)" d="M21.047 35.455h3.26l-1.63 2.793z"/><path fill="none" stroke="black" stroke-width="1" d="M21.047 35.455h3.26l-1.63 2.793z"/><path fill="param(fill)" d="M12.543 29.786h3.26l-1.63 2.792z"/><path fill="none" stroke="black" stroke-width="1" d="M12.543 29.786h3.26l-1.63 2.792z"/><path fill="param(fill)" d="M15.378 24.117h3.26l-1.63 2.792z"/><path fill="none" stroke="black" stroke-width="1" d="M15.378 24.117h3.26l-1.63 2.792z"/><path fill="param(fill)" d="M21.047 24.117h3.26l-1.63 2.792z"/><path fill="none" stroke="black" stroke-width="1" d="M21.047 24.117h3.26l-1.63 2.792z"/><path fill="param(fill)" d="M18.213 41.125h3.26l-1.63 2.792z"/><path fill="none" stroke="black" stroke-width="1" d="M18.213 41.125h3.26l-1.63 2.792z"/><path fill="param(fill)" d="M18.213 29.786h3.26l-1.63 2.792z"/><path fill="none" stroke="black" stroke-width="1" d="M18.213 29.786h3.26l-1.63 2.792z"/><path fill="param(fill)" d="M0 37.798l1.235-2.115H0v2.115z"/><path fill="param(fill)" d="M0 35.683h1.235L0 37.798v.899l2.024-3.469H0v.455zM1.235 24.344H0v2.115l1.235-2.115"/><path fill="param(fill)" d="M0 24.344h1.235L0 26.459v.9l2.024-3.469H0v.454z"/><path fill="none" stroke="black" stroke-width="1" d="M23.882 41.125h3.26l-1.63 2.792z"/><path fill="param(fill)" d="M26.716 35.455h3.26l-1.63 2.793z"/><path fill="none" stroke="black" stroke-width="1" d="M26.716 35.455h3.26l-1.63 2.793zM23.882 29.786h3.26l-1.63 2.792z"/><path fill="param(fill)" d="M26.716 24.117h3.26l-1.63 2.792z"/><path fill="none" stroke="black" stroke-width="1" d="M26.716 24.117h3.26l-1.63 2.792z"/><path fill="param(fill)" d="M23.882 41.125h3.26l-1.63 2.792z"/><path fill="none" stroke="black" stroke-width="1" d="M23.882 41.125h3.26l-1.63 2.792z"/><path fill="param(fill)" d="M26.716 35.455h3.26l-1.63 2.793z"/><path fill="none" stroke="black" stroke-width="1" d="M26.716 35.455h3.26l-1.63 2.793z"/><path fill="param(fill)" d="M23.882 29.786h3.26l-1.63 2.792z"/><path fill="none" stroke="black" stroke-width="1" d="M23.882 29.786h3.26l-1.63 2.792z"/><path fill="param(fill)" d="M26.716 24.117h3.26l-1.63 2.792z"/><path fill="none" stroke="black" stroke-width="1" d="M26.716 24.117h3.26l-1.63 2.792z"/><path fill="param(fill)" d="M29.551 41.125h3.26l-1.63 2.792z"/><path fill="none" stroke="black" stroke-width="1" d="M29.551 41.125h3.26l-1.63 2.792z"/><path fill="param(fill)" d="M32.386 35.455h3.26l-1.63 2.793z"/><path fill="none" stroke="black" stroke-width="1" d="M32.386 35.455h3.26l-1.63 2.793z"/><path fill="param(fill)" d="M29.551 29.786h3.26l-1.63 2.792z"/><path fill="none" stroke="black" stroke-width="1" d="M29.551 29.786h3.26l-1.63 2.792z"/><path fill="param(fill)" d="M32.386 24.117h3.26l-1.63 2.792z"/><path fill="none" stroke="black" stroke-width="1" d="M32.386 24.117h3.26l-1.63 2.792z"/><path fill="param(fill)" d="M35.22 41.125h3.259l-1.629 2.792z"/><path fill="none" stroke="black" stroke-width="1" d="M35.22 41.125h3.259l-1.629 2.792z"/><path fill="param(fill)" d="M38.055 35.455h3.259l-1.629 2.793z"/><path fill="none" stroke="black" stroke-width="1" d="M38.055 35.455h3.259l-1.629 2.793z"/><path fill="param(fill)" d="M35.22 29.786h3.259l-1.629 2.792z"/><path fill="none" stroke="black" stroke-width="1" d="M35.22 29.786h3.259l-1.629 2.792z"/><path fill="param(fill)" d="M38.055 24.117h3.259l-1.629 2.792z"/><path fill="none" stroke="black" stroke-width="1" d="M38.055 24.117h3.259l-1.629 2.792z"/><path fill="param(fill)" d="M40.89 41.125h3.259l-1.629 2.792z"/><path fill="none" stroke="black" stroke-width="1" d="M40.89 41.125h3.259l-1.629 2.792z"/><path fill="param(fill)" d="M40.89 29.786h3.259l-1.629 2.792z"/><path fill="none" stroke="black" stroke-width="1" d="M40.89 29.786h3.259l-1.629 2.792z"/><path fill="param(fill)" d="M45.354 37.798v-2.115h-1.235l1.235 2.115"/><path fill="param(fill)" d="M45.354 37.798l-1.235-2.115h1.235v-.454h-2.025l2.025 3.469v-.9zM45.354 26.459v-2.115h-1.235l1.235 2.115"/><path fill="param(fill)" d="M45.354 26.459l-1.235-2.115h1.235v-.453h-2.025l2.025 3.468v-.9z"/><path fill="none" stroke="black" stroke-width="1" d="M1.205 18.448h3.26l-1.63 2.792z"/><path fill="param(fill)" d="M4.039 12.778h3.26l-1.63 2.793z"/><path fill="none" stroke="black" stroke-width="1" d="M4.039 12.778h3.26l-1.63 2.793zM1.205 7.109h3.26l-1.63 2.792z"/><path fill="param(fill)" d="M4.039 1.44h3.26l-1.63 2.792z"/><path fill="none" stroke="black" stroke-width="1" d="M4.039 1.44h3.26l-1.63 2.792z"/><path fill="param(fill)" d="M1.205 18.448h3.26l-1.63 2.792z"/><path fill="none" stroke="black" stroke-width="1" d="M1.205 18.448h3.26l-1.63 2.792z"/><path fill="param(fill)" d="M4.039 12.778h3.26l-1.63 2.793z"/><path fill="none" stroke="black" stroke-width="1" d="M4.039 12.778h3.26l-1.63 2.793z"/><path fill="param(fill)" d="M1.205 7.109h3.26l-1.63 2.792z"/><path fill="none" stroke="black" stroke-width="1" d="M1.205 7.109h3.26l-1.63 2.792z"/><path fill="param(fill)" d="M4.039 1.44h3.26l-1.63 2.792z"/><path fill="none" stroke="black" stroke-width="1" d="M4.039 1.44h3.26l-1.63 2.792z"/><path fill="param(fill)" d="M6.874 18.448h3.26l-1.63 2.792z"/><path fill="none" stroke="black" stroke-width="1" d="M6.874 18.448h3.26l-1.63 2.792z"/><path fill="param(fill)" d="M9.709 12.778h3.26l-1.63 2.793z"/><path fill="none" stroke="black" stroke-width="1" d="M9.709 12.778h3.26l-1.63 2.793z"/><path fill="param(fill)" d="M6.874 7.109h3.26l-1.63 2.792z"/><path fill="none" stroke="black" stroke-width="1" d="M6.874 7.109h3.26l-1.63 2.792z"/><path fill="param(fill)" d="M9.709 1.44h3.26l-1.63 2.792z"/><path fill="none" stroke="black" stroke-width="1" d="M9.709 1.44h3.26l-1.63 2.792z"/><path fill="param(fill)" d="M12.543 18.448h3.26l-1.63 2.792z"/><path fill="none" stroke="black" stroke-width="1" d="M12.543 18.448h3.26l-1.63 2.792z"/><path fill="param(fill)" d="M15.378 12.778h3.26l-1.63 2.793z"/><path fill="none" stroke="black" stroke-width="1" d="M15.378 12.778h3.26l-1.63 2.793z"/><path fill="param(fill)" d="M21.047 12.778h3.26l-1.63 2.793z"/><path fill="none" stroke="black" stroke-width="1" d="M21.047 12.778h3.26l-1.63 2.793z"/><path fill="param(fill)" d="M12.543 7.109h3.26l-1.63 2.792z"/><path fill="none" stroke="black" stroke-width="1" d="M12.543 7.109h3.26l-1.63 2.792z"/><path fill="param(fill)" d="M15.378 1.44h3.26l-1.63 2.792z"/><path fill="none" stroke="black" stroke-width="1" d="M15.378 1.44h3.26l-1.63 2.792z"/><path fill="param(fill)" d="M21.047 1.44h3.26l-1.63 2.792z"/><path fill="none" stroke="black" stroke-width="1" d="M21.047 1.44h3.26l-1.63 2.792z"/><path fill="param(fill)" d="M18.213 18.448h3.26l-1.63 2.792z"/><path fill="none" stroke="black" stroke-width="1" d="M18.213 18.448h3.26l-1.63 2.792z"/><path fill="param(fill)" d="M18.213 7.109h3.26l-1.63 2.792z"/><path fill="none" stroke="black" stroke-width="1" d="M18.213 7.109h3.26l-1.63 2.792z"/><path fill="param(fill)" d="M0 15.121l1.235-2.115H0v2.115z"/><path fill="param(fill)" d="M0 13.006h1.235L0 15.121v.899l2.024-3.469H0v.455zM1.235 1.667H0v2.115l1.235-2.115"/><path fill="param(fill)" d="M0 1.667h1.235L0 3.782v.9l2.024-3.469H0v.454z"/><path fill="none" stroke="black" stroke-width="1" d="M23.882 18.448h3.26l-1.63 2.792z"/><path fill="param(fill)" d="M26.716 12.778h3.26l-1.63 2.793z"/><path fill="none" stroke="black" stroke-width="1" d="M26.716 12.778h3.26l-1.63 2.793zM23.882 7.109h3.26l-1.63 2.792z"/><path fill="param(fill)" d="M26.716 1.44h3.26l-1.63 2.792z"/><path fill="none" stroke="black" stroke-width="1" d="M26.716 1.44h3.26l-1.63 2.792z"/><path fill="param(fill)" d="M23.882 18.448h3.26l-1.63 2.792z"/><path fill="none" stroke="black" stroke-width="1" d="M23.882 18.448h3.26l-1.63 2.792z"/><path fill="param(fill)" d="M26.716 12.778h3.26l-1.63 2.793z"/><path fill="none" stroke="black" stroke-width="1" d="M26.716 12.778h3.26l-1.63 2.793z"/><path fill="param(fill)" d="M23.882 7.109h3.26l-1.63 2.792z"/><path fill="none" stroke="black" stroke-width="1" d="M23.882 7.109h3.26l-1.63 2.792z"/><path fill="param(fill)" d="M26.716 1.44h3.26l-1.63 2.792z"/><path fill="none" stroke="black" stroke-width="1" d="M26.716 1.44h3.26l-1.63 2.792z"/><path fill="param(fill)" d="M29.551 18.448h3.26l-1.63 2.792z"/><path fill="none" stroke="black" stroke-width="1" d="M29.551 18.448h3.26l-1.63 2.792z"/><path fill="param(fill)" d="M32.386 12.778h3.26l-1.63 2.793z"/><path fill="none" stroke="black" stroke-width="1" d="M32.386 12.778h3.26l-1.63 2.793z"/><path fill="param(fill)" d="M29.551 7.109h3.26l-1.63 2.792z"/><path fill="none" stroke="black" stroke-width="1" d="M29.551 7.109h3.26l-1.63 2.792z"/><path fill="param(fill)" d="M32.386 1.44h3.26l-1.63 2.792z"/><path fill="none" stroke="black" stroke-width="1" d="M32.386 1.44h3.26l-1.63 2.792z"/><path fill="param(fill)" d="M35.22 18.448h3.259L36.85 21.24z"/><path fill="none" stroke="black" stroke-width="1" d="M35.22 18.448h3.259L36.85 21.24z"/><path fill="param(fill)" d="M38.055 12.778h3.259l-1.629 2.793z"/><path fill="none" stroke="black" stroke-width="1" d="M38.055 12.778h3.259l-1.629 2.793z"/><path fill="param(fill)" d="M35.22 7.109h3.259L36.85 9.901z"/><path fill="none" stroke="black" stroke-width="1" d="M35.22 7.109h3.259L36.85 9.901z"/><path fill="param(fill)" d="M38.055 1.44h3.259l-1.629 2.792z"/><path fill="none" stroke="black" stroke-width="1" d="M38.055 1.44h3.259l-1.629 2.792z"/><path fill="param(fill)" d="M40.89 18.448h3.259L42.52 21.24z"/><path fill="none" stroke="black" stroke-width="1" d="M40.89 18.448h3.259L42.52 21.24z"/><path fill="param(fill)" d="M40.89 7.109h3.259L42.52 9.901z"/><path fill="none" stroke="black" stroke-width="1" d="M40.89 7.109h3.259L42.52 9.901z"/><path fill="param(fill)" d="M45.354 15.121v-2.115h-1.235l1.235 2.115"/><path fill="param(fill)" d="M45.354 15.121l-1.235-2.115h1.235v-.454h-2.025l2.025 3.469v-.9zM45.354 3.782V1.667h-1.235l1.235 2.115"/><path fill="param(fill)" d="M45.354 3.782l-1.235-2.115h1.235v-.453h-2.025l2.025 3.468v-.9z"/></svg>
