<svg xmlns="http://www.w3.org/2000/svg" width="55.559" height="55.559" viewBox="0 0 55.559 55.559"><path fill="none" d="M0 0h55.558v55.559H0z"/><path fill="none" stroke="black" stroke-width="1" stroke-miterlimit="500" d="M2.222 45.814l2.284 2.823 2.286-2.823M9.217 45.814l2.285 2.823 2.286-2.823M16.213 45.814l2.286 2.823 2.285-2.823M23.209 45.814l2.285 2.823 2.286-2.823M2.222 34.7l2.284 2.823L6.792 34.7M9.217 34.7l2.285 2.823 2.286-2.823M16.213 34.7l2.286 2.823 2.285-2.823M23.209 34.7l2.285 2.823L27.78 34.7M2.222 23.588l2.284 2.822 2.286-2.822M9.217 23.588l2.285 2.822 2.286-2.822M16.213 23.588l2.286 2.822 2.285-2.822M23.209 23.588l2.285 2.822 2.286-2.822M6.996 29.145l2.285 2.822 2.285-2.822M13.992 29.145l2.285 2.822 2.286-2.822M20.988 29.145l2.285 2.822 2.285-2.822M6.996 40.258l2.285 2.822 2.285-2.822M13.992 40.258l2.285 2.822 2.286-2.822M20.988 40.258l2.285 2.822 2.285-2.822M6.996 51.37l2.285 2.823 2.285-2.823M13.992 51.37l2.285 2.823 2.286-2.823M20.988 51.37l2.285 2.823 2.285-2.823M30.001 45.814l2.285 2.823 2.285-2.823M36.997 45.814l2.285 2.823 2.285-2.823M43.993 45.814l2.285 2.823 2.285-2.823M30.001 34.7l2.285 2.823 2.285-2.823M36.997 34.7l2.285 2.823 2.285-2.823M43.993 34.7l2.285 2.823 2.285-2.823M30.001 23.588l2.285 2.822 2.285-2.822M36.997 23.588l2.285 2.822 2.285-2.822M43.993 23.588l2.285 2.822 2.285-2.822M27.779 29.145l2.286 2.822 2.285-2.822M34.775 29.145l2.286 2.822 2.285-2.822M41.771 29.145l2.286 2.822 2.285-2.822M48.768 29.145l2.285 2.822 2.284-2.822M27.779 40.258l2.286 2.822 2.285-2.822M34.775 40.258l2.286 2.822 2.285-2.822M41.771 40.258l2.286 2.822 2.285-2.822M48.768 40.258l2.285 2.822 2.284-2.822M27.779 51.37l2.286 2.823 2.285-2.823M34.775 51.37l2.286 2.823 2.285-2.823M41.771 51.37l2.286 2.823 2.285-2.823M48.768 51.37l2.285 2.823 2.284-2.823M2.222 12.48l2.284 2.823 2.286-2.823M9.217 12.48l2.285 2.823 2.286-2.823M16.213 12.48l2.286 2.823 2.285-2.823M23.209 12.48l2.285 2.823 2.286-2.823M2.222 1.366l2.284 2.823 2.286-2.823M9.217 1.366l2.285 2.823 2.286-2.823M16.213 1.366l2.286 2.823 2.285-2.823M23.209 1.366l2.285 2.823 2.286-2.823M6.996 6.924l2.285 2.822 2.285-2.822M13.992 6.924l2.285 2.822 2.286-2.822M20.988 6.924l2.285 2.822 2.285-2.822M6.996 18.036l2.285 2.823 2.285-2.823M13.992 18.036l2.285 2.823 2.286-2.823M20.988 18.036l2.285 2.823 2.285-2.823M30.001 12.48l2.285 2.823 2.285-2.823M36.997 12.48l2.285 2.823 2.285-2.823M43.993 12.48l2.285 2.823 2.285-2.823M30.001 1.366l2.285 2.823 2.285-2.823M36.997 1.366l2.285 2.823 2.285-2.823M43.993 1.366l2.285 2.823 2.285-2.823M27.779 6.924l2.286 2.822 2.285-2.822M34.775 6.924l2.286 2.822 2.285-2.822M41.771 6.924l2.286 2.822 2.285-2.822M48.768 6.924l2.285 2.822 2.284-2.822M27.779 18.036l2.286 2.823 2.285-2.823M34.775 18.036l2.286 2.823 2.285-2.823M41.771 18.036l2.286 2.823 2.285-2.823M48.768 18.036l2.285 2.823 2.284-2.823"/><path fill="param(fill)" d="M2.284 32.442l2.52-3.109-.467-.378-2.051 2.533-2.054-2.533-.232.19v.477zM2.286 43.557l2.517-3.113-.466-.376-2.051 2.535-2.053-2.535-.233.19v.476zM2.286 54.669l2.518-3.111-.466-.377-2.052 2.533-2.053-2.533L0 51.37v.475zM2.286 10.223l2.518-3.11-.466-.378-2.052 2.534L.233 6.733 0 6.924v.478zM2.285 21.337l2.519-3.112-.466-.377-2.053 2.533-2.053-2.535-.232.189v.479zM50.755 46.004l.001-.001-.001-.001zM55.325 45.625l-2.053 2.534-2.051-2.534-.465.378 2.516 3.11 2.287-2.825v-.474zM50.754 34.89l.001-.001-.001-.001zM55.327 34.511l-2.053 2.533-2.053-2.533-.466.378 2.516 3.11 2.288-2.824v-.476zM55.326 23.398l-2.053 2.534-2.052-2.534-.466.378 2.516 3.11 2.288-2.822v-.476zM55.326 12.291l-2.054 2.535-2.052-2.535-.466.378 2.518 3.109 2.287-2.822v-.476zM50.754 1.557l.001-.001-.001-.002zM55.326 1.177L53.273 3.71l-2.051-2.533-.467.379 2.518 3.11 2.286-2.825v-.475z"/></svg>
