<svg xmlns="http://www.w3.org/2000/svg" width="51.023" height="51.023" viewBox="0 0 51.023 51.023"><path fill="none" d="M0 0h51.023v51.023H0z"/><path fill="none" stroke="black" stroke-width="1" stroke-miterlimit="500" d="M16.726 46.033l-2.155-.877 1.815-1.389zM3.26 45.637l.993-2.099 1.274 1.9zM9.781 45.921l-.454-2.269 2.154.767zM.455 49.804l1.162-2.012 1.104 2.012zM5.811 49.01l1.928-1.303.143 2.295zM11.509 48.754l2.155-.877-.34 2.267zM33.734 46.033l-2.155-.877 1.815-1.389zM20.268 45.637l.993-2.099 1.274 1.9zM26.789 45.921l-.455-2.269 2.155.767zM17.463 49.804l1.162-2.012 1.104 2.012zM22.819 49.01l1.928-1.303.143 2.295zM28.517 48.754l2.155-.877-.34 2.267zM50.742 46.033l-2.155-.877 1.814-1.389zM37.276 45.637l.993-2.099 1.274 1.9zM43.797 45.921l-.455-2.269 2.155.767zM34.471 49.804l1.162-2.012 1.104 2.012zM39.827 49.01l1.927-1.303.144 2.295zM45.525 48.754l2.155-.877-.341 2.267zM16.726 37.529l-2.155-.877 1.815-1.389zM3.26 37.133l.993-2.099 1.274 1.901zM9.781 37.417l-.454-2.269 2.154.767zM.455 41.3l1.162-2.012L2.721 41.3zM5.811 40.506l1.928-1.303.143 2.295zM11.509 40.25l2.155-.877-.34 2.267zM33.734 37.529l-2.155-.877 1.815-1.389zM20.268 37.133l.993-2.099 1.274 1.901zM26.789 37.417l-.455-2.269 2.155.767zM17.463 41.3l1.162-2.012 1.104 2.012zM22.819 40.506l1.928-1.303.143 2.295zM28.517 40.25l2.155-.877-.34 2.267zM50.742 37.529l-2.155-.877 1.814-1.389zM37.276 37.133l.993-2.099 1.274 1.901zM43.797 37.417l-.455-2.269 2.155.767zM34.471 41.3l1.162-2.012 1.104 2.012zM39.827 40.506l1.927-1.303.144 2.295zM45.525 40.25l2.155-.877-.341 2.267zM16.726 12.018l-2.155-.877 1.815-1.39zM3.26 11.621l.993-2.099 1.274 1.901zM9.781 11.905l-.454-2.268 2.154.766zM.455 15.788l1.162-2.012 1.104 2.012zM5.811 14.994l1.928-1.303.143 2.295zM11.509 14.738l2.155-.877-.34 2.267zM33.734 12.018l-2.155-.877 1.815-1.39zM20.268 11.621l.993-2.099 1.274 1.901zM26.789 11.905l-.455-2.268 2.155.766zM17.463 15.788l1.162-2.012 1.104 2.012zM22.819 14.994l1.928-1.303.143 2.295zM28.517 14.738l2.155-.877-.34 2.267zM50.742 12.018l-2.155-.877 1.814-1.39zM37.276 11.621l.993-2.099 1.274 1.901zM43.797 11.905l-.455-2.268 2.155.766zM34.471 15.788l1.162-2.012 1.104 2.012zM39.827 14.994l1.927-1.303.144 2.295zM45.525 14.738l2.155-.877-.341 2.267zM16.726 3.514l-2.155-.877 1.815-1.39zM3.26 3.117l.993-2.098 1.274 1.9zM9.781 3.401l-.454-2.268 2.154.766zM.455 7.284l1.162-2.012 1.104 2.012zM5.811 6.49l1.928-1.302.143 2.294zM11.509 6.234l2.155-.877-.34 2.267zM33.734 3.514l-2.155-.877 1.815-1.39zM20.268 3.117l.993-2.098 1.274 1.9zM26.789 3.401l-.455-2.268 2.155.766zM17.463 7.284l1.162-2.012 1.104 2.012zM22.819 6.49l1.928-1.302.143 2.294zM28.517 6.234l2.155-.877-.34 2.267zM50.742 3.514l-2.155-.877 1.814-1.39zM37.276 3.117l.993-2.098 1.274 1.9zM43.797 3.401l-.455-2.268 2.155.766zM34.471 7.284l1.162-2.012 1.104 2.012zM39.827 6.49l1.927-1.302.144 2.294zM45.525 6.234l2.155-.877-.341 2.267zM16.726 29.025l-2.155-.877 1.815-1.389zM3.26 28.629l.993-2.099 1.274 1.901zM9.781 28.913l-.454-2.268 2.154.766zM.455 32.796l1.162-2.012 1.104 2.012zM5.811 32.002l1.928-1.303.143 2.295zM11.509 31.746l2.155-.877-.34 2.267zM33.734 29.025l-2.155-.877 1.815-1.389zM20.268 28.629l.993-2.099 1.274 1.901zM26.789 28.913l-.455-2.268 2.155.766zM17.463 32.796l1.162-2.012 1.104 2.012zM22.819 32.002l1.928-1.303.143 2.295zM28.517 31.746l2.155-.877-.34 2.267zM50.742 29.025l-2.155-.877 1.814-1.389zM37.276 28.629l.993-2.099 1.274 1.901zM43.797 28.913l-.455-2.268 2.155.766zM34.471 32.796l1.162-2.012 1.104 2.012zM39.827 32.002l1.927-1.303.144 2.295zM45.525 31.746l2.155-.877-.341 2.267zM16.726 20.521l-2.155-.876 1.815-1.39zM3.26 20.125l.993-2.099 1.274 1.901zM9.781 20.409l-.454-2.268 2.154.766zM.455 24.292l1.162-2.012 1.104 2.012zM5.811 23.498l1.928-1.303.143 2.295zM11.509 23.242l2.155-.877-.34 2.267zM33.734 20.521l-2.155-.876 1.815-1.39zM20.268 20.125l.993-2.099 1.274 1.901zM26.789 20.409l-.455-2.268 2.155.766zM17.463 24.292l1.162-2.012 1.104 2.012zM22.819 23.498l1.928-1.303.143 2.295zM28.517 23.242l2.155-.877-.34 2.267zM50.742 20.521l-2.155-.876 1.814-1.39zM37.276 20.125l.993-2.099 1.274 1.901zM43.797 20.409l-.455-2.268 2.155.766zM34.471 24.292l1.162-2.012 1.104 2.012zM39.827 23.498l1.927-1.303.144 2.295zM45.525 23.242l2.155-.877-.341 2.267z"/></svg>
