<svg xmlns="http://www.w3.org/2000/svg" width="48.189" height="48.184" viewBox="0 0 48.189 48.184"><path fill="param(fill)" d="M45.042 6.296l-2.721.033 1.327-2.359zM38.658 7.794l-2.374-1.478 2.411-1.33zM41.868 14.039l-2.608-.899 2.026-1.826zM36.339 18.035l-2.692-.411 1.671-2.126zM30.53 10.483l2.137-1.775.413 2.746zM24.454 3.983l1.739 2.122-2.693.413zM19.032 3.594l1.293 2.428-2.721-.101zM8.392 5.552v2.844L5.983 6.991zM13.616 6.825l.956 2.574-2.694-.445zM25.995 16.51l2.088-1.862.547 2.723zM23.196 15.857l-1.425-2.392 2.748-.069zM17.684 11.978l1.393 2.36-2.72.032zM4.991 14.185l2.72-.104-1.291 2.434zM11.693 15.656l2.31 1.437-2.379 1.298zM41.184 21.244l-2.375-1.369 2.274-1.396zM45.795 22.392l-2.177 1.644-.377-2.711zM36.878 25.373l-2.748-.066 1.392-2.326zM27.837 21.436l2.607-1.004-.413 2.732zM26.449 29.123l.546-2.765 2.06 1.831zM23.762 25.472l-1.991-1.901 2.607-.829zM16.94 21.092l1.43 2.364-2.722.069zM10.348 26.997l2.749.036-1.39 2.361zM5.247 23.224l2.719.379L6.3 25.76zM6.662 34.026l2.694-.549-.853 2.608zM11.396 37.889l1.356-2.394 1.394 2.36zM16.044 30.756l2.722-.375-1.019 2.534zM22.511 35.599l-1.702-2.195 2.691-.414zM29.752 35.431l-2.171-1.772 2.553-1.037zM34.573 40.416l-2.171-1.766 2.548-1.008zM36.591 32.648l-1.951-1.964 2.635-.723zM46.139 30.849l-2.587-.891 2.007-1.818zM44.398 36.65l-2.453 1.268.103-2.709zM41.081 42.355l-2.789.037 1.287-2.422zM25.104 42.028l-1.462-2.36 2.721-.102zM18.763 42.705l-1.358-2.393h2.75zM4.564 41.91l2.062-1.865.546 2.728zM5.189 2.305l2.692.481L6.96.212zM30.563 4.253l1.327-2.397-2.72.033zM35.824 1.112L36.325 0h-1.242zM15.625 1.445L17.414 0h-2.006zM47.988 38.575l-1.018 2.587 1.219-.173v-2.154zM46.757 16.084l1.432.796v-1.648zM47.804 0l-.777 1.273 1.162.038V0zM44.437 45.819l-2.729-.488.865 2.534zM30.274 45.174l-2.523-.977.415 2.782zM10.368 43.449l-.105 2.796 2.465-1.325zM23.401 45.1l-2.368 1.397 2.44 1.402zM17.802 47.87l-2.592-1.008.198 1.322h2.006zM36.964 46.767l-2.699.188.818 1.229h1.242zM48.189 47.551l-.385.633h.385zM.229 7.91l.413 2.773 2.166-1.734zM2.752 25.783l-.037-2.842-2.402 1.44zM1.106 32.323l1.843 2.023.851-2.609zM.992 17.432l-.015-2.781-.977.581v1.648zM1.5 40.776L0 38.835v2.154zM1.583 1.36L.865 0H0v1.311zM.865 48.184l-.58-1.1-.285.467v.633z"/></svg>