<svg xmlns="http://www.w3.org/2000/svg" width="46.772" height="46.771" viewBox="0 0 46.772 46.771"><path fill="none" stroke="black" stroke-width="1" stroke-linecap="square" d="M41.326 44.021h1.198"/><path fill="param(fill)" d="M31.807 46.771h.108l-.095-.078-.013.078M6.008 46.771h.124a5.103 5.103 0 0 1-.108-.09c-.003.027-.01.056-.016.09"/><path fill="none" stroke="black" stroke-width="1" d="M9.845 26.665l-2.026 1.854 2.683.883zM17.24 28.039l-2.735.273 1.62 2.312zM24.143 30.838l-2.083 1.789 2.654.968zM15.067 35.475l1.821 2.056.931-2.665zM8.703 36.095l2.581.942-.452-2.786zM5.646 34.013l2.572-.965-2.159-1.819zM2.108 37.521l2.571-.965-2.159-1.82zM8.732 43.879l2.555 1.01-.379-2.797zM2.156 44.859l2.58-.941-2.142-1.839zM18.542 40.445l2.662.679-.73-2.727zM23.03 44.916l2.55-1.021-2.201-1.772zM35.195 43.875l2.593.907-.491-2.78zM31.953 41.037l2.549-1.022-2.201-1.772zM39.916 41.34l1.006-2.554-2.798.382zM42.071 34.973l1.66 2.187 1.129-2.587zM42.063 27.549l1.177 2.48 1.635-2.301zM34.843 28.52l2.598.894-.505-2.777zM28.656 29.944l2.507-1.122-2.268-1.682zM29.328 37.021l2.035-1.843-2.679-.899zM41.356 31.171l-2.746.084 1.456 2.418z"/><path fill="param(fill)" d="M7.77 24.903l-2.18.451.624-1.969h-.36l-.767 2.423 3.353-.694-1.638-1.729h-.471l1.439 1.518M20.875 25.185l-2.128-.651 1.203-1.147h-.496l-1.365 1.303 3.272 1.004-.604-2.307h-.354l.472 1.798M34.081 24.745l-2.178.465.566-1.824h-.358l-.707 2.281 3.348-.716-1.502-1.565h-.475c.397.414 1.064 1.109 1.306 1.359M.281 38.567l.333 2.193L0 40.499v.372l1.043.445-.511-3.374-.532.411v.432l.281-.218M.958 25.803l-.366-2.417H.245l.282 1.86L0 25.021v.372l.958.41zM6.244 46.679l.087.093h.471l-.709-.75-.237.75h.359l.029-.093M20.312 46.426l.091.346h.354l-.261-.995-1.042.995h.496c.152-.146.282-.271.362-.346M32.543 46.53l.231.241h.475l-.86-.896-.278.896h.358c.031-.097.056-.18.074-.241M.446 45.813L0 46.157v.433l.195-.15.05.332h.347l-.146-.959zM45.338 39.887l1.434-1.103v-.432l-2.105 1.62 2.105.898v-.372l-1.434-.611M45.252 24.373c.231-.179.836-.644 1.283-.987h-.562l-1.395 1.072 2.192.936v-.372c-.534-.23-1.249-.534-1.518-.649M45.974 46.771h.562l.236-.182v-.433l-.798.615zM14.41 31.71l-1.283-1.369.25-.233 1.282 1.369zM20.621 34.766l-.117-.371.326-.103.118.37zM3.092 32.967l-.374-1.54.333-.08.374 1.539zM8.505 39.213l-1.596-1.426.227-.254 1.596 1.426zM12.667 41.61l-.57-1.628.324-.113.57 1.628zM15.613 42.74l-.212-.269 1.704-1.348.212.269zM14.224 38.567l.176-.293 1.865 1.116-.175.293zM5.164 41.381l-.173-.296 2-1.172.173.296zM1.941 46.06l-.08-.332 2.252-.547.08.333zM7.497 45.22L6.25 43.335l.286-.189 1.247 1.885zM12.355 45.146l-.114-.322 1.826-.648.114.322zM3.098 41.078l-.317-.125.883-2.226.317.126zM25.538 29.499l-.228-1.171.336-.066.229 1.17z"/><path fill="param(fill)" d="M21.105 36.332l-.484-1.568.327-.1.484 1.567zM24.148 37.391l.108-1.855.341.02-.107 1.855zM27.545 41.237l-.942-1.938.307-.15.943 1.938zM25.098 40.297l-1.695-.634.12-.32 1.695.634zM27.224 45.142l-.146-.309 1.627-.77.146.31zM19.258 44.207l-.538-1.638.325-.107.538 1.638zM11.443 24.468l-1.799-.2.038-.342 1.8.2zM12.026 25.87l.26-.223 1.412 1.652-.261.223zM4.424 29.732l-1.798-1.368.207-.273 1.798 1.368zM9.49 32.39l.482-1.76.33.09-.482 1.761zM12.67 35.986l.483-1.759.33.091-.482 1.76zM14.791 33.165l-.01-.342 1.937-.055.01.341zM5.01 27.548l-.1-.327 1.717-.528.101.327zM25.308 28.324l-.171-.883.336-.065.17.883zM23.758 25.904l-.077-.334 2.018-.46.076.334zM20.178 31.555l-.199-1.713.34-.04.2 1.713zM19.148 27.228l-.292.178-1.245-2.046.292-.177zM17.575 45.855l-.336.066.165.85h.348zM26.586 37.396l.102-.326 1.81.569-.102.326zM30.767 31.711l-1.173-1.396.262-.22 1.173 1.396zM31.665 32.819l.14-.312 1.856.837-.141.312zM33.787 38.019l-.515-1.94.331-.088.515 1.94zM37.42 38.125l-.234-.25 1.532-1.43.234.25zM35.904 32.517l.309-.149.801 1.667-.308.148zM37.061 41.18l-.57-1.627.324-.113.57 1.627zM35.65 45.778l-.012-.342 1.936-.061.011.342zM42.126 42.21l.953-1.064.256.23-.953 1.064zM29.064 42.657l-.327-.103.716-2.285.327.103zM31.73 44.594l-.327-.103.718-2.284.327.103zM43.43 34.113l-.373-.314.22-.262.374.315zM43.093 46.581l-.317-.127.889-2.223.318.127zM34.243 31.459l-.252-.232 1.366-1.487.252.231zM41.319 30.538l-1.658-1.971.261-.22 1.659 1.971zM29.462 25.51l-.313-.142.854-1.884.312.142z"/><path fill="param(fill)" d="M43.06 33.797l-.912-.738.215-.266.911.738zM39.46 26.607l-.14-.314 2.191-.969.139.314zM1.412 27.976L.163 26.25 0 26.368v.24l1.135 1.569zM46.044 32.072l-.144.311.872.404v-.377zM45.71 43.955l.235.249.827-.772v-.469zM46.502 30.904l.27.2v-.565zM46.658 26.451l.114.157v-.24zM46.396 34.977l-.166.299.542.302v-.391zM.728 33.125l.143-.311L0 32.41v.377zM.485 42.978l-.235-.25-.25.235v.469zM.006 31.107l1.068-1.444-.276-.203L0 30.539v.565zM.944 36.104l.167-.298L0 35.187v.391zM14.058 24.776l.318-.126-.501-1.264h-.369zM37.512 24.089l.234.251 1.028-.954h-.503zM26.661 24.734l.287-.186-.756-1.162h-.408zM13.536 45.922l-.318.126.288.723h.369zM39.195 46.381l-.234-.251-.69.641h.503zM25.648 45.936l-.287.186.423.649h.408zM27.565 33.397l-.9.784-.226-.259.9-.784z"/><path fill="param(fill)" d="M26.666 34.181l-.68.589-.224-.26.679-.588z"/><path fill="none" stroke="black" stroke-width="1" stroke-linecap="square" d="M41.326 20.635h1.198"/><path fill="param(fill)" d="M31.807 23.386h.108a5.73 5.73 0 0 1-.095-.079l-.013.079M6.008 23.386h.124a5.103 5.103 0 0 1-.108-.09l-.016.09"/><path fill="none" stroke="black" stroke-width="1" d="M9.845 3.279L7.819 5.133l2.682.884zM17.24 4.653l-2.735.273 1.62 2.312zM24.143 7.452L22.06 9.241l2.654.968zM15.067 12.089l1.821 2.057.931-2.666zM8.702 12.709l2.582.942-.452-2.786zM5.646 10.627l2.572-.965-2.159-1.82zM2.108 14.135l2.571-.965-2.159-1.819zM8.731 20.493l2.555 1.009-.377-2.796zM2.156 21.474l2.58-.942-2.142-1.839zM18.542 17.059l2.662.679-.73-2.726zM23.03 21.53l2.55-1.022-2.201-1.771zM35.195 20.489l2.593.907-.491-2.78zM31.953 17.651l2.549-1.022-2.201-1.772zM39.916 17.954l1.006-2.555-2.798.383zM42.071 11.587l1.66 2.187 1.129-2.586zM42.063 4.163l1.177 2.481 1.635-2.302zM34.843 5.134l2.598.893-.505-2.776zM28.656 6.559l2.507-1.122-2.268-1.683zM29.328 13.635l2.035-1.844-2.679-.897zM41.356 7.785l-2.746.084 1.456 2.418z"/><path fill="param(fill)" d="M7.77 1.518l-2.181.451L6.214 0h-.36l-.766 2.423 3.352-.694L6.802 0h-.471L7.77 1.518M20.875 1.799l-2.128-.651L19.95 0h-.496l-1.365 1.303 3.272 1.004L20.756 0h-.354l.473 1.799M34.081 1.359l-2.178.465L32.469 0h-.358l-.707 2.281 3.348-.716L33.25 0h-.475c.397.414 1.064 1.109 1.306 1.359M.282 15.182l.333 2.192L0 17.113v.372l1.042.445-.509-3.374-.533.411v.432c.117-.089.215-.167.282-.217M.958 2.417L.592 0H.244l.283 1.86L0 1.636v.372l.958.409zM6.244 23.293c.023.024.055.058.086.093h.472l-.709-.75-.238.75h.36c.009-.034.021-.066.029-.093M20.312 23.04l.091.346h.354l-.261-.995-1.042.995h.496c.152-.146.282-.271.362-.346M32.543 23.144l.231.242h.475l-.86-.897-.278.897h.358l.074-.242M.447 22.428L0 22.771v.433c.077-.062.146-.113.195-.15l.049.332h.348l-.145-.958zM45.338 16.501l1.434-1.103v-.432l-2.105 1.62 2.105.898v-.372l-1.434-.611M45.252.987L46.536 0h-.562L44.58 1.072l2.192.936v-.372c-.536-.23-1.251-.533-1.52-.649M45.974 23.386h.562l.236-.182v-.433l-.798.615zM14.408 8.326l-1.282-1.37.25-.233 1.282 1.369zM20.62 11.38l-.116-.372.326-.103.117.371zM3.092 9.582l-.374-1.54.333-.08.373 1.54zM8.504 15.827l-1.595-1.425.228-.255 1.595 1.425zM12.67 18.224l-.571-1.628.323-.114.57 1.628zM15.611 19.35l-.212-.268 1.706-1.347.212.269zM14.225 15.184l.174-.294 1.869 1.111-.175.294zM5.167 17.996l-.173-.296 2-1.171.173.296zM1.94 22.675l-.08-.333 2.253-.546.08.332zM7.497 21.835L6.25 19.95l.285-.188 1.247 1.885zM12.356 21.76l-.114-.322 1.825-.647.115.322zM3.1 17.695l-.318-.126.88-2.226.319.126zM25.538 6.112L25.31 4.94l.337-.066.228 1.17z"/><path fill="param(fill)" d="M21.104 12.947l-.484-1.568.327-.101.484 1.568zM24.15 14.006l.107-1.856.342.02-.108 1.855zM27.544 17.851l-.942-1.938.307-.15.943 1.939zM25.097 16.91l-1.695-.634.12-.32 1.695.634zM27.224 21.756l-.146-.31 1.627-.769.146.31zM19.258 20.82l-.538-1.638.325-.106.538 1.637zM11.443 1.083l-1.799-.2.038-.34 1.8.2zM12.024 2.484l.26-.222 1.413 1.65-.26.222zM4.424 6.346L2.626 4.978l.207-.273 1.798 1.369zM9.49 9.003l.48-1.76.33.09-.48 1.76zM12.67 12.6l.482-1.759.33.09-.482 1.76zM14.792 9.78l-.01-.343 1.937-.055.01.342zM5.011 4.162l-.1-.327 1.717-.528.101.327zM25.307 4.939l-.17-.883.335-.065.171.883zM23.757 2.52l-.077-.335 2.018-.46.076.334zM20.178 8.167l-.2-1.712.34-.04.2 1.712zM19.147 3.842l-.293.178-1.245-2.046.292-.178zM17.575 22.47l-.336.065.165.851h.348zM26.585 14.01l.103-.326 1.81.569-.103.326zM30.766 8.325l-1.173-1.397.262-.22 1.173 1.397zM31.667 9.434l.14-.312 1.855.838-.14.311zM33.787 14.634l-.514-1.94.331-.088.515 1.94zM37.418 14.739l-.233-.25 1.532-1.43.234.25zM35.904 9.13l.308-.148.801 1.665-.308.148zM37.06 17.795l-.57-1.627.325-.114.57 1.628zM35.649 22.392l-.01-.342 1.935-.061.011.342zM42.126 18.825l.954-1.065.255.23-.953 1.064zM29.064 19.27l-.328-.103.717-2.285.327.103zM31.73 21.209l-.327-.103.718-2.284.327.103zM43.43 10.728l-.373-.315.221-.262.373.314zM43.093 23.196l-.317-.127.889-2.223.317.127zM34.24 8.072l-.251-.232 1.37-1.485.251.233zM41.318 7.152L39.66 5.18l.261-.22 1.659 1.97zM29.462 2.125l-.312-.141L30.003.1l.313.142z"/><path fill="param(fill)" d="M43.058 10.413l-.911-.739.215-.266.911.739zM39.463 3.224l-.139-.313 2.19-.971.138.312zM1.413 4.59L.164 2.864 0 2.982v.241l1.135 1.568zM46.044 8.687l-.144.31.872.404v-.377zM45.71 20.569l.235.249.827-.772v-.469zM46.502 7.519l.27.199v-.565zM46.658 3.064l.114.159v-.241zM46.396 11.591l-.166.3.542.301v-.391zM.728 9.739l.144-.31L0 9.024v.377zM.484 19.592l-.234-.25-.25.235v.469zM.006 7.722l1.068-1.445-.275-.203L0 7.153v.565zM.944 12.719l.167-.299L0 11.801v.391zM14.059 1.391l.316-.126L13.874 0h-.368zM37.512.703l.234.251L38.774 0h-.503zM26.661 1.349l.287-.187L26.192 0h-.408zM13.536 22.536l-.319.126.289.724h.368zM39.195 22.995l-.234-.251-.69.642h.503zM25.648 22.55l-.287.186.423.65h.408zM27.566 10.01l-.9.783-.226-.258.9-.783z"/><path fill="param(fill)" d="M26.665 10.793l-.68.59-.224-.259.68-.59z"/></svg>
