<svg xmlns="http://www.w3.org/2000/svg" width="49.323" height="49.323" viewBox="0 0 49.323 49.323"><path fill="none" d="M0 0h49.323v49.323H0z"/><path fill="none" stroke="black" stroke-width="1" d="M2.92 45.522l1.51 2.794M3.534 48.828l-1.51-2.794M4.288 43.123l-2.895 1.329M3.829 42.202L.933 43.531M10.194 45.226l-2.698 1.687M9.619 44.37L6.92 46.059M13.193 44.734l2.748 1.607M15.443 47.243l-2.749-1.609M13.37 42.76l.63-3.11M12.981 39.477l-.63 3.108M8.771 40.563l-3.096-.756M8.554 41.566l-3.097-.755M1.26 36.602l1.083 2.981M1.382 39.96L.297 36.979M3.46 37.047l2.202-2.294M2.692 36.357l2.203-2.294M14.667 36.372l1.477-2.809M13.737 35.923l1.477-2.811M7.687 37.693l3.173-.303M7.558 36.675l3.173-.306"/><path fill="param(fill)" d="M10.985 34.318l.335.068.305-1.504h-.349zM9.966 34.145l.335.066.27-1.329h-.349zM11.95 47.719l-.335-.068-.339 1.672h.349zM10.931 47.545l-.334-.067-.375 1.845h.349z"/><path fill="none" stroke="black" stroke-width="1" d="M2.92 29.082l1.51 2.794M3.534 32.388l-1.51-2.794M4.288 26.683l-2.895 1.329M3.829 25.762L.933 27.091M10.194 28.785l-2.697 1.688M9.619 27.93L6.92 29.618M13.194 28.294l2.747 1.606M15.443 30.803l-2.749-1.61M13.37 26.319L14 23.21M12.981 23.036l-.63 3.109M8.771 24.122l-3.096-.756M8.554 25.126l-3.096-.756M1.26 20.161l1.083 2.982M1.382 23.52L.297 20.538M3.46 20.606l2.203-2.293M2.692 19.917l2.203-2.294M14.667 19.932l1.477-2.81M13.737 19.482l1.477-2.81M7.686 21.253l3.174-.304M7.558 20.234l3.173-.305"/><path fill="param(fill)" d="M10.985 17.878l.336.067.304-1.504h-.349zM9.966 17.704l.335.067.27-1.33h-.349zM11.95 31.278l-.335-.067-.339 1.672h.349zM10.93 31.104l-.334-.067-.374 1.846h.349z"/><path fill="none" stroke="black" stroke-width="1" d="M2.92 12.641l1.51 2.794M3.533 15.946l-1.51-2.794M4.287 10.241L1.393 11.57M3.828 9.32L.933 10.649M10.193 12.344l-2.697 1.687M9.618 11.488L6.92 13.177M13.193 11.853l2.748 1.606M15.442 14.361l-2.749-1.609M13.369 9.878l.63-3.109M12.98 6.595l-.629 3.108M8.771 7.681l-3.096-.756M8.554 8.685l-3.097-.756M1.26 3.72l1.083 2.981M1.382 7.078L.297 4.097M3.46 4.165l2.202-2.294M2.691 3.476l2.204-2.294M14.666 3.49L16.144.681M13.736 3.041L15.214.23M7.686 4.812l3.173-.304M7.558 3.793l3.172-.306"/><path fill="param(fill)" d="M10.984 1.437l.336.067L11.624 0h-.349zM9.966 1.263l.335.066L10.57 0h-.348zM11.624 16.441l.325-1.604-.335-.067-.339 1.671M10.57 16.441l.36-1.778-.334-.067-.374 1.845"/><path fill="none" stroke="black" stroke-width="1" d="M19.361 45.522l1.51 2.794M19.974 48.828l-1.51-2.794M20.728 43.123l-2.895 1.329M20.269 42.202l-2.895 1.329M26.634 45.226l-2.697 1.687M26.059 44.37l-2.698 1.689M29.634 44.734l2.747 1.607M31.883 47.243l-2.749-1.609M29.81 42.76l.63-3.11M29.421 39.477l-.629 3.108M25.211 40.563l-3.095-.756M24.995 41.566l-3.097-.755M17.701 36.602l1.083 2.981M17.823 39.96l-1.085-2.981M19.901 37.047l2.202-2.294M19.132 36.357l2.203-2.294M31.107 36.372l1.477-2.809M30.177 35.923l1.478-2.811M24.126 37.693l3.174-.303M23.999 36.675l3.172-.306"/><path fill="param(fill)" d="M27.425 34.318l.336.068.304-1.504h-.349zM26.407 34.145l.335.066.269-1.329h-.348zM28.39 47.719l-.335-.068-.339 1.672h.349zM27.371 47.545l-.334-.067-.374 1.845h.348z"/><path fill="none" stroke="black" stroke-width="1" d="M19.361 29.082l1.51 2.794M19.974 32.388l-1.51-2.794M20.728 26.683l-2.895 1.329M20.269 25.762l-2.895 1.329M26.634 28.785l-2.697 1.688M26.059 27.93l-2.698 1.688M29.634 28.294l2.747 1.606M31.883 30.803l-2.749-1.61M29.81 26.319l.63-3.109M29.421 23.036l-.629 3.109M25.211 24.122l-3.095-.756M24.995 25.126l-3.097-.756M17.701 20.161l1.083 2.982M17.823 23.52l-1.085-2.982M19.901 20.606l2.202-2.293M19.132 19.917l2.203-2.294M31.107 19.932l1.477-2.81M30.177 19.482l1.478-2.81M24.126 21.253l3.174-.304M23.999 20.234l3.172-.305"/><path fill="param(fill)" d="M27.425 17.878l.336.067.304-1.504h-.349zM26.407 17.704l.335.067.269-1.33h-.348zM28.39 31.278l-.335-.067-.339 1.672h.349zM27.371 31.104l-.334-.067-.374 1.846h.348z"/><path fill="none" stroke="black" stroke-width="1" d="M19.361 12.641l1.51 2.794M19.974 15.946l-1.51-2.794M20.728 10.241l-2.895 1.329M20.269 9.32l-2.896 1.329M26.634 12.344l-2.697 1.687M26.058 11.488l-2.697 1.689M29.634 11.853l2.747 1.606M31.882 14.361l-2.748-1.609M29.81 9.878l.629-3.109M29.421 6.595l-.63 3.108M25.21 7.681l-3.095-.756M24.994 8.685l-3.096-.756M17.701 3.72l1.082 2.981M17.822 7.078l-1.084-2.981M19.9 4.165l2.203-2.294M19.132 3.476l2.203-2.294M31.107 3.49L32.584.681M30.177 3.041L31.654.23M24.126 4.812l3.174-.304M23.998 3.793l3.173-.306"/><path fill="param(fill)" d="M27.425 1.437l.336.067L28.064 0h-.348zM26.406 1.263l.336.066L27.011 0h-.349zM28.064 16.441l.326-1.604-.336-.067-.338 1.671M27.011 16.441l.36-1.778-.334-.067-.375 1.845"/><path fill="none" stroke="black" stroke-width="1" d="M35.802 45.522l1.51 2.794M36.416 48.828l-1.51-2.794M37.169 43.123l-2.894 1.329M36.71 42.202l-2.895 1.329M43.076 45.226l-2.698 1.687M42.5 44.37l-2.698 1.689M46.076 44.734l2.747 1.607M48.325 47.243l-2.749-1.609M46.251 42.76l.63-3.11M45.863 39.477l-.63 3.108M41.653 40.563l-3.096-.756M41.436 41.566l-3.097-.755M34.142 36.602l1.083 2.981M34.264 39.96l-1.085-2.981M36.342 37.047l2.202-2.294M35.574 36.357l2.203-2.294M47.548 36.372l1.478-2.809M46.619 35.923l1.477-2.811M40.568 37.693l3.174-.303M40.44 36.675l3.173-.306"/><path fill="param(fill)" d="M43.867 34.318l.336.068.303-1.504h-.348zM42.848 34.145l.335.066.27-1.329h-.349zM44.832 47.719l-.335-.068-.339 1.672h.348zM43.812 47.545l-.334-.067-.374 1.845h.349z"/><path fill="none" stroke="black" stroke-width="1" d="M35.802 29.082l1.51 2.794M36.416 32.388l-1.51-2.794M37.169 26.683l-2.894 1.329M36.71 25.762l-2.895 1.329M43.076 28.785l-2.698 1.688M42.5 27.93l-2.698 1.688M46.076 28.294l2.747 1.606M48.325 30.803l-2.749-1.61M46.251 26.319l.63-3.109M45.863 23.036l-.63 3.109M41.653 24.122l-3.096-.756M41.436 25.126l-3.097-.756M34.142 20.161l1.083 2.982M34.264 23.52l-1.085-2.982M36.342 20.606l2.202-2.293M35.574 19.917l2.203-2.294M47.548 19.932l1.478-2.81M46.619 19.482l1.477-2.81M40.568 21.253l3.174-.304M40.44 20.234l3.173-.305"/><path fill="param(fill)" d="M43.867 17.878l.336.067.303-1.504h-.348zM42.848 17.704l.335.067.27-1.33h-.349zM44.832 31.278l-.335-.067-.339 1.672h.348zM43.812 31.104l-.334-.067-.374 1.846h.349z"/><path fill="none" stroke="black" stroke-width="1" d="M35.802 12.641l1.51 2.794M36.416 15.946l-1.51-2.794M37.169 10.241l-2.894 1.329M36.71 9.32l-2.896 1.329M43.076 12.344l-2.698 1.687M42.5 11.488l-2.698 1.689M46.076 11.853l2.747 1.606M48.324 14.361l-2.748-1.609M46.251 9.878l.629-3.109M45.863 6.595l-.631 3.108M41.652 7.681l-3.096-.756M41.435 8.685l-3.096-.756M34.142 3.72l1.082 2.981M34.263 7.078l-1.084-2.981M36.341 4.165l2.203-2.294M35.574 3.476l2.203-2.294M47.548 3.49L49.026.681M46.619 3.041L48.095.23M40.568 4.812l3.174-.304M40.439 3.793l3.174-.306"/><path fill="param(fill)" d="M43.867 1.437l.336.067L44.505 0h-.347zM42.847 1.263l.336.066.27-1.329h-.35zM44.505 16.441l.327-1.604-.336-.067-.338 1.671M43.453 16.441l.359-1.778-.334-.067-.375 1.845"/></svg>
