<svg xmlns="http://www.w3.org/2000/svg" width="52.156" height="52.158" viewBox="0 0 52.156 52.158"><path fill="param(fill)" d="M22.004 27.95l-.221-.522 2.518-1.07.221.521zM2.39 30.211L.152 29.048l.261-.503 2.238 1.163zM.545 40.595L0 37.682l.557-.104.544 2.913zM7.381 52.053l-.085-1.924.565-.025.085 1.924zM10.121 52.073l-.332-.459L11.74 50.2l.332.458zM24.148 33.794l.355.441 1.575-1.272v-.728zM24.797 41.586l-.095.559 1.376.237v-.575zM25.363 48.956l.41.391.305-.322v-.822zM.66 32.42l-.361-.438-.299.249v.736zM1.307 42.627l.104-.557L0 41.806v.577zM1.736 47.16l-.414-.387L0 48.198v.832zM.598 27.571l.557-.099-.246-1.393H.334zM15.873 27.582l.561-.065-.166-1.438h-.569zM18.247 27.288l.387.413 1.719-1.622h-.825zM.646 50.714l-.557.102.245 1.342h.575zM3.088 27.42l-.064-.705 2.744-.25.064.706zM16.15 50.966l-.563.055.112 1.137h.569zM20.558 51.967l-.386-.414-.646.605h.828z"/><path fill="none" stroke="black" stroke-width="1" stroke-miterlimit="500" d="M2.122 32.428l-.738 3.003M.99 43.823L2.064 46.2M12.076 48.586l1.783 2.265M3.792 29.169l1.779 1.983M7.015 28.998l1.67-.909M5.066 33.616l2.147-1.586M2.743 37.842l2.347-2.127M8.233 34.495l2.488 1.646M8.827 30.444l1.497 2.041M11.313 27.408l.736 3.065M13.634 27.55l1.84 1.587M13.038 34.919l.906 2.808M12.53 32.993l2.008-1.868M17.254 30.047l2.263.992M22.771 29.535l1.667 2.016M21.413 31.039l-.254 3.116M16.519 31.72l1.3 2.039M15.389 35.546l2.009.819M19.319 34.78l.564 2.212M21.525 36.764l2.486-1.504M9.73 39.77l1.613-1.815M11.374 40.393l.193 2.013M13.152 40.902l2.322 1.815M16.689 37.897l-.366 2.637M20.338 38.492l-1.782 1.927M22.176 38.183l2.374 2.067M22.517 41.271l-1.274 2.892M18.073 42.577l1.386 2.718M21.128 46.626l2.829-1.813M7.042 42.009l1.697-.993M6.846 36.365l.903 2.667M9.024 43.029l1.358 2.831M12.135 45.976l2.091-1.926M15.359 47.991l1.188-3.376M16.973 49.438l1.977-1.759M21.413 48.359l2.686 1.899M7.413 46.2l2.206 2.926M3.452 47.508l1.161 2.581M4.585 45.749l2.543-2.065M3.51 41.696l1.019 2.411M3.113 40.136l2.771-.398"/><path fill="param(fill)" d="M48.084 27.95l-.222-.521 2.518-1.07.222.521zM28.468 30.21l-2.238-1.163.262-.503 2.237 1.163zM26.622 40.596l-.544-2.914.556-.104.545 2.914zM33.459 52.053l-.086-1.924.566-.025.085 1.924zM36.201 52.074l-.332-.458L37.82 50.2l.332.458zM50.227 33.794l.355.441 1.574-1.272v-.728zM50.876 41.586l-.096.559 1.376.237v-.575zM51.442 48.956l.41.391.304-.322v-.822zM26.739 32.42l-.361-.438-.299.249v.736zM27.386 42.627l.104-.557-1.411-.264v.577zM27.814 47.16l-.414-.387-1.321 1.425v.832zM26.677 27.571l.557-.099-.247-1.393h-.574zM41.951 27.582l.562-.065-.166-1.438h-.57zM44.325 27.288l.388.413 1.718-1.622h-.825zM26.724 50.714l-.556.102.245 1.342h.575zM29.167 27.42l-.064-.707 2.743-.25.065.706zM42.229 50.966l-.563.055.112 1.137h.568zM46.637 51.967l-.387-.414-.646.605h.829z"/><path fill="none" stroke="black" stroke-width="1" stroke-miterlimit="500" d="M28.201 32.428l-.738 3.003M27.069 43.823l1.074 2.377M38.155 48.586l1.783 2.265M29.87 29.169l1.78 1.983M33.094 28.998l1.67-.909M31.145 33.616l2.147-1.586M28.822 37.842l2.346-2.127M34.312 34.495l2.488 1.646M34.905 30.444l1.498 2.041M37.392 27.408l.736 3.065M39.713 27.55l1.84 1.587M39.117 34.919l.906 2.808M38.609 32.993l2.007-1.868M43.333 30.047l2.262.992M48.849 29.535l1.668 2.016M47.492 31.039l-.255 3.116M42.598 31.72l1.3 2.039M41.467 35.546l2.01.819M45.397 34.78l.564 2.212M47.604 36.764l2.486-1.504M35.809 39.77l1.612-1.815M37.452 40.393l.194 2.013M39.23 40.902l2.323 1.815M42.768 37.897l-.367 2.637M46.417 38.492l-1.783 1.927M48.254 38.183l2.375 2.067M48.595 41.271l-1.273 2.892M44.152 42.577l1.386 2.718M47.207 46.626l2.829-1.813M33.121 42.009l1.697-.993M32.924 36.365l.904 2.667M35.103 43.029l1.357 2.831M38.213 45.976l2.092-1.926M41.438 47.991l1.188-3.376M43.051 49.438l1.977-1.759M47.492 48.359l2.685 1.899M33.491 46.2l2.206 2.926M29.531 47.508l1.161 2.581M30.664 45.749l2.543-2.065M29.588 41.696l1.019 2.411M29.191 40.136l2.771-.398"/><path fill="param(fill)" d="M22.004 1.87l-.221-.522L24.3.278l.221.522zM2.388 4.133L.151 2.97l.261-.504L2.65 3.63zM.545 14.517L0 11.604l.556-.104.545 2.913zM7.382 25.975l-.086-1.924.565-.025.086 1.924zM10.122 25.992l-.332-.458 1.951-1.414.332.458zM24.148 7.715l.355.441 1.575-1.272v-.728zM24.797 15.507l-.095.558 1.376.238v-.575zM25.363 22.877l.41.391.305-.322v-.822zM.66 6.341l-.361-.438L0 6.152v.736zM1.307 16.548l.104-.557L0 15.727v.577zM1.736 21.081l-.414-.387L0 22.119v.832zM.598 1.492l.557-.099L.909 0H.334zM15.873 1.503l.561-.065L16.268 0h-.569zM18.247 1.209l.387.413L20.353 0h-.825zM.646 24.635l-.557.102.245 1.342h.575zM3.087 1.342L3.023.636l2.744-.25.064.705zM16.15 24.887l-.563.055.112 1.137h.569zM20.558 25.888l-.386-.414-.646.605h.828z"/><path fill="none" stroke="black" stroke-width="1" stroke-miterlimit="500" d="M2.122 6.349l-.738 3.003M.99 17.744l1.074 2.377M12.076 22.507l1.783 2.264M3.792 3.09l1.779 1.983M7.015 2.919l1.67-.909M5.066 7.537l2.147-1.586M2.743 11.763L5.09 9.636M8.233 8.416l2.488 1.646M8.827 4.365l1.497 2.041M11.313 1.329l.736 3.065M13.634 1.471l1.84 1.587M13.038 8.84l.906 2.807M12.53 6.914l2.008-1.868M17.254 3.968l2.263.992M22.771 3.456l1.667 2.016M21.413 4.96l-.254 3.116M16.519 5.641l1.3 2.039M15.389 9.467l2.009.819M19.319 8.701l.564 2.212M21.525 10.685l2.486-1.504M9.73 13.69l1.613-1.814M11.374 14.313l.193 2.014M13.152 14.823l2.322 1.815M16.689 11.818l-.366 2.637M20.338 12.413l-1.782 1.927M22.176 12.104l2.374 2.067M22.517 15.191l-1.274 2.893M18.073 16.498l1.386 2.718M21.128 20.547l2.829-1.813M7.042 15.93l1.697-.993M6.846 10.286l.903 2.667M9.024 16.95l1.358 2.831M12.135 19.896l2.091-1.925M15.359 21.912l1.188-3.376M16.973 23.358L18.95 21.6M21.413 22.28l2.686 1.899M7.413 20.121l2.206 2.926M3.452 21.429l1.161 2.581M4.585 19.67l2.543-2.066M3.51 15.617l1.019 2.411M3.113 14.057l2.771-.398"/><path fill="param(fill)" d="M48.084 1.87l-.222-.52L50.38.278l.222.522zM28.467 4.132L26.229 2.97l.261-.503 2.238 1.163zM26.622 14.518l-.544-2.914.556-.104.544 2.914zM33.46 25.975l-.086-1.924.565-.025.086 1.924zM36.202 25.994l-.332-.458 1.95-1.415.333.458zM50.227 7.715l.355.441 1.574-1.272v-.728zM50.876 15.507l-.096.558 1.376.238v-.575zM51.442 22.877l.41.391.304-.322v-.822zM26.739 6.341l-.361-.438-.299.249v.736zM27.386 16.548l.104-.557-1.411-.264v.577zM27.814 21.081l-.414-.387-1.321 1.425v.832zM26.677 1.492l.557-.099L26.987 0h-.574zM41.951 1.503l.562-.065L42.347 0h-.57zM44.325 1.209l.388.413L46.431 0h-.825zM26.724 24.635l-.556.102.245 1.342h.575zM29.166 1.34l-.064-.706 2.744-.25.064.706zM42.229 24.887l-.563.055.112 1.137h.568zM46.637 25.888l-.387-.414-.646.605h.829z"/><path fill="none" stroke="black" stroke-width="1" stroke-miterlimit="500" d="M28.201 6.349l-.738 3.003M27.069 17.744l1.074 2.377M38.155 22.507l1.783 2.264M29.87 3.09l1.78 1.983M33.094 2.919l1.67-.909M31.145 7.537l2.147-1.586M28.822 11.763l2.346-2.127M34.312 8.416l2.488 1.646M34.905 4.365l1.498 2.041M37.392 1.329l.736 3.065M39.713 1.471l1.84 1.587M39.117 8.84l.906 2.807M38.609 6.914l2.007-1.868M43.333 3.968l2.262.992M48.849 3.456l1.668 2.016M47.492 4.96l-.255 3.116M42.598 5.641l1.3 2.039M41.467 9.467l2.01.819M45.397 8.701l.564 2.212M47.604 10.685l2.486-1.504M35.809 13.69l1.612-1.814M37.452 14.313l.194 2.014M39.23 14.823l2.323 1.815M42.768 11.818l-.367 2.637M46.417 12.413l-1.783 1.927M48.254 12.104l2.375 2.067M48.595 15.191l-1.273 2.893M44.152 16.498l1.386 2.718M47.207 20.547l2.829-1.813M33.121 15.93l1.697-.993M32.924 10.286l.904 2.667M35.103 16.95l1.357 2.831M38.213 19.896l2.092-1.925M41.438 21.912l1.188-3.376M43.051 23.358l1.977-1.758M47.492 22.28l2.685 1.899M33.491 20.121l2.206 2.926M29.531 21.429l1.161 2.581M30.664 19.67l2.543-2.066M29.588 15.617l1.019 2.411M29.191 14.057l2.771-.398"/></svg>
