<svg xmlns="http://www.w3.org/2000/svg" width="50.457" height="50.457" viewBox="0 0 50.457 50.457"><path fill="none" d="M0 0h50.457v50.457H0z"/><path fill="none" stroke="black" stroke-width="1" d="M4.456 44.626l2.303 4.285M5.392 49.697l-2.303-4.286M6.543 40.943l-4.418 2.039M5.842 39.53l-4.418 2.039M15.554 44.169l-4.116 2.589M14.676 42.857l-4.116 2.59M20.273 43.415l4.192 2.466M23.706 47.264l-4.194-2.468M20.543 40.386l.96-4.771M19.95 35.349l-.962 4.769M13.384 37.013L8.66 35.854M13.053 38.555l-4.726-1.159M1.922 30.937l1.654 4.574M2.109 36.089L.454 31.515M5.28 31.619l3.36-3.518M4.108 30.562l3.361-3.519M22.522 30.584l2.253-4.311M21.103 29.896l2.254-4.314M11.729 32.612l4.842-.466M11.533 31.049l4.842-.469"/><path fill="param(fill)" d="M16.725 27.697l.445.09.515-2.558h-.462zM15.17 27.43l.445.09.462-2.291h-.463zM17.223 50.457h.462l.446-2.211-.445-.09zM15.615 50.457h.462l.5-2.478-.445-.089z"/><path fill="none" stroke="black" stroke-width="1" d="M29.684 44.626l2.303 4.285M30.621 49.697l-2.303-4.286M31.772 40.943l-4.418 2.039M31.071 39.53l-4.418 2.039M40.783 44.169l-4.116 2.589M39.905 42.857l-4.117 2.59M45.501 43.415l4.193 2.466M48.934 47.264l-4.193-2.468M45.772 40.386l.96-4.771M45.178 35.349l-.962 4.769M38.612 37.013l-4.724-1.159M38.282 38.555l-4.727-1.159M27.151 30.937l1.653 4.574M27.337 36.089l-1.655-4.574M30.508 31.619l3.36-3.518M29.336 30.562l3.362-3.519M47.75 30.584l2.253-4.311M46.332 29.896l2.253-4.314M36.958 32.612l4.841-.466M36.761 31.049l4.843-.469"/><path fill="param(fill)" d="M41.954 27.697l.445.09.515-2.558h-.462zM40.399 27.43l.444.09.462-2.291h-.463zM42.452 50.457h.462l.446-2.211-.445-.09zM40.843 50.457h.462l.5-2.478-.444-.089z"/><path fill="none" stroke="black" stroke-width="1" d="M4.456 19.397l2.302 4.286M5.392 24.469l-2.303-4.286M6.543 15.715l-4.418 2.039M5.842 14.302l-4.418 2.039M15.554 18.94l-4.116 2.589M14.676 17.629l-4.117 2.59M20.273 18.187l4.192 2.465M23.706 22.035l-4.194-2.468M20.543 15.157l.96-4.77M19.95 10.12l-.962 4.77M13.383 11.784L8.66 10.625M13.053 13.326l-4.726-1.159M1.922 5.708l1.654 4.574M2.109 10.86L.454 6.286M5.28 6.391l3.359-3.519M4.108 5.333l3.361-3.519M22.522 5.355l2.253-4.31M21.103 4.667L23.357.354M11.729 7.384l4.842-.466M11.533 5.82l4.842-.468"/><path fill="param(fill)" d="M16.725 2.469l.445.09L17.685 0h-.462zM15.17 2.201l.445.09L16.077 0h-.463zM17.223 25.229h.462l.446-2.211-.445-.09zM15.615 25.229h.462l.5-2.479-.445-.089z"/><path fill="none" stroke="black" stroke-width="1" d="M29.684 19.397l2.303 4.286M30.621 24.469l-2.303-4.286M31.772 15.715l-4.418 2.039M31.071 14.302l-4.418 2.039M40.783 18.94l-4.116 2.589M39.905 17.629l-4.117 2.59M45.501 18.187l4.193 2.465M48.934 22.035l-4.193-2.468M45.772 15.157l.96-4.77M45.178 10.12l-.962 4.77M38.612 11.784l-4.724-1.159M38.282 13.326l-4.727-1.159M27.151 5.708l1.653 4.574M27.337 10.86l-1.655-4.574M30.508 6.391l3.36-3.519M29.336 5.333l3.362-3.519M47.75 5.355l2.253-4.31M46.332 4.667L48.585.354M36.958 7.384l4.841-.466M36.761 5.82l4.843-.468"/><path fill="param(fill)" d="M41.954 2.469l.445.09L42.914 0h-.462zM40.399 2.201l.444.09L41.305 0h-.463zM42.452 25.229h.462l.446-2.211-.445-.09zM40.843 25.229h.462l.5-2.479-.444-.089z"/></svg>
