<svg xmlns="http://www.w3.org/2000/svg" width="35.433" height="35.433" viewBox="0 0 35.433 35.433"><path fill="param(fill)" d="M.662 13.8l-.507-.476 2.73-2.908.508.477zM5.355 1.624L5.28.93 9.063.52l.075.693zM2.77 4.672l.1-.691L0 3.567v.704zM1.854 26.141L1.4 25.61 0 26.811v.918zM1.676 33.285l-.678.163.476 1.985h.717zM31.267 34.089l-.448.533.963.811h1.083zM29.14 34.923l-.493-.494-1.003 1.004h.986zM24.326 33.92l-.688-.114-.271 1.627h.707zM16.715 34.212l-.519-.467-1.519 1.688h.939zM34.75 3.486l-.084.692.767.093v-.703zM34.041 28.024l.459.524.933-.816v-.925zM1.93 1.882l.678-.164L2.191 0h-.718zM14.099.635l.517.469L15.617 0h-.942zM26.058 1.612l.494.492L28.66 0h-.987zM34.045 1.919l.453-.531L32.862 0h-1.077zM23.029 1.853l.685.125L24.076 0h-.709z"/><path fill="none" stroke="black" stroke-width="1" stroke-miterlimit="500" d="M2.269 6.393l1.482 3.22M1.627 15.739l.758 3.747M1.455 21.347l2.994 1.537M3.812 26.279l-.992 3.982M4.944 33.483l3.166-2.729M10.351 31.771l1.218 3.401M12.002 29.16l3.608 2.351M18.98 29.77l1.251 3.801M22.063 30.579l2.673 1.192M27.351 29.597l.873 2.959M33.835 30.349l-3.43 1.859"/><path d="M5.357 1.639L5.279.916 9.062.507l.078.723z"/><path fill="none" stroke="black" stroke-width="1" stroke-miterlimit="500" d="M5.873 3.457l1.309 3.249M10.583 3.863l2.44-1.165M16.511 1.598l.087 2.757M18.98 2.438l3.112 2.499M7.21 8.975l3.518-2.701M13.311 5.372l1.805 3.719M17.88 9.178l2.729-2.496M11.192 9.76l3.138 3.886M5.785 11.296l1.627 3.745M22.09 12.082l1.745-4.506M25.753 4.763l1.861 3.571M17.936 12.601l2.265 3.17M24.183 14.142l2.734-2.497M31.507 2.961l-1.595 3.776M29.796 10.223l3.717-2.353M30.199 12.632l3.608 2.555M22.906 15.914l.406 3.715M26.336 19.486l2.499-2.641M30.666 19.717l3.459-1.534M14.389 17.253l2.764-1.948M16.656 19.397l.844 4.158M18.194 27.036l2.764-2.613M19.737 19.631l2.384 2.094M24.501 23.117l3.143 1.134M23.662 25.293l1.771 2.877M30.14 24.223l-.46 4.354M31.916 22.362l2.384 2.669M7.789 27.792l2.911-2.15M6.134 21.75l2.443 2.817M12.962 23.614l1.923 2.699M10.464 21.52l2.471-1.133M5.143 18.992l3.87-.408M11.422 14.867l.059 2.675"/></svg>
