<svg xmlns="http://www.w3.org/2000/svg" width="45.354" height="45.372" viewBox="0 0 45.354 45.372"><path fill="param(fill)" d="M21.17 23.126a.21.21 0 0 0 .029-.086l.083-.805.054-.985.365-.599-.273-.222-.392.643a.209.209 0 0 0-.03.099L20.95 22.2l-.077.745-.421.703.274.219.444-.741zM22.229 39.59l.083-.452a.214.214 0 0 0-.019-.136l-.333-.675-.017-.028-.235-.322.017-.204.375-.435a.194.194 0 0 0 .04-.075l.084-.288a.22.22 0 0 0 .008-.062v-.019l-.056-.709-.333.035.053.668-.06.208-.39.451a.211.211 0 0 0-.048.118l-.03.352-.001.021c0 .045.014.088.039.124 0 0 .252.347.271.37l.294.596-.063.348-.376.713.285.201.391-.741a.198.198 0 0 0 .021-.059zM22.182 7.058l-.677-.663-.513-1.276-.303.161.528 1.317c.01.025.025.047.044.065l.724.709a.17.17 0 0 0 .042.03l.65.323v-.421l-.495-.245zM22.206 29.335l.216.294.255-.249v-.505zM22.635 32.302a.19.19 0 0 0-.057-.081l-1.001-.836-.196.313s.893.744.963.804l.333.925V32.42l-.042-.118zM21.821 43.101l-.123.359.979.444v-.412zM21.606 16.653l-1.157.222.055.381 1.169-.224c.008-.002.016-.004.024-.008l.979-.367v-.405l-1.07.401zM22.154 13.231a.13.13 0 0 0-.043-.035l-.725-.419-.149.345.7.405c.017.019.367.422.739.853v-.546l-.522-.603zM5.708.323l-.569.563H3.48a.153.153 0 0 0-.08.022l-.307.195.16.34.271-.169h1.678a.16.16 0 0 0 .109-.047l.564-.561.961.061.018-.387L5.825.277a.152.152 0 0 0-.117.046zM19.211 1.047l-.428.437a.234.234 0 0 0-.036.051l-.308.642a.219.219 0 0 0-.013.152l.214.801-.052.854-.285.573a.223.223 0 0 0-.022.097v.417h.334v-.366l.282-.566a.212.212 0 0 0 .021-.083l.057-.934v-.014a.23.23 0 0 0-.007-.058l-.203-.756.259-.541.452-.461a.2.2 0 0 0 .055-.117l.11-.868-.33-.057c.002-.002-.085.678-.1.797zM17.018.334l-1.464.597.111.363 1.503-.611a.16.16 0 0 0 .066-.05l.497-.615h-.457c-.142.173-.243.298-.256.316zM21.623 2.729a.177.177 0 0 0-.093.088l-.25.516.292.188.218-.449.607-.233a.169.169 0 0 0 .09-.085l.191-.366V1.64c-.232.446-.422.813-.445.854l-.61.235zM.677 25.263s.855.278.88.285l1.016.538.139-.351-1.028-.545-.024-.01s-.838-.273-.874-.283l-.538-.343-.161.337.554.354a.152.152 0 0 0 .036.018zM.574 20.38l-.471-.064-.039.384s.338.047.419.057l.612.62.546.944.529.872.273-.222-.527-.868-.554-.963a.176.176 0 0 0-.029-.037l-.668-.677a.166.166 0 0 0-.091-.046zM.238 11.37l.093-.128.761-.029a.142.142 0 0 0 .053-.013l.668-.29c.014-.005.027-.015.04-.023l.611-.516a.189.189 0 0 0 .02-.02l.667-.772-.236-.272-.658.761-.582.491-.622.269-.807.032a.161.161 0 0 0-.122.068L0 11.097v.041l.238.232zM1.235 16.841l.036-.385L0 16.292v.39zM.092 7.782l.555.276.529.765.261-.241-.555-.803a.15.15 0 0 0-.064-.056l-.585-.29L0 7.298v.432l.092.052zM.103 14.5c.01.012.021.021.033.03l1.81 1.252.172-.33-1.793-1.241A90.117 90.117 0 0 1 0 13.833v.548l.103.119zM.81 28.619c.037-.021.538-.279.538-.279.01-.004.019-.012.028-.019l.669-.547-.193-.314-.656.535-.542.281a.14.14 0 0 0-.037.027L0 28.879v.497l.81-.757zM.606 34.029c.018.02.039.034.063.043l.585.226.106-.365-.55-.213-.56-.619-.25-.658v.916l.606.67zM17.787 45.314a.212.212 0 0 0 .048-.128l.048-1.139.601-.161-.075-.375-.725.192c-.073.019-.125.092-.129.179l-.05 1.212-.239.277h.471l.05-.057zM1.702 45.326l.212-.297-1.279-1.222a.175.175 0 0 0-.042-.029L0 43.49v.418l.441.215 1.261 1.203zM.265 1.88l1.106-.059a.162.162 0 0 0 .122-.071l.361-.516L1.595.99l-.314.449-1.121.06a.163.163 0 0 0-.136.094L0 1.639v.751c.12-.231.231-.447.265-.51z"/><path fill="none" stroke="black" stroke-width="1" stroke-linejoin="round" stroke-miterlimit="500" d="M10.434.309l1.055-.032.586.416.67-.064L13.3.18l.781.097M19.478.277l-.111.869-.474.483-.308.642.224.834-.057.936-.303.609v.42M18.615 7.19l.668.613.358.899.724.707.558.195 1.029.868M16.639 3.042l.221.9-.11 1.288.39.351.221.773M14.495 3.105l.11.741-.301.548-.584.353-.725.225-.307.609-.221 1.385M10.432 1.918l.334.704-.054 1.031-.083.611.471.675.084 1.06M9.156 8.864l.524-.225.698-.674.919.03M14.774 7.609l1.002.709.835.93.667.967.391.225.501.032M18.893 10.504l.11.579.391.773-.083 1.253.25.709.415.773M16.167 13.398l.751-.644.638-.737.585-.161M13.553 8.607l.444.579.14 1.062.304.739.277.386M13.773 13.688l.638.743.836.481 1.977.868M18.587 16.035l.752.678.416 1.126.442.997.531.932M13.58 19.51l.892-.866 1.025-.355 1.42-.772M11.408 14.912l.862 1.028.501 1.221M10.573 13.336l.388-.773.197-.964.751-.773.444-.869M10.822 18.322l.251.578.027.579M10.935 20.024l.109 1.16.391.642 1.032 1.158.083.355M13.551 22.31l.029-.675.304-.678.501-.547.303-.514M14.772 23.596l.752.676.334.579.474.48.501.162.528.516M16.416 22.728l.305-1.061.557-.966.445-.353.334-.289.39-.87M19.394 21.313l.056 1.415.084.933.331.677M20.589 23.757l.444-.741.083-.803.057-1.029.391-.643M20.004 25.203l.391.58.027.901.083.868.277.419.698.642M13.69 25.173l.224.901-.083 1.414.193.418.475.739.026.772M17.113 29.706l.668-1.124.25-.676.752-1.769M18.03 31.123l1.085.322.695.482.443.707M14.635 32.055l.695-1.446.307-.741.638-.676.251-.964M15.163 34.822l.668.803.334.676.027 1.576.083.291M16.89 32.214l.501.516.276 1.095.668.772.501.577.308.806M12.214 31.896l.669.801.113.549-.056 1.222.223.803v.932M22.009 36.203l.056.71-.084.288-.417.484-.03.354.28.384.334.675-.083.452-.39.74M17.835 37.298l.558.612.221.609.531.773.831.837.084.29.054 1.062.167.16M16.916 41.128l.334.029.28.357.501.127.501-.193.528-.223.223.063M12.885 42.574l.554.611.668.256.889-.128.444.033.308.386M14.164 37.361l.361.709v.739l.277.452.612.899.083.581M9.291 38.391l.557-.416.809.159.612-.773.918-.095M11.101 42.604l.36-.641.251-1.125.558-.419.391-.356-.027-.545-.14-.194M8.181 39.807l.334.514.11.869.698.965.083.997M5.257 42.541l.365.16.584.902.335.193 1.251.063.305.484M4.59 40.16l.361-.868 1.309-.129.474-.804M6.733 37.073l.642-1.383.638-.48.251-1.031.333-.676.167-1.159M10.014 31.606l.335 1.189.056.997-.084.419.195.418.447.581.054.577M1.725 37.298l.698-.611.891-.61.528-.549.307-.16.194-.417.08-.483.418-.097.861.258M1.615 39.453l.611.676.224.643.194 1.126 1.002 1.738M9.903 29.579l.893.547 1.055.515M7.877 27.906l1.111.128.805-.128.362-.482.695-.453M7.262 24.207l.029.354.221.548-.027.416-.167.193M8.377 23.371l.555.29.581.644.668.256.865.194M2.171 24.305l1.366-.162.778-.482M4.59 27.295l.444-.807.391-.675.779-.769.224-.418M2.7 32.859l.224-.515-.03-1.029-.194-.384.167-.742.445-.74.029-.481M2.979 21.955l.555.322.532.129.524-.259.862.13M.918 19.832l.611-.483.502-.641.641-.452.583-.225.475-.514.194-.548M5.619 17.773l.25.838.058.642v.483l.36.483.334.707v.417M7.958 20.701l.03-.805.416-.74.696-.512.277-.837.36-1.031-.029-.418M2.395 14.171v-.676l.223-.677.304-.481.584-.641.448-.515.11-.451-.11-.386M4.924 9.957l.501.195.167.482.027 1.639.197.545.334.419M6.872 9.635l.752.322.584.45.614.452.555.322M5.036 7.867l.696.354.752.129.64-.257.388-.354.418-.225.557-.033M5.564 15.298h.977l.667-.321.638-.386.53-.066.806.066M2.95 2.559l.308.58-.057.611-.251.451-.306.386-.167.611.057.448.611 1.062M3.842 3.364l.11.706.14.388.304.129.946.063.417.035.168.159.139.418M7.512 5.517l.14-.545.308-.676.026-.868.027-.516.084-.128.333-.128.557-.323.224-.318M5.816 28.39l.555.769.223 1.063-.027 1.639.251.483"/><path fill="param(fill)" d="M43.848 23.126a.21.21 0 0 0 .029-.086l.083-.805.054-.985.365-.599-.273-.222-.392.643a.209.209 0 0 0-.03.099l-.057 1.029-.077.745-.421.703.274.219.445-.741zM44.906 39.59l.083-.452a.214.214 0 0 0-.019-.136l-.333-.675-.017-.028-.235-.322.017-.204.375-.435a.194.194 0 0 0 .04-.075l.084-.288a.22.22 0 0 0 .008-.062v-.019l-.056-.709-.333.035.053.668-.06.208-.39.451a.211.211 0 0 0-.048.118l-.03.352-.001.021c0 .045.014.088.039.124 0 0 .252.347.271.37l.294.596-.063.348-.376.713.285.201.391-.741a.198.198 0 0 0 .021-.059zM44.859 7.058l-.677-.663-.513-1.276-.303.161.528 1.317c.01.025.025.047.044.065l.724.709a.17.17 0 0 0 .042.03l.65.323v-.421l-.495-.245zM44.883 29.335l.216.294.255-.249v-.505zM45.313 32.302a.19.19 0 0 0-.057-.081l-1.001-.836-.196.313s.893.744.963.804l.333.925V32.42l-.042-.118zM44.498 43.101l-.123.359.979.444v-.412zM44.284 16.653l-1.157.222.055.381 1.169-.224c.008-.002.016-.004.024-.008l.979-.367v-.405l-1.07.401zM44.832 13.231a.13.13 0 0 0-.043-.035l-.725-.419-.149.345.7.405c.017.019.367.422.739.853v-.546l-.522-.603zM28.385.323l-.569.563h-1.659a.153.153 0 0 0-.08.022l-.308.193.16.34.271-.169h1.678a.16.16 0 0 0 .109-.047l.564-.561.961.061.018-.387-1.028-.063a.162.162 0 0 0-.117.048zM41.888 1.047l-.428.437a.234.234 0 0 0-.036.051l-.308.642a.219.219 0 0 0-.013.152l.214.801-.052.854-.285.573a.223.223 0 0 0-.022.097v.417h.334v-.366l.282-.566a.212.212 0 0 0 .021-.083l.057-.934v-.014a.23.23 0 0 0-.007-.058l-.203-.756.259-.541.452-.461a.2.2 0 0 0 .055-.117l.11-.868-.33-.057c.002-.002-.085.678-.1.797zM39.695.334l-1.464.597.111.363 1.503-.611a.16.16 0 0 0 .066-.05l.497-.615h-.457c-.141.173-.243.298-.256.316zM44.3 2.729a.177.177 0 0 0-.093.088l-.25.516.292.188.218-.449.607-.233a.169.169 0 0 0 .09-.085l.191-.366V1.64c-.232.446-.422.813-.445.854l-.61.235zM23.354 25.263s.855.278.88.285l1.016.538.139-.351-1.028-.545-.024-.01s-.838-.273-.874-.283l-.538-.343-.161.337.554.354c.012.007.023.014.036.018zM23.251 20.38l-.471-.064-.039.384s.338.047.419.057l.612.62.546.944.529.872.273-.222-.527-.868-.556-.963a.176.176 0 0 0-.029-.037l-.668-.677a.154.154 0 0 0-.089-.046zM22.916 11.37l.093-.128.761-.029a.142.142 0 0 0 .053-.013l.668-.29c.014-.005.027-.015.04-.023l.611-.516a.189.189 0 0 0 .02-.02l.667-.772-.236-.272-.658.761-.582.491-.622.269-.807.032a.161.161 0 0 0-.122.068l-.124.169v.041l.238.232zM23.912 16.841l.037-.385-1.272-.164v.39zM22.77 7.782l.555.276.529.765.261-.241-.555-.803a.166.166 0 0 0-.064-.057l-.585-.29-.233-.135v.432l.092.053zM22.78 14.5c.01.012.021.021.033.03l1.81 1.252.172-.33-1.793-1.241-.324-.378v.548l.102.119zM23.487 28.619c.037-.021.538-.279.538-.279.01-.004.019-.012.028-.019l.669-.547-.192-.314-.656.535-.542.281a.14.14 0 0 0-.037.027l-.617.575v.497l.809-.756zM23.284 34.029c.018.02.039.034.063.043l.585.226.106-.365-.55-.213-.56-.619-.25-.658v.916l.606.67zM40.464 45.314a.212.212 0 0 0 .048-.128l.048-1.139.601-.161-.075-.375-.725.192c-.073.019-.125.092-.129.179l-.05 1.212-.239.277h.471l.05-.057zM24.379 45.326l.212-.297-1.279-1.222a.175.175 0 0 0-.042-.029l-.593-.288v.418l.441.215 1.261 1.203zM22.942 1.88l1.106-.059a.162.162 0 0 0 .123-.071l.361-.516-.26-.244-.314.449-1.121.06a.163.163 0 0 0-.136.094l-.024.046v.751l.265-.51z"/><path fill="none" stroke="black" stroke-width="1" stroke-linejoin="round" stroke-miterlimit="500" d="M33.111.309l1.056-.032.585.416.67-.064.555-.449.781.097M42.155.277l-.111.869-.474.483-.307.642.223.834-.056.936-.304.609v.42M41.292 7.19l.668.613.358.899.724.707.558.195 1.029.868M39.316 3.042l.221.9-.11 1.288.39.351.221.773M37.172 3.105l.111.741-.302.548-.584.353-.725.225-.307.609-.22 1.385M33.109 1.918l.334.704-.054 1.031-.083.611.471.675.084 1.06M31.833 8.864l.524-.225.698-.674.919.03M37.451 7.609l1.002.709.835.93.668.967.39.225.501.032M41.57 10.504l.111.579.39.773-.083 1.253.25.709.415.773M38.844 13.398l.751-.644.638-.737.585-.161M36.23 8.607l.444.579.14 1.062.305.739.277.386M36.451 13.688l.637.743.836.481 1.977.868M41.265 16.035l.751.678.417 1.126.441.997.531.932M36.257 19.51l.892-.866 1.025-.355 1.42-.772M34.085 14.912l.862 1.028.501 1.221M33.25 13.336l.388-.773.197-.964.751-.773.444-.869M33.5 18.322l.25.578.027.579M33.612 20.024l.11 1.16.39.642 1.033 1.158.083.355M36.228 22.31l.029-.675.305-.678.501-.547.303-.514M37.449 23.596l.752.676.334.579.474.48.501.162.528.516M39.093 22.728l.305-1.061.558-.966.444-.353.334-.289.391-.87M42.071 21.313l.056 1.415.084.933.331.677M43.267 23.757l.443-.741.083-.803.057-1.029.392-.643M42.681 25.203l.391.58.027.901.083.868.277.419.699.642M36.368 25.173l.223.901-.083 1.414.193.418.475.739.026.772M39.79 29.706l.668-1.124.25-.676.752-1.769M40.707 31.123l1.085.322.695.482.443.707M37.313 32.055l.694-1.446.307-.741.638-.676.251-.964M37.84 34.822l.668.803.334.676.027 1.576.083.291M39.567 32.214l.501.516.277 1.095.668.772.501.577.307.806M34.891 31.896l.669.801.113.549-.056 1.222.223.803v.932M44.686 36.203l.057.71-.084.288-.417.484-.031.354.28.384.335.675-.083.452-.391.74M40.512 37.298l.558.612.221.609.531.773.831.837.084.29.054 1.062.167.16M39.593 41.128l.334.029.28.357.501.127.501-.193.528-.223.223.063M35.563 42.574l.554.611.668.256.888-.128.444.033.308.386M36.841 37.361l.362.709v.739l.276.452.612.899.083.581M31.968 38.391l.557-.416.809.159.612-.773.918-.095M33.778 42.604l.361-.641.251-1.125.557-.419.391-.356-.026-.545-.141-.194M30.858 39.807l.334.514.11.869.698.965.083.997M27.935 42.541l.364.16.584.902.335.193 1.251.063.305.484M27.268 40.16l.36-.868 1.31-.129.474-.804M29.411 37.073l.642-1.383.637-.48.251-1.031.333-.676.167-1.159M32.691 31.606l.335 1.189.057.997-.084.419.194.418.448.581.053.577M24.402 37.298l.698-.611.891-.61.528-.549.307-.16.194-.417.08-.483.418-.097.861.258M24.292 39.453l.611.676.224.643.194 1.126 1.002 1.738M32.581 29.579l.892.547 1.055.515M30.554 27.906l1.112.128.805-.128.361-.482.695-.453M29.939 24.207l.029.354.221.548-.026.416-.167.193M31.055 23.371l.554.29.581.644.668.256.865.194M24.849 24.305l1.365-.162.778-.482M27.268 27.295l.443-.807.391-.675.779-.769.224-.418M25.377 32.859l.224-.515-.03-1.029-.194-.384.167-.742.445-.74.029-.481M25.657 21.955l.554.322.532.129.525-.259.861.13M23.596 19.832l.611-.483.501-.641.641-.452.584-.225.475-.514.194-.548M28.296 17.773l.25.838.058.642v.483l.36.483.334.707v.417M30.635 20.701l.03-.805.417-.74.695-.512.277-.837.361-1.031-.03-.418M25.072 14.171v-.676l.223-.677.304-.481.585-.641.447-.515.11-.451-.11-.386M27.601 9.957l.501.195.167.482.027 1.639.197.545.335.419M29.549 9.635l.752.322.584.45.615.452.554.322M27.713 7.867l.696.354.752.129.64-.257.388-.354.418-.225.557-.033M28.242 15.298h.976l.667-.321.638-.386.531-.066.805.066M25.627 2.559l.308.58-.057.611-.251.451-.306.386-.167.611.057.448.611 1.062M26.519 3.364l.11.706.141.388.304.129.945.063.417.035.168.159.14.418M30.189 5.517l.141-.545.307-.676.027-.868.026-.516.084-.128.333-.128.558-.323.224-.318M28.493 28.39l.555.769.223 1.063-.026 1.639.251.483"/></svg>
