<svg xmlns="http://www.w3.org/2000/svg" width="56.694" height="56.693" viewBox="0 0 56.694 56.693"><path fill="none" stroke="black" stroke-width="1" stroke-linecap="round" d="M12.544 40.983l1.441-3.325M9.954 35.434l2.87-1.35M7.26 32.773l.577-3.908M7.424 40.999l2.53 2.193M4.536 37.18l-2.761 1.835M4.801 34.128l-2.567-2.347M19.333 33.842l-2.089-2.156M21.853 32.675l.911-3.329M24.5 36.312l2.877.165M21.954 36.88l-.507 3.595M19.404 37.289l-2.05 2.541M5.938 46.689l-1.213-3.157M8.941 47.99l2.871-1.759M9.785 51.462l2.7 2.53M6.138 52.295l-1.92 3.048M4.556 49.605l-3.374-.843M24.487 48.99l2.973-1.334M22.508 51.779l3.268 2.625M15.416 48.535l1.233 2.759M18.651 45.989l-3.128-1.444M21.765 45.725l2.025-2.193"/><g fill="param(fill)"><path d="M3.724 51.607a.332.332 0 1 1-.666 0 .333.333 0 1 1 .666 0M1.696 54.831a.333.333 0 1 1-.667.001.333.333 0 0 1 .667-.001M7.67 53.664a.332.332 0 1 1-.666 0 .333.333 0 1 1 .666 0M7.753 49.94a.333.333 0 1 1-.666 0 .333.333 0 0 1 .666 0M9.838 56.026a.333.333 0 1 1-.667 0 .333.333 0 1 1 .667 0M14.062 55.276a.333.333 0 1 1-.666 0 .333.333 0 0 1 .666 0M14.674 51.802a.333.333 0 1 1-.667.001.333.333 0 0 1 .667-.001M12.145 49.245a.333.333 0 1 1-.666.002.333.333 0 0 1 .666-.002M12.978 44.521a.333.333 0 1 1-.666.002.333.333 0 0 1 .666-.002M15.007 41.52a.333.333 0 1 1-.667 0 .333.333 0 1 1 .667 0M10.171 40.352a.333.333 0 1 1-.667.003.333.333 0 0 1 .667-.003M8.449 45.049a.333.333 0 1 1-.667.001.333.333 0 0 1 .667-.001M4.391 47.55a.333.333 0 1 1-.666.002.333.333 0 0 1 .666-.002M1 45.521a.333.333 0 1 1-.667 0 .333.333 0 1 1 .667 0M1.751 41.241a.332.332 0 1 1-.666 0 .333.333 0 1 1 .666 0M5.169 40.103a.333.333 0 1 1-.666 0 .333.333 0 0 1 .666 0M7.643 37.406a.333.333 0 1 1-.666.002.333.333 0 0 1 .666-.002M6.976 34.738a.333.333 0 1 1-.666.002.333.333 0 0 1 .666-.002M2.029 34.905a.333.333 0 1 1-.666 0 .333.333 0 0 1 .666 0M3.891 29.681a.333.333 0 1 1-.666 0 .333.333 0 0 1 .666 0M12.784 29.848a.332.332 0 1 1-.666 0 .333.333 0 1 1 .666 0M19.565 29.348a.333.333 0 1 1-.666 0 .333.333 0 0 1 .666 0M15.174 32.404a.333.333 0 1 1-.666 0 .333.333 0 0 1 .666 0M13.339 36.017a.333.333 0 1 1-.666 0 .333.333 0 0 1 .666 0M17.12 36.155a.334.334 0 1 1-.667.003.334.334 0 0 1 .667-.003M20.927 35.1a.333.333 0 1 1-.667.001.333.333 0 0 1 .667-.001M10.505 32.098a.334.334 0 1 1-.667.003.334.334 0 0 1 .667-.003M24.317 31.32a.333.333 0 1 1 0 0M24.29 38.63a.333.333 0 1 1-.666 0 .333.333 0 0 1 .666 0M19.398 42.325a.332.332 0 0 1-.333.333.332.332 0 1 1 0-.666c.184 0 .333.15.333.333M20.593 47.578a.333.333 0 1 1-.667 0 .333.333 0 1 1 .667 0M17.536 47.384a.332.332 0 1 1-.666 0 .333.333 0 1 1 .666 0M19.065 50.885a.333.333 0 1 1-.667.001.333.333 0 0 1 .667-.001M17.981 53.47a.333.333 0 1 1-.666 0 .333.333 0 0 1 .666 0M21.26 54.331a.333.333 0 1 1-.667 0 .333.333 0 1 1 .667 0M24.929 55.832a.333.333 0 1 1-.668 0 .333.333 0 1 1 .668 0M22.289 50.329a.332.332 0 0 1-.334.333.332.332 0 1 1 0-.666c.184 0 .334.15.334.333M28.263 52.747a.333.333 0 1 1-.666.002.333.333 0 0 1 .666-.002M26.151 50.496a.332.332 0 1 1-.666 0 .333.333 0 1 1 .666 0M25.485 46.077a.332.332 0 0 1-.334.333.333.333 0 1 1 0-.667c.184 0 .334.15.334.334M24.317 41.52a.333.333 0 1 1-.333-.334c.185 0 .333.149.333.334M27.736 39.213a.333.333 0 1 1-.667.001.333.333 0 0 1 .667-.001M26.652 33.738a.333.333 0 1 1-.666 0 .333.333 0 0 1 .666 0M27.346 29.875a.332.332 0 0 1-.333.333.332.332 0 1 1 0-.666c.184 0 .333.149.333.333M26.898 41.66a.223.223 0 0 0-.222.386l1.671.961v-.513l-1.449-.834zM1.759 43.506L0 42.494v.513l1.537.885a.222.222 0 0 0 .304-.082.224.224 0 0 0-.082-.304M14.82 29.127a.223.223 0 0 0 .321.308l1.044-1.089h-.616l-.749.781zM17.53 55.291a.222.222 0 1 0-.32-.307l-1.641 1.71h.616l1.345-1.403z"/></g><path fill="none" stroke="black" stroke-width="1" stroke-linecap="round" d="M40.891 40.983l1.441-3.325M38.3 35.434l2.871-1.35M35.607 32.773l.577-3.908M35.771 40.999l2.529 2.193M32.882 37.18l-2.759 1.835M33.148 34.128l-2.567-2.347M47.679 33.842l-2.089-2.156M50.2 32.675l.911-3.329M52.847 36.312l2.877.165M50.3 36.88l-.507 3.595M47.75 37.289l-2.049 2.541M34.285 46.689l-1.213-3.157M37.288 47.99l2.87-1.759M38.132 51.462l2.7 2.53M34.485 52.295l-1.92 3.048M32.903 49.605l-3.374-.843M52.833 48.99l2.974-1.334M50.855 51.779l3.268 2.625M43.762 48.535l1.234 2.759M46.998 45.989l-3.128-1.444M50.112 45.725l2.024-2.193"/><g fill="param(fill)"><path d="M32.071 51.607a.332.332 0 0 1-.333.333.332.332 0 1 1 0-.666c.183 0 .333.15.333.333M30.042 54.831a.333.333 0 1 1-.667.001.333.333 0 0 1 .667-.001M36.017 53.664a.332.332 0 0 1-.334.333.332.332 0 1 1 0-.666c.186 0 .334.149.334.333M36.1 49.94a.333.333 0 1 1-.666 0 .333.333 0 0 1 .666 0M38.185 56.026a.333.333 0 1 1-.668 0 .334.334 0 1 1 .668 0M42.409 55.276a.333.333 0 1 1-.666 0 .333.333 0 0 1 .666 0M43.021 51.802a.334.334 0 1 1-.668 0 .334.334 0 0 1 .668 0M40.492 49.245a.333.333 0 1 1-.667.001.333.333 0 0 1 .667-.001M41.325 44.521a.333.333 0 1 1-.666.002.333.333 0 0 1 .666-.002M43.353 41.52a.332.332 0 1 1-.666 0 .333.333 0 1 1 .666 0M38.518 40.352a.333.333 0 1 1-.667.003.333.333 0 0 1 .667-.003M36.795 45.049a.333.333 0 1 1-.667.001.333.333 0 0 1 .667-.001M32.738 47.55a.333.333 0 1 1-.667.001.333.333 0 0 1 .667-.001M29.347 45.521a.333.333 0 1 1 0 0M30.097 41.241c0 .185-.148.333-.333.333s-.333-.148-.333-.333a.332.332 0 1 1 .666 0M33.515 40.103a.332.332 0 1 1-.666 0 .333.333 0 1 1 .666 0M35.99 37.406a.334.334 0 1 1-.668 0 .334.334 0 0 1 .668 0M35.322 34.738a.332.332 0 1 1-.666 0 .332.332 0 1 1 .666 0M30.375 34.905a.333.333 0 1 1-.666 0 .333.333 0 0 1 .666 0M32.238 29.681a.333.333 0 1 1-.666 0 .333.333 0 0 1 .666 0M41.13 29.848a.332.332 0 1 1-.666 0 .332.332 0 1 1 .666 0M47.912 29.348a.333.333 0 1 1-.666 0 .333.333 0 0 1 .666 0M43.521 32.404a.334.334 0 1 1-.667-.001.334.334 0 0 1 .667.001M41.686 36.017a.333.333 0 1 1-.666 0 .333.333 0 0 1 .666 0M45.466 36.155a.334.334 0 1 1-.667.003.334.334 0 0 1 .667-.003M49.274 35.1a.333.333 0 1 1-.667.001.333.333 0 0 1 .667-.001M38.852 32.098a.334.334 0 1 1-.667.003.334.334 0 0 1 .667-.003M52.664 31.32a.333.333 0 1 1 0 0M52.636 38.63a.333.333 0 1 1-.666 0 .333.333 0 0 1 .666 0M47.745 42.325a.332.332 0 0 1-.333.333.332.332 0 1 1 0-.666c.183 0 .333.15.333.333M48.94 47.578a.333.333 0 1 1-.667 0 .333.333 0 1 1 .667 0M45.882 47.384a.332.332 0 1 1-.666 0 .333.333 0 1 1 .666 0M47.412 50.885a.333.333 0 1 1-.667.001.333.333 0 0 1 .667-.001M46.328 53.47a.333.333 0 1 1-.666 0 .333.333 0 0 1 .666 0M49.607 54.331a.333.333 0 1 1-.667 0 .333.333 0 1 1 .667 0M53.276 55.832a.333.333 0 1 1-.668 0 .333.333 0 1 1 .668 0M50.635 50.329a.332.332 0 0 1-.334.333.332.332 0 1 1 0-.666c.185 0 .334.15.334.333M56.61 52.747a.333.333 0 1 1-.666.002.333.333 0 0 1 .666-.002M54.498 50.496a.332.332 0 1 1-.666 0 .333.333 0 1 1 .666 0M53.832 46.077a.332.332 0 0 1-.334.333.333.333 0 1 1 0-.667c.184 0 .334.15.334.334M52.664 41.52a.333.333 0 1 1-.333-.334c.185 0 .333.149.333.334M56.083 39.213a.333.333 0 1 1-.667.001.333.333 0 0 1 .667-.001M54.999 33.738a.333.333 0 1 1-.666 0 .333.333 0 0 1 .666 0M55.693 29.875a.332.332 0 0 1-.333.333.332.332 0 1 1 0-.666c.183 0 .333.149.333.333M55.245 41.66a.223.223 0 0 0-.222.386l1.671.961v-.513l-1.449-.834zM30.105 43.506l-1.758-1.012v.513l1.536.885a.222.222 0 1 0 .222-.386M43.167 29.127a.223.223 0 0 0 .321.308l1.044-1.089h-.616l-.749.781zM45.876 55.291a.222.222 0 1 0-.32-.307l-1.641 1.71h.616l1.345-1.403z"/></g><path fill="none" stroke="black" stroke-width="1" stroke-linecap="round" d="M12.544 12.637l1.441-3.325M9.954 7.087l2.871-1.35M7.26 4.427L7.837.519M7.424 12.652l2.53 2.194M4.536 8.833l-2.761 1.835M4.801 5.781L2.234 3.435M19.333 5.495l-2.089-2.156M21.853 4.328l.911-3.329M24.5 7.965l2.877.165M21.954 8.533l-.507 3.595M19.404 8.942l-2.05 2.541M5.938 18.343l-1.213-3.157M8.941 19.644l2.87-1.759M9.786 23.115l2.699 2.531M6.138 23.948l-1.92 3.048M4.556 21.259l-3.374-.844M24.487 20.644l2.973-1.334M22.508 23.433l3.268 2.625M15.416 20.188l1.233 2.759M18.651 17.643l-3.128-1.445M21.765 17.378l2.025-2.192"/><g fill="param(fill)"><path d="M3.724 23.261a.332.332 0 0 1-.333.333.332.332 0 1 1 0-.666c.184 0 .333.149.333.333M1.696 26.484a.333.333 0 1 1-.667.001.333.333 0 0 1 .667-.001M7.67 25.317a.332.332 0 0 1-.334.333.332.332 0 1 1 0-.666c.186 0 .334.15.334.333M7.753 21.594a.333.333 0 1 1-.666 0 .333.333 0 0 1 .666 0M9.838 27.68a.333.333 0 1 1-.668 0 .334.334 0 1 1 .668 0M14.062 26.93a.333.333 0 1 1-.666 0 .333.333 0 0 1 .666 0M14.674 23.455a.334.334 0 1 1-.668 0 .334.334 0 0 1 .668 0M12.145 20.898a.333.333 0 1 1-.667.001.333.333 0 0 1 .667-.001M12.978 16.174a.333.333 0 1 1-.666.002.333.333 0 0 1 .666-.002M15.006 13.173a.332.332 0 1 1-.666 0 .333.333 0 1 1 .666 0M10.171 12.005a.333.333 0 1 1-.667.003.333.333 0 0 1 .667-.003M8.449 16.702a.333.333 0 1 1-.667.001.333.333 0 0 1 .667-.001M4.391 19.203a.333.333 0 1 1-.667.001.333.333 0 0 1 .667-.001M1 17.175a.333.333 0 1 1-.667 0 .333.333 0 1 1 .667 0M1.751 12.895a.332.332 0 1 1-.666 0 .333.333 0 1 1 .666 0M5.168 11.756a.332.332 0 1 1-.666 0 .333.333 0 1 1 .666 0M7.643 9.06a.334.334 0 1 1-.668 0 .334.334 0 0 1 .668 0M6.975 6.392a.332.332 0 1 1-.666 0 .332.332 0 1 1 .666 0M2.029 6.559a.333.333 0 1 1-.666 0 .333.333 0 0 1 .666 0M3.891 1.334a.333.333 0 1 1-.666 0 .333.333 0 0 1 .666 0M12.784 1.501a.332.332 0 1 1-.666 0 .332.332 0 1 1 .666 0M19.565 1.001a.333.333 0 1 1-.666 0 .333.333 0 0 1 .666 0M15.174 4.058a.334.334 0 1 1-.667-.001.334.334 0 0 1 .667.001M13.339 7.67a.333.333 0 1 1-.666 0 .333.333 0 0 1 .666 0M17.12 7.809a.334.334 0 1 1-.667.003.334.334 0 0 1 .667-.003M20.927 6.753a.333.333 0 1 1-.667.001.333.333 0 0 1 .667-.001M10.505 3.751a.334.334 0 1 1-.667.003.334.334 0 0 1 .667-.003M24.317 2.974a.334.334 0 1 1 0 0M24.29 10.283a.333.333 0 1 1-.666 0 .333.333 0 0 1 .666 0M19.398 13.979a.332.332 0 0 1-.333.333.332.332 0 1 1 0-.666c.184 0 .333.149.333.333M20.593 19.231a.333.333 0 1 1-.667 0 .333.333 0 1 1 .667 0M17.536 19.037a.332.332 0 1 1-.666 0 .333.333 0 1 1 .666 0M19.065 22.538a.333.333 0 1 1-.667.001.333.333 0 0 1 .667-.001M17.981 25.123a.333.333 0 1 1-.666 0 .333.333 0 0 1 .666 0M21.26 25.984a.333.333 0 1 1-.667 0 .333.333 0 1 1 .667 0M24.929 27.485a.333.333 0 1 1-.668 0 .333.333 0 1 1 .668 0M22.289 21.982a.332.332 0 0 1-.334.333.332.332 0 1 1 0-.666c.184 0 .334.15.334.333M28.263 24.4a.333.333 0 1 1-.666.002.333.333 0 0 1 .666-.002M26.151 22.149a.332.332 0 1 1-.666 0 .333.333 0 1 1 .666 0M25.485 17.73a.332.332 0 0 1-.334.333.333.333 0 1 1 0-.667c.184 0 .334.15.334.334M24.317 13.173a.333.333 0 1 1-.333-.334c.185 0 .333.149.333.334M27.736 10.866a.333.333 0 1 1-.667.001.333.333 0 0 1 .667-.001M26.652 5.392a.333.333 0 1 1-.666 0 .333.333 0 0 1 .666 0M27.346 1.528a.332.332 0 0 1-.333.333.332.332 0 1 1 0-.666c.184 0 .333.15.333.333M26.898 13.313a.223.223 0 0 0-.222.386l1.671.961v-.513l-1.449-.834zM1.759 15.159L0 14.147v.513l1.537.885a.222.222 0 0 0 .304-.082.224.224 0 0 0-.082-.304M14.82.78a.223.223 0 0 0 .321.308L16.185 0h-.616l-.749.78zM17.53 26.944a.222.222 0 1 0-.32-.307l-1.641 1.71h.616l1.345-1.403z"/></g><path fill="none" stroke="black" stroke-width="1" stroke-linecap="round" d="M40.891 12.637l1.441-3.325M38.3 7.087l2.871-1.35M35.607 4.427l.577-3.908M35.771 12.652l2.529 2.194M32.882 8.833l-2.759 1.835M33.148 5.781l-2.567-2.346M47.679 5.495L45.59 3.339M50.2 4.328l.911-3.329M52.847 7.965l2.877.165M50.3 8.533l-.507 3.595M47.75 8.942l-2.049 2.541M34.285 18.343l-1.213-3.157M37.288 19.644l2.87-1.759M38.132 23.115l2.7 2.531M34.485 23.948l-1.92 3.048M32.903 21.259l-3.374-.844M52.833 20.644l2.974-1.334M50.855 23.433l3.268 2.625M43.762 20.188l1.234 2.759M46.998 17.643l-3.128-1.445M50.112 17.378l2.024-2.192"/><g fill="param(fill)"><path d="M32.071 23.261a.332.332 0 0 1-.333.333.332.332 0 1 1 0-.666c.183 0 .333.149.333.333M30.042 26.484a.333.333 0 1 1-.667.001.333.333 0 0 1 .667-.001M36.017 25.317a.332.332 0 0 1-.334.333.332.332 0 1 1 0-.666c.186 0 .334.15.334.333M36.1 21.594a.333.333 0 1 1-.666 0 .333.333 0 0 1 .666 0M38.185 27.68a.333.333 0 1 1-.668 0 .334.334 0 1 1 .668 0M42.409 26.93a.333.333 0 1 1-.666 0 .333.333 0 0 1 .666 0M43.021 23.455a.334.334 0 1 1-.668 0 .334.334 0 0 1 .668 0M40.492 20.898a.333.333 0 1 1-.667.001.333.333 0 0 1 .667-.001M41.325 16.174a.333.333 0 1 1-.666.002.333.333 0 0 1 .666-.002M43.353 13.173a.332.332 0 1 1-.666 0 .333.333 0 1 1 .666 0M38.518 12.005a.333.333 0 1 1-.667.003.333.333 0 0 1 .667-.003M36.795 16.702a.333.333 0 1 1-.667.001.333.333 0 0 1 .667-.001M32.738 19.203a.333.333 0 1 1-.667.001.333.333 0 0 1 .667-.001M29.347 17.175a.333.333 0 1 1-.333-.334c.185 0 .333.149.333.334M30.097 12.895c0 .185-.148.333-.333.333s-.333-.148-.333-.333a.332.332 0 1 1 .666 0M33.515 11.756a.332.332 0 1 1-.666 0 .333.333 0 1 1 .666 0M35.99 9.06a.334.334 0 1 1-.668 0 .334.334 0 0 1 .668 0M35.322 6.392a.332.332 0 1 1-.666 0c0-.185.148-.333.333-.333s.333.148.333.333M30.375 6.559a.333.333 0 1 1-.666 0 .333.333 0 0 1 .666 0M32.238 1.334a.333.333 0 1 1-.666 0 .333.333 0 0 1 .666 0M41.13 1.501a.332.332 0 1 1-.666 0 .332.332 0 1 1 .666 0M47.912 1.001a.333.333 0 1 1-.666 0 .333.333 0 0 1 .666 0M43.521 4.058a.334.334 0 1 1-.667-.001.334.334 0 0 1 .667.001M41.686 7.67a.333.333 0 1 1-.666 0 .333.333 0 0 1 .666 0M45.466 7.809a.334.334 0 1 1-.667.003.334.334 0 0 1 .667-.003M49.274 6.753a.333.333 0 1 1-.667.001.333.333 0 0 1 .667-.001M38.852 3.751a.334.334 0 1 1-.667.003.334.334 0 0 1 .667-.003M52.664 2.974a.333.333 0 1 1-.333-.334c.185 0 .333.149.333.334M52.636 10.283a.333.333 0 1 1-.666 0 .333.333 0 0 1 .666 0M47.745 13.979a.332.332 0 0 1-.333.333.332.332 0 1 1 0-.666c.183 0 .333.149.333.333M48.94 19.231a.333.333 0 1 1-.667 0 .333.333 0 1 1 .667 0M45.882 19.037a.332.332 0 1 1-.666 0 .333.333 0 1 1 .666 0M47.412 22.538a.333.333 0 1 1-.667.001.333.333 0 0 1 .667-.001M46.328 25.123a.333.333 0 1 1-.666 0 .333.333 0 0 1 .666 0M49.607 25.984a.333.333 0 1 1-.667 0 .333.333 0 1 1 .667 0M53.276 27.485a.333.333 0 1 1-.668 0 .333.333 0 1 1 .668 0M50.635 21.982a.332.332 0 0 1-.334.333.332.332 0 1 1 0-.666c.185 0 .334.15.334.333M56.61 24.4a.333.333 0 1 1-.666.002.333.333 0 0 1 .666-.002M54.498 22.149a.332.332 0 1 1-.666 0 .333.333 0 1 1 .666 0M53.832 17.73a.332.332 0 0 1-.334.333.333.333 0 1 1 0-.667c.184 0 .334.15.334.334M52.664 13.173a.333.333 0 1 1-.333-.334c.185 0 .333.149.333.334M56.083 10.866a.333.333 0 1 1-.667.001.333.333 0 0 1 .667-.001M54.999 5.392a.333.333 0 1 1-.666 0 .333.333 0 0 1 .666 0M55.693 1.528a.332.332 0 0 1-.333.333.332.332 0 1 1 0-.666c.183 0 .333.15.333.333M55.245 13.313a.223.223 0 0 0-.222.386l1.671.961v-.513l-1.449-.834zM30.105 15.159l-1.758-1.012v.513l1.536.885a.223.223 0 1 0 .222-.386M43.167.78a.223.223 0 0 0 .321.308L44.532 0h-.616l-.749.78zM45.876 26.944a.222.222 0 1 0-.32-.307l-1.641 1.71h.616l1.345-1.403z"/></g></svg>
