<svg xmlns="http://www.w3.org/2000/svg" width="35.433" height="35.433" viewBox="0 0 35.433 35.433"><path fill="param(fill)" d="M1.357 18.166l-.377-.318.222-.264.378.319zM10.402 18.704l-1.5-.838.167-.301 1.501.838zM13.441 18.043l-.155-.308.346-.174.155.308zM12.487 19.478l-1.294-1.384.253-.236 1.293 1.383zM16.654 18.933l-.231-1.184.34-.066.23 1.183zM2.784 23.09l-1.41-.604.135-.317 1.411.604zM1.467 27.333L.03 26.296l.202-.28 1.439 1.036zM2.305 25.803l-.343-.042.226-1.843.342.042zM17.2 20.752l-.237-.252.548-.516.238.251zM17.464 22.32l-.118-.374.33-.104.118.375zM16.972 29.682l-.24-.249.779-.747.239.248zM17.497 32.145l-.748-.892.265-.223.748.893zM4.306 19.488l-1.614-.75.146-.314 1.614.75zM2.996 21.265l-.896-1.44.294-.182.895 1.44zM4.415 23.403l-.377-1.555.336-.082.378 1.555zM5.532 21.417l-.344-.027.169-2.132.344.028zM3.723 25.849l-.244-.244 1.355-1.355.244.244zM5.846 23.338l-.172-.3 1.756-1.006.172.3zM7.559 19.729l-1.183-1.411.265-.222 1.183 1.41zM7.631 21.448l-.226-.262 1.498-1.294.227.262zM9.878 22.311l-.335-.087.517-1.99.335.087zM7.605 25.769l-1.612-1.441.231-.259 1.612 1.441zM9.253 25.74l-.519-1.958.334-.088.518 1.959zM10.902 25.609l-.03-.345 1.93-.172.03.344zM10.805 24.007l-.234-.253 1.552-1.441.235.253zM12.318 21.222l-.213-.272 1.47-1.152.212.272zM15.33 20.382L14.32 19l.279-.205 1.01 1.382zM15.804 22.96l-1.788-1.21.194-.286 1.788 1.21zM13.866 24.78l-.665-1.757.324-.123.664 1.757zM15.479 25.326l-.25-.237 1.093-1.155.25.238zM16.45 26.95l-.117-1.266.343-.032.118 1.266zM15.487 29.43l-.951-1.956.31-.152.953 1.957zM13.485 26.808l-.127-.322 1.24-.489.127.322zM11.644 28.174l-.574-1.643.326-.114.574 1.643zM9.66 27.077l-1.815-.2.038-.344 1.816.2zM10.037 29.658l-.72-1.614.317-.14.72 1.613zM11.973 29.403l-.213-.271 1.728-1.355.213.271zM8.74 31.778l-.255-.234 1.384-1.5.254.235zM11.794 32.421l-.806-1.843.316-.138.806 1.843zM15.166 31.86l-1.673-1.99.265-.223 1.673 1.99zM5.472 29.992l-.175-.3 2.022-1.178.174.299zM5.455 28.215l-.315-.144.867-1.9.315.144zM7.325 32.576L5.51 31.193l.209-.274L7.534 32.3zM6.035 34.813l-.149-.313 1.644-.778.148.313zM3.66 34.613l-.231-.259 1.355-1.209.23.26zM9.137 34.57l-.319-1.814.341-.06.318 1.815zM10.838 34.426l-.01-.345 1.956-.056.01.346zM13.857 33.686l-.087-1.44.344-.02.087 1.439zM1.93 34.591l-.201-1.73.344-.04.2 1.73zM2.594 32.046l-.236-.254 1.328-1.237.237.254zM4.14 29.084l-.953-1.93.31-.153.952 1.93zM1.57 30.83l-.322-.128.895-2.246.321.128zM18.987 18.167l-.376-.319.222-.263.377.318zM27.92 18.704l-1.5-.838.168-.302 1.5.838zM31.102 18.043l-.155-.309.346-.173.155.308zM30.146 19.478l-1.294-1.384.253-.236 1.293 1.383zM34.458 18.932l-.231-1.183.34-.067.23 1.184z"/><path fill="param(fill)" d="M17.748 20.235l-.236-.253.834-.779.236.253zM17.953 23.904l-.488-1.584.33-.102.489 1.584zM20.416 23.09l-1.411-.605.136-.318 1.41.605zM18.966 27.333l-1.438-1.037.202-.28 1.438 1.037zM19.935 25.804l-.344-.042.226-1.843.343.042zM17.752 28.786l-.245-.244.575-.576.245.244zM18.046 32.78l-.546-.635.262-.226.546.636zM21.822 19.487l-1.615-.75.146-.314 1.614.75zM20.627 21.265l-.896-1.439.294-.183.896 1.44zM21.932 23.403l-.378-1.555.337-.082.377 1.555zM23.046 21.417l-.344-.027.17-2.132.344.028zM21.24 25.85l-.245-.245 1.353-1.356.245.244zM23.361 23.34l-.172-.3 1.757-1.008.172.3zM25.074 19.729l-1.183-1.41.265-.223 1.183 1.41zM25.145 21.446l-.226-.262 1.5-1.293.226.263zM27.392 22.312l-.335-.088.517-1.99.335.088zM25.12 25.768l-1.611-1.44.231-.26 1.612 1.441zM26.768 25.74l-.519-1.958.334-.089.518 1.959zM28.56 25.61l-.03-.345 1.93-.173.03.345zM28.467 24.009l-.235-.253 1.55-1.442.234.253zM29.977 21.223l-.213-.272 1.47-1.152.212.272zM33.132 20.382L32.122 19l.279-.204 1.01 1.38zM33.607 22.96l-1.788-1.21.194-.286 1.788 1.21zM31.525 24.78l-.665-1.757.324-.122.664 1.756zM33.282 25.327l-.25-.237 1.093-1.155.25.238zM34.253 26.952l-.117-1.266.343-.031.118 1.265zM33.291 29.43l-.951-1.957.31-.15.951 1.956zM31.145 26.808l-.127-.322 1.24-.488.126.322zM29.302 28.174l-.574-1.644.327-.114.574 1.644zM27.176 27.076l-1.816-.2.037-.343 1.817.2zM27.552 29.656l-.72-1.613.315-.14.72 1.613zM29.49 29.407l-.214-.272 1.723-1.357.214.272zM26.111 31.776l-.254-.234 1.382-1.5.254.234zM29.454 32.42l-.805-1.843.317-.138.805 1.843zM32.97 31.858l-1.673-1.99.264-.221 1.673 1.99zM22.986 29.991l-.174-.298 2.021-1.18.175.3zM23.117 28.216l-.315-.144.866-1.9.315.144zM24.84 32.576l-1.815-1.382.21-.275 1.815 1.383zM23.55 34.813l-.148-.312 1.643-.778.148.313zM21.175 34.613l-.23-.259 1.354-1.21.231.26zM26.652 34.57l-.318-1.815.34-.06.32 1.816zM28.5 34.426l-.01-.345 1.955-.058.01.346zM31.514 33.684l-.087-1.439.346-.02.087 1.439zM19.562 34.59l-.202-1.73.344-.04.201 1.73zM20.254 32.045l-.237-.254 1.328-1.236.237.254zM21.655 29.083l-.95-1.93.309-.152.95 1.93zM19.2 30.83l-.321-.127.895-2.246.32.127zM10.403 1.168L8.902.33l.169-.302 1.5.838zM12.489 1.76L11.196.378l.252-.236 1.293 1.383zM2.784 5.374l-1.412-.606.137-.318 1.411.606zM1.467 9.618L.03 8.58.23 8.3 1.67 9.338zM2.302 8.087l-.342-.042.23-1.843.343.043zM.983 17.85l-.92-.745.218-.27.92.747zM13.786 17.87l-.155-.31.865-.431.154.31zM16.422 17.748l-.172-.89.34-.066.172.89zM17.202 3.036l-.238-.251.546-.518.238.252zM17.465 4.604l-.118-.375.33-.104.118.375zM16.972 11.82l-.239-.248.779-.748.239.249zM17.497 14.428l-.748-.892.265-.223.749.893zM4.306 1.772l-1.614-.75.146-.316 1.614.751zM2.995 3.548L2.1 2.108l.294-.182.895 1.439zM4.415 5.686l-.377-1.555.336-.081.377 1.554zM5.531 3.702l-.344-.027.17-2.133.344.027zM3.723 8.133l-.244-.244 1.355-1.355.244.244zM5.847 5.624l-.172-.3L7.43 4.316l.172.3zM7.559 2.014L6.376.6 6.64.379l1.183 1.413zM7.631 3.731l-.226-.262 1.498-1.294.226.262zM9.875 4.597l-.335-.088.522-1.989.335.088zM7.604 8.052L5.992 6.61l.23-.258 1.613 1.44zM9.253 8.025l-.519-1.958.334-.089.518 1.959zM10.903 7.893l-.03-.345 1.93-.172.03.344zM10.804 6.29l-.236-.255L12.126 4.6l.235.255zM12.319 3.506l-.213-.271 1.469-1.153.213.272zM15.33 2.667l-1.01-1.382.278-.204 1.01 1.381zM15.806 5.243l-1.789-1.209.193-.285L16 4.958zM13.866 7.062l-.664-1.758.324-.122.664 1.758zM15.48 7.61l-.25-.238 1.096-1.153.25.239zM16.45 9.235l-.117-1.267.344-.032.117 1.267zM15.487 11.713l-.952-1.957.31-.15.952 1.956zM13.485 9.09l-.127-.32 1.239-.49.126.32zM11.645 10.457l-.575-1.644.327-.114.574 1.644zM9.661 9.362L7.846 9.16l.038-.344 1.816.2zM10.039 11.941l-.72-1.613.316-.141.72 1.613zM11.973 11.688l-.213-.271 1.728-1.355.213.271zM8.738 13.917l-.254-.235 1.388-1.497.253.236zM11.796 14.559l-.806-1.843.316-.138.806 1.843zM15.164 13.998l-1.673-1.99.265-.223 1.673 1.99zM5.47 12.276l-.174-.299 2.022-1.179.174.3zM5.454 10.5l-.314-.145.867-1.9.315.144zM7.326 14.859L5.51 13.476l.21-.275 1.815 1.382zM6.035 17.095l-.148-.314 1.643-.775.148.313zM3.663 16.897l-.231-.257 1.35-1.214.23.257zM9.136 16.855l-.318-1.816.34-.06.32 1.817zM10.837 16.709l-.01-.346 1.956-.055.01.345zM13.857 15.969l-.087-1.439.344-.02.087 1.438zM1.93 16.874l-.201-1.73.344-.04.2 1.73zM2.597 14.187l-.236-.252 1.323-1.24.236.25zM4.138 11.368l-.952-1.93.31-.153.953 1.93zM1.57 13.114l-.321-.128.894-2.246.322.128zM27.918 1.167l-1.5-.837.17-.302 1.5.837zM30.148 1.76L28.855.378l.252-.236L30.4 1.525zM17.748 2.519l-.236-.253.834-.778.236.253z"/><path fill="param(fill)" d="M17.953 6.188l-.488-1.584.33-.102.489 1.584zM20.414 5.374l-1.412-.606.137-.318 1.411.606zM18.968 9.618L17.529 8.58l.202-.28L19.17 9.34zM19.932 8.087l-.343-.043.23-1.842.344.043zM17.752 11.07l-.245-.244.575-.576.245.244zM18.613 17.851l-.92-.746.219-.269.92.746zM31.444 17.87l-.154-.31.865-.432.154.31zM34.226 17.748l-.173-.89.34-.066.173.89zM18.045 15.064l-.546-.635.262-.226.547.636zM21.82 1.772l-1.613-.75.146-.315 1.614.75zM20.627 3.548l-.896-1.44.294-.182.895 1.44zM21.93 5.686l-.377-1.555.336-.081.378 1.555zM23.046 3.702l-.344-.027.17-2.134.343.028zM21.24 8.133l-.245-.244 1.353-1.356.245.244zM23.362 5.625l-.172-.3 1.756-1.008.172.3zM25.073 2.014L23.889.6l.266-.222 1.183 1.413zM25.144 3.73l-.225-.262 1.5-1.293.225.262zM27.39 4.598l-.335-.088.522-1.989.335.088zM25.12 8.05l-1.612-1.44.23-.258 1.613 1.44zM26.767 8.024l-.518-1.958.334-.088.518 1.958zM28.562 7.893l-.031-.344 1.93-.172.03.344zM28.463 6.29l-.235-.254 1.555-1.437.236.255zM29.978 3.507l-.213-.272 1.468-1.151.213.271zM33.132 2.666l-1.01-1.381.28-.204 1.01 1.38zM33.608 5.243L31.82 4.034l.194-.286 1.788 1.21zM31.526 7.062l-.665-1.758.324-.122.664 1.757zM33.283 7.61l-.25-.238 1.096-1.153.251.239zM34.255 9.236l-.118-1.267.344-.032.117 1.267zM33.291 11.712l-.95-1.957.31-.15.95 1.956zM31.144 9.09l-.127-.32 1.24-.49.126.32zM29.304 10.458l-.574-1.645.327-.114.574 1.645zM27.176 9.362L25.36 9.16l.038-.344 1.816.2zM27.553 11.941l-.72-1.613.314-.14.72 1.613zM29.49 11.691l-.214-.272 1.723-1.357.215.272zM26.111 13.919l-.254-.236 1.386-1.498.254.235zM29.453 14.56l-.805-1.842.317-.139.805 1.843zM32.967 13.998l-1.674-1.991.264-.222 1.674 1.991zM22.986 12.276l-.175-.299 2.021-1.179.175.299zM23.116 10.5l-.315-.144.866-1.901.315.143zM24.841 14.86l-1.815-1.383.21-.275 1.815 1.382zM23.55 17.096l-.148-.314 1.644-.775.148.313zM21.177 16.896l-.231-.256 1.35-1.214.23.256zM26.652 16.854l-.318-1.816.34-.06.319 1.817zM28.499 16.708l-.01-.346 1.955-.057.01.345zM31.514 15.968l-.086-1.438.345-.021.087 1.438zM19.56 16.873l-.2-1.73.343-.04.201 1.73zM20.257 14.186l-.236-.251 1.323-1.24.236.25zM21.654 11.367l-.95-1.93.309-.152.95 1.93zM19.2 13.114l-.32-.127.895-2.246.32.127zM34.768 20.5l.237.252.428-.405v-.476zM35.15 21.945l.283.899v-.988zM34.535 29.287l.239.249.659-.632v-.48zM34.817 31.029l-.265.223.881 1.051v-.539zM34.768 2.784l.237.251.428-.404v-.476zM35.15 4.229l.283.899V4.14zM34.535 11.571l.239.249.659-.632v-.48zM34.817 13.313l-.265.222.881 1.051v-.538zM14.651 35.154l-.154-.308-1.175.587h.774zM16.589 34.508l-.339.065.166.86h.352zM17.912 34.552l-.218.268.755.613h.549zM32.31 35.154l-.154-.308-1.175.587h.774zM34.392 34.508l-.34.065.167.86h.352zM.952 19.457l-.236-.253-.716.668v.474zM.323 23.904l.33-.102L0 21.683v1.173zM.696 28.21l-.244-.244-.452.453v.49zM.416 32.781l.261-.225L0 31.769v.53zM.952 1.741l-.236-.253L0 2.156v.473zM.323 6.188l.33-.102L0 3.967V5.14zM1.358.449l.223-.263L1.361 0H.824zM13.286.018l.155.309.655-.327h-.773zM16.654 1.215l.339-.067L16.768 0h-.352zM18.988.449l.223-.263-.22-.186h-.536zM30.945.018l.155.309.655-.327h-.774zM34.457 1.215l.339-.067L34.571 0h-.352zM.696 10.493l-.244-.244-.452.454v.489zM.416 15.064l.261-.225L0 14.053v.528zM1.367 35.433L.23 34.511l-.23.258.818.664z"/></svg>