<svg xmlns="http://www.w3.org/2000/svg" width="51.023" height="51.023" viewBox="0 0 51.023 51.023"><path fill="none" d="M0 0h51.023v51.023H0z"/><path fill="none" stroke="black" stroke-width="1" stroke-linejoin="round" stroke-miterlimit="500" d="M35.433 46.768h5.67M38.267 49.605v-5.668M18.423 46.768h5.67M21.262 49.605v-5.668M1.417 46.768h5.67M4.252 49.605v-5.668M26.931 38.267h5.667M29.762 41.102v-5.67M43.937 38.267h5.669M46.771 41.102v-5.67M9.922 38.267h5.67M12.757 41.102v-5.67M35.433 29.763h5.67M38.267 32.598v-5.67M18.423 29.763h5.67M21.262 32.598v-5.67M1.417 29.763h5.67M4.252 32.598v-5.67M26.931 21.262h5.667M29.762 24.093v-5.668M43.937 21.262h5.669M46.771 24.093v-5.668M9.922 21.262h5.67M12.757 24.093v-5.668M35.433 12.755h5.67M38.267 15.589v-5.67M18.423 12.755h5.67M21.262 15.589v-5.67M1.417 12.755h5.67M4.252 15.589v-5.67M26.931 4.25h5.667M29.762 7.085V1.419M43.937 4.25h5.669M46.771 7.085V1.419M9.922 4.25h5.67M12.757 7.085V1.419"/></svg>
