<svg xmlns="http://www.w3.org/2000/svg" width="51.024" height="51.023" viewBox="0 0 51.024 51.023"><path fill="none" d="M0 0h51.023v51.023H0z"/><path fill="none" stroke="black" stroke-width="1" stroke-linejoin="round" stroke-miterlimit="500" d="M25.512 48.898h4.254M27.639 51.023v-4.25M17.01 48.898h4.251M19.134 51.023v-4.25M8.502 48.898h4.254M10.629 51.023v-4.25M.001 48.898h4.25M2.125 51.023v-4.25M29.766 44.645h4.25M31.889 46.773V42.52M21.261 44.645h4.251M23.388 46.773V42.52M12.756 44.645h4.254M14.883 46.773V42.52M4.251 44.645h4.251M6.378 46.773V42.52M25.512 40.394h4.254M27.639 42.52v-4.253M17.01 40.394h4.251M19.134 42.52v-4.253M8.502 40.394h4.254M10.629 42.52v-4.253M.001 40.394h4.25M2.125 42.52v-4.253M29.766 36.141h4.25M31.889 38.267v-4.251M21.261 36.141h4.251M23.388 38.267v-4.251M12.756 36.141h4.254M14.883 38.267v-4.251M4.251 36.141h4.251M6.378 38.267v-4.251M25.512 31.891h4.254M27.639 34.016v-4.252M17.01 31.891h4.251M19.134 34.016v-4.252M8.502 31.891h4.254M10.629 34.016v-4.252M.001 31.891h4.25M2.125 34.016v-4.252M29.766 27.637h4.25M31.889 29.764v-4.253M21.261 27.637h4.251M23.388 29.764v-4.253M12.756 27.637h4.254M14.883 29.764v-4.253M4.251 27.637h4.251M6.378 29.764v-4.253M25.512 23.386h4.254M27.639 25.511v-4.252M17.01 23.386h4.251M19.134 25.511v-4.252M8.502 23.386h4.254M10.629 25.511v-4.252M.001 23.386h4.25M2.125 25.511v-4.252M29.766 19.134h4.25M31.889 21.259v-4.251M34.016 48.898h4.254M36.143 51.023v-4.25M38.27 44.645h4.25M40.393 46.773V42.52M34.016 40.394h4.254M36.143 42.52v-4.253M38.27 36.141h4.25M40.393 38.267v-4.251M34.016 31.891h4.254M36.143 34.016v-4.252M38.27 27.637h4.25M40.393 29.764v-4.253M34.016 23.386h4.254M36.143 25.511v-4.252M38.27 19.134h4.25M40.393 21.259v-4.251M42.52 48.898h4.254M44.647 51.023v-4.25M46.774 44.645h4.25M48.897 46.773V42.52M42.52 40.394h4.254M44.647 42.52v-4.253M46.774 36.141h4.25M48.897 38.267v-4.251M42.52 31.891h4.254M44.647 34.016v-4.252M46.774 27.637h4.25M48.897 29.764v-4.253M42.52 23.386h4.254M44.647 25.511v-4.252M46.774 19.134h4.25M48.897 21.259v-4.251M21.261 19.134h4.251M23.388 21.259v-4.251M12.756 19.134h4.254M14.883 21.259v-4.251M4.251 19.134h4.251M6.378 21.259v-4.251M25.512 14.882h4.254M27.639 17.007v-4.252M17.01 14.882h4.251M19.134 17.007v-4.252M8.502 14.882h4.254M10.629 17.007v-4.252M.001 14.882h4.25M2.125 17.007v-4.252M29.766 10.63h4.25M31.889 12.755V8.504M34.016 14.882h4.254M36.143 17.007v-4.252M38.27 10.63h4.25M40.393 12.755V8.504M42.52 14.882h4.254M44.647 17.007v-4.252M46.774 10.63h4.25M48.897 12.755V8.504M21.261 10.63h4.251M23.388 12.755V8.504M12.756 10.63h4.254M14.883 12.755V8.504M4.251 10.63h4.251M6.378 12.755V8.504M25.512 6.378h4.254M27.639 8.503V4.251M17.01 6.378h4.251M19.134 8.503V4.251M8.502 6.378h4.254M10.629 8.503V4.251M.001 6.378h4.25M2.125 8.503V4.251M29.766 2.126h4.25M31.889 4.251V0M34.016 6.378h4.254M36.143 8.503V4.251M38.27 2.126h4.25M40.393 4.251V0M42.52 6.378h4.254M44.647 8.503V4.251M46.774 2.126h4.25M48.897 4.251V0M21.261 2.126h4.251M23.388 4.251V0M12.756 2.126h4.254M14.883 4.251V0M4.251 2.126h4.251M6.378 4.251V0"/></svg>
