<svg xmlns="http://www.w3.org/2000/svg" width="42.52" height="42.52" viewBox="0 0 42.52 42.52"><path fill="none" d="M0 0h42.52v42.52H0z"/><path fill="none" stroke="black" stroke-width="1" stroke-linejoin="round" stroke-miterlimit="500" d="M5.298 42.52v-3.57M3.544 40.737h3.543M12.387 42.52v-3.57M10.628 40.737h3.547M19.474 42.52v-3.57M17.716 40.737h3.544M26.562 42.52v-3.57M24.804 40.737h3.541M33.65 42.52v-3.57M31.892 40.737h3.541M1.758 38.98v-3.571M0 37.195h3.544M8.845 38.98v-3.571M7.087 37.195h3.541M15.934 38.98v-3.571M14.175 37.195h3.541M23.018 38.98v-3.571M21.26 37.195h3.544M30.103 38.98v-3.571M28.345 37.195h3.547M5.298 35.439v-3.568M3.544 33.655h3.543M12.387 35.439v-3.568M10.628 33.655h3.547M19.474 35.439v-3.568M17.716 33.655h3.544M26.562 35.439v-3.568M24.804 33.655h3.541M33.65 35.439v-3.568M31.892 33.655h3.541M1.758 31.899V28.33M0 30.113h3.544M8.845 31.899V28.33M7.087 30.113h3.541M15.934 31.899V28.33M14.175 30.113h3.541M23.018 31.899V28.33M21.26 30.113h3.544M30.103 31.899V28.33M28.345 30.113h3.547M5.298 28.358v-3.57M3.544 26.573h3.543M12.387 28.358v-3.57M10.628 26.573h3.547M19.474 28.358v-3.57M17.716 26.573h3.544M26.562 28.358v-3.57M24.804 26.573h3.541M33.65 28.358v-3.57M31.892 26.573h3.541M1.758 24.817v-3.57M0 23.033h3.544M8.845 24.817v-3.57M7.087 23.033h3.541M15.934 24.817v-3.57M14.175 23.033h3.541M23.018 24.817v-3.57M21.26 23.033h3.544M30.103 24.817v-3.57M28.345 23.033h3.547M5.298 21.277v-3.569M3.544 19.493h3.543M12.387 21.277v-3.569M10.628 19.493h3.547M19.474 21.277v-3.569M17.716 19.493h3.544M26.562 21.277v-3.569M24.804 19.493h3.541M33.65 21.277v-3.569M31.892 19.493h3.541M1.758 17.736v-3.569M0 15.953h3.544M8.845 17.736v-3.569M7.087 15.953h3.541M15.934 17.736v-3.569M14.175 15.953h3.541M23.018 17.736v-3.569M21.26 15.953h3.544M30.103 17.736v-3.569M28.345 15.953h3.547M5.298 14.195v-3.567M3.544 12.41h3.543M12.387 14.195v-3.567M10.628 12.41h3.547M19.474 14.195v-3.567M17.716 12.41h3.544M26.562 14.195v-3.567M24.804 12.41h3.541M33.65 14.195v-3.567M31.892 12.41h3.541M1.758 10.656V7.087M0 8.871h3.544M8.845 10.656V7.087M7.087 8.871h3.541M15.934 10.656V7.087M14.175 8.871h3.541M23.018 10.656V7.087M21.26 8.871h3.544M30.103 10.656V7.087M28.345 8.871h3.547M40.737 42.52v-3.57M38.978 40.737h3.542M37.189 38.98v-3.571M35.431 37.195h3.547M40.737 35.439v-3.568M38.978 33.655h3.542M37.189 31.899V28.33M35.431 30.113h3.547M40.737 28.358v-3.57M38.978 26.573h3.542M37.189 24.817v-3.57M35.431 23.033h3.547M40.737 21.277v-3.569M38.978 19.493h3.542M37.189 17.736v-3.569M35.431 15.953h3.547M40.737 14.195v-3.567M38.978 12.41h3.542M37.189 10.656V7.087M35.431 8.871h3.547M5.298 7.108V3.541M3.544 5.323h3.543M12.387 7.108V3.541M10.628 5.323h3.547M19.474 7.108V3.541M17.716 5.323h3.544M26.562 7.108V3.541M24.804 5.323h3.541M33.65 7.108V3.541M31.892 5.323h3.541M1.758 3.569V0M0 1.784h3.544M8.845 3.569V0M7.087 1.784h3.541M15.934 3.569V0M14.175 1.784h3.541M23.018 3.569V0M21.26 1.784h3.544M30.103 3.569V0M28.345 1.784h3.547M40.737 7.108V3.541M38.978 5.323h3.542M37.189 3.569V0M35.431 1.784h3.547"/></svg>
