<svg xmlns="http://www.w3.org/2000/svg" width="51.024" height="51.366" viewBox="0 0 51.024 51.366"><path fill="param(fill)" d="M7.375 26.174h.612v1.595h-.612zM20.131 26.174h.611v1.595h-.611zM.995 45.308h.612v1.594H.995zM.995 47.54h.612v1.594H.995zM.995 49.772h.612v1.594H.995zM13.752 45.308h.612v1.594h-.612zM13.752 47.54h.612v1.594h-.612zM13.752 49.772h.612v1.594h-.612zM.995 32.553h.612v1.595H.995zM.995 34.785h.612v1.594H.995zM.995 37.018h.612v1.594H.995zM13.752 32.553h.612v1.595h-.612zM13.752 34.785h.612v1.594h-.612zM13.752 37.018h.612v1.594h-.612zM7.375 38.929h.612v1.595h-.612zM7.375 41.161h.612v1.594h-.612zM7.375 43.394h.612v1.594h-.612zM20.131 38.929h.611v1.595h-.611zM20.131 41.161h.611v1.594h-.611zM20.131 43.394h.611v1.594h-.611zM7.375 28.405h.612v1.594h-.612zM7.375 30.638h.612v1.594h-.612zM20.131 28.405h.611v1.594h-.611zM20.131 30.638h.611v1.594h-.611z"/><path fill="none" stroke="black" stroke-width="1" stroke-miterlimit="500" d="M0 25.854h25.512M0 44.987h25.512M0 38.611h25.512M0 32.231h25.512"/><path fill="param(fill)" d="M32.886 26.174h.612v1.595h-.612zM45.643 26.174h.611v1.595h-.611zM26.506 45.308h.612v1.594h-.612zM26.506 47.54h.612v1.594h-.612zM26.506 49.772h.612v1.594h-.612zM39.264 45.308h.611v1.594h-.611zM39.264 47.54h.611v1.594h-.611zM39.264 49.772h.611v1.594h-.611zM26.506 32.553h.612v1.595h-.612zM26.506 34.785h.612v1.594h-.612zM26.506 37.018h.612v1.594h-.612zM39.264 32.553h.611v1.595h-.611zM39.264 34.785h.611v1.594h-.611zM39.264 37.018h.611v1.594h-.611zM32.886 38.929h.612v1.595h-.612zM32.886 41.161h.612v1.594h-.612zM32.886 43.394h.612v1.594h-.612zM45.643 38.929h.611v1.595h-.611zM45.643 41.161h.611v1.594h-.611zM45.643 43.394h.611v1.594h-.611zM32.886 28.405h.612v1.594h-.612zM32.886 30.638h.612v1.594h-.612zM45.643 28.405h.611v1.594h-.611zM45.643 30.638h.611v1.594h-.611z"/><path fill="none" stroke="black" stroke-width="1" stroke-miterlimit="500" d="M25.512 25.854h25.512M25.512 44.987h25.512M25.512 38.611h25.512M25.512 32.231h25.512"/><path fill="param(fill)" d="M7.375.662h.612v1.595h-.612zM20.131.662h.611v1.595h-.611zM.995 19.795h.612v1.594H.995zM.995 22.027h.612v1.594H.995zM.995 24.26h.612v1.594H.995zM13.752 19.795h.611v1.594h-.611zM13.752 22.027h.611v1.594h-.611zM13.752 24.26h.611v1.594h-.611zM.995 7.041h.612v1.595H.995zM.995 9.273h.612v1.594H.995zM.995 11.505h.612v1.594H.995zM13.752 7.041h.611v1.595h-.611zM13.752 9.273h.611v1.594h-.611zM13.752 11.505h.611v1.594h-.611zM7.375 13.417h.612v1.594h-.612zM7.375 15.648h.612v1.594h-.612zM7.375 17.881h.612v1.594h-.612zM20.131 13.417h.611v1.594h-.611zM20.131 15.648h.611v1.594h-.611zM20.131 17.881h.611v1.594h-.611zM7.375 2.893h.612v1.594h-.612zM7.375 5.125h.612v1.594h-.612zM20.131 2.893h.611v1.594h-.611zM20.131 5.125h.611v1.594h-.611z"/><path fill="none" stroke="black" stroke-width="1" stroke-miterlimit="500" d="M0 .342h25.512M0 19.475h25.512M0 13.099h25.512M0 6.719h25.512"/><path fill="param(fill)" d="M32.886.662h.612v1.595h-.612zM45.643.662h.611v1.595h-.611zM26.506 19.795h.612v1.594h-.612zM26.506 22.027h.612v1.594h-.612zM26.506 24.26h.612v1.594h-.612zM39.264 19.795h.611v1.594h-.611zM39.264 22.027h.611v1.594h-.611zM39.264 24.26h.611v1.594h-.611zM26.506 7.041h.612v1.595h-.612zM26.506 9.273h.612v1.594h-.612zM26.506 11.505h.612v1.594h-.612zM39.264 7.041h.611v1.595h-.611zM39.264 9.273h.611v1.594h-.611zM39.264 11.505h.611v1.594h-.611zM32.886 13.417h.612v1.594h-.612zM32.886 15.648h.612v1.594h-.612zM32.886 17.881h.612v1.594h-.612zM45.643 13.417h.611v1.594h-.611zM45.643 15.648h.611v1.594h-.611zM45.643 17.881h.611v1.594h-.611zM32.886 2.893h.612v1.594h-.612zM32.886 5.125h.612v1.594h-.612zM45.643 2.893h.611v1.594h-.611zM45.643 5.125h.611v1.594h-.611z"/><path fill="none" stroke="black" stroke-width="1" stroke-miterlimit="500" d="M25.512.342h25.512M25.512 19.475h25.512M25.512 13.099h25.512M25.512 6.719h25.512"/></svg>
