<svg xmlns="http://www.w3.org/2000/svg" width="51.024" height="51.023" viewBox="0 0 51.024 51.023"><path fill="param(fill)" d="M20.131 45.219h.612v1.613h-.612zM7.375 42.961h.612v1.612h-.612zM7.375 45.219h.612v1.613h-.612zM7.375 47.478h.612v1.611h-.612zM20.131 42.961h.612v1.612h-.612zM20.131 47.478h.612v1.611h-.612zM.995 36.509h.612v1.612H.995zM.995 38.767h.612v1.612H.995zM.995 41.025h.612v1.612H.995zM13.752 36.509h.612v1.612h-.612zM13.752 38.767h.612v1.612h-.612zM13.752 41.025h.612v1.612h-.612zM.995 25.864h.612v1.613H.995zM.995 28.122h.612v1.612H.995zM13.752 25.864h.612v1.613h-.612zM13.752 28.122h.612v1.612h-.612zM7.375 30.057h.612v1.612h-.612zM7.375 32.314h.612v1.612h-.612zM7.375 34.572h.612v1.613h-.612zM20.131 30.057h.612v1.612h-.612zM20.131 32.314h.612v1.612h-.612zM20.131 34.572h.612v1.613h-.612zM.995 49.088h.612v.001H.995zM13.752 49.088h.612v.001h-.612zM.995 49.411h.612v1.612H.995zM13.752 49.411h.612v1.612h-.612z"/><g fill="none" stroke="black" stroke-width="1" stroke-miterlimit="500"><path d="M0 49.089h25.512M0 42.638h25.512M0 36.186h25.512M0 29.734h25.512"/></g><path fill="param(fill)" d="M.782 44.867h1.041v1.349H.782zM13.537 44.867h1.041v1.349h-1.041zM7.16 38.416h1.041v1.349H7.16zM19.916 38.416h1.041v1.349h-1.041zM.782 31.963h1.041v1.349H.782zM13.537 31.963h1.041v1.349h-1.041zM7.16 25.512h1.041v1.35H7.16zM19.916 25.512h1.041v1.35h-1.041zM45.643 45.219h.612v1.613h-.612zM32.886 42.961h.612v1.612h-.612zM32.886 45.219h.612v1.613h-.612zM32.886 47.478h.612v1.611h-.612zM45.643 42.961h.612v1.612h-.612zM45.643 47.478h.612v1.611h-.612zM26.507 36.509h.611v1.612h-.611zM26.507 38.767h.611v1.612h-.611zM26.507 41.025h.611v1.612h-.611zM39.264 36.509h.612v1.612h-.612zM39.264 38.767h.612v1.612h-.612zM39.264 41.025h.612v1.612h-.612zM26.507 25.864h.611v1.613h-.611zM26.507 28.122h.611v1.612h-.611zM39.264 25.864h.612v1.613h-.612zM39.264 28.122h.612v1.612h-.612zM32.886 30.057h.612v1.612h-.612zM32.886 32.314h.612v1.612h-.612zM32.886 34.572h.612v1.613h-.612zM45.643 30.057h.612v1.612h-.612zM45.643 32.314h.612v1.612h-.612zM45.643 34.572h.612v1.613h-.612zM26.507 49.088h.611v.001h-.611zM39.264 49.088h.612v.001h-.612zM26.507 49.411h.611v1.612h-.611zM39.264 49.411h.612v1.612h-.612z"/><g fill="none" stroke="black" stroke-width="1" stroke-miterlimit="500"><path d="M25.512 49.089h25.512M25.512 42.638h25.512M25.512 36.186h25.512M25.512 29.734h25.512"/></g><path fill="param(fill)" d="M26.293 44.867h1.041v1.349h-1.041zM39.049 44.867h1.041v1.349h-1.041zM32.671 38.416h1.041v1.349h-1.041zM45.427 38.416h1.041v1.349h-1.041zM26.293 31.963h1.041v1.349h-1.041zM39.049 31.963h1.041v1.349h-1.041zM32.671 25.512h1.041v1.35h-1.041zM45.427 25.512h1.041v1.35h-1.041zM20.131 19.707h.612v1.613h-.612zM7.375 17.449h.612v1.612h-.612zM7.375 19.707h.612v1.613h-.612zM7.375 21.966h.612v1.611h-.612zM20.131 17.449h.612v1.612h-.612zM20.131 21.966h.612v1.611h-.612zM.995 10.997h.612v1.612H.995zM.995 13.255h.612v1.612H.995zM.995 15.514h.612v1.612H.995zM13.752 10.997h.611v1.612h-.611zM13.752 13.255h.611v1.612h-.611zM13.752 15.514h.611v1.612h-.611zM.995.353h.612v1.613H.995zM.995 2.61h.612v1.612H.995zM13.752.353h.611v1.613h-.611zM13.752 2.61h.611v1.612h-.611zM7.375 4.545h.612v1.612h-.612zM7.375 6.803h.612v1.612h-.612zM7.375 9.061h.612v1.613h-.612zM20.131 4.545h.612v1.612h-.612zM20.131 6.803h.612v1.612h-.612zM20.131 9.061h.612v1.613h-.612zM.995 23.576h.612v.001H.995zM13.752 23.576h.611v.001h-.611zM.995 23.899h.612v1.612H.995zM13.752 23.899h.611v1.612h-.611z"/><g fill="none" stroke="black" stroke-width="1" stroke-miterlimit="500"><path d="M0 23.577h25.512M0 17.126h25.512M0 10.674h25.512M0 4.223h25.512"/></g><path fill="param(fill)" d="M.782 19.355h1.041v1.349H.782zM13.538 19.355h1.041v1.349h-1.041zM7.16 12.904h1.041v1.349H7.16zM19.916 12.904h1.041v1.349h-1.041zM.782 6.451h1.041V7.8H.782zM13.538 6.451h1.041V7.8h-1.041zM7.16 0h1.041v1.35H7.16zM19.916 0h1.041v1.35h-1.041zM45.643 19.707h.612v1.613h-.612zM32.886 17.449h.612v1.612h-.612zM32.886 19.707h.612v1.613h-.612zM32.886 21.966h.612v1.611h-.612zM45.643 17.449h.612v1.612h-.612zM45.643 21.966h.612v1.611h-.612zM26.507 10.997h.611v1.612h-.611zM26.507 13.255h.611v1.612h-.611zM26.507 15.514h.611v1.612h-.611zM39.264 10.997h.612v1.612h-.612zM39.264 13.255h.612v1.612h-.612zM39.264 15.514h.612v1.612h-.612zM26.507.353h.611v1.613h-.611zM26.507 2.61h.611v1.612h-.611zM39.264.353h.612v1.613h-.612zM39.264 2.61h.612v1.612h-.612zM32.886 4.545h.612v1.612h-.612zM32.886 6.803h.612v1.612h-.612zM32.886 9.061h.612v1.613h-.612zM45.643 4.545h.612v1.612h-.612zM45.643 6.803h.612v1.612h-.612zM45.643 9.061h.612v1.613h-.612zM26.507 23.576h.611v.001h-.611zM39.264 23.576h.612v.001h-.612zM26.507 23.899h.611v1.612h-.611zM39.264 23.899h.612v1.612h-.612z"/><g fill="none" stroke="black" stroke-width="1" stroke-miterlimit="500"><path d="M25.512 23.577h25.512M25.512 17.126h25.512M25.512 10.674h25.512M25.512 4.223h25.512"/></g><path fill="param(fill)" d="M26.293 19.355h1.041v1.349h-1.041zM39.049 19.355h1.041v1.349h-1.041zM32.671 12.904h1.041v1.349h-1.041zM45.427 12.904h1.041v1.349h-1.041zM26.293 6.451h1.041V7.8h-1.041zM39.049 6.451h1.041V7.8h-1.041zM32.671 0h1.041v1.35h-1.041zM45.427 0h1.041v1.35h-1.041z"/></svg>
