<svg xmlns="http://www.w3.org/2000/svg" width="57.373" height="57.373" viewBox="0 0 57.373 57.373"><path fill="param(fill)" d="M1.208 51.143h1.157v1.186H1.208zM15.382 51.143h1.157v1.186h-1.157zM29.555 51.143h1.157v1.186h-1.157zM43.729 51.143h1.156v1.186h-1.156zM8.295 45.474h1.157v1.186H8.295zM22.469 45.474h1.157v1.186h-1.157zM36.642 45.474h1.157v1.186h-1.157zM50.815 45.474h1.156v1.186h-1.156zM1.208 39.804h1.157v1.186H1.208zM15.382 39.804h1.157v1.186h-1.157zM29.555 39.804h1.157v1.186h-1.157zM43.729 39.804h1.156v1.186h-1.156zM8.295 34.135h1.157v1.186H8.295zM22.469 34.135h1.157v1.186h-1.157zM36.642 34.135h1.157v1.186h-1.157zM50.815 34.135h1.156v1.186h-1.156zM1.208 28.466h1.157v1.186H1.208zM15.382 28.466h1.157v1.186h-1.157zM29.555 28.466h1.157v1.186h-1.157zM43.729 28.466h1.156v1.186h-1.156zM8.295 22.796h1.157v1.186H8.295zM22.469 22.796h1.157v1.186h-1.157zM36.642 22.796h1.157v1.186h-1.157zM50.815 22.796h1.156v1.186h-1.156zM1.208 17.127h1.157v1.186H1.208zM15.382 17.127h1.157v1.186h-1.157zM29.555 17.127h1.157v1.186h-1.157zM43.729 17.127h1.156v1.186h-1.156zM8.295 11.457h1.157v1.186H8.295zM22.469 11.457h1.157v1.186h-1.157zM36.642 11.457h1.157v1.186h-1.157zM50.815 11.457h1.156v1.186h-1.156zM1.208 5.788h1.157v1.186H1.208zM15.382 5.788h1.157v1.186h-1.157zM29.555 5.788h1.157v1.186h-1.157zM43.729 5.788h1.156v1.186h-1.156zM8.295.346h1.157v1.186H8.295zM22.469.346h1.157v1.186h-1.157zM36.642.346h1.157v1.186h-1.157zM50.815.346h1.156v1.186h-1.156z"/><path fill="none" stroke="black" stroke-width="1" stroke-linecap="square" stroke-miterlimit="500" d="M.34 54.854h56.693M.34 49.184h56.693M.34 43.514h56.693M.34 37.846h56.693M.34 32.175h56.693M.34 26.51h56.693M.34 20.837h56.693M.34 15.167h56.693M.34 9.498h56.693M.34 3.829h56.693M1.786 57.033v-2.179M15.96 57.033v-2.179M30.132 57.033v-2.179M44.306 57.033v-2.179"/><path fill="none" stroke="black" stroke-width="1" stroke-miterlimit="500" d="M8.874 54.854v-5.67M23.048 54.854v-5.67M37.22 54.854v-5.67M51.396 54.854v-5.67M1.786 49.184v-5.67M15.96 49.184v-5.67M30.132 49.184v-5.67M44.306 49.184v-5.67M1.786 37.846v-5.671M15.96 37.846v-5.671M30.132 37.846v-5.671M44.306 37.846v-5.671"/><path fill="none" stroke="black" stroke-width="1" stroke-linecap="square" stroke-miterlimit="500" d="M1.786 26.51v-5.673"/><path fill="none" stroke="black" stroke-width="1" stroke-miterlimit="500" d="M15.96 26.51v-5.673M30.132 26.51v-5.673M44.306 26.51v-5.673M1.786 15.167V9.498M15.96 15.167V9.498M30.132 15.167V9.498M44.306 15.167V9.498M8.874 43.514v-5.668M23.048 43.514v-5.668M37.22 43.514v-5.668M51.396 43.514v-5.668M8.874 32.175V26.51M23.048 32.175V26.51M37.22 32.175V26.51M51.396 32.175V26.51M8.874 20.837v-5.67M23.048 20.837v-5.67M37.22 20.837v-5.67M51.396 20.837v-5.67M8.874 9.498V3.829M23.048 9.498V3.829M37.22 9.498V3.829M51.396 9.498V3.829"/><path fill="none" stroke="black" stroke-width="1" stroke-linecap="square" stroke-miterlimit="500" d="M1.786 3.829V.34M15.96 3.829V.34M30.132 3.829V.34M44.306 3.829V.34"/></svg>
