<svg xmlns="http://www.w3.org/2000/svg" width="63.045" height="62.362" viewBox="0 0 63.045 62.362"><path fill="none" stroke="black" stroke-width="1" stroke-miterlimit="500" d="M8.98 60.362l6.237-5.204M24.572 60.362l6.237-5.204M1.183 55.158l6.237-5.204M16.775 55.158l6.237-5.204M1.182 44.752l6.238-5.205M16.775 44.752l6.237-5.205M8.981 49.954l6.235-5.202M24.573 49.954l6.235-5.202M8.983 39.547l6.231-5.199M24.575 39.547l6.231-5.199"/><g fill="none" stroke="black" stroke-width="1" stroke-linecap="square" stroke-miterlimit="500"><path d="M.342 60.362h31.181M.342 55.158h31.181M.342 49.954h31.181M.342 44.752h31.181M.342 39.547h31.181"/></g><path fill="param(fill)" d="M4.492 62.362H5.55l2.135-1.781-.529-.441zM20.084 62.362h1.058l2.135-1.781-.529-.441z"/><path fill="none" stroke="black" stroke-width="1" stroke-linecap="square" stroke-miterlimit="500" d="M.342 34.383h31.181"/><path fill="param(fill)" d="M.919 34.162l.529.441 4.102-3.422H4.492zM16.511 34.162l.53.441 4.101-3.422h-1.059z"/><path fill="none" stroke="black" stroke-width="1" stroke-miterlimit="500" d="M40.161 60.362l6.237-5.204M55.752 60.362l6.238-5.204M32.364 55.158l6.237-5.204M47.956 55.158l6.237-5.204M32.363 44.752l6.238-5.205M47.956 44.752l6.237-5.205M40.162 49.954l6.234-5.202M55.753 49.954l6.236-5.202M40.164 39.547l6.231-5.199M55.755 39.547l6.232-5.199"/><g fill="none" stroke="black" stroke-width="1" stroke-linecap="square" stroke-miterlimit="500"><path d="M31.523 60.362h31.181M31.523 55.158h31.181M31.523 49.954h31.181M31.523 44.752h31.181M31.523 39.547h31.181"/></g><path fill="param(fill)" d="M35.673 62.362h1.058l2.134-1.781-.529-.441zM51.265 62.362h1.058l2.135-1.781-.53-.441z"/><path fill="none" stroke="black" stroke-width="1" stroke-linecap="square" stroke-miterlimit="500" d="M31.523 34.383h31.181"/><path fill="param(fill)" d="M32.1 34.162l.528.441 4.103-3.422h-1.059zM47.692 34.162l.529.441 4.102-3.422h-1.059z"/><path fill="none" stroke="black" stroke-width="1" stroke-miterlimit="500" d="M8.98 29.181l6.237-5.205M24.572 29.181l6.237-5.205M1.183 23.976l6.237-5.203M16.775 23.976l6.237-5.203M1.182 13.572L7.42 8.366M16.775 13.572l6.237-5.206M8.981 18.773l6.234-5.201M24.573 18.773l6.235-5.201M8.983 8.366l6.231-5.199M24.575 8.366l6.231-5.199"/><g fill="none" stroke="black" stroke-width="1" stroke-linecap="square" stroke-miterlimit="500"><path d="M.342 29.181h31.181M.342 23.976h31.181M.342 18.773h31.181M.342 13.572h31.181M.342 8.366h31.181"/></g><path fill="param(fill)" d="M4.493 31.181H5.55L7.684 29.4l-.528-.442zM20.084 31.181h1.058l2.135-1.781-.529-.442z"/><path fill="none" stroke="black" stroke-width="1" stroke-linecap="square" stroke-miterlimit="500" d="M.342 3.202h31.181"/><path fill="param(fill)" d="M.919 2.98l.529.442L5.55 0H4.492zM16.511 2.98l.53.442L21.142 0h-1.059z"/><path fill="none" stroke="black" stroke-width="1" stroke-miterlimit="500" d="M40.161 29.181l6.237-5.205M55.752 29.181l6.238-5.205M32.364 23.976l6.237-5.203M47.956 23.976l6.237-5.203M32.363 13.572l6.238-5.206M47.956 13.572l6.237-5.206M40.162 18.773l6.234-5.201M55.753 18.773l6.236-5.201M40.164 8.366l6.231-5.199M55.755 8.366l6.232-5.199"/><g fill="none" stroke="black" stroke-width="1" stroke-linecap="square" stroke-miterlimit="500"><path d="M31.523 29.181h31.181M31.523 23.976h31.181M31.523 18.773h31.181M31.523 13.572h31.181M31.523 8.366h31.181"/></g><path fill="param(fill)" d="M35.673 31.181h1.058l2.134-1.781-.529-.442zM51.265 31.181h1.058l2.135-1.781-.53-.442z"/><path fill="none" stroke="black" stroke-width="1" stroke-linecap="square" stroke-miterlimit="500" d="M31.523 3.202h31.181"/><path fill="param(fill)" d="M32.1 2.98l.528.442L36.731 0h-1.059zM47.692 2.98l.529.442L52.323 0h-1.059z"/></svg>
