<svg xmlns="http://www.w3.org/2000/svg" width="57.374" height="57.373" viewBox="0 0 57.374 57.373"><path fill="none" stroke="black" stroke-width="1" stroke-miterlimit="500" d="M.341 54.854h56.693"/><path fill="none" stroke="black" stroke-width="1" stroke-linecap="square" stroke-miterlimit="500" d="M.341 54.854h56.693M.341 49.185h56.693M.341 43.514h56.693M.341 37.846h56.693M.341 32.175h56.693M.341 26.51h56.693M.341 20.837h56.693M.341 15.167h56.693M.341 9.498h56.693M.341 3.829h56.693M1.786 57.033v-2.179M15.961 57.033v-2.179M30.132 57.033v-2.179M44.306 57.033v-2.179"/><path fill="none" stroke="black" stroke-width="1" stroke-miterlimit="500" d="M8.875 54.854v-5.669M23.049 54.854v-5.669M37.22 54.854v-5.669M51.395 54.854v-5.669M1.786 49.185v-5.671M15.961 49.185v-5.671M30.132 49.185v-5.671M44.306 49.185v-5.671M1.786 37.846v-5.671M15.961 37.846v-5.671M30.132 37.846v-5.671M44.306 37.846v-5.671"/><path fill="none" stroke="black" stroke-width="1" stroke-linecap="square" stroke-miterlimit="500" d="M1.786 26.51v-5.673"/><path fill="none" stroke="black" stroke-width="1" stroke-miterlimit="500" d="M15.961 26.51v-5.673M30.132 26.51v-5.673M44.306 26.51v-5.673M1.786 15.167V9.498M15.961 15.167V9.498M30.132 15.167V9.498M44.306 15.167V9.498M8.875 43.514v-5.668M23.049 43.514v-5.668M37.22 43.514v-5.668M51.395 43.514v-5.668M8.875 32.175V26.51M23.049 32.175V26.51M37.22 32.175V26.51M51.395 32.175V26.51M8.875 20.837v-5.67M23.049 20.837v-5.67M37.22 20.837v-5.67M51.395 20.837v-5.67M8.875 9.498V3.829M23.049 9.498V3.829M37.22 9.498V3.829M51.395 9.498V3.829"/><path fill="none" stroke="black" stroke-width="1" stroke-linecap="square" stroke-miterlimit="500" d="M1.786 3.829V.34M15.961 3.829V.34M30.132 3.829V.34M44.306 3.829V.34"/><path fill="none" stroke="black" stroke-width="1" stroke-miterlimit="500" d="M33.841 23.65h6.872M48.157 23.65h6.872M19.524 23.65h6.872M5.208 23.65h6.872M40.999 17.979h6.872"/><path fill="none" stroke="black" stroke-width="1" stroke-linecap="square" stroke-miterlimit="500" d="M55.773 17.979h1.261"/><path fill="none" stroke="black" stroke-width="1" stroke-miterlimit="500" d="M26.683 17.979h6.871M12.366 17.979h6.872"/><path fill="none" stroke="black" stroke-width="1" stroke-linecap="square" stroke-miterlimit="500" d="M.34 17.979h4.124"/><path fill="none" stroke="black" stroke-width="1" stroke-miterlimit="500" d="M33.841 12.308h6.872M48.157 12.308h6.872M19.524 12.308h6.872M5.208 12.308h6.872M33.841.962h6.872M48.157.962h6.872M19.524.962h6.872M5.208.962h6.872M40.999 6.636h6.872"/><path fill="none" stroke="black" stroke-width="1" stroke-linecap="square" stroke-miterlimit="500" d="M55.773 6.636h1.261"/><path fill="none" stroke="black" stroke-width="1" stroke-miterlimit="500" d="M26.683 6.636h6.871M12.366 6.636h6.872"/><path fill="none" stroke="black" stroke-width="1" stroke-linecap="square" stroke-miterlimit="500" d="M.34 6.636h4.124"/><path fill="none" stroke="black" stroke-width="1" stroke-miterlimit="500" d="M33.841 34.997h6.872M48.157 34.997h6.872M19.524 34.997h6.872M5.208 34.997h6.872M40.999 29.325h6.872"/><path fill="none" stroke="black" stroke-width="1" stroke-linecap="square" stroke-miterlimit="500" d="M55.773 29.325h1.261"/><path fill="none" stroke="black" stroke-width="1" stroke-miterlimit="500" d="M26.683 29.325h6.871M12.366 29.325h6.872"/><path fill="none" stroke="black" stroke-width="1" stroke-linecap="square" stroke-miterlimit="500" d="M.34 29.325h4.124"/><path fill="none" stroke="black" stroke-width="1" stroke-miterlimit="500" d="M33.841 46.341h6.872M48.157 46.341h6.872M19.524 46.341h6.872M5.208 46.341h6.872M40.999 40.669h6.872"/><path fill="none" stroke="black" stroke-width="1" stroke-linecap="square" stroke-miterlimit="500" d="M55.773 40.669h1.261"/><path fill="none" stroke="black" stroke-width="1" stroke-miterlimit="500" d="M26.683 40.669h6.871M12.366 40.669h6.872"/><path fill="none" stroke="black" stroke-width="1" stroke-linecap="square" stroke-miterlimit="500" d="M.34 40.669h4.124"/><path fill="none" stroke="black" stroke-width="1" stroke-miterlimit="500" d="M40.999 52.013h6.872"/><path fill="none" stroke="black" stroke-width="1" stroke-linecap="square" stroke-miterlimit="500" d="M55.773 52.013h1.261"/><path fill="none" stroke="black" stroke-width="1" stroke-miterlimit="500" d="M26.683 52.013h6.871M12.366 52.013h6.872"/><path fill="none" stroke="black" stroke-width="1" stroke-linecap="square" stroke-miterlimit="500" d="M.34 52.013h4.124M.341 54.854h56.693M.341 49.185h56.693M.341 43.514h56.693M.341 37.846h56.693M.341 32.175h56.693M.341 26.51h56.693M.341 20.837h56.693M.341 15.167h56.693M.341 9.498h56.693M.341 3.829h56.693M1.786 57.033v-2.179M15.961 57.033v-2.179M30.132 57.033v-2.179M44.306 57.033v-2.179"/><path fill="none" stroke="black" stroke-width="1" stroke-miterlimit="500" d="M8.875 54.854v-5.669M23.049 54.854v-5.669M37.22 54.854v-5.669M51.395 54.854v-5.669M1.786 49.185v-5.671M15.961 49.185v-5.671M30.132 49.185v-5.671M44.306 49.185v-5.671M1.786 37.846v-5.671M15.961 37.846v-5.671M30.132 37.846v-5.671M44.306 37.846v-5.671"/><path fill="none" stroke="black" stroke-width="1" stroke-linecap="square" stroke-miterlimit="500" d="M1.786 26.51v-5.673"/><path fill="none" stroke="black" stroke-width="1" stroke-miterlimit="500" d="M15.961 26.51v-5.673M30.132 26.51v-5.673M44.306 26.51v-5.673M1.786 15.167V9.498M15.961 15.167V9.498M30.132 15.167V9.498M44.306 15.167V9.498M8.875 43.514v-5.668M23.049 43.514v-5.668M37.22 43.514v-5.668M51.395 43.514v-5.668M8.875 32.175V26.51M23.049 32.175V26.51M37.22 32.175V26.51M51.395 32.175V26.51M8.875 20.837v-5.67M23.049 20.837v-5.67M37.22 20.837v-5.67M51.395 20.837v-5.67M8.875 9.498V3.829M23.049 9.498V3.829M37.22 9.498V3.829M51.395 9.498V3.829"/><path fill="none" stroke="black" stroke-width="1" stroke-linecap="square" stroke-miterlimit="500" d="M1.786 3.829V.34M15.961 3.829V.34M30.132 3.829V.34M44.306 3.829V.34"/><path fill="none" stroke="black" stroke-width="1" stroke-miterlimit="500" d="M33.841 23.65h6.872M48.157 23.65h6.872M19.524 23.65h6.872M5.208 23.65h6.872M40.999 17.979h6.872"/><path fill="none" stroke="black" stroke-width="1" stroke-linecap="square" stroke-miterlimit="500" d="M55.773 17.979h1.261"/><path fill="none" stroke="black" stroke-width="1" stroke-miterlimit="500" d="M26.683 17.979h6.871M12.366 17.979h6.872"/><path fill="none" stroke="black" stroke-width="1" stroke-linecap="square" stroke-miterlimit="500" d="M.34 17.979h4.124"/><path fill="none" stroke="black" stroke-width="1" stroke-miterlimit="500" d="M33.841 12.308h6.872M48.157 12.308h6.872M19.524 12.308h6.872M5.208 12.308h6.872M33.841.962h6.872M48.157.962h6.872M19.524.962h6.872M5.208.962h6.872M40.999 6.636h6.872"/><path fill="none" stroke="black" stroke-width="1" stroke-linecap="square" stroke-miterlimit="500" d="M55.773 6.636h1.261"/><path fill="none" stroke="black" stroke-width="1" stroke-miterlimit="500" d="M26.683 6.636h6.871M12.366 6.636h6.872"/><path fill="none" stroke="black" stroke-width="1" stroke-linecap="square" stroke-miterlimit="500" d="M.34 6.636h4.124"/><path fill="none" stroke="black" stroke-width="1" stroke-miterlimit="500" d="M33.841 34.997h6.872M48.157 34.997h6.872M19.524 34.997h6.872M5.208 34.997h6.872M40.999 29.325h6.872"/><path fill="none" stroke="black" stroke-width="1" stroke-linecap="square" stroke-miterlimit="500" d="M55.773 29.325h1.261"/><path fill="none" stroke="black" stroke-width="1" stroke-miterlimit="500" d="M26.683 29.325h6.871M12.366 29.325h6.872"/><path fill="none" stroke="black" stroke-width="1" stroke-linecap="square" stroke-miterlimit="500" d="M.34 29.325h4.124"/><path fill="none" stroke="black" stroke-width="1" stroke-miterlimit="500" d="M33.841 46.341h6.872M48.157 46.341h6.872M19.524 46.341h6.872M5.208 46.341h6.872M40.999 40.669h6.872"/><path fill="none" stroke="black" stroke-width="1" stroke-linecap="square" stroke-miterlimit="500" d="M55.773 40.669h1.261"/><path fill="none" stroke="black" stroke-width="1" stroke-miterlimit="500" d="M26.683 40.669h6.871M12.366 40.669h6.872"/><path fill="none" stroke="black" stroke-width="1" stroke-linecap="square" stroke-miterlimit="500" d="M.34 40.669h4.124"/><path fill="none" stroke="black" stroke-width="1" stroke-miterlimit="500" d="M40.999 52.013h6.872"/><path fill="none" stroke="black" stroke-width="1" stroke-linecap="square" stroke-miterlimit="500" d="M55.773 52.013h1.261"/><path fill="none" stroke="black" stroke-width="1" stroke-miterlimit="500" d="M26.683 52.013h6.871M12.366 52.013h6.872"/><path fill="none" stroke="black" stroke-width="1" stroke-linecap="square" stroke-miterlimit="500" d="M.34 52.013h4.124"/></svg>
