<svg xmlns="http://www.w3.org/2000/svg" width="51.023" height="51.023" viewBox="0 0 51.023 51.023"><path fill="param(fill)" d="M20.131 45.187h.612v1.622h-.612zM7.375 42.916h.612v1.622h-.612zM7.375 45.187h.612v1.622h-.612zM7.375 47.457h.612v1.622h-.612zM20.131 42.916h.612v1.622h-.612zM20.131 47.457h.612v1.622h-.612zM.995 36.428h.612v1.623H.995zM.995 38.698h.612v1.623H.995zM.995 40.969h.612v1.623H.995zM13.752 36.428h.612v1.623h-.612zM13.752 38.698h.612v1.623h-.612zM13.752 40.969h.612v1.623h-.612zM.995 25.727h.612v1.621H.995zM.995 27.996h.612v1.622H.995zM13.752 25.727h.612v1.621h-.612zM13.752 27.996h.612v1.622h-.612zM7.375 29.941h.612v1.621h-.612zM7.375 32.211h.612v1.622h-.612zM7.375 34.481h.612v1.622h-.612zM20.131 29.941h.612v1.621h-.612zM20.131 32.211h.612v1.622h-.612zM20.131 34.481h.612v1.622h-.612z"/><g fill="none" stroke="black" stroke-width="1" stroke-miterlimit="500"><path d="M0 49.079h25.512M0 42.592h25.512M0 36.104h25.512M0 29.618h25.512"/></g><path fill="param(fill)" d="M.995 49.077h.612v.001H.995zM13.752 49.077h.612v.001h-.612zM.995 49.401h.612v1.622H.995zM13.752 49.401h.612v1.622h-.612zM0 32.4h.625v.813H0zM1.979 32.4h.625v.813h-.625zM12.756 32.4h.625v.813h-.625zM14.735 32.4h.625v.813h-.625zM0 45.375h.625v.813H0zM1.979 45.375h.625v.813h-.625zM12.756 45.375h.625v.813h-.625zM14.735 45.375h.625v.813h-.625zM6.378 25.914h.624v.813h-.624zM8.357 25.914h.625v.813h-.625zM19.134 25.914h.624v.813h-.624zM21.113 25.914h.625v.813h-.625zM6.378 38.888h.624v.814h-.624zM8.357 38.888h.625v.814h-.625zM19.134 38.888h.624v.814h-.624zM21.113 38.888h.625v.814h-.625z"/><path fill="none" d="M0 0h51.023v51.023H0z"/><path fill="param(fill)" d="M45.643 45.187h.612v1.622h-.612zM32.886 42.916h.612v1.622h-.612zM32.886 45.187h.612v1.622h-.612zM32.886 47.457h.612v1.622h-.612zM45.643 42.916h.612v1.622h-.612zM45.643 47.457h.612v1.622h-.612zM26.507 36.428h.612v1.623h-.612zM26.507 38.698h.612v1.623h-.612zM26.507 40.969h.612v1.623h-.612zM39.264 36.428h.612v1.623h-.612zM39.264 38.698h.612v1.623h-.612zM39.264 40.969h.612v1.623h-.612zM26.507 25.727h.612v1.621h-.612zM26.507 27.996h.612v1.622h-.612zM39.264 25.727h.612v1.621h-.612zM39.264 27.996h.612v1.622h-.612zM32.886 29.941h.612v1.621h-.612zM32.886 32.211h.612v1.622h-.612zM32.886 34.481h.612v1.622h-.612zM45.643 29.941h.612v1.621h-.612zM45.643 32.211h.612v1.622h-.612zM45.643 34.481h.612v1.622h-.612z"/><g fill="none" stroke="black" stroke-width="1" stroke-miterlimit="500"><path d="M25.512 49.079h25.511M25.512 42.592h25.511M25.512 36.104h25.511M25.512 29.618h25.511"/></g><path fill="param(fill)" d="M26.507 49.077h.612v.001h-.612zM39.264 49.077h.612v.001h-.612zM26.507 49.401h.612v1.622h-.612zM39.264 49.401h.612v1.622h-.612zM25.512 32.4h.625v.813h-.625zM27.491 32.4h.625v.813h-.625zM38.268 32.4h.625v.813h-.625zM40.247 32.4h.625v.813h-.625zM25.512 45.375h.625v.813h-.625zM27.491 45.375h.625v.813h-.625zM38.268 45.375h.625v.813h-.625zM40.247 45.375h.625v.813h-.625zM31.89 25.914h.624v.813h-.624zM33.869 25.914h.625v.813h-.625zM44.646 25.914h.624v.813h-.624zM46.625 25.914h.625v.813h-.625zM31.89 38.888h.624v.814h-.624zM33.869 38.888h.625v.814h-.625zM44.646 38.888h.624v.814h-.624zM46.625 38.888h.625v.814h-.625zM20.131 19.675h.612v1.622h-.612zM7.375 17.404h.612v1.622h-.612zM7.375 19.675h.612v1.622h-.612zM7.375 21.945h.612v1.622h-.612zM20.131 17.404h.612v1.622h-.612zM20.131 21.945h.612v1.622h-.612zM.995 10.916h.612v1.623H.995zM.995 13.187h.612v1.623H.995zM.995 15.457h.612v1.623H.995zM13.752 10.916h.612v1.623h-.612zM13.752 13.187h.612v1.623h-.612zM13.752 15.457h.612v1.623h-.612zM.995.215h.612v1.621H.995zM.995 2.484h.612v1.622H.995zM13.752.215h.612v1.621h-.612zM13.752 2.484h.612v1.622h-.612zM7.375 4.43h.612v1.621h-.612zM7.375 6.699h.612v1.622h-.612zM7.375 8.97h.612v1.622h-.612zM20.131 4.43h.612v1.621h-.612zM20.131 6.699h.612v1.622h-.612zM20.131 8.97h.612v1.622h-.612z"/><g fill="none" stroke="black" stroke-width="1" stroke-miterlimit="500"><path d="M0 23.567h25.512M0 17.08h25.512M0 10.592h25.512M0 4.106h25.512"/></g><path fill="param(fill)" d="M.995 23.565h.612v.001H.995zM13.752 23.565h.612v.001h-.612zM.995 23.89h.612v1.622H.995zM13.752 23.89h.612v1.622h-.612zM0 6.889h.625v.813H0zM1.979 6.889h.625v.813h-.625zM12.756 6.889h.625v.813h-.625zM14.735 6.889h.625v.813h-.625zM0 19.863h.625v.813H0zM1.979 19.863h.625v.813h-.625zM12.756 19.863h.625v.813h-.625zM14.735 19.863h.625v.813h-.625zM6.378.402h.624v.813h-.624zM8.357.402h.625v.813h-.625zM19.134.402h.624v.813h-.624zM21.113.402h.625v.813h-.625zM6.378 13.376h.624v.814h-.624zM8.357 13.376h.625v.814h-.625zM19.134 13.376h.624v.814h-.624zM21.113 13.376h.625v.814h-.625zM45.643 19.675h.612v1.622h-.612zM32.886 17.404h.612v1.622h-.612zM32.886 19.675h.612v1.622h-.612zM32.886 21.945h.612v1.622h-.612zM45.643 17.404h.612v1.622h-.612zM45.643 21.945h.612v1.622h-.612zM26.507 10.916h.612v1.623h-.612zM26.507 13.187h.612v1.623h-.612zM26.507 15.457h.612v1.623h-.612zM39.264 10.916h.612v1.623h-.612zM39.264 13.187h.612v1.623h-.612zM39.264 15.457h.612v1.623h-.612zM26.507.215h.612v1.621h-.612zM26.507 2.484h.612v1.622h-.612zM39.264.215h.612v1.621h-.612zM39.264 2.484h.612v1.622h-.612zM32.886 4.43h.612v1.621h-.612zM32.886 6.699h.612v1.622h-.612zM32.886 8.97h.612v1.622h-.612zM45.643 4.43h.612v1.621h-.612zM45.643 6.699h.612v1.622h-.612zM45.643 8.97h.612v1.622h-.612z"/><g fill="none" stroke="black" stroke-width="1" stroke-miterlimit="500"><path d="M25.512 23.567h25.511M25.512 17.08h25.511M25.512 10.592h25.511M25.512 4.106h25.511"/></g><path fill="param(fill)" d="M26.507 23.565h.612v.001h-.612zM39.264 23.565h.612v.001h-.612zM26.507 23.89h.612v1.622h-.612zM39.264 23.89h.612v1.622h-.612zM25.512 6.889h.625v.813h-.625zM27.491 6.889h.625v.813h-.625zM38.268 6.889h.625v.813h-.625zM40.247 6.889h.625v.813h-.625zM25.512 19.863h.625v.813h-.625zM27.491 19.863h.625v.813h-.625zM38.268 19.863h.625v.813h-.625zM40.247 19.863h.625v.813h-.625zM31.89.402h.624v.813h-.624zM33.869.402h.625v.813h-.625zM44.646.402h.624v.813h-.624zM46.625.402h.625v.813h-.625zM31.89 13.376h.624v.814h-.624zM33.869 13.376h.625v.814h-.625zM44.646 13.376h.624v.814h-.624zM46.625 13.376h.625v.814h-.625z"/></svg>
