<svg xmlns="http://www.w3.org/2000/svg" width="48.181" height="47.622" viewBox="0 0 48.181 47.622"><g fill="none" stroke="black" stroke-width="1" stroke-linejoin="round" stroke-miterlimit="500"><path d="M.279 45.638h7.158"/><path stroke-linecap="square" d="M.279 45.638h7.158M12.199 45.638h7.16"/></g><path fill="none" stroke="black" stroke-width="1" stroke-linecap="square" stroke-linejoin="round" stroke-miterlimit="500" d="M7.063 41.669h7.16M18.999 41.669h5.091M.279 41.669h2.025M4.271 41.669h.826M16.266 41.669h.826"/><g fill="none" stroke="black" stroke-width="1" stroke-linecap="square" stroke-linejoin="round" stroke-miterlimit="500"><path d="M9.405 45.639h.825M21.4 45.639h.826"/></g><g fill="none" stroke="black" stroke-width="1" stroke-linejoin="round" stroke-miterlimit="500"><path d="M.279 37.701h7.158"/><path stroke-linecap="square" d="M.279 37.701h7.158M12.199 37.701h7.16"/></g><path fill="none" stroke="black" stroke-width="1" stroke-linecap="square" stroke-linejoin="round" stroke-miterlimit="500" d="M7.063 33.732h7.16M18.999 33.732h5.091M.279 33.732h2.025M4.271 33.732h.826M16.266 33.732h.826"/><g fill="none" stroke="black" stroke-width="1" stroke-linecap="square" stroke-linejoin="round" stroke-miterlimit="500"><path d="M9.405 37.702h.825M21.4 37.702h.826"/></g><g fill="none" stroke="black" stroke-width="1" stroke-linejoin="round" stroke-miterlimit="500"><path d="M.279 29.765h7.158"/><path stroke-linecap="square" d="M.279 29.765h7.158M12.199 29.765h7.16"/></g><path fill="none" stroke="black" stroke-width="1" stroke-linecap="square" stroke-linejoin="round" stroke-miterlimit="500" d="M7.063 25.796h7.16M18.999 25.796h5.091M.279 25.796h2.025M4.271 25.796h.826M16.266 25.796h.826"/><g fill="none" stroke="black" stroke-width="1" stroke-linecap="square" stroke-linejoin="round" stroke-miterlimit="500"><path d="M9.405 29.766h.825M21.4 29.766h.826"/></g><path fill="none" d="M.28 0h47.622v47.622H.28z"/><g fill="none" stroke="black" stroke-width="1" stroke-linejoin="round" stroke-miterlimit="500"><path d="M24.09 45.638h7.158"/><path stroke-linecap="square" d="M24.09 45.638h7.158M36.01 45.638h7.16"/></g><path fill="none" stroke="black" stroke-width="1" stroke-linecap="square" stroke-linejoin="round" stroke-miterlimit="500" d="M30.875 41.669h7.159M42.809 41.669h5.092M24.09 41.669h2.025M28.082 41.669h.826M40.076 41.669h.826"/><g fill="none" stroke="black" stroke-width="1" stroke-linecap="square" stroke-linejoin="round" stroke-miterlimit="500"><path d="M33.216 45.639h.825M45.211 45.639h.826"/></g><g fill="none" stroke="black" stroke-width="1" stroke-linejoin="round" stroke-miterlimit="500"><path d="M24.09 37.701h7.158"/><path stroke-linecap="square" d="M24.09 37.701h7.158M36.01 37.701h7.16"/></g><path fill="none" stroke="black" stroke-width="1" stroke-linecap="square" stroke-linejoin="round" stroke-miterlimit="500" d="M30.875 33.732h7.159M42.809 33.732h5.092M24.09 33.732h2.025M28.082 33.732h.826M40.076 33.732h.826"/><g fill="none" stroke="black" stroke-width="1" stroke-linecap="square" stroke-linejoin="round" stroke-miterlimit="500"><path d="M33.216 37.702h.825M45.211 37.702h.826"/></g><g fill="none" stroke="black" stroke-width="1" stroke-linejoin="round" stroke-miterlimit="500"><path d="M24.09 29.765h7.158"/><path stroke-linecap="square" d="M24.09 29.765h7.158M36.01 29.765h7.16"/></g><path fill="none" stroke="black" stroke-width="1" stroke-linecap="square" stroke-linejoin="round" stroke-miterlimit="500" d="M30.875 25.796h7.159M42.809 25.796h5.092M24.09 25.796h2.025M28.082 25.796h.826M40.076 25.796h.826"/><g fill="none" stroke="black" stroke-width="1" stroke-linecap="square" stroke-linejoin="round" stroke-miterlimit="500"><path d="M33.216 29.766h.825M45.211 29.766h.826"/></g><g fill="none" stroke="black" stroke-width="1" stroke-linejoin="round" stroke-miterlimit="500"><path d="M.279 21.827h7.158"/><path stroke-linecap="square" d="M.279 21.827h7.158M12.199 21.827h7.16"/></g><path fill="none" stroke="black" stroke-width="1" stroke-linecap="square" stroke-linejoin="round" stroke-miterlimit="500" d="M7.063 17.858h7.16M18.999 17.858h5.091M.279 17.858h2.025M4.271 17.858h.826M16.266 17.858h.826"/><g fill="none" stroke="black" stroke-width="1" stroke-linecap="square" stroke-linejoin="round" stroke-miterlimit="500"><path d="M9.405 21.828h.825M21.4 21.828h.826"/></g><g fill="none" stroke="black" stroke-width="1" stroke-linejoin="round" stroke-miterlimit="500"><path d="M.279 13.891h7.158"/><path stroke-linecap="square" d="M.279 13.891h7.158M12.199 13.891h7.16"/></g><path fill="none" stroke="black" stroke-width="1" stroke-linecap="square" stroke-linejoin="round" stroke-miterlimit="500" d="M7.063 9.922h7.16M18.999 9.922h5.091M.279 9.922h2.025M4.271 9.922h.826M16.266 9.922h.826"/><g fill="none" stroke="black" stroke-width="1" stroke-linecap="square" stroke-linejoin="round" stroke-miterlimit="500"><path d="M9.405 13.892h.825M21.4 13.892h.826"/></g><g fill="none" stroke="black" stroke-width="1" stroke-linejoin="round" stroke-miterlimit="500"><path d="M.279 5.954h7.158"/><path stroke-linecap="square" d="M.279 5.954h7.158M12.199 5.954h7.16"/></g><path fill="none" stroke="black" stroke-width="1" stroke-linecap="square" stroke-linejoin="round" stroke-miterlimit="500" d="M7.063 1.985h7.16M18.999 1.985h5.091M.279 1.985h2.025M4.271 1.985h.826M16.266 1.985h.826"/><g fill="none" stroke="black" stroke-width="1" stroke-linecap="square" stroke-linejoin="round" stroke-miterlimit="500"><path d="M9.405 5.955h.825M21.4 5.955h.826"/></g><g fill="none" stroke="black" stroke-width="1" stroke-linejoin="round" stroke-miterlimit="500"><path d="M24.09 21.827h7.158"/><path stroke-linecap="square" d="M24.09 21.827h7.158M36.01 21.827h7.16"/></g><path fill="none" stroke="black" stroke-width="1" stroke-linecap="square" stroke-linejoin="round" stroke-miterlimit="500" d="M30.875 17.858h7.159M42.809 17.858h5.092M24.09 17.858h2.025M28.082 17.858h.826M40.076 17.858h.826"/><g fill="none" stroke="black" stroke-width="1" stroke-linecap="square" stroke-linejoin="round" stroke-miterlimit="500"><path d="M33.216 21.828h.825M45.211 21.828h.826"/></g><g fill="none" stroke="black" stroke-width="1" stroke-linejoin="round" stroke-miterlimit="500"><path d="M24.09 13.891h7.158"/><path stroke-linecap="square" d="M24.09 13.891h7.158M36.01 13.891h7.16"/></g><path fill="none" stroke="black" stroke-width="1" stroke-linecap="square" stroke-linejoin="round" stroke-miterlimit="500" d="M30.875 9.922h7.159M42.809 9.922h5.092M24.09 9.922h2.025M28.082 9.922h.826M40.076 9.922h.826"/><g fill="none" stroke="black" stroke-width="1" stroke-linecap="square" stroke-linejoin="round" stroke-miterlimit="500"><path d="M33.216 13.892h.825M45.211 13.892h.826"/></g><g fill="none" stroke="black" stroke-width="1" stroke-linejoin="round" stroke-miterlimit="500"><path d="M24.09 5.954h7.158"/><path stroke-linecap="square" d="M24.09 5.954h7.158M36.01 5.954h7.16"/></g><path fill="none" stroke="black" stroke-width="1" stroke-linecap="square" stroke-linejoin="round" stroke-miterlimit="500" d="M30.875 1.985h7.159M42.809 1.985h5.092M24.09 1.985h2.025M28.082 1.985h.826M40.076 1.985h.826"/><g fill="none" stroke="black" stroke-width="1" stroke-linecap="square" stroke-linejoin="round" stroke-miterlimit="500"><path d="M33.216 5.955h.825M45.211 5.955h.826"/></g></svg>
