<svg xmlns="http://www.w3.org/2000/svg" width="41.68" height="41.103" viewBox="0 0 41.68 41.103"><path fill="none" d="M.289 0h41.103v41.103H.289z"/><path fill="none" stroke="black" stroke-width="1" stroke-linejoin="round" stroke-miterlimit="500" d="M38.275 13.284h-5.317"/><path fill="none" stroke="black" stroke-width="1" stroke-linecap="square" stroke-linejoin="round" stroke-miterlimit="500" d="M38.275 13.284h-5.317M30.163 13.284H24.85M22.163 13.284H16.85M14.053 13.284H8.739M5.392 13.284H.289M41.391 15.34h-3.826M34.22 15.34h-5.314M26.109 15.34h-5.314M18.107 15.34h-5.313M9.997 15.34H4.683M1.281 15.34H.289"/><path fill="none" stroke="black" stroke-width="1" stroke-linejoin="round" stroke-miterlimit="500" d="M38.275 9.174h-5.317"/><path fill="none" stroke="black" stroke-width="1" stroke-linecap="square" stroke-linejoin="round" stroke-miterlimit="500" d="M38.275 9.174h-5.317M30.163 9.174H24.85M22.163 9.174H16.85M14.053 9.174H8.739M5.392 9.174H.289M41.391 11.229h-3.826M34.22 11.229h-5.314M26.109 11.229h-5.314M18.107 11.229h-5.313M9.997 11.229H4.683M1.281 11.229H.289"/><path fill="none" stroke="black" stroke-width="1" stroke-linejoin="round" stroke-miterlimit="500" d="M38.275 5.063h-5.317"/><path fill="none" stroke="black" stroke-width="1" stroke-linecap="square" stroke-linejoin="round" stroke-miterlimit="500" d="M38.275 5.063h-5.317M30.163 5.063H24.85M22.163 5.063H16.85M14.053 5.063H8.739M5.392 5.063H.289M41.391 7.119h-3.826M34.22 7.119h-5.314M26.109 7.119h-5.314M18.107 7.119h-5.313M9.997 7.119H4.683M1.281 7.119H.289"/><path fill="none" stroke="black" stroke-width="1" stroke-linejoin="round" stroke-miterlimit="500" d="M38.275.953h-5.317"/><path fill="none" stroke="black" stroke-width="1" stroke-linecap="square" stroke-linejoin="round" stroke-miterlimit="500" d="M38.275.953h-5.317M30.163.953H24.85M22.163.953H16.85M14.053.953H8.739M5.392.953H.289M41.391 3.008h-3.826M34.22 3.008h-5.314M26.109 3.008h-5.314M18.107 3.008h-5.313M9.997 3.008H4.683M1.281 3.008H.289M38.275 17.396h-5.317M30.163 17.396H24.85M22.163 17.396H16.85M14.053 17.396H8.739M5.392 17.396H.289M41.391 19.45h-3.826M34.22 19.45h-5.314M26.109 19.45h-5.314M18.107 19.45h-5.313M9.997 19.45H4.683M1.281 19.45H.289M38.275 21.508h-5.317M30.163 21.508H24.85M22.163 21.508H16.85M14.053 21.508H8.739M5.392 21.508H.289M41.391 23.559h-3.826M34.22 23.559h-5.314M26.109 23.559h-5.314M18.107 23.559h-5.313M9.997 23.559H4.683M1.281 23.559H.289M38.275 25.615h-5.317M30.163 25.615H24.85M22.163 25.615H16.85M14.053 25.615H8.739M5.392 25.615H.289M41.391 27.673h-3.826M34.22 27.673h-5.314M26.109 27.673h-5.314M18.107 27.673h-5.313M9.997 27.673H4.683M1.281 27.673H.289M38.275 29.725h-5.317M30.163 29.725H24.85M22.163 29.725H16.85M14.053 29.725H8.739M5.392 29.725H.289M41.391 31.782h-3.826M34.22 31.782h-5.314M26.109 31.782h-5.314M18.107 31.782h-5.313M9.997 31.782H4.683M1.281 31.782H.289M38.275 33.837h-5.317M30.163 33.837H24.85M22.163 33.837H16.85M14.053 33.837H8.739M5.392 33.837H.289M41.391 35.89h-3.826M34.22 35.89h-5.314M26.109 35.89h-5.314M18.107 35.89h-5.313M9.997 35.89H4.683M1.281 35.89H.289M38.275 37.947h-5.317M30.163 37.947H24.85M22.163 37.947H16.85M14.053 37.947H8.739M5.392 37.947H.289M41.391 40.002h-3.826M34.22 40.002h-5.314M26.109 40.002h-5.314M18.107 40.002h-5.313M9.997 40.002H4.683M1.281 40.002H.289"/></svg>
