<svg xmlns="http://www.w3.org/2000/svg" width="46.838" height="46.488" viewBox="0 0 46.838 46.488"><path fill="none" d="M.174 0h46.488v46.488H.174z"/><path fill="none" stroke="black" stroke-width="1" stroke-linejoin="round" stroke-miterlimit="500" d="M.174 44.827h5.635"/><path fill="none" stroke="black" stroke-width="1" stroke-linecap="square" stroke-linejoin="round" stroke-miterlimit="500" d="M.174 44.827h5.635"/><path fill="none" stroke="black" stroke-width="1" stroke-linejoin="round" stroke-miterlimit="500" d="M9.262 44.827h8.346M20.886 44.827h8.343M32.51 44.827h8.341"/><path fill="none" stroke="black" stroke-width="1" stroke-linecap="square" stroke-linejoin="round" stroke-miterlimit="500" d="M44.31 44.827h2.353"/><path fill="none" stroke="black" stroke-width="1" stroke-linejoin="round" stroke-miterlimit="500" d="M3.452 41.508h8.347M15.072 41.508h8.346M26.696 41.508h8.344M38.321 41.508h8.342"/><path fill="none" stroke="black" stroke-width="1" stroke-linecap="square" stroke-linejoin="round" stroke-miterlimit="500" d="M.174 38.186h5.635"/><path fill="none" stroke="black" stroke-width="1" stroke-linejoin="round" stroke-miterlimit="500" d="M9.262 38.186h8.346M20.886 38.186h8.343M32.51 38.186h8.341"/><path fill="none" stroke="black" stroke-width="1" stroke-linecap="square" stroke-linejoin="round" stroke-miterlimit="500" d="M44.31 38.186h2.353"/><path fill="none" stroke="black" stroke-width="1" stroke-linejoin="round" stroke-miterlimit="500" d="M3.452 34.865h8.347M15.072 34.865h8.346M26.696 34.865h8.344M38.321 34.865h8.342"/><path fill="none" stroke="black" stroke-width="1" stroke-linecap="square" stroke-linejoin="round" stroke-miterlimit="500" d="M.174 31.545h5.635"/><path fill="none" stroke="black" stroke-width="1" stroke-linejoin="round" stroke-miterlimit="500" d="M9.262 31.545h8.346M20.886 31.545h8.343M32.51 31.545h8.341"/><path fill="none" stroke="black" stroke-width="1" stroke-linecap="square" stroke-linejoin="round" stroke-miterlimit="500" d="M44.31 31.545h2.353"/><path fill="none" stroke="black" stroke-width="1" stroke-linejoin="round" stroke-miterlimit="500" d="M3.452 28.225h8.347M15.072 28.225h8.346M26.696 28.225h8.344M38.321 28.225h8.342"/><path fill="none" stroke="black" stroke-width="1" stroke-linecap="square" stroke-linejoin="round" stroke-miterlimit="500" d="M.174 24.902h5.635"/><path fill="none" stroke="black" stroke-width="1" stroke-linejoin="round" stroke-miterlimit="500" d="M9.262 24.902h8.346M20.886 24.902h8.343M32.51 24.902h8.341"/><path fill="none" stroke="black" stroke-width="1" stroke-linecap="square" stroke-linejoin="round" stroke-miterlimit="500" d="M44.31 24.902h2.353"/><path fill="none" stroke="black" stroke-width="1" stroke-linejoin="round" stroke-miterlimit="500" d="M3.452 21.583h8.347M15.072 21.583h8.346M26.696 21.583h8.344M38.321 21.583h8.342"/><path fill="none" stroke="black" stroke-width="1" stroke-linecap="square" stroke-linejoin="round" stroke-miterlimit="500" d="M.174 18.262h5.635"/><path fill="none" stroke="black" stroke-width="1" stroke-linejoin="round" stroke-miterlimit="500" d="M9.262 18.262h8.346M20.886 18.262h8.343M32.51 18.262h8.341"/><path fill="none" stroke="black" stroke-width="1" stroke-linecap="square" stroke-linejoin="round" stroke-miterlimit="500" d="M44.31 18.262h2.353"/><path fill="none" stroke="black" stroke-width="1" stroke-linejoin="round" stroke-miterlimit="500" d="M3.452 14.941h8.347M15.072 14.941h8.346M26.696 14.941h8.344M38.321 14.941h8.342"/><path fill="none" stroke="black" stroke-width="1" stroke-linecap="square" stroke-linejoin="round" stroke-miterlimit="500" d="M.174 11.619h5.635"/><path fill="none" stroke="black" stroke-width="1" stroke-linejoin="round" stroke-miterlimit="500" d="M9.262 11.619h8.346M20.886 11.619h8.343M32.51 11.619h8.341"/><path fill="none" stroke="black" stroke-width="1" stroke-linecap="square" stroke-linejoin="round" stroke-miterlimit="500" d="M44.31 11.619h2.353"/><path fill="none" stroke="black" stroke-width="1" stroke-linejoin="round" stroke-miterlimit="500" d="M3.452 8.3h8.347M15.072 8.3h8.346M26.696 8.3h8.344M38.321 8.3h8.342"/><path fill="none" stroke="black" stroke-width="1" stroke-linecap="square" stroke-linejoin="round" stroke-miterlimit="500" d="M.174 4.979h5.635"/><path fill="none" stroke="black" stroke-width="1" stroke-linejoin="round" stroke-miterlimit="500" d="M9.262 4.979h8.346M20.886 4.979h8.343M32.51 4.979h8.341"/><path fill="none" stroke="black" stroke-width="1" stroke-linecap="square" stroke-linejoin="round" stroke-miterlimit="500" d="M44.31 4.979h2.353"/><path fill="none" stroke="black" stroke-width="1" stroke-linejoin="round" stroke-miterlimit="500" d="M3.452 1.658h8.347M15.072 1.658h8.346M26.696 1.658h8.344M38.321 1.658h8.342"/></svg>
