<svg xmlns="http://www.w3.org/2000/svg" width="56.136" height="55.559" viewBox="0 0 56.136 55.559"><path fill="none" d="M.288 0h55.56v55.559H.288z"/><path fill="none" stroke="black" stroke-width="1" stroke-linecap="square" stroke-linejoin="round" stroke-miterlimit="500" d="M.288 53.571h1.169M.288 53.571h1.169"/><path fill="none" stroke="black" stroke-width="1" stroke-linejoin="round" stroke-miterlimit="500" d="M5.845 53.571h7.017M16.955 53.571h7.019M28.067 53.571h7.018M39.18 53.571h7.014"/><path fill="none" stroke="black" stroke-width="1" stroke-linecap="square" stroke-linejoin="round" stroke-miterlimit="500" d="M50.584 53.571h5.264"/><path fill="none" stroke="black" stroke-width="1" stroke-linejoin="round" stroke-miterlimit="500" d="M.288 49.604h7.021M11.398 49.604h7.021M22.511 49.604h7.02M33.621 49.604h7.021M44.736 49.604h7.015"/><path fill="none" stroke="black" stroke-width="1" stroke-linecap="square" stroke-linejoin="round" stroke-miterlimit="500" d="M.288 45.635h1.169"/><path fill="none" stroke="black" stroke-width="1" stroke-linejoin="round" stroke-miterlimit="500" d="M5.845 45.635h7.017M16.955 45.635h7.019M28.067 45.635h7.018M39.18 45.635h7.014"/><path fill="none" stroke="black" stroke-width="1" stroke-linecap="square" stroke-linejoin="round" stroke-miterlimit="500" d="M50.584 45.635h5.264"/><path fill="none" stroke="black" stroke-width="1" stroke-linejoin="round" stroke-miterlimit="500" d="M.288 41.668h7.021M11.398 41.668h7.021M22.511 41.668h7.02M33.621 41.668h7.021M44.736 41.668h7.015"/><path fill="none" stroke="black" stroke-width="1" stroke-linecap="square" stroke-linejoin="round" stroke-miterlimit="500" d="M.288 37.698h1.169"/><path fill="none" stroke="black" stroke-width="1" stroke-linejoin="round" stroke-miterlimit="500" d="M5.845 37.698h7.017M16.955 37.698h7.019M28.067 37.698h7.018M39.18 37.698h7.014"/><path fill="none" stroke="black" stroke-width="1" stroke-linecap="square" stroke-linejoin="round" stroke-miterlimit="500" d="M50.584 37.698h5.264"/><path fill="none" stroke="black" stroke-width="1" stroke-linejoin="round" stroke-miterlimit="500" d="M.288 33.731h7.021M11.398 33.731h7.021M22.511 33.731h7.02M33.621 33.731h7.021M44.736 33.731h7.015"/><path fill="none" stroke="black" stroke-width="1" stroke-linecap="square" stroke-linejoin="round" stroke-miterlimit="500" d="M.288 29.76h1.169"/><path fill="none" stroke="black" stroke-width="1" stroke-linejoin="round" stroke-miterlimit="500" d="M5.845 29.76h7.017M16.955 29.76h7.019M28.067 29.76h7.018M39.18 29.76h7.014"/><path fill="none" stroke="black" stroke-width="1" stroke-linecap="square" stroke-linejoin="round" stroke-miterlimit="500" d="M50.584 29.76h5.264"/><path fill="none" stroke="black" stroke-width="1" stroke-linejoin="round" stroke-miterlimit="500" d="M.288 25.792h7.021M11.398 25.792h7.021M22.511 25.792h7.02M33.621 25.792h7.021M44.736 25.792h7.015"/><path fill="none" stroke="black" stroke-width="1" stroke-linecap="square" stroke-linejoin="round" stroke-miterlimit="500" d="M.288 21.827h1.169"/><path fill="none" stroke="black" stroke-width="1" stroke-linejoin="round" stroke-miterlimit="500" d="M5.845 21.827h7.017M16.955 21.827h7.019M28.067 21.827h7.018M39.18 21.827h7.014"/><path fill="none" stroke="black" stroke-width="1" stroke-linecap="square" stroke-linejoin="round" stroke-miterlimit="500" d="M50.584 21.827h5.264"/><path fill="none" stroke="black" stroke-width="1" stroke-linejoin="round" stroke-miterlimit="500" d="M.288 17.855h7.021M11.398 17.855h7.021M22.511 17.855h7.02M33.621 17.855h7.021M44.736 17.855h7.015"/><path fill="none" stroke="black" stroke-width="1" stroke-linecap="square" stroke-linejoin="round" stroke-miterlimit="500" d="M.288 13.889h1.169"/><path fill="none" stroke="black" stroke-width="1" stroke-linejoin="round" stroke-miterlimit="500" d="M5.845 13.889h7.017M16.955 13.889h7.019M28.067 13.889h7.018M39.18 13.889h7.014"/><path fill="none" stroke="black" stroke-width="1" stroke-linecap="square" stroke-linejoin="round" stroke-miterlimit="500" d="M50.584 13.889h5.264"/><path fill="none" stroke="black" stroke-width="1" stroke-linejoin="round" stroke-miterlimit="500" d="M.288 9.92h7.021M11.398 9.92h7.021M22.511 9.92h7.02M33.621 9.92h7.021M44.736 9.92h7.015"/><path fill="none" stroke="black" stroke-width="1" stroke-linecap="square" stroke-linejoin="round" stroke-miterlimit="500" d="M.288 5.952h1.169"/><path fill="none" stroke="black" stroke-width="1" stroke-linejoin="round" stroke-miterlimit="500" d="M5.845 5.952h7.017M16.955 5.952h7.019M28.067 5.952h7.018M39.18 5.952h7.014"/><path fill="none" stroke="black" stroke-width="1" stroke-linecap="square" stroke-linejoin="round" stroke-miterlimit="500" d="M50.584 5.952h5.264"/><path fill="none" stroke="black" stroke-width="1" stroke-linejoin="round" stroke-miterlimit="500" d="M.288 1.983h7.021M11.398 1.983h7.021M22.511 1.983h7.02M33.621 1.983h7.021M44.736 1.983h7.015"/></svg>
