<svg xmlns="http://www.w3.org/2000/svg" width="48.21" height="47.622" viewBox="0 0 48.21 47.622"><g fill="none" stroke="black" stroke-width="1" stroke-linejoin="round" stroke-miterlimit="500"><path d="M.294 45.639h8.31"/><path stroke-linecap="square" d="M.294 45.639h8.31M12.215 45.639h8.314"/></g><path fill="none" stroke="black" stroke-width="1" stroke-linecap="square" stroke-linejoin="round" stroke-miterlimit="500" d="M6.252 41.668h8.313M18.192 41.668h5.912"/><path fill="param(fill)" d="M5.248 41.67c0-.373-.362-.676-.804-.676-.439 0-.794.303-.794.676s.355.672.794.672c.442 0 .804-.299.804-.672M11.24 45.639c0-.373-.362-.676-.803-.676-.44 0-.794.303-.794.676s.354.672.794.672c.441 0 .803-.299.803-.672M23.225 45.639c0-.373-.361-.676-.803-.676-.438 0-.795.303-.795.676s.356.672.795.672c.441 0 .803-.299.803-.672M17.232 41.67c0-.373-.362-.676-.803-.676s-.795.303-.795.676.354.672.795.672.803-.299.803-.672"/><path fill="none" stroke="black" stroke-width="1" stroke-linecap="square" stroke-linejoin="round" stroke-miterlimit="500" d="M.294 41.668h2.351"/><g fill="none" stroke="black" stroke-width="1" stroke-linejoin="round" stroke-miterlimit="500"><path d="M24.104 45.639h8.311"/><path stroke-linecap="square" d="M24.104 45.639h8.311M36.026 45.639h8.315"/></g><path fill="none" stroke="black" stroke-width="1" stroke-linecap="square" stroke-linejoin="round" stroke-miterlimit="500" d="M30.064 41.668h8.314M42.004 41.668h5.912"/><path fill="param(fill)" d="M29.06 41.67c0-.373-.361-.676-.806-.676-.438 0-.793.303-.793.676s.354.672.793.672c.444 0 .806-.299.806-.672M35.052 45.639c0-.373-.361-.676-.803-.676-.44 0-.795.303-.795.676s.354.672.795.672c.441 0 .803-.299.803-.672M47.036 45.639c0-.373-.361-.676-.802-.676-.439 0-.796.303-.796.676s.356.672.796.672c.441 0 .802-.299.802-.672M41.044 41.67c0-.373-.361-.676-.803-.676-.44 0-.795.303-.795.676s.354.672.795.672c.442 0 .803-.299.803-.672"/><path fill="none" stroke="black" stroke-width="1" stroke-linecap="square" stroke-linejoin="round" stroke-miterlimit="500" d="M24.104 41.668h2.352"/><g fill="none" stroke="black" stroke-width="1" stroke-linejoin="round" stroke-miterlimit="500"><path d="M.294 37.703h8.31"/><path stroke-linecap="square" d="M.294 37.703h8.31M12.215 37.703h8.314"/></g><path fill="none" stroke="black" stroke-width="1" stroke-linecap="square" stroke-linejoin="round" stroke-miterlimit="500" d="M6.252 33.732h8.313M18.192 33.732h5.912"/><path fill="param(fill)" d="M5.248 33.734c0-.373-.362-.676-.804-.676-.439 0-.794.303-.794.676s.355.672.794.672c.442 0 .804-.299.804-.672M11.24 37.703c0-.373-.362-.676-.803-.676-.44 0-.794.303-.794.676 0 .371.354.67.794.67.441 0 .803-.299.803-.67M23.225 37.703c0-.373-.361-.676-.803-.676-.438 0-.795.303-.795.676 0 .371.356.67.795.67.441 0 .803-.299.803-.67M17.232 33.734c0-.373-.362-.676-.803-.676s-.795.303-.795.676.354.672.795.672.803-.299.803-.672"/><path fill="none" stroke="black" stroke-width="1" stroke-linecap="square" stroke-linejoin="round" stroke-miterlimit="500" d="M.294 33.732h2.351"/><g fill="none" stroke="black" stroke-width="1" stroke-linejoin="round" stroke-miterlimit="500"><path d="M24.104 37.703h8.311"/><path stroke-linecap="square" d="M24.104 37.703h8.311M36.026 37.703h8.315"/></g><path fill="none" stroke="black" stroke-width="1" stroke-linecap="square" stroke-linejoin="round" stroke-miterlimit="500" d="M30.064 33.732h8.314M42.004 33.732h5.912"/><path fill="param(fill)" d="M29.06 33.734c0-.373-.361-.676-.806-.676-.438 0-.793.303-.793.676s.354.672.793.672c.444 0 .806-.299.806-.672M35.052 37.703c0-.373-.361-.676-.803-.676-.44 0-.795.303-.795.676 0 .371.354.67.795.67.441 0 .803-.299.803-.67M47.036 37.703c0-.373-.361-.676-.802-.676-.439 0-.796.303-.796.676 0 .371.356.67.796.67.441 0 .802-.299.802-.67M41.044 33.734c0-.373-.361-.676-.803-.676-.44 0-.795.303-.795.676s.354.672.795.672c.442 0 .803-.299.803-.672"/><path fill="none" stroke="black" stroke-width="1" stroke-linecap="square" stroke-linejoin="round" stroke-miterlimit="500" d="M24.104 33.732h2.352"/><g fill="none" stroke="black" stroke-width="1" stroke-linejoin="round" stroke-miterlimit="500"><path d="M.294 29.766h8.31"/><path stroke-linecap="square" d="M.294 29.766h8.31M12.215 29.766h8.314"/></g><path fill="none" stroke="black" stroke-width="1" stroke-linecap="square" stroke-linejoin="round" stroke-miterlimit="500" d="M6.252 25.795h8.313M18.192 25.795h5.912"/><path fill="param(fill)" d="M5.248 25.797c0-.373-.362-.676-.804-.676-.439 0-.794.303-.794.676s.355.672.794.672c.442 0 .804-.299.804-.672M11.24 29.766c0-.373-.362-.676-.803-.676-.44 0-.794.303-.794.676s.354.672.794.672c.441 0 .803-.299.803-.672M23.225 29.766c0-.373-.361-.676-.803-.676-.438 0-.795.303-.795.676s.356.672.795.672c.441 0 .803-.299.803-.672M17.232 25.797c0-.373-.362-.676-.803-.676s-.795.303-.795.676.354.672.795.672.803-.299.803-.672"/><path fill="none" stroke="black" stroke-width="1" stroke-linecap="square" stroke-linejoin="round" stroke-miterlimit="500" d="M.294 25.795h2.351"/><g fill="none" stroke="black" stroke-width="1" stroke-linejoin="round" stroke-miterlimit="500"><path d="M24.104 29.766h8.311"/><path stroke-linecap="square" d="M24.104 29.766h8.311M36.026 29.766h8.315"/></g><path fill="none" stroke="black" stroke-width="1" stroke-linecap="square" stroke-linejoin="round" stroke-miterlimit="500" d="M30.064 25.795h8.314M42.004 25.795h5.912"/><path fill="param(fill)" d="M29.06 25.797c0-.373-.361-.676-.806-.676-.438 0-.793.303-.793.676s.354.672.793.672c.444 0 .806-.299.806-.672M35.052 29.766c0-.373-.361-.676-.803-.676-.44 0-.795.303-.795.676s.354.672.795.672c.441 0 .803-.299.803-.672M47.036 29.766c0-.373-.361-.676-.802-.676-.439 0-.796.303-.796.676s.356.672.796.672c.441 0 .802-.299.802-.672M41.044 25.797c0-.373-.361-.676-.803-.676-.44 0-.795.303-.795.676s.354.672.795.672c.442 0 .803-.299.803-.672"/><path fill="none" stroke="black" stroke-width="1" stroke-linecap="square" stroke-linejoin="round" stroke-miterlimit="500" d="M24.104 25.795h2.352"/><g fill="none" stroke="black" stroke-width="1" stroke-linejoin="round" stroke-miterlimit="500"><path d="M.294 21.83h8.31"/><path stroke-linecap="square" d="M.294 21.83h8.31M12.215 21.83h8.314"/></g><path fill="none" stroke="black" stroke-width="1" stroke-linecap="square" stroke-linejoin="round" stroke-miterlimit="500" d="M6.252 17.859h8.313M18.192 17.859h5.912"/><path fill="param(fill)" d="M5.248 17.861c0-.373-.362-.676-.804-.676-.439 0-.794.303-.794.676s.355.672.794.672c.442 0 .804-.299.804-.672M11.24 21.83c0-.373-.362-.676-.803-.676-.44 0-.794.303-.794.676 0 .371.354.67.794.67.441 0 .803-.299.803-.67M23.225 21.83c0-.373-.361-.676-.803-.676-.438 0-.795.303-.795.676 0 .371.356.67.795.67.441 0 .803-.299.803-.67M17.232 17.861c0-.373-.362-.676-.803-.676s-.795.303-.795.676.354.672.795.672.803-.299.803-.672"/><path fill="none" stroke="black" stroke-width="1" stroke-linecap="square" stroke-linejoin="round" stroke-miterlimit="500" d="M.294 17.859h2.351"/><g fill="none" stroke="black" stroke-width="1" stroke-linejoin="round" stroke-miterlimit="500"><path d="M24.104 21.83h8.311"/><path stroke-linecap="square" d="M24.104 21.83h8.311M36.026 21.83h8.315"/></g><path fill="none" stroke="black" stroke-width="1" stroke-linecap="square" stroke-linejoin="round" stroke-miterlimit="500" d="M30.064 17.859h8.314M42.004 17.859h5.912"/><path fill="param(fill)" d="M29.06 17.861c0-.373-.361-.676-.806-.676-.438 0-.793.303-.793.676s.354.672.793.672c.444 0 .806-.299.806-.672M35.052 21.83c0-.373-.361-.676-.803-.676-.44 0-.795.303-.795.676 0 .371.354.67.795.67.441 0 .803-.299.803-.67M47.036 21.83c0-.373-.361-.676-.802-.676-.439 0-.796.303-.796.676 0 .371.356.67.796.67.441 0 .802-.299.802-.67M41.044 17.861c0-.373-.361-.676-.803-.676-.44 0-.795.303-.795.676s.354.672.795.672c.442 0 .803-.299.803-.672"/><path fill="none" stroke="black" stroke-width="1" stroke-linecap="square" stroke-linejoin="round" stroke-miterlimit="500" d="M24.104 17.859h2.352"/><g fill="none" stroke="black" stroke-width="1" stroke-linejoin="round" stroke-miterlimit="500"><path d="M.294 13.893h8.31"/><path stroke-linecap="square" d="M.294 13.893h8.31M12.215 13.893h8.314"/></g><path fill="none" stroke="black" stroke-width="1" stroke-linecap="square" stroke-linejoin="round" stroke-miterlimit="500" d="M6.252 9.922h8.313M18.192 9.922h5.912"/><path fill="param(fill)" d="M5.248 9.924c0-.373-.362-.676-.804-.676-.439 0-.794.303-.794.676s.355.672.794.672c.442 0 .804-.299.804-.672M11.24 13.893c0-.373-.362-.676-.803-.676-.44 0-.794.303-.794.676s.354.672.794.672c.441-.001.803-.299.803-.672M23.225 13.893c0-.373-.361-.676-.803-.676-.438 0-.795.303-.795.676s.356.672.795.672c.441-.001.803-.299.803-.672M17.232 9.924c0-.373-.362-.676-.803-.676s-.795.303-.795.676.354.672.795.672.803-.299.803-.672"/><path fill="none" stroke="black" stroke-width="1" stroke-linecap="square" stroke-linejoin="round" stroke-miterlimit="500" d="M.294 9.922h2.351"/><g fill="none" stroke="black" stroke-width="1" stroke-linejoin="round" stroke-miterlimit="500"><path d="M24.104 13.893h8.311"/><path stroke-linecap="square" d="M24.104 13.893h8.311M36.026 13.893h8.315"/></g><path fill="none" stroke="black" stroke-width="1" stroke-linecap="square" stroke-linejoin="round" stroke-miterlimit="500" d="M30.064 9.922h8.314M42.004 9.922h5.912"/><path fill="param(fill)" d="M29.06 9.924c0-.373-.361-.676-.806-.676-.438 0-.793.303-.793.676s.354.672.793.672c.444 0 .806-.299.806-.672M35.052 13.893c0-.373-.361-.676-.803-.676-.44 0-.795.303-.795.676s.354.672.795.672c.441-.001.803-.299.803-.672M47.036 13.893c0-.373-.361-.676-.802-.676-.439 0-.796.303-.796.676s.356.672.796.672c.441-.001.802-.299.802-.672M41.044 9.924c0-.373-.361-.676-.803-.676-.44 0-.795.303-.795.676s.354.672.795.672c.442 0 .803-.299.803-.672"/><path fill="none" stroke="black" stroke-width="1" stroke-linecap="square" stroke-linejoin="round" stroke-miterlimit="500" d="M24.104 9.922h2.352"/><g fill="none" stroke="black" stroke-width="1" stroke-linejoin="round" stroke-miterlimit="500"><path d="M.294 5.957h8.31"/><path stroke-linecap="square" d="M.294 5.957h8.31M12.215 5.957h8.314"/></g><path fill="none" stroke="black" stroke-width="1" stroke-linecap="square" stroke-linejoin="round" stroke-miterlimit="500" d="M6.252 1.986h8.313M18.192 1.986h5.912"/><path fill="param(fill)" d="M5.248 1.988c0-.373-.362-.676-.804-.676-.439 0-.794.303-.794.676s.355.672.794.672c.442 0 .804-.299.804-.672M11.24 5.957c0-.373-.362-.676-.803-.676-.44 0-.794.303-.794.676 0 .371.354.67.794.67.441 0 .803-.299.803-.67M23.225 5.957c0-.373-.361-.676-.803-.676-.438 0-.795.303-.795.676 0 .371.356.67.795.67.441 0 .803-.299.803-.67M17.232 1.988c0-.373-.362-.676-.803-.676s-.795.303-.795.676.355.672.796.672.802-.299.802-.672"/><path fill="none" stroke="black" stroke-width="1" stroke-linecap="square" stroke-linejoin="round" stroke-miterlimit="500" d="M.294 1.986h2.351"/><g fill="none" stroke="black" stroke-width="1" stroke-linejoin="round" stroke-miterlimit="500"><path d="M24.104 5.957h8.311"/><path stroke-linecap="square" d="M24.104 5.957h8.311M36.026 5.957h8.315"/></g><path fill="none" stroke="black" stroke-width="1" stroke-linecap="square" stroke-linejoin="round" stroke-miterlimit="500" d="M30.064 1.986h8.314M42.004 1.986h5.912"/><path fill="param(fill)" d="M29.06 1.988c0-.373-.361-.676-.806-.676-.438 0-.793.303-.793.676s.354.672.793.672c.444 0 .806-.299.806-.672M35.052 5.957c0-.373-.361-.676-.803-.676-.44 0-.795.303-.795.676 0 .371.354.67.795.67.441 0 .803-.299.803-.67M47.036 5.957c0-.373-.361-.676-.802-.676-.439 0-.796.303-.796.676 0 .371.356.67.796.67.441 0 .802-.299.802-.67M41.044 1.988c0-.373-.361-.676-.803-.676-.44 0-.795.303-.795.676s.354.672.795.672c.442 0 .803-.299.803-.672"/><path fill="none" stroke="black" stroke-width="1" stroke-linecap="square" stroke-linejoin="round" stroke-miterlimit="500" d="M24.104 1.986h2.352"/><path fill="none" d="M.294 0h47.622v47.622H.294z"/></svg>
