<svg xmlns="http://www.w3.org/2000/svg" width="48.224" height="47.622" viewBox="0 0 48.224 47.622"><g fill="none" stroke="black" stroke-width="1" stroke-linejoin="round" stroke-miterlimit="500"><path d="M.301 45.64H8.61"/><path stroke-linecap="square" d="M.301 45.64H8.61M12.222 45.64h8.313"/></g><path fill="none" stroke="black" stroke-width="1" stroke-linecap="square" stroke-linejoin="round" stroke-miterlimit="500" d="M6.26 41.678h8.313M18.199 41.678h5.913M.301 41.678h2.351"/><path fill="param(fill)" d="M9.65 44.929h1.598v1.417H9.65zM21.636 44.929h1.598v1.417h-1.598zM3.657 40.96h1.598v1.417H3.657zM15.643 40.96h1.598v1.417h-1.598z"/><g fill="none" stroke="black" stroke-width="1" stroke-linejoin="round" stroke-miterlimit="500"><path d="M.301 37.703H8.61"/><path stroke-linecap="square" d="M.301 37.703H8.61M12.222 37.703h8.313"/></g><path fill="none" stroke="black" stroke-width="1" stroke-linecap="square" stroke-linejoin="round" stroke-miterlimit="500" d="M6.26 33.741h8.313M18.199 33.741h5.913M.301 33.741h2.351"/><path fill="param(fill)" d="M9.65 36.992h1.598v1.417H9.65zM21.636 36.992h1.598v1.417h-1.598zM3.657 33.023h1.598v1.417H3.657zM15.643 33.023h1.598v1.417h-1.598z"/><g fill="none" stroke="black" stroke-width="1" stroke-linejoin="round" stroke-miterlimit="500"><path d="M.301 29.767H8.61"/><path stroke-linecap="square" d="M.301 29.767H8.61M12.222 29.767h8.313"/></g><path fill="none" stroke="black" stroke-width="1" stroke-linecap="square" stroke-linejoin="round" stroke-miterlimit="500" d="M6.26 25.805h8.313M18.199 25.805h5.913M.301 25.805h2.351"/><path fill="param(fill)" d="M9.65 29.056h1.598v1.417H9.65zM21.636 29.056h1.598v1.417h-1.598zM3.657 25.087h1.598v1.417H3.657zM15.643 25.087h1.598v1.417h-1.598z"/><path fill="none" d="M.3 0h47.622v47.622H.3z"/><g fill="none" stroke="black" stroke-width="1" stroke-linejoin="round" stroke-miterlimit="500"><path d="M24.111 45.64h8.31"/><path stroke-linecap="square" d="M24.111 45.64h8.31M36.033 45.64h8.313"/></g><path fill="none" stroke="black" stroke-width="1" stroke-linecap="square" stroke-linejoin="round" stroke-miterlimit="500" d="M30.07 41.678h8.313M42.01 41.678h5.913M24.111 41.678h2.352"/><path fill="param(fill)" d="M33.461 44.929h1.598v1.417h-1.598zM45.446 44.929h1.598v1.417h-1.598zM27.468 40.96h1.598v1.417h-1.598zM39.453 40.96h1.598v1.417h-1.598z"/><g fill="none" stroke="black" stroke-width="1" stroke-linejoin="round" stroke-miterlimit="500"><path d="M24.111 37.703h8.31"/><path stroke-linecap="square" d="M24.111 37.703h8.31M36.033 37.703h8.313"/></g><path fill="none" stroke="black" stroke-width="1" stroke-linecap="square" stroke-linejoin="round" stroke-miterlimit="500" d="M30.07 33.741h8.313M42.01 33.741h5.913M24.111 33.741h2.352"/><path fill="param(fill)" d="M33.461 36.992h1.598v1.417h-1.598zM45.446 36.992h1.598v1.417h-1.598zM27.468 33.023h1.598v1.417h-1.598zM39.453 33.023h1.598v1.417h-1.598z"/><g fill="none" stroke="black" stroke-width="1" stroke-linejoin="round" stroke-miterlimit="500"><path d="M24.111 29.767h8.31"/><path stroke-linecap="square" d="M24.111 29.767h8.31M36.033 29.767h8.313"/></g><path fill="none" stroke="black" stroke-width="1" stroke-linecap="square" stroke-linejoin="round" stroke-miterlimit="500" d="M30.07 25.805h8.313M42.01 25.805h5.913M24.111 25.805h2.352"/><path fill="param(fill)" d="M33.461 29.056h1.598v1.417h-1.598zM45.446 29.056h1.598v1.417h-1.598zM27.468 25.087h1.598v1.417h-1.598zM39.453 25.087h1.598v1.417h-1.598z"/><g fill="none" stroke="black" stroke-width="1" stroke-linejoin="round" stroke-miterlimit="500"><path d="M.301 21.828H8.61"/><path stroke-linecap="square" d="M.301 21.828H8.61M12.223 21.828h8.312"/></g><path fill="none" stroke="black" stroke-width="1" stroke-linecap="square" stroke-linejoin="round" stroke-miterlimit="500" d="M6.26 17.867h8.312M18.199 17.867h5.913M.301 17.867h2.351"/><path fill="param(fill)" d="M9.65 21.117h1.598v1.418H9.65zM21.636 21.117h1.598v1.418h-1.598zM3.657 17.148h1.598v1.418H3.657zM15.643 17.148h1.598v1.418h-1.598z"/><g fill="none" stroke="black" stroke-width="1" stroke-linejoin="round" stroke-miterlimit="500"><path d="M.301 13.893H8.61"/><path stroke-linecap="square" d="M.301 13.893H8.61M12.223 13.893h8.312"/></g><path fill="none" stroke="black" stroke-width="1" stroke-linecap="square" stroke-linejoin="round" stroke-miterlimit="500" d="M6.26 9.93h8.312M18.199 9.93h5.913M.301 9.93h2.351"/><path fill="param(fill)" d="M9.65 13.182h1.598v1.416H9.65zM21.636 13.182h1.598v1.416h-1.598zM3.657 9.213h1.598v1.416H3.657zM15.643 9.213h1.598v1.416h-1.598z"/><g fill="none" stroke="black" stroke-width="1" stroke-linejoin="round" stroke-miterlimit="500"><path d="M.301 5.955H8.61"/><path stroke-linecap="square" d="M.301 5.955H8.61M12.223 5.955h8.312"/></g><path fill="none" stroke="black" stroke-width="1" stroke-linecap="square" stroke-linejoin="round" stroke-miterlimit="500" d="M6.26 1.994h8.312M18.199 1.994h5.913M.301 1.994h2.351"/><path fill="param(fill)" d="M9.65 5.244h1.598v1.418H9.65zM21.636 5.244h1.598v1.418h-1.598zM3.657 1.275h1.598v1.418H3.657zM15.643 1.275h1.598v1.418h-1.598z"/><g fill="none" stroke="black" stroke-width="1" stroke-linejoin="round" stroke-miterlimit="500"><path d="M24.111 21.828h8.31"/><path stroke-linecap="square" d="M24.111 21.828h8.31M36.033 21.828h8.313"/></g><path fill="none" stroke="black" stroke-width="1" stroke-linecap="square" stroke-linejoin="round" stroke-miterlimit="500" d="M30.07 17.867h8.313M42.01 17.867h5.913M24.111 17.867h2.352"/><path fill="param(fill)" d="M33.461 21.117h1.598v1.418h-1.598zM45.446 21.117h1.598v1.418h-1.598zM27.468 17.148h1.598v1.418h-1.598zM39.453 17.148h1.598v1.418h-1.598z"/><g fill="none" stroke="black" stroke-width="1" stroke-linejoin="round" stroke-miterlimit="500"><path d="M24.111 13.893h8.31"/><path stroke-linecap="square" d="M24.111 13.893h8.31M36.033 13.893h8.313"/></g><path fill="none" stroke="black" stroke-width="1" stroke-linecap="square" stroke-linejoin="round" stroke-miterlimit="500" d="M30.07 9.93h8.313M42.01 9.93h5.913M24.111 9.93h2.352"/><path fill="param(fill)" d="M33.461 13.182h1.598v1.416h-1.598zM45.446 13.182h1.598v1.416h-1.598zM27.468 9.213h1.598v1.416h-1.598zM39.453 9.213h1.598v1.416h-1.598z"/><g fill="none" stroke="black" stroke-width="1" stroke-linejoin="round" stroke-miterlimit="500"><path d="M24.111 5.955h8.31"/><path stroke-linecap="square" d="M24.111 5.955h8.31M36.033 5.955h8.313"/></g><path fill="none" stroke="black" stroke-width="1" stroke-linecap="square" stroke-linejoin="round" stroke-miterlimit="500" d="M30.07 1.994h8.313M42.01 1.994h5.913M24.111 1.994h2.352"/><path fill="param(fill)" d="M33.461 5.244h1.598v1.418h-1.598zM45.446 5.244h1.598v1.418h-1.598zM27.468 1.275h1.598v1.418h-1.598zM39.453 1.275h1.598v1.418h-1.598z"/></svg>
