<svg xmlns="http://www.w3.org/2000/svg" width="48.783" height="48.189" viewBox="0 0 48.783 48.189"><path fill="none" d="M.297 0h48.189v48.189H.297z"/><path fill="none" stroke="black" stroke-width="1" stroke-linejoin="round" stroke-miterlimit="500" d="M.297 47.508h8.409"/><path fill="none" stroke="black" stroke-width="1" stroke-linecap="square" stroke-linejoin="round" stroke-miterlimit="500" d="M.297 47.508h8.409M12.36 47.508h8.412M6.327 43.485h8.412M18.408 43.485h5.983M.297 39.461h8.409M12.36 39.461h8.412M6.327 35.439h8.412M18.408 35.439h5.983M.297 31.416h8.409M12.36 31.416h8.412M6.327 27.393h8.412M18.408 27.393h5.983"/><path fill="param(fill)" d="M8.342 41.472c0-.379-.362-.685-.806-.685-.449 0-.811.306-.811.685s.362.69.811.69c.444 0 .806-.311.806-.69zM2.279 41.472c0-.377-.368-.683-.814-.683-.448 0-.803.306-.803.683s.354.688.803.688c.447-.001.814-.311.814-.688z"/><ellipse fill="param(fill)" cx="19.598" cy="41.472" rx=".808" ry=".683"/><path fill="param(fill)" d="M14.345 41.472c0-.375-.366-.679-.812-.679s-.805.304-.805.679.358.684.805.684.812-.309.812-.684zM5.899 45.497c0-.377-.366-.683-.813-.683-.444 0-.804.306-.804.683 0 .378.359.68.804.68.447 0 .813-.302.813-.68zM11.612 45.576c0-.375-.359-.681-.813-.681-.444 0-.804.306-.804.681 0 .378.359.682.804.682.454 0 .813-.304.813-.682zM17.961 45.497c0-.377-.366-.683-.811-.683-.447 0-.806.306-.806.683 0 .378.359.68.806.68.446 0 .811-.302.811-.68zM23.675 45.576c0-.375-.359-.681-.804-.681-.454 0-.813.306-.813.681 0 .378.359.682.813.682.444 0 .804-.304.804-.682zM8.342 33.431c0-.38-.362-.69-.806-.69-.449 0-.811.311-.811.69 0 .375.362.684.811.684.444-.001.806-.309.806-.684zM2.279 33.431c0-.379-.368-.688-.814-.688-.448 0-.803.309-.803.688 0 .374.354.681.803.681.447-.001.814-.307.814-.681zM20.407 33.431c0-.379-.361-.688-.808-.688-.448 0-.809.309-.809.688 0 .374.361.681.809.681.446-.001.808-.307.808-.681zM14.345 33.431c0-.377-.366-.684-.812-.684s-.805.307-.805.684c0 .371.358.677.805.677s.812-.306.812-.677zM5.899 37.449c0-.376-.366-.682-.813-.682-.444 0-.804.306-.804.682 0 .377.359.686.804.686.447 0 .813-.309.813-.686zM11.612 37.531c0-.378-.359-.684-.813-.684-.444 0-.804.306-.804.684 0 .375.359.683.804.683.454 0 .813-.308.813-.683z"/><ellipse fill="param(fill)" cx="17.153" cy="37.449" rx=".808" ry=".682"/><path fill="param(fill)" d="M23.675 37.531c0-.378-.359-.684-.804-.684-.454 0-.813.306-.813.684 0 .375.359.683.813.683.444 0 .804-.308.804-.683zM8.342 25.379c0-.377-.362-.684-.806-.684-.449 0-.811.307-.811.684 0 .38.362.69.811.69.444 0 .806-.31.806-.69zM2.279 25.379c0-.376-.367-.681-.814-.681-.448 0-.803.305-.803.681 0 .379.354.688.803.688.447-.001.814-.309.814-.688zM20.407 25.379c0-.376-.361-.681-.808-.681-.448 0-.809.305-.809.681 0 .379.361.688.809.688.446-.001.808-.309.808-.688zM14.345 25.379c0-.375-.366-.68-.812-.68s-.805.305-.805.68c0 .378.358.687.805.687s.812-.309.812-.687zM5.899 29.405c0-.375-.366-.683-.813-.683-.444 0-.804.308-.804.683 0 .378.359.682.804.682.447 0 .813-.304.813-.682zM11.612 29.487c0-.378-.359-.685-.813-.685-.444 0-.804.307-.804.685 0 .376.359.68.804.68.454 0 .813-.304.813-.68z"/><ellipse fill="param(fill)" cx="17.153" cy="29.405" rx=".808" ry=".683"/><path fill="param(fill)" d="M23.675 29.487c0-.378-.359-.685-.804-.685-.454 0-.813.307-.813.685 0 .376.359.68.813.68.444 0 .804-.304.804-.68z"/><path fill="none" stroke="black" stroke-width="1" stroke-linecap="square" stroke-linejoin="round" stroke-miterlimit="500" d="M.297 27.393h2.379M.297 35.439h2.379M.297 43.485h2.379"/><path fill="none" stroke="black" stroke-width="1" stroke-linejoin="round" stroke-miterlimit="500" d="M24.392 47.508H32.8"/><path fill="none" stroke="black" stroke-width="1" stroke-linecap="square" stroke-linejoin="round" stroke-miterlimit="500" d="M24.392 47.508H32.8M36.455 47.508h8.412M30.422 43.485h8.411M42.502 43.485h5.983M24.392 39.461H32.8M36.455 39.461h8.412M30.422 35.439h8.411M42.502 35.439h5.983M24.392 31.416H32.8M36.455 31.416h8.412M30.422 27.393h8.411M42.502 27.393h5.983"/><path fill="param(fill)" d="M32.437 41.472c0-.379-.362-.685-.806-.685-.449 0-.811.306-.811.685s.362.69.811.69c.444 0 .806-.311.806-.69zM26.374 41.472c0-.377-.368-.683-.814-.683-.448 0-.803.306-.803.683s.354.688.803.688c.446-.001.814-.311.814-.688z"/><ellipse fill="param(fill)" cx="43.693" cy="41.472" rx=".808" ry=".683"/><path fill="param(fill)" d="M38.439 41.472c0-.375-.366-.679-.812-.679s-.805.304-.805.679.358.684.805.684.812-.309.812-.684zM29.994 45.497c0-.377-.366-.683-.813-.683-.444 0-.804.306-.804.683 0 .378.359.68.804.68.446 0 .813-.302.813-.68zM35.707 45.576c0-.375-.359-.681-.813-.681-.444 0-.804.306-.804.681 0 .378.359.682.804.682.454 0 .813-.304.813-.682zM42.056 45.497c0-.377-.366-.683-.811-.683-.447 0-.806.306-.806.683 0 .378.359.68.806.68.445 0 .811-.302.811-.68zM47.77 45.576c0-.375-.359-.681-.804-.681-.454 0-.813.306-.813.681 0 .378.359.682.813.682.444 0 .804-.304.804-.682zM32.437 33.431c0-.38-.362-.69-.806-.69-.449 0-.811.311-.811.69 0 .375.362.684.811.684.444-.001.806-.309.806-.684zM26.374 33.431c0-.379-.368-.688-.814-.688-.448 0-.803.309-.803.688 0 .374.354.681.803.681.446-.001.814-.307.814-.681zM44.501 33.431c0-.379-.361-.688-.808-.688-.448 0-.809.309-.809.688 0 .374.361.681.809.681.447-.001.808-.307.808-.681zM38.439 33.431c0-.377-.366-.684-.812-.684s-.805.307-.805.684c0 .371.358.677.805.677s.812-.306.812-.677zM29.994 37.449c0-.376-.366-.682-.813-.682-.444 0-.804.306-.804.682 0 .377.359.686.804.686.446 0 .813-.309.813-.686zM35.707 37.531c0-.378-.359-.684-.813-.684-.444 0-.804.306-.804.684 0 .375.359.683.804.683.454 0 .813-.308.813-.683z"/><ellipse fill="param(fill)" cx="41.248" cy="37.449" rx=".808" ry=".682"/><path fill="param(fill)" d="M47.77 37.531c0-.378-.359-.684-.804-.684-.454 0-.813.306-.813.684 0 .375.359.683.813.683.444 0 .804-.308.804-.683zM32.437 25.379c0-.377-.362-.684-.806-.684-.449 0-.811.307-.811.684 0 .38.362.69.811.69.444 0 .806-.31.806-.69zM26.374 25.379c0-.376-.367-.681-.814-.681-.448 0-.803.305-.803.681 0 .379.354.688.803.688.447-.001.814-.309.814-.688zM44.501 25.379c0-.376-.361-.681-.808-.681-.448 0-.809.305-.809.681 0 .379.361.688.809.688.447-.001.808-.309.808-.688zM38.439 25.379c0-.375-.366-.68-.812-.68s-.805.305-.805.68c0 .378.358.687.805.687s.812-.309.812-.687zM29.994 29.405c0-.375-.366-.683-.813-.683-.444 0-.804.308-.804.683 0 .378.359.682.804.682.446 0 .813-.304.813-.682zM35.707 29.487c0-.378-.359-.685-.813-.685-.444 0-.804.307-.804.685 0 .376.359.68.804.68.454 0 .813-.304.813-.68z"/><ellipse fill="param(fill)" cx="41.248" cy="29.405" rx=".808" ry=".683"/><path fill="param(fill)" d="M47.77 29.487c0-.378-.359-.685-.804-.685-.454 0-.813.307-.813.685 0 .376.359.68.813.68.444 0 .804-.304.804-.68z"/><path fill="none" stroke="black" stroke-width="1" stroke-linecap="square" stroke-linejoin="round" stroke-miterlimit="500" d="M24.392 27.393h2.379M24.392 35.439h2.379M24.392 43.485h2.379"/><path fill="none" stroke="black" stroke-width="1" stroke-linejoin="round" stroke-miterlimit="500" d="M.297 23.413h8.409"/><path fill="none" stroke="black" stroke-width="1" stroke-linecap="square" stroke-linejoin="round" stroke-miterlimit="500" d="M.297 23.413h8.409M12.36 23.413h8.412M6.327 19.391h8.412M18.408 19.391h5.983M.297 15.366h8.409M12.36 15.366h8.412M6.327 11.345h8.412M18.408 11.345h5.983M.297 7.321h8.409M12.36 7.321h8.412M6.327 3.298h8.412M18.408 3.298h5.983"/><path fill="param(fill)" d="M8.342 17.377c0-.379-.362-.685-.806-.685-.449 0-.811.306-.811.685s.362.69.811.69c.444 0 .806-.311.806-.69zM2.279 17.377c0-.377-.368-.683-.814-.683-.448 0-.803.306-.803.683s.354.688.803.688c.447-.001.814-.311.814-.688z"/><ellipse fill="param(fill)" cx="19.598" cy="17.377" rx=".808" ry=".683"/><path fill="param(fill)" d="M14.345 17.377c0-.375-.366-.679-.812-.679s-.805.304-.805.679.358.684.805.684.812-.309.812-.684zM5.899 21.402c0-.377-.366-.683-.813-.683-.444 0-.804.306-.804.683 0 .378.359.68.804.68.447 0 .813-.302.813-.68zM11.612 21.481c0-.375-.359-.681-.813-.681-.444 0-.804.306-.804.681 0 .378.359.682.804.682.454 0 .813-.304.813-.682zM17.961 21.402c0-.377-.366-.683-.811-.683-.447 0-.806.306-.806.683 0 .378.359.68.806.68.446 0 .811-.302.811-.68zM23.675 21.481c0-.375-.359-.681-.804-.681-.454 0-.813.306-.813.681 0 .378.359.682.813.682.444 0 .804-.304.804-.682zM8.342 9.336c0-.38-.362-.69-.806-.69-.449 0-.811.311-.811.69 0 .375.362.684.811.684.444 0 .806-.309.806-.684zM2.279 9.336c0-.379-.368-.688-.814-.688-.448 0-.803.309-.803.688 0 .374.354.681.803.681.447 0 .814-.307.814-.681zM20.407 9.336c0-.379-.361-.688-.808-.688-.448 0-.809.309-.809.688 0 .374.361.681.809.681.446 0 .808-.307.808-.681zM14.345 9.336c0-.377-.366-.684-.812-.684s-.805.307-.805.684c0 .371.358.677.805.677s.812-.306.812-.677zM5.899 13.354c0-.376-.366-.682-.813-.682-.444 0-.804.306-.804.682 0 .377.359.686.804.686.447 0 .813-.309.813-.686zM11.612 13.437c0-.378-.359-.684-.813-.684-.444 0-.804.306-.804.684 0 .375.359.683.804.683.454-.001.813-.308.813-.683z"/><ellipse fill="param(fill)" cx="17.153" cy="13.354" rx=".808" ry=".682"/><path fill="param(fill)" d="M23.675 13.437c0-.378-.359-.684-.804-.684-.454 0-.813.306-.813.684 0 .375.359.683.813.683.444-.001.804-.308.804-.683zM8.342 1.284C8.342.907 7.98.6 7.536.6c-.449 0-.811.307-.811.684 0 .38.362.69.811.69.444.001.806-.31.806-.69zM2.279 1.284c0-.376-.367-.681-.814-.681-.448 0-.803.305-.803.681 0 .379.354.688.803.688.447 0 .814-.309.814-.688zM20.407 1.284c0-.376-.361-.681-.808-.681-.448 0-.809.305-.809.681 0 .379.361.688.809.688.446 0 .808-.309.808-.688zM14.345 1.284c0-.375-.366-.68-.812-.68s-.805.305-.805.68c0 .378.358.687.805.687s.812-.309.812-.687zM5.899 5.311c0-.375-.366-.683-.813-.683-.444 0-.804.308-.804.683 0 .378.359.682.804.682.447-.001.813-.305.813-.682zM11.612 5.393c0-.378-.359-.685-.813-.685-.444 0-.804.307-.804.685 0 .376.359.68.804.68.454-.001.813-.304.813-.68z"/><ellipse fill="param(fill)" cx="17.153" cy="5.311" rx=".808" ry=".683"/><path fill="param(fill)" d="M23.675 5.393c0-.378-.359-.685-.804-.685-.454 0-.813.307-.813.685 0 .376.359.68.813.68.444-.001.804-.304.804-.68z"/><path fill="none" stroke="black" stroke-width="1" stroke-linecap="square" stroke-linejoin="round" stroke-miterlimit="500" d="M.297 3.298h2.379M.297 11.345h2.379M.297 19.391h2.379"/><path fill="none" stroke="black" stroke-width="1" stroke-linejoin="round" stroke-miterlimit="500" d="M24.392 23.413H32.8"/><path fill="none" stroke="black" stroke-width="1" stroke-linecap="square" stroke-linejoin="round" stroke-miterlimit="500" d="M24.392 23.413H32.8M36.455 23.413h8.412M30.422 19.391h8.411M42.502 19.391h5.983M24.392 15.366H32.8M36.455 15.366h8.412M30.422 11.345h8.411M42.502 11.345h5.983M24.392 7.321H32.8M36.455 7.321h8.412M30.422 3.298h8.411M42.502 3.298h5.983"/><path fill="param(fill)" d="M32.437 17.377c0-.379-.362-.685-.806-.685-.449 0-.811.306-.811.685s.362.69.811.69c.444 0 .806-.311.806-.69zM26.374 17.377c0-.377-.368-.683-.814-.683-.448 0-.803.306-.803.683s.354.688.803.688c.446-.001.814-.311.814-.688z"/><ellipse fill="param(fill)" cx="43.693" cy="17.377" rx=".808" ry=".683"/><path fill="param(fill)" d="M38.439 17.377c0-.375-.366-.679-.812-.679s-.805.304-.805.679.358.684.805.684.812-.309.812-.684zM29.994 21.402c0-.377-.366-.683-.813-.683-.444 0-.804.306-.804.683 0 .378.359.68.804.68.446 0 .813-.302.813-.68zM35.707 21.481c0-.375-.359-.681-.813-.681-.444 0-.804.306-.804.681 0 .378.359.682.804.682.454 0 .813-.304.813-.682zM42.056 21.402c0-.377-.366-.683-.811-.683-.447 0-.806.306-.806.683 0 .378.359.68.806.68.445 0 .811-.302.811-.68zM47.77 21.481c0-.375-.359-.681-.804-.681-.454 0-.813.306-.813.681 0 .378.359.682.813.682.444 0 .804-.304.804-.682zM32.437 9.336c0-.38-.362-.69-.806-.69-.449 0-.811.311-.811.69 0 .375.362.684.811.684.444 0 .806-.309.806-.684zM26.374 9.336c0-.379-.368-.688-.814-.688-.448 0-.803.309-.803.688 0 .374.354.681.803.681.446 0 .814-.307.814-.681zM44.501 9.336c0-.379-.361-.688-.808-.688-.448 0-.809.309-.809.688 0 .374.361.681.809.681.447 0 .808-.307.808-.681zM38.439 9.336c0-.377-.366-.684-.812-.684s-.805.307-.805.684c0 .371.358.677.805.677s.812-.306.812-.677zM29.994 13.354c0-.376-.366-.682-.813-.682-.444 0-.804.306-.804.682 0 .377.359.686.804.686.446 0 .813-.309.813-.686zM35.707 13.437c0-.378-.359-.684-.813-.684-.444 0-.804.306-.804.684 0 .375.359.683.804.683.454-.001.813-.308.813-.683z"/><ellipse fill="param(fill)" cx="41.248" cy="13.354" rx=".808" ry=".682"/><path fill="param(fill)" d="M47.77 13.437c0-.378-.359-.684-.804-.684-.454 0-.813.306-.813.684 0 .375.359.683.813.683.444-.001.804-.308.804-.683zM32.437 1.284c0-.377-.362-.684-.806-.684-.449 0-.811.307-.811.684 0 .38.362.69.811.69.444.001.806-.31.806-.69zM26.374 1.284c0-.376-.367-.681-.814-.681-.448 0-.803.305-.803.681 0 .379.354.688.803.688.447 0 .814-.309.814-.688zM44.501 1.284c0-.376-.361-.681-.808-.681-.448 0-.809.305-.809.681 0 .379.361.688.809.688.447 0 .808-.309.808-.688zM38.439 1.284c0-.375-.366-.68-.812-.68s-.805.305-.805.68c0 .378.358.687.805.687s.812-.309.812-.687zM29.994 5.311c0-.375-.366-.683-.813-.683-.444 0-.804.308-.804.683 0 .378.359.682.804.682.446-.001.813-.305.813-.682zM35.707 5.393c0-.378-.359-.685-.813-.685-.444 0-.804.307-.804.685 0 .376.359.68.804.68.454-.001.813-.304.813-.68z"/><ellipse fill="param(fill)" cx="41.248" cy="5.311" rx=".808" ry=".683"/><path fill="param(fill)" d="M47.77 5.393c0-.378-.359-.685-.804-.685-.454 0-.813.307-.813.685 0 .376.359.68.813.68.444-.001.804-.304.804-.68z"/><path fill="none" stroke="black" stroke-width="1" stroke-linecap="square" stroke-linejoin="round" stroke-miterlimit="500" d="M24.392 3.298h2.379M24.392 11.345h2.379M24.392 19.391h2.379"/></svg>
