<svg xmlns="http://www.w3.org/2000/svg" width="52.441" height="52.441" viewBox="0 0 52.441 52.441"><path fill="param(fill)" d="M17.19 38.778h9.03v.681h-9.03zM17.19 50.117h9.03v.681h-9.03zM0 38.778h9.032v.681H0zM0 50.117h9.032v.681H0z"/><path fill="none" stroke="black" stroke-width="1" d="M4.079 44.788h18.063M12.237 46.772v-3.968M13.985 46.772v-3.968M4.079 33.449h18.063M12.237 35.434v-3.969M13.985 35.434v-3.969"/><g fill="none" stroke="black" stroke-width="1"><path d="M.874 41.104v-3.969M.874 41.104v-3.969"/></g><path fill="none" stroke="black" stroke-width="1" d="M25.346 41.104v-3.969M25.346 41.104v-3.969"/><g fill="none" stroke="black" stroke-width="1"><path d="M.874 52.441v-3.967M.874 52.441v-3.967M25.346 52.441v-3.967M25.346 52.441v-3.967"/></g><path fill="param(fill)" d="M43.41 38.778h9.031v.681H43.41zM43.41 50.117h9.031v.681H43.41zM26.22 38.778h9.031v.681H26.22zM26.22 50.117h9.031v.681H26.22z"/><path fill="none" stroke="black" stroke-width="1" d="M30.299 44.788h18.063M38.457 46.772v-3.968M40.205 46.772v-3.968M30.299 33.449h18.063M38.457 35.434v-3.969M40.205 35.434v-3.969"/><g fill="none" stroke="black" stroke-width="1"><path d="M27.095 41.104v-3.969M27.095 41.104v-3.969"/></g><path fill="none" stroke="black" stroke-width="1" d="M51.567 41.104v-3.969M51.567 41.104v-3.969"/><g fill="none" stroke="black" stroke-width="1"><path d="M27.095 52.441v-3.967M27.095 52.441v-3.967M51.567 52.441v-3.967M51.567 52.441v-3.967"/></g><path fill="param(fill)" d="M17.19 17.802h9.03v.681h-9.03zM17.19 29.141h9.03v.681h-9.03zM0 17.802h9.032v.681H0zM0 29.141h9.032v.681H0z"/><path fill="none" stroke="black" stroke-width="1" d="M4.079 23.812h18.063M12.237 25.796v-3.969M13.985 25.796v-3.969M4.079 12.473h18.063M12.237 14.457v-3.969M13.985 14.457v-3.969"/><g fill="none" stroke="black" stroke-width="1"><path d="M.874 20.127v-3.969M.874 20.127v-3.969"/></g><path fill="none" stroke="black" stroke-width="1" d="M25.346 20.127v-3.969M25.346 20.127v-3.969"/><g fill="none" stroke="black" stroke-width="1"><path d="M.874 31.465v-3.968M.874 31.465v-3.968M25.346 31.465v-3.968M25.346 31.465v-3.968"/></g><path fill="param(fill)" d="M43.41 17.802h9.031v.681H43.41zM43.41 29.141h9.031v.681H43.41zM26.22 17.802h9.031v.681H26.22zM26.22 29.141h9.031v.681H26.22z"/><path fill="none" stroke="black" stroke-width="1" d="M30.299 23.812h18.063M38.457 25.796v-3.969M40.205 25.796v-3.969M30.299 12.473h18.063M38.457 14.457v-3.969M40.205 14.457v-3.969"/><g fill="none" stroke="black" stroke-width="1"><path d="M27.095 20.127v-3.969M27.095 20.127v-3.969"/></g><path fill="none" stroke="black" stroke-width="1" d="M51.567 20.127v-3.969M51.567 20.127v-3.969"/><path fill="param(fill)" d="M17.19 7.313h9.03v.681h-9.03zM0 7.313h9.032v.681H0z"/><path fill="none" stroke="black" stroke-width="1" d="M4.079 1.984h18.063M12.237 3.969V0M13.985 3.969V0"/><g fill="none" stroke="black" stroke-width="1"><path d="M.874 9.639V5.67M.874 9.639V5.67"/></g><path fill="none" stroke="black" stroke-width="1" d="M25.346 9.639V5.67M25.346 9.639V5.67"/><path fill="param(fill)" d="M43.41 7.313h9.031v.681H43.41zM26.22 7.313h9.031v.681H26.22z"/><path fill="none" stroke="black" stroke-width="1" d="M30.299 1.984h18.063M38.457 3.969V0M40.205 3.969V0"/><g fill="none" stroke="black" stroke-width="1"><path d="M27.095 9.639V5.67M27.095 9.639V5.67"/></g><path fill="none" stroke="black" stroke-width="1" d="M51.567 9.639V5.67M51.567 9.639V5.67"/><g fill="none" stroke="black" stroke-width="1"><path d="M27.095 31.465v-3.968M27.095 31.465v-3.968M51.567 31.465v-3.968M51.567 31.465v-3.968"/></g></svg>
