<svg xmlns="http://www.w3.org/2000/svg" width="51.024" height="51.023" viewBox="0 0 51.024 51.023"><path fill="none" stroke="black" stroke-width="1" d="M26.487 23.309l6.653 6.451M46.001 30.878l-9.786-9.54M30.318 19.453l3.466-3.488M36.807 25.563l1.534 1.446M36.807 25.563l-3.009-2.834M30.318 19.453l3.48 3.276M31.787 25.001l2.011-2.272M38.108 17.864l1.002-1.132M38.108 17.864l-4.31 4.865M45.516 13.839l-.966 1.299M40.618 20.433l1.91-2.571M34.68 28.427l2.127-2.864M42.528 17.862l2.022-2.724M36.807 25.563l1.571-2.116M40.618 20.433l-2.24 3.014M48.724 19.362l-1.26-1.153M42.528 17.862l-.169-.185M42.528 17.862l5.311 5.78M45.31 25.237l-.53-.544M40.618 20.433l4.162 4.26M40.618 20.433l-2.51-2.569M38.108 17.864l-2.838-2.902M43.52 26.397l1.26-1.704M44.78 24.693l1.796-2.426M48.724 19.362l-2.148 2.905M49.551 10.118l-1.817 2.005M47.141 12.775l.593-.652M45.281 9.508l-2.914 3.073M42.201 12.756l.166-.175M44.956 7.756l3.608-4.138.409-.468"/><path fill="param(fill)" d="M41.892 5.601l-.281-.292L46.297.786l.282.293z"/><path fill="none" stroke="black" stroke-width="1" d="M41.749 5.452l-1.044 1.005M34.103 8.15l-1.805 2.335M34.103 8.15l2.128-2.752M38.244 2.796l-2.013 2.602"/><path fill="param(fill)" d="M48.405 3.745c.464.586 1.05 1.332 1.469 1.89l.324-.244a101.54 101.54 0 0 0-1.475-1.898l-.318.252zM46.282 1.062l1.265 1.6.858 1.082.318-.251-.857-1.084L46.601.811z"/><path fill="none" stroke="black" stroke-width="1" d="M32.298 10.485l2.639 2.665M46.147 10.373l1.587 1.75 1.287 1.421M44.602 15.198l-.052-.06M42.367 12.581l2.183 2.557M42.367 12.581l-6.136-7.183M31.378 4.988l2.725 3.162M34.103 8.15l6.482 7.52M14.367 11.878l5.777-7.957M21.511 16.426l-3.16-3.768M21.511 16.426l1.328 1.585M26.754 28.045l-2.181-2.395"/><path fill="param(fill)" d="M9.19 3.674L6.946 1.2l.3-.273L9.49 3.401z"/><path fill="none" stroke="black" stroke-width="1" d="M10.222 4.508l-.881-.971M28.185 26.418l-1.431 1.627M11.768 26.536l.519.581M21.297 22.132l-6.326 7.99M21.297 22.132l.628-.794M30.32 19.453l3.464-3.488M30.32 19.453l-3.833 3.856M26.487 23.309l-5.395 5.429M14.775 24.234l1.883 1.809M14.775 24.234l-2.546-2.444M18.767 19.606l2.53 2.526M18.767 19.606l-1.518-1.515M21.297 22.132l1.809 1.806M36.807 25.563l1.535 1.446M26.921 16.253l-.744-.701M36.807 25.563l-3.009-2.834M30.32 19.453l-3.399-3.2M31.378 4.988l.517-.597M12.287 27.117l2.488-2.883M21.511 16.426l-2.744 3.18M29.272 7.43l-2.619 3.035M18.767 19.606l-3.992 4.628M29.272 7.43l2.106-2.442M21.511 16.426l5.142-5.962M9.336 22.854l2.68-3.863M12.016 18.991l5.35-7.712M10.792 14.605l-1.29 1.845M6.101 21.309l3.401-4.859M6.101 21.309l-2.634 3.764M3.467 25.073l-1.494 2.132M9.288 24.409l-3.187-3.1M6.101 21.309l-2.808-2.734M7.185 29.05l-3.718-3.977M2.682 24.232l.785.841M3.98 10.871l2.684 2.713M9.502 16.45l-2.838-2.866M12.016 18.991l.745.753M12.016 18.991L9.502 16.45M23.245 20.217l3.676-3.964M28.942 14.075l-2.021 2.178M42.529 17.862l2.022-2.724M40.618 20.433l-2.239 3.014M42.529 17.862l-.17-.185M4.257 17.146l-.964 1.429M3.98 10.871L7 6.791M7.727 5.808L7 6.791M42.201 12.756l.166-.175"/><path fill="param(fill)" d="M41.893 5.601l-.281-.292L46.298.786l.282.293z"/><path fill="none" stroke="black" stroke-width="1" d="M41.75 5.452l-1.045 1.005M34.103 8.15l-1.805 2.335M31.395 11.654l.903-1.169M34.103 8.15l2.128-2.752M38.245 2.796l-2.014 2.602M29.614 2.941l-1.665 2.1M20.772 9.86l2.22-3.075M19.563 11.536l1.209-1.676M11.768 7.166l3.043-3.767M10.468 8.229l-.911 1.283M9.557 9.512l-2.893 4.072M6.147 14.312l.517-.728M9.341 3.537l-.526.675M4.495 4.126l-.877 1.032"/><path fill="param(fill)" d="M4.65 4.259l-.31-.263L6.94.932l.31.263z"/><path fill="none" stroke="black" stroke-width="1" d="M31.187 15.021l-4.534-4.556M26.653 10.465l-3.661-3.68M20.144 3.921l-.533-.535M20.144 3.921l2.848 2.864M25.043 3.943l1.371 1.688M29.272 7.43l-.417-.421M29.272 7.43l3.026 3.055M31.378 4.988l-1.764-2.047M31.378 4.988l2.725 3.162M20.772 9.86l-2.763-2.997M20.772 9.86l2.146 2.325M14.811 3.399l3.198 3.464M14.011 14.251L9.557 9.512M9.557 9.512L7 6.791M4.495 4.126L7 6.791M47.13 45.552l-2.548-2.966M44.582 42.586l-1.869-2.173"/><path fill="param(fill)" d="M46.784 39.652l-.338-.226 3.263-4.887.338.226z"/><path fill="none" stroke="black" stroke-width="1" d="M40.54 48.739c.165-.281.782-1.231 1.666-2.57M44.582 42.586c.648-.976 1.336-2.007 2.031-3.046M44.582 42.586c-.891 1.338-1.708 2.571-2.376 3.583M46.613 39.54l-2.782-3.063M39.214 35.646a366.762 366.762 0 0 0-2.856 3.448M36.358 39.094c-1.375 1.688-2.57 3.204-3.125 4.036M39.214 35.646a592.951 592.951 0 0 1 3.29-3.885M43.154 31.004l-.649.757M34.409 47.912l3.932-4.96M33.858 36.07l-6.087 8.382M33.858 36.07l4.649-6.404M36.358 39.094l5.848 7.075M33.858 36.07l-.948-1.148M33.858 36.07l2.5 3.024M32.791 46.024l1.618 1.888M46.138 35.395l-1.902-1.901-1.732-1.733M42.504 31.761l-2.863-2.863M36.25 32.774l-3.11-3.015M36.25 32.774l2.964 2.872M39.214 35.646l2.601 2.524"/><path fill="param(fill)" d="M49.737 34.805l-3.876-3.777.284-.292 3.876 3.777z"/><path fill="none" stroke="black" stroke-width="1" d="M33.14 29.759l-2.11 2.979M33.14 29.759l.36-.507M30.318 19.453l3.466-3.488M36.807 25.563l1.534 1.446M36.807 25.563l-3.009-2.834M45.516 13.839l-.966 1.299M42.528 17.862l2.022-2.724M40.618 20.433l-2.24 3.014M42.528 17.862l-.169-.185M44.236 33.494l-2.861 4.246M40.09 39.646l1.285-1.906M46.001 30.878l-1.765 2.616M44.602 15.198l-.052-.06M2.165 40.582l3.66 3.983M5.825 44.565l.834.908M44.582 42.586l-1.869-2.173M31.03 32.738l-4.276-4.693M31.03 32.738l.699.766M26.754 28.045l-2.181-2.395M40.541 48.739c.164-.281.781-1.231 1.665-2.57M44.582 42.586c-.89 1.338-1.708 2.571-2.376 3.583M7.185 29.05l1.185-1.57M10.186 29.548L2.165 40.582M9.277 40.86l-3.452 3.705M1.493 49.213l1.529-1.642M12.446 37.46l-3.169 3.4M5.825 44.565l-2.803 3.006M39.214 35.646a366.762 366.762 0 0 0-2.856 3.448M36.358 39.094c-1.375 1.688-2.57 3.204-3.125 4.036M39.214 35.646a586.987 586.987 0 0 1 3.291-3.885M43.154 31.004l-.648.757M21.58 39.823l-4.359 4.862M34.411 47.912l3.931-4.96M33.858 36.07l4.651-6.404M22.162 45.32l-2.472 3.059M24.169 42.835l-2.007 2.485M36.358 39.094l5.848 7.075M33.858 36.07l-.948-1.148M33.858 36.07l2.5 3.024M9.277 40.86l-2.47-3.104M9.277 40.86l2.952 3.708M32.791 46.024l1.62 1.888M19.917 42.717l4.947 5.74M44.237 33.494l-1.732-1.733M42.505 31.761l-2.864-2.863M36.251 32.774l2.963 2.872M39.214 35.646l2.161 2.094.442.43M33.141 29.759l-2.111 2.979M31.03 32.738l-5.562 7.853M33.141 29.759l.359-.507M16.813 39.353l-4.584 5.215M9.053 48.181l3.176-3.613M28.185 26.418l-1.431 1.627M19.989 35.739l-3.176 3.614M19.989 35.739l3.852-4.38M9.053 48.181l-.544.619M26.754 28.045l-2.913 3.314M27.772 44.452l1.209 1.354M12.287 27.117l2.684 3.005M17.217 32.638l-2.246-2.516M19.989 35.739l7.783 8.713M19.989 35.739l-2.772-3.101M11.768 26.536l.519.581M11.86 34.053l-1.155 1.46M11.86 34.053l3.111-3.931M21.092 28.738l-5.753 5.789M30.32 19.453l3.464-3.488M30.32 19.453l-3.833 3.856M26.487 23.309l-5.395 5.429M23.841 31.359l3.985 3.801M20.083 27.776l1.009.962M21.092 28.738l2.749 2.621M36.807 25.563l1.535 1.446M36.807 25.563l-3.009-2.834M12.287 27.117l-1.18 1.367M10.792 14.605l-1.29 1.845M11.86 34.053l6.994 7.482M9.076 31.073L7.185 29.05M7.185 29.05l-3.718-3.977M2.682 24.232l.785.841M11.86 34.053l-2.784-2.98M12.016 18.991l.745.753M42.529 17.862l2.022-2.724M40.618 20.433l-2.239 3.014M42.529 17.862l-.17-.185M44.237 33.494l-2.862 4.246M40.091 39.646l1.284-1.906M7.279 46.26l1.774 1.921"/><path fill="param(fill)" d="M22.827 50.904l-.086.119h.25zM27.836 50.984l.054.039h.25l2.926-4.054-.329-.239-3.011 4.174-.086.119h.25zM27.231 50.891l-.153.132h.267zM12.091 51.023l-.16-.125-.044.056-.063-.068-.149.137zM41.225 51.023l-.114-.132-.001.001.001-.001-2.319-2.697-.309.266 2.205 2.563zM6.405 51.023l-.113-.125.013-.011-3.133-3.452-.3.272 3.008 3.316z"/><path fill="param(fill)" d="M24.877 48.783l1.933 2.24h.268l.153-.132-2.108-2.446 8.899-12.256-.328-.239-10.859 14.954.165.119h.25zM13.936 48.983l-.321-.25-1.684 2.165.16.125h.258zM45.966 51.023l-.098-.124.001-.001a97.58 97.58 0 0 1-1.927-2.546l-.007-.01-.021-.027c-.505-.698-.945-1.347-1.205-1.815a3.351 3.351 0 0 1-.054-.1l-.01-.019-.284-.343-.313.259.007.008.011.014.027.033.054.064a11.497 11.497 0 0 0 .163.198c.428.801 1.399 2.166 3.141 4.408h.515zM17.817 51.023l1.874-2.321 1.886 2.321h.261l.057-.045-.056.045h.261l-.104-.127-3.102-3.819-.315.256.85 1.047-1.967 2.435-5.073-6.375-.318.254 5.037 6.329zM31.662 50.987l-.042.036h.585l2.211-2.791 2.392 2.791h.535l-.113-.131-2.665-3.112-.001.001-.001-.001-.153.131-.159-.125-.001.001v-.001l-2.465 3.111h.001l-.003.004-.008-.009-.974-1.142-.309.263.861 1.01h.267zM11.824 50.886l-2.622-2.843-.299.276 2.495 2.704h.277zM40.688 0l.114.132 1.981 2.303.119.139.153-.132.155-.133L41.225 0zM36.808 0l.113.132V.131v.001l5.711 6.661.635.741v-.001.001l.154-.133.154-.131L37.343 0zM5.88 0l.114.125-.013.011.965 1.065.151-.137.154.132.538-.631-.31-.263-.387.454L6.405 0zM31.62 0l-.155.132.061.07-1.919 2.42L27.778.501l.277-.382L27.89 0h-.25l-.135.185-.16-.185h-.267l-.068.058.068-.058h-.268l.113.132.338.391-2.227 3.086-2.33-2.868.452-.622L22.991 0h-.25l-.303.416L22.1 0h-.261l-.158.128.511.627-2.212 3.047.329.238 2.148-2.958 2.331 2.869-1.96 2.716.329.237L27.534.84l1.926 2.233.154-.132.159.126 2.021-2.55 4.283 5.013.308-.263L32.052.192l.053-.067.1-.125z"/><path fill="param(fill)" d="M28.14 0h-.25l.165.118zM23.25 0H23l.164.119zM17.108 0l.093.116L14.8 3.088 12.167.234l.085-.109-.001-.001.098-.124h-.258l.091.07-.091-.07h-.417l-.014.013.014-.013h-.276l.127.137.11.119L9.18 3.413l.321.249L11.914.559l2.747 2.978.149-.138.158.127L17.459.442l.517.649.317-.252-.572-.721.095-.118zM45.452 0l.096.124h.002l-.001.001.733.937.16-.126.141.146.522-.503-.281-.292-.36.347L45.966 0h-.514zM21.681.128L21.838 0h-.261zM31.62 0h-.267l.112.131zM51.024 15.372v-.281l-1.274-1.24-.285.291 1.418 1.378.001-.001-.001-.001zM51.024 21.448v-.252l-2.028-1.86-.109.147-.163-.121-.137.15 2.3 2.109.011-.013-.011-.01z"/><path fill="param(fill)" d="M48.996 19.336l2.028-2.74v-.341l-.163-.121-2.3 3.108.163.12.163.121zM51.024 30.592v-.219l-1.603-1.864-.307.263 1.757 2.044.044-.039-.044-.052zM50.863 38.442l.029-.04-.029-.022-1.58 2.089.324.244 1.417-1.874v-.275zM50.856 32.903l.033-.049-.033-.022-1.146 1.711.168.112.143-.145.12.118.883-1.317v-.294zM51.024 44.241v-.14l-.117-.128-.097.132-.146.203.211.231.079-.073-.079-.088zM50.646 43.986l-.164-.119.146-.202-3.865-4.261-.301.274 3.923 4.323.097-.134z"/><path fill="param(fill)" d="M50.646 43.986l-.164-.119-.097.134-3.874 5.328.328.239 3.825-5.26.146-.203z"/><path fill="param(fill)" d="M50.646 43.986l.164.119.097-.132.117-.16v-.255l-.164-.12.042-.058-.042-.031-.232.316-.146.202zM49.878 34.655l-.141.146.392.384.284-.29-.272-.267-.12-.118zM50.856 23.348l.017-.025-.017-.01-5.023 7.451.336.227 4.855-7.202v-.328zM51.024 30.592l-.153.133.044.052.109.126zM51.024 38.564v-.336l-.132.174-.029.04zM51.024 44.241l-.149.137.079.088.07.077zM51.024 21.448l-.137.15.011.01.126.117z"/><path fill="param(fill)" d="M51.024 43.558v-.345l-.122.167-.042.058zM51.024 33.017v-.365l-.135.202-.033.049zM51.024 15.372l-.141.146.001.001.14.135zM51.024 23.461v-.363l-.151.225-.017.025zM50.861 16.13l.163.121v-.342zM48.755 47.656l-.297.279 2.566 2.729v-.593zM0 16.255v.341l.163-.221zM0 30.903l.659.766-.659.983v.658l.135-.203.034.023.765-1.142 1.652 1.924.309-.265-1.727-2.009 1.604-2.391-.337-.226-1.542 2.297-.739-.858-.045.039L0 30.373zM0 38.839l.132-.174.03.023 7.185-9.516-.324-.245L0 38.228zM.07 44.178L0 44.101v.443l2.872 3.163.3-.272L.15 44.104zM0 43.813l.122-.167.043.031 2.164-2.976-.164-.119.149-.138-.986-1.075-.3.276.875.952L0 43.213z"/><path fill="param(fill)" d="M0 15.654l.11.107-.11.148v.342l.164.12.24-.325 2.626 2.557-2.228 3.304-.665-.608-.012.013L0 21.196v.529l.572.523-.572.85v.691l.152-.226.016.011 3.294-4.886-.169-.113.142-.145-2.787-2.714 3.496-4.725-.164-.12.145-.143L.81 7.376l-.289.287 3.193 3.227-3.36 4.541-.213-.206-.001.002-.14-.136zM.338 51.023h.558L0 50.07v.593zM4.643 3.988L.896 0H.338l4.009 4.266z"/></svg>
