<svg xmlns="http://www.w3.org/2000/svg" width="54.425" height="54.425" viewBox="0 0 54.425 54.425"><path fill="none" stroke="black" stroke-width="1" d="M1.212 53.401v-1.426M2.648 53.401v-2.517M.284 53.435h3.968M5.748 48.865v-1.427M7.184 48.865v-2.517M4.819 48.898h3.969M10.283 53.401v-1.426M11.719 53.401v-2.517M9.354 53.435h3.969M14.819 48.865v-1.427M16.254 48.865v-2.517M13.89 48.898h3.969M19.354 53.401v-1.426M20.79 53.401v-2.517M18.425 53.435h3.969M23.89 48.865v-1.427M25.325 48.865v-2.517M22.961 48.898h3.969M28.425 53.401v-1.426M29.86 53.401v-2.517M27.496 53.435h3.969M32.96 48.865v-1.427M34.396 48.865v-2.517M32.032 48.898H36M37.496 53.401v-1.426M38.931 53.401v-2.517M36.567 53.435h3.969M42.031 48.865v-1.427M43.467 48.865v-2.517M41.103 48.898h3.968M46.566 53.401v-1.426M48.002 53.401v-2.517M45.638 53.435h3.968M51.102 48.865v-1.427M52.538 48.865v-2.517M50.173 48.898h3.969M1.212 44.33v-1.427M2.648 44.33v-2.517M.284 44.363h3.968M5.748 39.794v-1.427M7.184 39.794v-2.518M4.819 39.827h3.969M10.283 44.33v-1.427M11.719 44.33v-2.517M9.354 44.363h3.969M14.819 39.794v-1.427M16.254 39.794v-2.518M13.89 39.827h3.969M19.354 44.33v-1.427M20.79 44.33v-2.517M18.425 44.363h3.969M23.89 39.794v-1.427M25.325 39.794v-2.518M22.961 39.827h3.969M28.425 44.33v-1.427M29.86 44.33v-2.517M27.496 44.363h3.969M32.96 39.794v-1.427M34.396 39.794v-2.518M32.032 39.827H36M37.496 44.33v-1.427M38.931 44.33v-2.517M36.567 44.363h3.969M42.031 39.794v-1.427M43.467 39.794v-2.518M41.103 39.827h3.968M46.566 44.33v-1.427M48.002 44.33v-2.517M45.638 44.363h3.968M51.102 39.794v-1.427M52.538 39.794v-2.518M50.173 39.827h3.969M1.212 35.259v-1.427M2.648 35.259v-2.518M.284 35.292h3.968M5.748 30.723v-1.427M7.184 30.723v-2.518M4.819 30.756h3.969M10.283 35.259v-1.427M11.719 35.259v-2.518M9.354 35.292h3.969M14.819 30.723v-1.427M16.254 30.723v-2.518M13.89 30.756h3.969M19.354 35.259v-1.427M20.79 35.259v-2.518M18.425 35.292h3.969M23.89 30.723v-1.427M25.325 30.723v-2.518M22.961 30.756h3.969M28.425 35.259v-1.427M29.86 35.259v-2.518M27.496 35.292h3.969M32.96 30.723v-1.427M34.396 30.723v-2.518M32.032 30.756H36M37.496 35.259v-1.427M38.931 35.259v-2.518M36.567 35.292h3.969M42.031 30.723v-1.427M43.467 30.723v-2.518M41.103 30.756h3.968M46.566 35.259v-1.427M48.002 35.259v-2.518M45.638 35.292h3.968M51.102 30.723v-1.427M52.538 30.723v-2.518M50.173 30.756h3.969M1.212 26.188v-1.427M2.648 26.188V23.67M.284 26.221h3.968M5.748 21.651v-1.426M7.184 21.651v-2.517M4.819 21.685h3.969M10.283 26.188v-1.427M11.719 26.188V23.67M9.354 26.221h3.969M14.819 21.651v-1.426M16.254 21.651v-2.517M13.89 21.685h3.969M19.354 26.188v-1.427M20.79 26.188V23.67M18.425 26.221h3.969M23.89 21.651v-1.426M25.325 21.651v-2.517M22.961 21.685h3.969M28.425 26.188v-1.427M29.86 26.188V23.67M27.496 26.221h3.969M32.96 21.651v-1.426M34.396 21.651v-2.517M32.032 21.685H36M37.496 26.188v-1.427M38.931 26.188V23.67M36.567 26.221h3.969M42.031 21.651v-1.426M43.467 21.651v-2.517M41.103 21.685h3.968M46.566 26.188v-1.427M48.002 26.188V23.67M45.638 26.221h3.968M51.102 21.651v-1.426M52.538 21.651v-2.517M50.173 21.685h3.969M1.212 17.116v-1.427M2.648 17.116v-2.517M.284 17.149h3.968M5.748 12.58v-1.427M7.184 12.58v-2.517M4.819 12.613h3.969M10.283 17.116v-1.427M11.719 17.116v-2.517M9.354 17.149h3.969M14.819 12.58v-1.427M16.254 12.58v-2.517M13.89 12.613h3.969M19.354 17.116v-1.427M20.79 17.116v-2.517M18.425 17.149h3.969M23.89 12.58v-1.427M25.325 12.58v-2.517M22.961 12.613h3.969M28.425 17.116v-1.427M29.86 17.116v-2.517M27.496 17.149h3.969M32.96 12.58v-1.427M34.396 12.58v-2.517M32.032 12.613H36M37.496 17.116v-1.427M38.931 17.116v-2.517M36.567 17.149h3.969M42.031 12.58v-1.427M43.467 12.58v-2.517M41.103 12.613h3.968M46.566 17.116v-1.427M48.002 17.116v-2.517M45.638 17.149h3.968M51.102 12.58v-1.427M52.538 12.58v-2.517M50.173 12.613h3.969M1.212 8.045V6.618M2.648 8.045V5.527M.284 8.078h3.968M5.748 3.509V2.082M7.184 3.509V.991M4.819 3.542h3.969M10.283 8.045V6.618M11.719 8.045V5.527M9.354 8.078h3.969M14.819 3.509V2.082M16.254 3.509V.991M13.89 3.542h3.969M19.354 8.045V6.618M20.79 8.045V5.527M18.425 8.078h3.969M23.89 3.509V2.082M25.325 3.509V.991M22.961 3.542h3.969M28.425 8.045V6.618M29.86 8.045V5.527M27.496 8.078h3.969M32.96 3.509V2.082M34.396 3.509V.991M32.032 3.542H36M37.496 8.045V6.618M38.931 8.045V5.527M36.567 8.078h3.969M42.031 3.509V2.082M43.467 3.509V.991M41.103 3.542h3.968M46.566 8.045V6.618M48.002 8.045V5.527M45.638 8.078h3.968M51.102 3.509V2.082M52.538 3.509V.991M50.173 3.542h3.969"/><path fill="none" d="M0 0h54.425v54.425H0z"/></svg>
