<svg xmlns="http://www.w3.org/2000/svg" width="53.858" height="53.858" viewBox="0 0 53.858 53.858"><path fill="none" stroke="black" stroke-width="1" d="M28.538 44.661h-5.982M7.891 37.862H1.908M41.981 32.779h-5.982M19.854 25.091h-5.981"/><path fill="param(fill)" d="M34.264 27.506c.321.063.964-.764.707-.954s-.707.954-.707.954M30.338 27.506c-.321.063-.964-.764-.707-.954.258-.191.707.954.707.954M33.104 27.251c.34.223 1.224-1.652.838-1.779s-1.031 1.652-.838 1.779M31.305 27.061c-.34.222-1.224-1.651-.838-1.778s1.03 1.651.838 1.778M32.397 27.124c-.338.223-.643-2.223.064-2.16.404.036.129 2.033-.064 2.16M18.439 29.856c.321.063.965-.762.707-.954-.256-.189-.707.954-.707.954M19.468 30.047c.321.063.836-.381.579-.571-.258-.191-.579.571-.579.571M14.517 29.856c-.322.063-.965-.762-.708-.954.257-.189.708.954.708.954M13.485 29.92c-.319.063-.833-.317-.576-.508s.576.508.576.508M17.282 29.603c.338.222 1.222-1.653.836-1.78s-1.028 1.653-.836 1.78M15.48 29.412c-.338.222-1.222-1.652-.836-1.779s1.03 1.652.836 1.779M16.573 29.476c-.338.222-.643-2.225.066-2.161.404.036.13 2.034-.066 2.161M3.774 33.224c.321.063.965-.763.707-.952-.256-.192-.707.952-.707.952M2.617 32.97c.366.173.971-1.809.569-1.879-.4-.071-.78 1.78-.569 1.879M.932 32.779c-.371.164-.93-1.829-.528-1.891.402-.063.739 1.797.528 1.891M1.908 32.843c-.337.223-.643-2.225.066-2.161.405.037.13 2.033-.066 2.161M27.058 35.79c.321.063.967-.762.707-.953-.257-.192-.707.953-.707.953M25.579 35.79c-.321.063-.964-.762-.707-.953.257-.192.707.953.707.953M26.415 35.98c-.338.223-.643-2.225.064-2.161.406.037.128 2.035-.064 2.161M14.58 38.968c.322.063.965-.765.708-.954-.258-.192-.708.954-.708.954M13.1 38.968c-.319.063-.964-.765-.707-.954.259-.192.707.954.707.954M13.938 39.158c-.34.222-.643-2.225.064-2.161.403.036.129 2.033-.064 2.161M49.231 36.892c.321.063.965-.762.707-.954-.256-.19-.707.954-.707.954M47.753 36.892c-.323.063-.966-.762-.709-.954.257-.19.709.954.709.954M48.589 37.082c-.34.223-.645-2.225.064-2.16.404.036.129 2.033-.064 2.16M39.794 39.577c.321.065.967-.762.707-.953-.257-.189-.707.953-.707.953M35.871 39.577c-.322.065-.965-.762-.708-.953.258-.189.708.953.708.953M38.637 39.323c.338.223 1.222-1.651.836-1.778-.386-.128-1.029 1.651-.836 1.778M36.835 39.134c-.338.223-1.222-1.653-.836-1.78s1.028 1.651.836 1.78M37.93 39.196c-.34.223-.643-2.224.064-2.16.403.037.129 2.033-.064 2.16M53.712 33.224c-.323.063-.967-.763-.709-.952.257-.192.709.952.709.952M42.946 49.49c.321.063.964-.763.707-.953-.257-.19-.707.953-.707.953M39.022 49.49c-.321.063-.964-.763-.707-.953s.707.953.707.953M41.789 49.236c.337.224 1.221-1.652.836-1.779-.386-.127-1.029 1.652-.836 1.779M39.987 49.045c-.338.224-1.222-1.651-.836-1.778s1.029 1.651.836 1.778M41.08 49.109c-.338.224-.644-2.224.066-2.16.404.036.128 2.033-.066 2.16M52.751 43.436c.322.064.965-.762.708-.953-.258-.19-.708.953-.708.953M51.271 43.436c-.321.064-.964-.762-.707-.953.257-.19.707.953.707.953M52.106 43.627c-.338.223-.643-2.225.066-2.161.404.038.13 2.034-.066 2.161M9.884 47.394c.323.063.966-.762.709-.953-.257-.19-.709.953-.709.953M5.962 47.394c-.323.063-.966-.762-.709-.953.258-.19.709.953.709.953M8.727 47.14c.34.223 1.224-1.653.838-1.78s-1.031 1.653-.838 1.78M6.927 46.949c-.34.223-1.222-1.652-.836-1.779.386-.128 1.028 1.651.836 1.779M8.02 47.013c-.338.223-.643-2.225.064-2.161.405.036.128 2.034-.064 2.161M31.865 49.045c.321.064.964-.762.707-.952-.258-.192-.707.952-.707.952M30.387 49.045c-.324.064-.967-.762-.709-.952.257-.192.709.952.709.952M31.222 49.236c-.339.224-.645-2.224.064-2.16.404.036.129 2.033-.064 2.16"/><path fill="none" stroke="black" stroke-width="1" d="M49.507 17.01h4.351M1.587 17.01H0M43.46 1.399h-5.982"/><path fill="param(fill)" d="M6.78 11.629c.321.064.964-.762.707-.953-.257-.191-.707.953-.707.953M7.873 12.011c.321.064.836-.382.578-.573-.257-.19-.578.573-.578.573M2.921 11.82c-.323.063-1.049-.953-.791-1.145.257-.19.791 1.145.791 1.145M1.891 11.883c-.321.065-.836-.316-.579-.508.257-.191.579.508.579.508M5.926 11.502c.338.223.644-2.097.258-2.224s-.453 2.097-.258 2.224M3.932 11.566c-.194.127-1.268-1.843-.882-1.97s1.074 1.842.882 1.97M4.979 11.438c-.338.225-1.047-2.604-.404-2.35.377.149.596 2.223.404 2.35M19.156 10.001c.322.064.965-.762.708-.952-.258-.192-.708.952-.708.952M17.678 10.001c-.321.064-.964-.762-.707-.952.258-.192.707.952.707.952M18.514 10.192c-.337.223-.643-2.224.064-2.161.406.037.129 2.034-.064 2.161M10.042 4.156c.32.063.965-.764.708-.953-.258-.191-.708.953-.708.953M8.562 4.156c-.322.063-.964-.763-.708-.953.258-.191.708.953.708.953M9.397 4.346c-.337.224-.643-2.224.064-2.16.406.036.13 2.033-.064 2.16M3.867 22.597c.321.063.964-.763.707-.952-.257-.192-.707.952-.707.952M2.387 22.597c-.321.063-.965-.763-.707-.952.257-.192.707.952.707.952M3.225 22.787c-.34.223-.644-2.224.063-2.161.404.037.129 2.034-.063 2.161M51.631 2.543c.321.063.966-.763.709-.953-.258-.191-.709.953-.709.953M47.707 2.543c-.321.063-.964-.763-.707-.953s.707.953.707.953M50.474 2.288c.337.224 1.221-1.652.835-1.779s-1.029 1.652-.835 1.779M48.671 2.099c-.337.222-1.221-1.652-.835-1.779s1.03 1.652.835 1.779M49.767 2.161c-.34.224-.644-2.224.063-2.16.404.036.129 2.033-.063 2.16M30.237 7.207c.324.063.967-.765.71-.955-.258-.19-.71.955-.71.955M28.759 7.207c-.321.063-.964-.765-.707-.955.258-.19.707.955.707.955M29.595 7.396c-.339.222-.643-2.224.064-2.16.406.036.129 2.034-.064 2.16M44.113 8.563c.321.063.964-.765.707-.954-.257-.192-.707.954-.707.954M42.635 8.563c-.321.063-.965-.765-.707-.954.257-.192.707.954.707.954M43.471 8.752c-.338.223-.644-2.224.063-2.16.406.036.129 2.033-.063 2.16M21.995 17.538c.321.063.965-.762.707-.952-.257-.19-.707.952-.707.952M18.072 17.538c-.321.063-.965-.762-.707-.952.257-.19.707.952.707.952M20.838 17.284c.338.224 1.222-1.651.836-1.778-.388-.127-1.03 1.651-.836 1.778M19.036 17.094c-.338.223-1.224-1.652-.836-1.779.386-.127 1.029 1.652.836 1.779M20.129 17.157c-.337.224-.643-2.224.064-2.161.407.037.129 2.034-.064 2.161M37.313 16.736c.323.063.966-.762.709-.952-.257-.19-.709.952-.709.952M35.835 16.736c-.322.063-.965-.762-.708-.952.258-.19.708.952.708.952M36.67 16.927c-.339.224-.643-2.223.064-2.16.407.037.129 2.033-.064 2.16M47.836 21.796c.319.063.964-.763.707-.953-.26-.191-.707.953-.707.953M43.91 21.796c-.321.063-.964-.763-.707-.953s.707.953.707.953M46.677 21.542c.339.223 1.221-1.652.835-1.779-.385-.127-1.029 1.652-.835 1.779M44.877 21.351c-.34.224-1.224-1.651-.838-1.778s1.03 1.651.838 1.778M45.97 21.415c-.34.223-.644-2.224.063-2.161.405.037.129 2.034-.063 2.161M27.198 53.854c.321.063.967-.762.707-.952-.257-.191-.707.952-.707.952M23.275 53.854c-.322.063-.965-.762-.708-.952.258-.191.708.952.708.952M26.041 53.601c.338.222 1.222-1.652.836-1.779s-1.028 1.652-.836 1.779M24.239 53.41c-.338.223-1.222-1.651-.836-1.778s1.029 1.651.836 1.778M25.334 53.474c-.34.222-.643-2.225.064-2.16.404.036.129 2.033-.064 2.16"/><circle fill="param(fill)" cx="9.625" cy="50.803" r=".259"/><circle fill="param(fill)" cx="8.723" cy="50.803" r=".259"/><circle fill="param(fill)" cx="38.251" cy="43.39" r=".259"/><circle fill="param(fill)" cx="37.396" cy="43.39" r=".259"/><circle fill="param(fill)" cx="36.367" cy="43.39" r=".259"/><circle fill="param(fill)" cx="35.467" cy="43.39" r=".259"/><circle fill="param(fill)" cx="34.585" cy="43.39" r=".259"/><circle fill="param(fill)" cx="45.455" cy="44.407" r=".259"/><circle fill="param(fill)" cx="44.6" cy="44.407" r=".259"/><circle fill="param(fill)" cx="43.57" cy="44.407" r=".259"/><circle fill="param(fill)" cx="42.671" cy="44.407" r=".259"/><circle fill="param(fill)" cx="41.789" cy="44.407" r=".259"/><circle fill="param(fill)" cx="23.198" cy="41.928" r=".259"/><circle fill="param(fill)" cx="22.345" cy="41.928" r=".259"/><circle fill="param(fill)" cx="21.316" cy="41.928" r=".259"/><circle fill="param(fill)" cx="20.416" cy="41.928" r=".259"/><circle fill="param(fill)" cx="19.532" cy="41.928" r=".259"/><circle fill="param(fill)" cx="6.944" cy="41.611" r=".259"/><circle fill="param(fill)" cx="6.091" cy="41.611" r=".259"/><circle fill="param(fill)" cx="5.061" cy="41.611" r=".259"/><circle fill="param(fill)" cx="4.16" cy="41.611" r=".259"/><circle fill="param(fill)" cx="3.276" cy="41.611" r=".259"/><circle fill="param(fill)" cx="32.976" cy="49.872" r=".259"/><circle fill="param(fill)" cx="32.122" cy="49.872" r=".259"/><circle fill="param(fill)" cx="31.094" cy="49.872" r=".259"/><circle fill="param(fill)" cx="30.191" cy="49.872" r=".259"/><circle fill="param(fill)" cx="29.31" cy="49.872" r=".259"/><circle fill="param(fill)" cx="16.511" cy="52.922" r=".259"/><circle fill="param(fill)" cx="15.655" cy="52.922" r=".259"/><circle fill="param(fill)" cx="14.627" cy="52.922" r=".259"/><circle fill="param(fill)" cx="13.727" cy="52.922" r=".259"/><circle fill="param(fill)" cx="12.843" cy="52.922" r=".259"/><circle fill="param(fill)" cx="23.198" cy="47.203" r=".259"/><circle fill="param(fill)" cx="22.345" cy="47.203" r=".259"/><circle fill="param(fill)" cx="21.316" cy="47.203" r=".259"/><circle fill="param(fill)" cx="20.416" cy="47.203" r=".259"/><circle fill="param(fill)" cx="19.532" cy="47.203" r=".259"/><circle fill="param(fill)" cx="13.229" cy="34.367" r=".259"/><circle fill="param(fill)" cx="12.375" cy="34.367" r=".259"/><circle fill="param(fill)" cx="11.346" cy="34.367" r=".259"/><circle fill="param(fill)" cx="10.446" cy="34.367" r=".259"/><circle fill="param(fill)" cx="9.564" cy="34.367" r=".259"/><circle fill="param(fill)" cx="42.175" cy="40.15" r=".259"/><circle fill="param(fill)" cx="41.32" cy="40.15" r=".259"/><circle fill="param(fill)" cx="40.29" cy="40.15" r=".259"/><circle fill="param(fill)" cx="39.391" cy="40.15" r=".259"/><circle fill="param(fill)" cx="35.549" cy="40.15" r=".259"/><circle fill="param(fill)" cx="34.521" cy="40.15" r=".259"/><circle fill="param(fill)" cx="33.619" cy="40.15" r=".259"/><circle fill="param(fill)" cx="38.509" cy="40.15" r=".259"/><circle fill="param(fill)" cx="37.478" cy="40.15" r=".259"/><circle fill="param(fill)" cx="36.578" cy="40.15" r=".259"/><circle fill="param(fill)" cx="37.863" cy="28.649" r=".259"/><circle fill="param(fill)" cx="37.01" cy="28.649" r=".259"/><circle fill="param(fill)" cx="35.981" cy="28.649" r=".259"/><circle fill="param(fill)" cx="35.081" cy="28.649" r=".259"/><circle fill="param(fill)" cx="31.238" cy="28.649" r=".259"/><circle fill="param(fill)" cx="30.21" cy="28.649" r=".259"/><circle fill="param(fill)" cx="29.31" cy="28.649" r=".259"/><circle fill="param(fill)" cx="34.199" cy="28.649" r=".259"/><circle fill="param(fill)" cx="33.169" cy="28.649" r=".259"/><circle fill="param(fill)" cx="32.269" cy="28.649" r=".259"/><circle fill="param(fill)" cx="21.592" cy="30.618" r=".259"/><circle fill="param(fill)" cx="20.735" cy="30.618" r=".259"/><circle fill="param(fill)" cx="19.707" cy="30.618" r=".259"/><circle fill="param(fill)" cx="53.366" cy="33.668" r=".259"/><circle fill="param(fill)" cx="52.482" cy="33.668" r=".259"/><circle fill="param(fill)" cx="6.024" cy="33.668" r=".259"/><circle fill="param(fill)" cx="2.184" cy="33.668" r=".259"/><circle fill="param(fill)" cx="1.33" cy="33.668" r=".259"/><circle fill="param(fill)" cx=".488" cy="33.668" r=".259"/><circle fill="param(fill)" cx="5.143" cy="33.668" r=".259"/><circle fill="param(fill)" cx="4.114" cy="33.668" r=".259"/><circle fill="param(fill)" cx="3.214" cy="33.668" r=".259"/><circle fill="param(fill)" cx="51.481" cy="38.138" r=".259"/><circle fill="param(fill)" cx="47.641" cy="38.138" r=".259"/><circle fill="param(fill)" cx="46.612" cy="38.138" r=".259"/><circle fill="param(fill)" cx="45.712" cy="38.138" r=".259"/><circle fill="param(fill)" cx="50.6" cy="38.138" r=".259"/><circle fill="param(fill)" cx="49.571" cy="38.138" r=".259"/><circle fill="param(fill)" cx="48.671" cy="38.138" r=".259"/><circle fill="param(fill)" cx="50.324" cy="39.472" r=".259"/><circle fill="param(fill)" cx="49.296" cy="39.472" r=".259"/><circle fill="param(fill)" cx="48.396" cy="39.472" r=".259"/><circle fill="param(fill)" cx="16.83" cy="40.214" r=".259"/><circle fill="param(fill)" cx="12.989" cy="40.214" r=".259"/><circle fill="param(fill)" cx="11.961" cy="40.214" r=".259"/><circle fill="param(fill)" cx="11.061" cy="40.214" r=".259"/><circle fill="param(fill)" cx="15.948" cy="40.214" r=".259"/><circle fill="param(fill)" cx="14.92" cy="40.214" r=".259"/><circle fill="param(fill)" cx="14.02" cy="40.214" r=".259"/><circle fill="param(fill)" cx="51.518" cy="44.237" r=".259"/><circle fill="param(fill)" cx="50.489" cy="44.237" r=".259"/><circle fill="param(fill)" cx="49.59" cy="44.237" r=".259"/><circle fill="param(fill)" cx="53.448" cy="44.237" r=".259"/><circle fill="param(fill)" cx="52.549" cy="44.237" r=".259"/><circle fill="param(fill)" cx="52.559" cy="45.064" r=".259"/><circle fill="param(fill)" cx="51.675" cy="45.064" r=".259"/><circle fill="param(fill)" cx="1.458" cy="44.237" r=".259"/><circle fill="param(fill)" cx=".576" cy="44.237" r=".259"/><circle fill="param(fill)" cx="6.605" cy="53.176" r=".259"/><circle fill="param(fill)" cx="5.722" cy="53.176" r=".259"/><circle fill="param(fill)" cx="4.692" cy="53.176" r=".259"/><circle fill="param(fill)" cx="3.793" cy="53.176" r=".259"/><circle fill="param(fill)" cx="29.667" cy="36.592" r=".259"/><circle fill="param(fill)" cx="25.826" cy="36.592" r=".259"/><circle fill="param(fill)" cx="24.796" cy="36.592" r=".259"/><circle fill="param(fill)" cx="23.896" cy="36.592" r=".259"/><circle fill="param(fill)" cx="28.785" cy="36.592" r=".259"/><circle fill="param(fill)" cx="27.755" cy="36.592" r=".259"/><circle fill="param(fill)" cx="26.854" cy="36.592" r=".259"/><circle fill="param(fill)" cx="18.808" cy="30.618" r=".259"/><circle fill="param(fill)" cx="14.966" cy="30.618" r=".259"/><circle fill="param(fill)" cx="12.071" cy="30.618" r=".259"/><circle fill="param(fill)" cx="11.172" cy="30.618" r=".259"/><circle fill="param(fill)" cx="13.938" cy="30.618" r=".259"/><circle fill="param(fill)" cx="13.038" cy="30.618" r=".259"/><circle fill="param(fill)" cx="17.926" cy="30.618" r=".259"/><circle fill="param(fill)" cx="16.896" cy="30.618" r=".259"/><circle fill="param(fill)" cx="15.995" cy="30.618" r=".259"/><circle fill="param(fill)" cx="7.891" cy="25.727" r=".259"/><circle fill="param(fill)" cx="7.037" cy="25.727" r=".259"/><circle fill="param(fill)" cx="6.009" cy="25.727" r=".259"/><circle fill="param(fill)" cx="29.438" cy="40.15" r=".259"/><circle fill="param(fill)" cx="28.557" cy="40.15" r=".259"/><circle fill="param(fill)" cx="27.525" cy="40.15" r=".259"/><circle fill="param(fill)" cx="26.626" cy="40.15" r=".259"/><circle fill="param(fill)" cx="26.865" cy="37.417" r=".259"/><circle fill="param(fill)" cx="25.983" cy="37.417" r=".259"/><circle fill="param(fill)" cx="38.958" cy="41.801" r=".259"/><circle fill="param(fill)" cx="38.074" cy="41.801" r=".259"/><circle fill="param(fill)" cx="37.046" cy="41.801" r=".259"/><circle fill="param(fill)" cx="36.146" cy="41.801" r=".259"/><circle fill="param(fill)" cx=".43" cy="49.999" r=".259"/><circle fill="param(fill)" cx="53.448" cy="49.999" r=".259"/><circle fill="param(fill)" cx="52.42" cy="49.999" r=".259"/><circle fill="param(fill)" cx="51.518" cy="49.999" r=".259"/><circle fill="param(fill)" cx="53.045" cy="47.394" r=".259"/><circle fill="param(fill)" cx="52.014" cy="47.394" r=".259"/><circle fill="param(fill)" cx="51.114" cy="47.394" r=".259"/><circle fill="param(fill)" cx="16.959" cy="44.153" r=".259"/><circle fill="param(fill)" cx="16.077" cy="44.153" r=".259"/><circle fill="param(fill)" cx="15.049" cy="44.153" r=".259"/><circle fill="param(fill)" cx="14.148" cy="44.153" r=".259"/><circle fill="param(fill)" cx="20.113" cy="36.274" r=".259"/><circle fill="param(fill)" cx="45.797" cy="34.41" r=".259"/><circle fill="param(fill)" cx="44.768" cy="34.41" r=".259"/><circle fill="param(fill)" cx="43.868" cy="34.41" r=".259"/><circle fill="param(fill)" cx="32.333" cy="42.12" r=".259"/><circle fill="param(fill)" cx="31.305" cy="42.12" r=".259"/><circle fill="param(fill)" cx="34.906" cy="46.186" r=".259"/><circle fill="param(fill)" cx="34.005" cy="46.186" r=".259"/><circle fill="param(fill)" cx="40.951" cy="30.301" r=".259"/><circle fill="param(fill)" cx="40.051" cy="30.301" r=".259"/><circle fill="param(fill)" cx="32.204" cy="52.667" r=".259"/><circle fill="param(fill)" cx="31.305" cy="52.667" r=".259"/><circle fill="param(fill)" cx="47.512" cy="46.186" r=".259"/><circle fill="param(fill)" cx="46.612" cy="46.186" r=".259"/><circle fill="param(fill)" cx="26.543" cy="43.39" r=".259"/><circle fill="param(fill)" cx="25.515" cy="43.39" r=".259"/><circle fill="param(fill)" cx="24.615" cy="43.39" r=".259"/><circle fill="param(fill)" cx="27.058" cy="49.363" r=".259"/><circle fill="param(fill)" cx="26.029" cy="49.363" r=".259"/><circle fill="param(fill)" cx="25.129" cy="49.363" r=".259"/><circle fill="param(fill)" cx="15.674" cy="41.547" r=".259"/><circle fill="param(fill)" cx="14.645" cy="41.547" r=".259"/><circle fill="param(fill)" cx="13.745" cy="41.547" r=".259"/><circle fill="param(fill)" cx="19.229" cy="36.274" r=".259"/><circle fill="param(fill)" cx="18.2" cy="36.274" r=".259"/><circle fill="param(fill)" cx="17.299" cy="36.274" r=".259"/><circle fill="param(fill)" cx="33.876" cy="30.047" r=".259"/><circle fill="param(fill)" cx="32.994" cy="30.047" r=".259"/><circle fill="param(fill)" cx="31.964" cy="30.047" r=".259"/><circle fill="param(fill)" cx="31.063" cy="30.047" r=".259"/><circle fill="param(fill)" cx="34.521" cy="32.588" r=".259"/><circle fill="param(fill)" cx="33.637" cy="32.588" r=".259"/><circle fill="param(fill)" cx="32.608" cy="32.588" r=".259"/><circle fill="param(fill)" cx="31.706" cy="32.588" r=".259"/><circle fill="param(fill)" cx="26.929" cy="32.271" r=".259"/><circle fill="param(fill)" cx="26.047" cy="32.271" r=".259"/><circle fill="param(fill)" cx="25.017" cy="32.271" r=".259"/><circle fill="param(fill)" cx="24.116" cy="32.271" r=".259"/><circle fill="param(fill)" cx="3.067" cy="34.938" r=".259"/><circle fill="param(fill)" cx="2.184" cy="34.938" r=".259"/><circle fill="param(fill)" cx="1.155" cy="34.938" r=".259"/><circle fill="param(fill)" cx="51.5" cy="27.633" r=".259"/><circle fill="param(fill)" cx="50.6" cy="27.633" r=".259"/><circle fill="param(fill)" cx="53.384" cy="27.633" r=".259"/><circle fill="param(fill)" cx="52.482" cy="27.633" r=".259"/><circle fill="param(fill)" cx="1.458" cy="27.633" r=".259"/><circle fill="param(fill)" cx=".576" cy="27.633" r=".259"/><circle fill="param(fill)" cx="8.212" cy="30.682" r=".259"/><circle fill="param(fill)" cx="7.33" cy="30.682" r=".259"/><circle fill="param(fill)" cx="6.3" cy="30.682" r=".259"/><circle fill="param(fill)" cx="5.399" cy="30.682" r=".259"/><circle fill="param(fill)" cx="23.972" cy="27.633" r=".259"/><circle fill="param(fill)" cx="22.941" cy="27.633" r=".259"/><circle fill="param(fill)" cx="22.041" cy="27.633" r=".259"/><circle fill="param(fill)" cx="5.106" cy="25.727" r=".259"/><circle fill="param(fill)" cx="44.938" cy="53.049" r=".259"/><circle fill="param(fill)" cx="44.057" cy="53.049" r=".259"/><circle fill="param(fill)" cx="16.811" cy="49.321" r=".259"/><circle fill="param(fill)" cx="15.927" cy="49.321" r=".259"/><circle fill="param(fill)" cx="45.807" cy="26.086" r=".259"/><circle fill="param(fill)" cx="44.925" cy="26.086" r=".259"/><circle fill="param(fill)" cx="48.026" cy="28.649" r=".259"/><circle fill="param(fill)" cx="46.998" cy="28.649" r=".259"/><circle fill="param(fill)" cx="46.098" cy="28.649" r=".259"/><circle fill="param(fill)" cx="37.416" cy="35.957" r=".259"/><circle fill="param(fill)" cx="36.56" cy="35.957" r=".259"/><circle fill="param(fill)" cx="35.531" cy="35.957" r=".259"/><circle fill="param(fill)" cx="34.631" cy="35.957" r=".259"/><circle fill="param(fill)" cx="33.747" cy="35.957" r=".259"/><circle fill="param(fill)" cx="43.653" cy="51.587" r=".259"/><circle fill="param(fill)" cx="42.8" cy="51.587" r=".259"/><circle fill="param(fill)" cx="41.771" cy="51.587" r=".259"/><circle fill="param(fill)" cx="40.869" cy="51.587" r=".259"/><circle fill="param(fill)" cx="39.987" cy="51.587" r=".259"/><circle fill="param(fill)" cx="46.098" cy="50.252" r=".259"/><circle fill="param(fill)" cx="45.244" cy="50.252" r=".259"/><circle fill="param(fill)" cx="44.214" cy="50.252" r=".259"/><circle fill="param(fill)" cx="43.313" cy="50.252" r=".259"/><circle fill="param(fill)" cx="39.473" cy="50.252" r=".259"/><circle fill="param(fill)" cx="38.444" cy="50.252" r=".259"/><circle fill="param(fill)" cx="37.544" cy="50.252" r=".259"/><circle fill="param(fill)" cx="42.432" cy="50.252" r=".259"/><circle fill="param(fill)" cx="41.403" cy="50.252" r=".259"/><circle fill="param(fill)" cx="40.501" cy="50.252" r=".259"/><circle fill="param(fill)" cx="19.146" cy="31.953" r=".259"/><circle fill="param(fill)" cx="18.293" cy="31.953" r=".259"/><circle fill="param(fill)" cx="17.263" cy="31.953" r=".259"/><circle fill="param(fill)" cx="16.362" cy="31.953" r=".259"/><circle fill="param(fill)" cx="15.48" cy="31.953" r=".259"/><circle fill="param(fill)" cx="41.208" cy="26.997" r=".259"/><circle fill="param(fill)" cx="40.354" cy="26.997" r=".259"/><circle fill="param(fill)" cx="39.326" cy="26.997" r=".259"/><circle fill="param(fill)" cx="38.426" cy="26.997" r=".259"/><circle fill="param(fill)" cx="37.544" cy="26.997" r=".259"/><circle fill="param(fill)" cx="48.607" cy="30.745" r=".259"/><circle fill="param(fill)" cx="47.753" cy="30.745" r=".259"/><circle fill="param(fill)" cx="46.723" cy="30.745" r=".259"/><circle fill="param(fill)" cx="45.822" cy="30.745" r=".259"/><circle fill="param(fill)" cx="44.938" cy="30.745" r=".259"/><circle fill="param(fill)" cx="12.265" cy="47.965" r=".259"/><circle fill="param(fill)" cx="11.41" cy="47.965" r=".259"/><circle fill="param(fill)" cx="10.382" cy="47.965" r=".259"/><circle fill="param(fill)" cx="9.482" cy="47.965" r=".259"/><circle fill="param(fill)" cx="5.639" cy="47.965" r=".259"/><circle fill="param(fill)" cx="4.61" cy="47.965" r=".259"/><circle fill="param(fill)" cx="3.71" cy="47.965" r=".259"/><circle fill="param(fill)" cx="8.598" cy="47.965" r=".259"/><circle fill="param(fill)" cx="7.569" cy="47.965" r=".259"/><circle fill="param(fill)" cx="6.67" cy="47.965" r=".259"/><circle fill="param(fill)" cx="11.535" cy="50.803" r=".259"/><circle fill="param(fill)" cx="10.613" cy="50.803" r=".259"/><circle fill="param(fill)" cx="38.593" cy="5.804" r=".259"/><circle fill="param(fill)" cx="37.564" cy="5.804" r=".259"/><circle fill="param(fill)" cx="36.664" cy="5.804" r=".259"/><circle fill="param(fill)" cx="34.816" cy="5.804" r=".259"/><circle fill="param(fill)" cx="35.78" cy="5.804" r=".259"/><circle fill="param(fill)" cx=".479" cy="3.686" r=".259"/><circle fill="param(fill)" cx="53.35" cy="3.686" r=".259"/><circle fill="param(fill)" cx="52.448" cy="3.686" r=".259"/><circle fill="param(fill)" cx="48.609" cy="3.686" r=".259"/><circle fill="param(fill)" cx="47.578" cy="3.686" r=".259"/><circle fill="param(fill)" cx="46.679" cy="3.686" r=".259"/><circle fill="param(fill)" cx="51.566" cy="3.686" r=".259"/><circle fill="param(fill)" cx="50.537" cy="3.686" r=".259"/><circle fill="param(fill)" cx="49.638" cy="3.686" r=".259"/><circle fill="param(fill)" cx="51.245" cy="5.084" r=".259"/><circle fill="param(fill)" cx="50.363" cy="5.084" r=".259"/><circle fill="param(fill)" cx="49.334" cy="5.084" r=".259"/><circle fill="param(fill)" cx="48.433" cy="5.084" r=".259"/><circle fill="param(fill)" cx="6.477" cy="23.397" r=".259"/><circle fill="param(fill)" cx="2.634" cy="23.397" r=".259"/><circle fill="param(fill)" cx="1.605" cy="23.397" r=".259"/><circle fill="param(fill)" cx=".705" cy="23.397" r=".259"/><circle fill="param(fill)" cx="5.593" cy="23.397" r=".259"/><circle fill="param(fill)" cx="4.564" cy="23.397" r=".259"/><circle fill="param(fill)" cx="3.664" cy="23.397" r=".259"/><circle fill="param(fill)" cx="3.674" cy="24.224" r=".259"/><circle fill="param(fill)" cx="2.792" cy="24.224" r=".259"/><circle fill="param(fill)" cx="12.652" cy="4.957" r=".259"/><circle fill="param(fill)" cx="8.809" cy="4.957" r=".259"/><circle fill="param(fill)" cx="7.78" cy="4.957" r=".259"/><circle fill="param(fill)" cx="6.879" cy="4.957" r=".259"/><circle fill="param(fill)" cx="11.768" cy="4.957" r=".259"/><circle fill="param(fill)" cx="10.737" cy="4.957" r=".259"/><circle fill="param(fill)" cx="9.838" cy="4.957" r=".259"/><circle fill="param(fill)" cx="13.048" cy="9.024" r=".259"/><circle fill="param(fill)" cx="12.164" cy="9.024" r=".259"/><circle fill="param(fill)" cx="11.135" cy="9.024" r=".259"/><circle fill="param(fill)" cx="10.233" cy="9.024" r=".259"/><circle fill="param(fill)" cx="9.848" cy="5.784" r=".259"/><circle fill="param(fill)" cx="8.966" cy="5.784" r=".259"/><circle fill="param(fill)" cx="21.767" cy="10.803" r=".259"/><circle fill="param(fill)" cx="17.926" cy="10.803" r=".259"/><circle fill="param(fill)" cx="16.896" cy="10.803" r=".259"/><circle fill="param(fill)" cx="15.995" cy="10.803" r=".259"/><circle fill="param(fill)" cx="20.885" cy="10.803" r=".259"/><circle fill="param(fill)" cx="19.854" cy="10.803" r=".259"/><circle fill="param(fill)" cx="18.954" cy="10.803" r=".259"/><circle fill="param(fill)" cx="18.964" cy="11.629" r=".259"/><circle fill="param(fill)" cx="18.082" cy="11.629" r=".259"/><circle fill="param(fill)" cx="20.583" cy="5.126" r=".259"/><circle fill="param(fill)" cx="19.701" cy="5.126" r=".259"/><circle fill="param(fill)" cx="18.671" cy="5.126" r=".259"/><circle fill="param(fill)" cx="17.771" cy="5.126" r=".259"/><circle fill="param(fill)" cx="31.047" cy="18.046" r=".259"/><circle fill="param(fill)" cx="30.017" cy="18.046" r=".259"/><circle fill="param(fill)" cx="29.117" cy="18.046" r=".259"/><circle fill="param(fill)" cx="34.991" cy="2.585" r=".259"/><circle fill="param(fill)" cx="33.962" cy="2.585" r=".259"/><circle fill="param(fill)" cx="24.743" cy="8.644" r=".259"/><circle fill="param(fill)" cx="23.844" cy="8.644" r=".259"/><circle fill="param(fill)" cx="14.41" cy="2.585" r=".259"/><circle fill="param(fill)" cx="13.379" cy="2.585" r=".259"/><circle fill="param(fill)" cx="12.479" cy="2.585" r=".259"/><circle fill="param(fill)" cx="39.621" cy="10.549" r=".259"/><circle fill="param(fill)" cx="38.593" cy="10.549" r=".259"/><circle fill="param(fill)" cx="37.692" cy="10.549" r=".259"/><circle fill="param(fill)" cx="27.96" cy="12.71" r=".259"/><circle fill="param(fill)" cx="26.929" cy="12.71" r=".259"/><circle fill="param(fill)" cx="26.029" cy="12.71" r=".259"/><circle fill="param(fill)" cx="21.955" cy="6.482" r=".259"/><circle fill="param(fill)" cx="20.927" cy="6.482" r=".259"/><circle fill="param(fill)" cx="20.026" cy="6.482" r=".259"/><circle fill="param(fill)" cx="43.268" cy="3.305" r=".259"/><circle fill="param(fill)" cx="42.239" cy="3.305" r=".259"/><circle fill="param(fill)" cx="41.337" cy="3.305" r=".259"/><circle fill="param(fill)" cx="45.455" cy="14.742" r=".259"/><circle fill="param(fill)" cx="44.6" cy="14.742" r=".259"/><circle fill="param(fill)" cx="43.57" cy="14.742" r=".259"/><circle fill="param(fill)" cx="42.671" cy="14.742" r=".259"/><circle fill="param(fill)" cx="41.789" cy="14.742" r=".259"/><circle fill="param(fill)" cx="28.217" cy="20.801" r=".259"/><circle fill="param(fill)" cx="27.363" cy="20.801" r=".259"/><circle fill="param(fill)" cx="26.332" cy="20.801" r=".259"/><circle fill="param(fill)" cx="25.433" cy="20.801" r=".259"/><circle fill="param(fill)" cx="24.551" cy="20.801" r=".259"/><circle fill="param(fill)" cx="32.076" cy="22.369" r=".259"/><circle fill="param(fill)" cx="31.222" cy="22.369" r=".259"/><circle fill="param(fill)" cx="30.191" cy="22.369" r=".259"/><circle fill="param(fill)" cx="50.214" cy="22.369" r=".259"/><circle fill="param(fill)" cx="49.36" cy="22.369" r=".259"/><circle fill="param(fill)" cx="48.33" cy="22.369" r=".259"/><circle fill="param(fill)" cx="47.43" cy="22.369" r=".259"/><circle fill="param(fill)" cx="43.589" cy="22.369" r=".259"/><circle fill="param(fill)" cx="42.561" cy="22.369" r=".259"/><circle fill="param(fill)" cx="41.66" cy="22.369" r=".259"/><circle fill="param(fill)" cx="46.548" cy="22.369" r=".259"/><circle fill="param(fill)" cx="45.52" cy="22.369" r=".259"/><circle fill="param(fill)" cx="44.619" cy="22.369" r=".259"/><circle fill="param(fill)" cx="39.923" cy="17.538" r=".259"/><circle fill="param(fill)" cx="36.082" cy="17.538" r=".259"/><circle fill="param(fill)" cx="35.051" cy="17.538" r=".259"/><circle fill="param(fill)" cx="34.151" cy="17.538" r=".259"/><circle fill="param(fill)" cx="39.041" cy="17.538" r=".259"/><circle fill="param(fill)" cx="38.012" cy="17.538" r=".259"/><circle fill="param(fill)" cx="37.11" cy="17.538" r=".259"/><circle fill="param(fill)" cx="37.158" cy="20.334" r=".259"/><circle fill="param(fill)" cx="36.274" cy="20.334" r=".259"/><circle fill="param(fill)" cx="35.246" cy="20.334" r=".259"/><circle fill="param(fill)" cx="34.344" cy="20.334" r=".259"/><circle fill="param(fill)" cx="37.12" cy="18.365" r=".259"/><circle fill="param(fill)" cx="36.238" cy="18.365" r=".259"/><circle fill="param(fill)" cx="46.998" cy="24.02" r=".259"/><circle fill="param(fill)" cx="46.116" cy="24.02" r=".259"/><circle fill="param(fill)" cx="45.088" cy="24.02" r=".259"/><circle fill="param(fill)" cx="44.186" cy="24.02" r=".259"/><circle fill="param(fill)" cx="34.649" cy="12.456" r=".259"/><circle fill="param(fill)" cx="33.766" cy="12.456" r=".259"/><circle fill="param(fill)" cx="32.736" cy="12.456" r=".259"/><circle fill="param(fill)" cx="31.835" cy="12.456" r=".259"/><circle fill="param(fill)" cx="15.609" cy="14.488" r=".259"/><circle fill="param(fill)" cx="14.755" cy="14.488" r=".259"/><circle fill="param(fill)" cx="13.727" cy="14.488" r=".259"/><circle fill="param(fill)" cx="12.825" cy="14.488" r=".259"/><circle fill="param(fill)" cx="11.942" cy="14.488" r=".259"/><circle fill="param(fill)" cx="16.444" cy="21.923" r=".259"/><circle fill="param(fill)" cx="15.591" cy="21.923" r=".259"/><circle fill="param(fill)" cx="14.563" cy="21.923" r=".259"/><circle fill="param(fill)" cx="13.66" cy="21.923" r=".259"/><circle fill="param(fill)" cx="12.78" cy="21.923" r=".259"/><circle fill="param(fill)" cx="24.374" cy="18.111" r=".259"/><circle fill="param(fill)" cx="23.521" cy="18.111" r=".259"/><circle fill="param(fill)" cx="22.491" cy="18.111" r=".259"/><circle fill="param(fill)" cx="21.592" cy="18.111" r=".259"/><circle fill="param(fill)" cx="17.751" cy="18.111" r=".259"/><circle fill="param(fill)" cx="16.72" cy="18.111" r=".259"/><circle fill="param(fill)" cx="15.82" cy="18.111" r=".259"/><circle fill="param(fill)" cx="20.71" cy="18.111" r=".259"/><circle fill="param(fill)" cx="19.679" cy="18.111" r=".259"/><circle fill="param(fill)" cx="18.779" cy="18.111" r=".259"/><circle fill="param(fill)" cx="24.699" cy="23.258" r=".259"/><circle fill="param(fill)" cx="23.817" cy="23.258" r=".259"/><circle fill="param(fill)" cx="22.789" cy="23.258" r=".259"/><circle fill="param(fill)" cx="21.887" cy="23.258" r=".259"/><circle fill="param(fill)" cx="11.322" cy="18.684" r=".259"/><circle fill="param(fill)" cx="10.438" cy="18.684" r=".259"/><circle fill="param(fill)" cx="9.409" cy="18.684" r=".259"/><circle fill="param(fill)" cx="8.51" cy="18.684" r=".259"/><circle fill="param(fill)" cx="46.723" cy="9.362" r=".259"/><circle fill="param(fill)" cx="42.882" cy="9.362" r=".259"/><circle fill="param(fill)" cx="41.854" cy="9.362" r=".259"/><circle fill="param(fill)" cx="40.951" cy="9.362" r=".259"/><circle fill="param(fill)" cx="45.841" cy="9.362" r=".259"/><circle fill="param(fill)" cx="44.811" cy="9.362" r=".259"/><circle fill="param(fill)" cx="43.91" cy="9.362" r=".259"/><circle fill="param(fill)" cx="2.231" cy="7.16" r=".259"/><circle fill="param(fill)" cx="1.348" cy="7.16" r=".259"/><circle fill="param(fill)" cx="50.429" cy="14.615" r=".259"/><circle fill="param(fill)" cx="49.547" cy="14.615" r=".259"/><circle fill="param(fill)" cx="2.917" cy="18.513" r=".259"/><circle fill="param(fill)" cx="2.035" cy="18.513" r=".259"/><circle fill="param(fill)" cx="5.317" cy="3.432" r=".259"/><circle fill="param(fill)" cx="4.436" cy="3.432" r=".259"/><circle fill="param(fill)" cx="52.486" cy="20.208" r=".259"/><circle fill="param(fill)" cx="51.604" cy="20.208" r=".259"/><circle fill="param(fill)" cx="43.92" cy="10.188" r=".259"/><circle fill="param(fill)" cx="43.038" cy="10.188" r=".259"/><circle fill="param(fill)" cx="32.848" cy="8.009" r=".259"/><circle fill="param(fill)" cx="29.006" cy="8.009" r=".259"/><circle fill="param(fill)" cx="27.976" cy="8.009" r=".259"/><circle fill="param(fill)" cx="27.076" cy="8.009" r=".259"/><circle fill="param(fill)" cx="31.964" cy="8.009" r=".259"/><circle fill="param(fill)" cx="30.935" cy="8.009" r=".259"/><circle fill="param(fill)" cx="30.035" cy="8.009" r=".259"/><circle fill="param(fill)" cx="52.482" cy="10.719" r=".259"/><circle fill="param(fill)" cx="51.628" cy="10.719" r=".259"/><circle fill="param(fill)" cx="50.6" cy="10.719" r=".259"/><circle fill="param(fill)" cx="49.7" cy="10.719" r=".259"/><circle fill="param(fill)" cx="48.818" cy="10.719" r=".259"/><circle fill="param(fill)" cx="29.328" cy="14.446" r=".259"/><circle fill="param(fill)" cx="28.474" cy="14.446" r=".259"/><circle fill="param(fill)" cx="27.445" cy="14.446" r=".259"/><circle fill="param(fill)" cx="26.543" cy="14.446" r=".259"/><circle fill="param(fill)" cx="25.661" cy="14.446" r=".259"/><circle fill="param(fill)" cx="26.222" cy="2.86" r=".259"/><circle fill="param(fill)" cx="25.368" cy="2.86" r=".259"/><circle fill="param(fill)" cx="24.338" cy="2.86" r=".259"/><circle fill="param(fill)" cx="23.438" cy="2.86" r=".259"/><circle fill="param(fill)" cx="22.556" cy="2.86" r=".259"/><circle fill="param(fill)" cx="28.667" cy="1.526" r=".259"/><circle fill="param(fill)" cx="27.813" cy="1.526" r=".259"/><circle fill="param(fill)" cx="26.784" cy="1.526" r=".259"/><circle fill="param(fill)" cx="25.883" cy="1.526" r=".259"/><circle fill="param(fill)" cx="22.041" cy="1.526" r=".259"/><circle fill="param(fill)" cx="19.146" cy="1.526" r=".259"/><circle fill="param(fill)" cx="18.247" cy="1.526" r=".259"/><circle fill="param(fill)" cx="21.013" cy="1.526" r=".259"/><circle fill="param(fill)" cx="20.113" cy="1.526" r=".259"/><circle fill="param(fill)" cx="25.001" cy="1.526" r=".259"/><circle fill="param(fill)" cx="23.972" cy="1.526" r=".259"/><circle fill="param(fill)" cx="23.07" cy="1.526" r=".259"/><circle fill="param(fill)" cx="53.477" cy="12.583" r=".259"/><circle fill="param(fill)" cx="7.959" cy="13.917" r=".259"/><circle fill="param(fill)" cx="7.105" cy="13.917" r=".259"/><circle fill="param(fill)" cx="6.075" cy="13.917" r=".259"/><circle fill="param(fill)" cx="5.175" cy="13.917" r=".259"/><circle fill="param(fill)" cx="4.293" cy="13.917" r=".259"/><circle fill="param(fill)" cx="9.996" cy="12.583" r=".259"/><circle fill="param(fill)" cx="9.141" cy="12.583" r=".259"/><circle fill="param(fill)" cx="8.112" cy="12.583" r=".259"/><circle fill="param(fill)" cx="7.212" cy="12.583" r=".259"/><circle fill="param(fill)" cx="3.371" cy="12.583" r=".259"/><circle fill="param(fill)" cx=".477" cy="12.583" r=".259"/><circle fill="param(fill)" cx="2.34" cy="12.583" r=".259"/><circle fill="param(fill)" cx="1.44" cy="12.583" r=".259"/><circle fill="param(fill)" cx="6.184" cy="12.583" r=".259"/><circle fill="param(fill)" cx="5.3" cy="12.583" r=".259"/><circle fill="param(fill)" cx="4.399" cy="12.583" r=".259"/><circle fill="param(fill)" cx="39.448" cy="5.804" r=".259"/></svg>
