<svg xmlns="http://www.w3.org/2000/svg" width="45.354" height="45.354" viewBox="0 0 45.354 45.354"><path fill="none" d="M0 0h45.354v45.354H0z"/><path fill="param(fill)" d="M28.433 41.378l.596.479.796.337 2.576-.026.654.252.394.453.425.901-.595-.478-.793-.339-2.576.028-.654-.253-.398-.453zM17.094 41.378l.596.479.796.337 2.577-.026.653.252.395.453.425.901-.595-.478-.793-.339-2.577.028-.653-.253-.398-.453zM39.771 41.378l.596.479.796.337 2.577-.026.653.252.395.453.425.901-.595-.478-.793-.339-2.576.028-.654-.253-.398-.453zM5.756 41.378l.596.479.795.337 2.577-.026.653.252.395.453.425.901-.595-.478-.792-.339-2.577.028-.653-.253-.398-.453zM22.764 35.737l.595.48.796.337 2.576-.028.654.252.395.454.425.902-.595-.48-.793-.339-2.576.03-.654-.254-.398-.452zM11.425 35.737l.596.48.796.337 2.576-.028.654.252.394.454.425.902-.595-.48-.792-.339-2.577.03-.653-.254-.398-.452zM34.102 35.737l.596.48.796.337 2.576-.028.654.252.395.454.424.902-.594-.48-.793-.339-2.576.03-.654-.254-.398-.452zM.086 35.737l.596.48.796.337 2.577-.028.653.252.395.454.425.902-.595-.48-.793-.339-2.577.03-.653-.254-.398-.452zM28.433 30.096l.596.479.796.338 2.576-.027.654.252.394.452.425.903-.595-.48-.793-.338-2.576.029-.654-.254-.398-.454zM17.094 30.096l.596.479.796.338 2.577-.027.653.252.395.452.425.903-.595-.48-.793-.338-2.577.029-.653-.254-.398-.454zM39.771 30.096l.596.479.796.338 2.577-.027.653.252.395.452.425.903-.595-.48-.793-.338-2.576.029-.654-.254-.398-.454zM5.756 30.096l.596.479.795.338 2.577-.027.653.252.395.452.425.903-.595-.48-.792-.338-2.577.029-.653-.254-.398-.454zM22.764 24.455l.595.479.796.337 2.576-.026.654.251.395.453.425.903-.595-.48-.793-.338-2.576.029-.654-.254-.398-.454zM11.425 24.455l.596.479.796.337 2.576-.026.654.251.394.453.425.903-.595-.48-.792-.338-2.577.029-.653-.254-.398-.454zM34.102 24.455l.596.479.796.337 2.576-.026.654.251.395.453.424.903-.594-.48-.793-.338-2.576.029-.654-.254-.398-.454zM.086 24.455l.596.479.796.337 2.577-.026.653.251.395.453.425.903-.595-.48-.793-.338-2.577.029-.653-.254-.398-.454zM28.433 18.813l.596.479.796.338 2.576-.026.654.25.394.455.425.901-.595-.48-.793-.337-2.576.028-.654-.253-.398-.454zM17.094 18.813l.596.479.796.338 2.577-.026.653.25.395.455.425.901-.595-.48-.793-.337-2.577.028-.653-.253-.398-.454zM39.771 18.813l.596.479.796.338 2.577-.026.653.25.395.455.425.901-.595-.48-.793-.337-2.576.028-.654-.253-.398-.454zM5.756 18.813l.596.479.795.338 2.577-.026.653.25.395.455.425.901-.595-.48-.792-.337-2.577.028-.653-.253-.398-.454zM22.764 13.172l.595.479.796.337 2.576-.026.654.251.395.454.425.901-.595-.478-.793-.339-2.576.028-.654-.253-.398-.453zM11.425 13.172l.596.479.796.337 2.576-.026.654.251.394.454.425.901-.595-.478-.792-.339-2.577.028-.653-.253-.398-.453zM34.102 13.172l.596.479.796.337 2.576-.026.654.251.395.454.424.901-.594-.478-.793-.339-2.576.028-.654-.253-.398-.453zM.086 13.172l.596.479.796.337 2.577-.026.653.251.395.454.425.901-.595-.478-.793-.339-2.577.028-.653-.253-.398-.453zM28.433 7.475l.596.478.796.338 2.576-.026.654.251.394.454.425.901-.595-.479-.793-.338-2.576.028-.654-.253-.398-.454zM17.094 7.475l.596.478.796.338 2.577-.026.653.251.395.454.425.901-.595-.479-.793-.338-2.577.028-.653-.253-.398-.454zM39.771 7.475l.596.478.796.338 2.577-.026.653.251.395.454.425.901-.595-.479-.793-.338-2.576.028-.654-.253-.398-.454zM5.756 7.475l.596.478.795.338 2.577-.026.653.251.395.454.425.901-.595-.479-.792-.338-2.577.028-.653-.253-.398-.454zM22.764 1.833l.595.48.796.336 2.576-.026.654.251.395.454.425.901-.595-.478-.793-.339-2.576.028-.654-.252-.398-.454zM11.425 1.833l.596.48.796.336 2.576-.026.654.251.394.454.425.901-.595-.478-.792-.339-2.577.028-.653-.252-.398-.454zM34.102 1.833l.596.48.796.336 2.576-.026.654.251.395.454.424.901-.594-.478-.793-.339-2.576.028-.654-.252-.398-.454zM.086 1.833l.596.48.796.336 2.577-.026.653.251.395.454.425.901-.595-.478-.793-.339-2.577.028-.653-.252-.398-.454z"/></svg>