<svg xmlns="http://www.w3.org/2000/svg" width="51.024" height="51.023" viewBox="0 0 51.024 51.023"><path fill="none" stroke="black" stroke-width="1" stroke-linejoin="round" stroke-miterlimit="500" d="M0 45.707h4.251M2.127 45.708v-2.126M4.254 49.961h4.25M6.378 49.96v-2.126M8.504 45.707h4.251M10.631 45.708v-2.126M12.758 49.961h4.25M14.882 49.96v-2.126M17.008 45.707h4.251M19.135 45.708v-2.126M21.262 49.961h4.25M23.386 49.96v-2.126M25.512 45.707h4.251M27.639 45.708v-2.126M29.766 49.961h4.25M31.89 49.96v-2.126M34.016 45.707h4.251M36.143 45.708v-2.126M38.27 49.961h4.25M40.394 49.96v-2.126M42.52 45.707h4.251M44.647 45.708v-2.126M46.774 49.961h4.25M48.898 49.96v-2.126M0 37.203h4.251M2.127 37.204v-2.126M4.254 41.457h4.25M6.378 41.456V39.33M8.504 37.203h4.251M10.631 37.204v-2.126M12.758 41.457h4.25M14.882 41.456V39.33M17.008 37.203h4.251M19.135 37.204v-2.126M21.262 41.457h4.25M23.386 41.456V39.33M25.512 37.203h4.251M27.639 37.204v-2.126M29.766 41.457h4.25M31.89 41.456V39.33M34.016 37.203h4.251M36.143 37.204v-2.126M38.27 41.457h4.25M40.394 41.456V39.33M42.52 37.203h4.251M44.647 37.204v-2.126M46.774 41.457h4.25M48.898 41.456V39.33M0 28.699h4.251M2.127 28.7v-2.126M4.254 32.953h4.25M6.378 32.952v-2.126M8.504 28.699h4.251M10.631 28.7v-2.126M12.758 32.953h4.25M14.882 32.952v-2.126M17.008 28.699h4.251M19.135 28.7v-2.126M21.262 32.953h4.25M23.386 32.952v-2.126M25.512 28.699h4.251M27.639 28.7v-2.126M29.766 32.953h4.25M31.89 32.952v-2.126M34.016 28.699h4.251M36.143 28.7v-2.126M38.27 32.953h4.25M40.394 32.952v-2.126M42.52 28.699h4.251M44.647 28.7v-2.126M46.774 32.953h4.25M48.898 32.952v-2.126M0 20.195h4.251M2.127 20.196V18.07M4.254 24.449h4.25M6.378 24.448v-2.126M8.504 20.195h4.251M10.631 20.196V18.07M12.758 24.449h4.25M14.882 24.448v-2.126M17.008 20.195h4.251M19.135 20.196V18.07M21.262 24.449h4.25M23.386 24.448v-2.126M25.512 20.195h4.251M27.639 20.196V18.07M29.766 24.449h4.25M31.89 24.448v-2.126M34.016 20.195h4.251M36.143 20.196V18.07M38.27 24.449h4.25M40.394 24.448v-2.126M42.52 20.195h4.251M44.647 20.196V18.07M46.774 24.449h4.25M48.898 24.448v-2.126M0 11.691h4.251M2.127 11.692V9.566M4.254 15.945h4.25M6.378 15.944v-2.126M8.504 11.691h4.251M10.631 11.692V9.566M12.758 15.945h4.25M14.882 15.944v-2.126M17.008 11.691h4.251M19.135 11.692V9.566M21.262 15.945h4.25M23.386 15.944v-2.126M25.512 11.691h4.251M27.639 11.692V9.566M29.766 15.945h4.25M31.89 15.944v-2.126M34.016 11.691h4.251M36.143 11.692V9.566M38.27 15.945h4.25M40.394 15.944v-2.126M42.52 11.691h4.251M44.647 11.692V9.566M46.774 15.945h4.25M48.898 15.944v-2.126M0 3.188h4.251M2.127 3.188V1.063M4.254 7.441h4.25M6.378 7.44V5.314M8.504 3.188h4.251M10.631 3.188V1.063M12.758 7.441h4.25M14.882 7.44V5.314M17.008 3.188h4.251M19.135 3.188V1.063M21.262 7.441h4.25M23.386 7.44V5.314M25.512 3.188h4.251M27.639 3.188V1.063M29.766 7.441h4.25M31.89 7.44V5.314M34.016 3.188h4.251M36.143 3.188V1.063M38.27 7.441h4.25M40.394 7.44V5.314M42.52 3.188h4.251M44.647 3.188V1.063M46.774 7.441h4.25M48.898 7.44V5.314"/><path fill="none" d="M0 0h51.024v51.023H0z"/></svg>
