<svg xmlns="http://www.w3.org/2000/svg" width="52.157" height="52.157" viewBox="0 0 52.157 52.157"><path fill="none" d="M0 0h52.157v52.157H0z"/><path fill="param(fill)" d="M4.46 15.312a.806.806 0 0 0-.17-.02c-.375 0-1.135.006-1.803.012-.347-.086-.142-.326-.142-.326l1.466-1.938s-1.828 1.22-2.334 1.738a.72.72 0 0 0-.201.536c.013.415.337.841.784.93a.798.798 0 0 0 .17.018c.375 0 1.134-.004 1.802-.008.347.084.143.324.143.324l-1.466 1.94s1.828-1.222 2.334-1.742a.719.719 0 0 0 .202-.534c-.015-.416-.339-.843-.785-.93M4.46 28.769a.693.693 0 0 0-.17-.02c-.375 0-1.135.004-1.803.01-.347-.086-.142-.326-.142-.326l1.466-1.938s-1.828 1.222-2.334 1.74a.715.715 0 0 0-.201.534c.013.415.337.841.784.932.055.01.112.018.17.018.375 0 1.134-.004 1.802-.01.347.084.143.326.143.326l-1.466 1.938s1.828-1.222 2.334-1.74a.722.722 0 0 0 .202-.534c-.015-.416-.339-.843-.785-.93M4.46 42.224a.806.806 0 0 0-.17-.02c-.375 0-1.135.006-1.803.01-.347-.084-.142-.326-.142-.326l1.466-1.938s-1.828 1.222-2.334 1.742a.712.712 0 0 0-.201.532c.013.417.337.842.784.93.055.014.112.02.17.02.375 0 1.134-.004 1.802-.008.347.084.143.324.143.324l-1.466 1.938s1.828-1.222 2.334-1.742a.71.71 0 0 0 .202-.532c-.015-.416-.339-.841-.785-.93M10.98 22.041a.685.685 0 0 0-.171-.02c-.375 0-1.134.004-1.802.008-.348-.084-.143-.324-.143-.324l1.466-1.938s-1.828 1.222-2.335 1.742a.713.713 0 0 0-.201.532c.013.415.337.841.784.93a.79.79 0 0 0 .17.02c.375 0 1.134-.006 1.802-.01.349.084.145.326.145.326l-1.468 1.938s1.829-1.222 2.336-1.742a.72.72 0 0 0 .201-.532c-.013-.417-.337-.842-.784-.93M10.98 35.494a.943.943 0 0 0-.171-.018c-.375 0-1.134.006-1.802.01-.347-.084-.142-.326-.142-.326l1.466-1.938s-1.828 1.222-2.335 1.74a.725.725 0 0 0-.201.534c.013.417.337.841.784.93.055.014.111.02.17.02.375 0 1.134-.004 1.802-.008.349.084.145.324.145.324L9.227 38.7s1.829-1.222 2.336-1.74a.723.723 0 0 0 .201-.534 1.016 1.016 0 0 0-.784-.932M10.98 48.951a.793.793 0 0 0-.171-.018c-.375 0-1.134.004-1.802.008-.348-.084-.143-.324-.143-.324l1.466-1.94s-1.828 1.222-2.335 1.742a.722.722 0 0 0-.201.535c.013.414.337.841.784.929a.79.79 0 0 0 .17.02c.375 0 1.134-.006 1.802-.012.349.086.145.326.145.326l-1.468 1.94s1.829-1.222 2.336-1.74a.726.726 0 0 0 .201-.534c-.013-.417-.337-.843-.784-.932M17.5 15.312a.806.806 0 0 0-.17-.02c-.375 0-1.135.006-1.803.012-.347-.086-.143-.326-.143-.326l1.466-1.938s-1.827 1.22-2.334 1.738a.72.72 0 0 0-.201.536c.013.415.337.841.783.93a.807.807 0 0 0 .171.018c.374 0 1.134-.004 1.802-.008.347.084.143.324.143.324l-1.466 1.94s1.827-1.222 2.334-1.742a.714.714 0 0 0 .201-.534c-.012-.416-.338-.843-.783-.93M17.5 28.769a.693.693 0 0 0-.17-.02c-.375 0-1.135.004-1.803.01-.347-.086-.143-.326-.143-.326l1.466-1.938s-1.827 1.222-2.334 1.74a.715.715 0 0 0-.201.534c.013.415.337.841.783.932.056.01.112.018.171.018.374 0 1.134-.004 1.802-.01.347.084.143.326.143.326l-1.466 1.938s1.827-1.222 2.334-1.74a.717.717 0 0 0 .201-.534c-.012-.416-.338-.843-.783-.93M17.5 42.224a.806.806 0 0 0-.17-.02c-.375 0-1.135.006-1.803.01-.347-.084-.143-.326-.143-.326l1.466-1.938s-1.827 1.222-2.334 1.742a.712.712 0 0 0-.201.532c.013.417.337.842.783.93.056.014.112.02.171.02.374 0 1.134-.004 1.802-.008.347.084.143.324.143.324l-1.466 1.938s1.827-1.222 2.334-1.742a.705.705 0 0 0 .201-.532 1.01 1.01 0 0 0-.783-.93M24.02 22.041a.685.685 0 0 0-.171-.02c-.375 0-1.134.004-1.802.008-.348-.084-.143-.324-.143-.324l1.466-1.938s-1.828 1.222-2.335 1.742a.713.713 0 0 0-.201.532c.013.415.337.841.784.93a.79.79 0 0 0 .17.02c.375 0 1.134-.006 1.802-.01.349.084.145.326.145.326l-1.468 1.938s1.829-1.222 2.336-1.742a.72.72 0 0 0 .201-.532c-.013-.417-.337-.842-.784-.93M24.02 35.494a.943.943 0 0 0-.171-.018c-.375 0-1.134.006-1.802.01-.348-.084-.143-.326-.143-.326l1.466-1.938s-1.828 1.222-2.335 1.74a.725.725 0 0 0-.201.534c.013.417.337.841.784.93.055.014.111.02.17.02.375 0 1.134-.004 1.802-.008.349.084.145.324.145.324L22.267 38.7s1.829-1.222 2.336-1.74a.723.723 0 0 0 .201-.534 1.016 1.016 0 0 0-.784-.932M24.02 48.951a.793.793 0 0 0-.171-.018c-.375 0-1.134.004-1.802.008-.348-.084-.143-.324-.143-.324l1.466-1.94s-1.828 1.222-2.335 1.742a.722.722 0 0 0-.201.535c.013.414.337.841.784.929a.79.79 0 0 0 .17.02c.375 0 1.134-.006 1.802-.012.349.086.145.326.145.326l-1.468 1.94s1.829-1.222 2.336-1.74a.726.726 0 0 0 .201-.534c-.013-.417-.337-.843-.784-.932M30.539 15.312a.806.806 0 0 0-.17-.02c-.375 0-1.135.006-1.803.012-.347-.086-.143-.326-.143-.326l1.466-1.938s-1.827 1.22-2.334 1.738a.72.72 0 0 0-.201.536c.013.415.337.841.783.93a.807.807 0 0 0 .171.018c.374 0 1.134-.004 1.802-.008.347.084.143.324.143.324l-1.466 1.94s1.827-1.222 2.334-1.742a.714.714 0 0 0 .201-.534c-.012-.416-.338-.843-.783-.93M30.539 28.769a.693.693 0 0 0-.17-.02c-.375 0-1.135.004-1.803.01-.347-.086-.143-.326-.143-.326l1.466-1.938s-1.827 1.222-2.334 1.74a.715.715 0 0 0-.201.534c.013.415.337.841.783.932.056.01.112.018.171.018.374 0 1.134-.004 1.802-.01.347.084.143.326.143.326l-1.466 1.938s1.827-1.222 2.334-1.74a.717.717 0 0 0 .201-.534c-.012-.416-.338-.843-.783-.93M30.539 42.224a.806.806 0 0 0-.17-.02c-.375 0-1.135.006-1.803.01-.347-.084-.143-.326-.143-.326l1.466-1.938s-1.827 1.222-2.334 1.742a.712.712 0 0 0-.201.532c.013.417.337.842.783.93.056.014.112.02.171.02.374 0 1.134-.004 1.802-.008.347.084.143.324.143.324l-1.466 1.938s1.827-1.222 2.334-1.742a.705.705 0 0 0 .201-.532 1.01 1.01 0 0 0-.783-.93M37.059 22.041a.685.685 0 0 0-.171-.02c-.375 0-1.134.004-1.802.008-.348-.084-.143-.324-.143-.324l1.466-1.938s-1.828 1.222-2.335 1.742a.713.713 0 0 0-.201.532c.013.415.337.841.784.93a.79.79 0 0 0 .17.02c.375 0 1.134-.006 1.802-.01.349.084.145.326.145.326l-1.468 1.938s1.829-1.222 2.336-1.742a.72.72 0 0 0 .201-.532c-.013-.417-.337-.842-.784-.93M37.059 35.494a.943.943 0 0 0-.171-.018c-.375 0-1.134.006-1.802.01-.348-.084-.143-.326-.143-.326l1.466-1.938s-1.828 1.222-2.335 1.74a.725.725 0 0 0-.201.534c.013.417.337.841.784.93.055.014.111.02.17.02.375 0 1.134-.004 1.802-.008.349.084.145.324.145.324L35.306 38.7s1.829-1.222 2.336-1.74a.723.723 0 0 0 .201-.534 1.016 1.016 0 0 0-.784-.932M37.059 48.951a.793.793 0 0 0-.171-.018c-.375 0-1.134.004-1.802.008-.348-.084-.143-.324-.143-.324l1.466-1.94s-1.828 1.222-2.335 1.742a.722.722 0 0 0-.201.535c.013.414.337.841.784.929a.79.79 0 0 0 .17.02c.375 0 1.134-.006 1.802-.012.349.086.145.326.145.326l-1.468 1.94s1.829-1.222 2.336-1.74a.726.726 0 0 0 .201-.534c-.013-.417-.337-.843-.784-.932M43.578 15.312a.806.806 0 0 0-.17-.02c-.375 0-1.135.006-1.803.012-.347-.086-.143-.326-.143-.326l1.466-1.938s-1.827 1.22-2.334 1.738a.72.72 0 0 0-.201.536c.013.415.337.841.783.93a.807.807 0 0 0 .171.018c.374 0 1.134-.004 1.802-.008.347.084.143.324.143.324l-1.466 1.94s1.827-1.222 2.334-1.742a.714.714 0 0 0 .201-.534c-.012-.416-.338-.843-.783-.93M43.578 28.769a.693.693 0 0 0-.17-.02c-.375 0-1.135.004-1.803.01-.347-.086-.143-.326-.143-.326l1.466-1.938s-1.827 1.222-2.334 1.74a.715.715 0 0 0-.201.534c.013.415.337.841.783.932.056.01.112.018.171.018.374 0 1.134-.004 1.802-.01.347.084.143.326.143.326l-1.466 1.938s1.827-1.222 2.334-1.74a.717.717 0 0 0 .201-.534c-.012-.416-.338-.843-.783-.93M43.578 42.224a.806.806 0 0 0-.17-.02c-.375 0-1.135.006-1.803.01-.347-.084-.143-.326-.143-.326l1.466-1.938s-1.827 1.222-2.334 1.742a.712.712 0 0 0-.201.532c.013.417.337.842.783.93.056.014.112.02.171.02.374 0 1.134-.004 1.802-.008.347.084.143.324.143.324l-1.466 1.938s1.827-1.222 2.334-1.742a.705.705 0 0 0 .201-.532 1.01 1.01 0 0 0-.783-.93M50.098 22.041a.685.685 0 0 0-.171-.02c-.375 0-1.134.004-1.802.008-.348-.084-.143-.324-.143-.324l1.466-1.938s-1.828 1.222-2.335 1.742a.713.713 0 0 0-.201.532c.013.415.337.841.784.93a.79.79 0 0 0 .17.02c.375 0 1.134-.006 1.802-.01.349.084.145.326.145.326l-1.468 1.938s1.829-1.222 2.336-1.742a.72.72 0 0 0 .201-.532c-.013-.417-.337-.842-.784-.93M4.46 2.272a.806.806 0 0 0-.17-.02c-.375 0-1.135.006-1.803.012-.347-.085-.142-.326-.142-.326L3.811 0S1.983 1.22 1.477 1.738a.722.722 0 0 0-.202.536c.013.415.337.841.784.93a.798.798 0 0 0 .17.018c.375 0 1.134-.004 1.802-.008.347.084.143.324.143.324l-1.466 1.94s1.828-1.222 2.334-1.742a.717.717 0 0 0 .202-.534c-.014-.415-.338-.842-.784-.93M10.98 9.002a.685.685 0 0 0-.171-.02c-.375 0-1.134.004-1.802.008-.347-.084-.142-.324-.142-.324l1.466-1.938S8.503 7.95 7.996 8.47a.714.714 0 0 0-.202.532c.013.415.337.841.784.93a.79.79 0 0 0 .17.02c.375 0 1.134-.006 1.802-.01.349.084.145.326.145.326l-1.468 1.938s1.829-1.222 2.336-1.742a.72.72 0 0 0 .201-.532c-.013-.417-.337-.842-.784-.93M17.5 2.272a.806.806 0 0 0-.17-.02c-.375 0-1.135.006-1.803.012-.347-.086-.143-.326-.143-.326L16.851 0s-1.827 1.22-2.334 1.738a.72.72 0 0 0-.201.536c.013.415.337.841.783.93a.807.807 0 0 0 .171.018c.374 0 1.134-.004 1.802-.008.347.084.143.324.143.324l-1.466 1.94s1.827-1.222 2.334-1.742a.714.714 0 0 0 .201-.534c-.013-.415-.339-.842-.784-.93M24.02 9.002a.685.685 0 0 0-.171-.02c-.375 0-1.134.004-1.802.008-.348-.084-.143-.324-.143-.324l1.466-1.938S21.542 7.95 21.035 8.47a.713.713 0 0 0-.201.532c.013.415.337.841.784.93a.79.79 0 0 0 .17.02c.375 0 1.134-.006 1.802-.01.349.084.145.326.145.326l-1.468 1.938s1.829-1.222 2.336-1.742a.72.72 0 0 0 .201-.532c-.013-.417-.337-.842-.784-.93M30.539 2.272a.806.806 0 0 0-.17-.02c-.375 0-1.135.006-1.803.012-.347-.086-.143-.326-.143-.326L29.89 0s-1.827 1.22-2.334 1.738a.72.72 0 0 0-.201.536c.013.415.337.841.783.93a.807.807 0 0 0 .171.018c.374 0 1.134-.004 1.802-.008.347.084.143.324.143.324l-1.466 1.94s1.827-1.222 2.334-1.742a.714.714 0 0 0 .201-.534c-.013-.415-.339-.842-.784-.93M37.059 9.002a.685.685 0 0 0-.171-.02c-.375 0-1.134.004-1.802.008-.348-.084-.143-.324-.143-.324l1.466-1.938S34.581 7.95 34.074 8.47a.713.713 0 0 0-.201.532c.013.415.337.841.784.93a.79.79 0 0 0 .17.02c.375 0 1.134-.006 1.802-.01.349.084.145.326.145.326l-1.468 1.938s1.829-1.222 2.336-1.742a.72.72 0 0 0 .201-.532c-.013-.417-.337-.842-.784-.93M43.578 2.272a.806.806 0 0 0-.17-.02c-.375 0-1.135.006-1.803.012-.347-.086-.143-.326-.143-.326L42.929 0s-1.827 1.22-2.334 1.738a.72.72 0 0 0-.201.536c.013.415.337.841.783.93a.807.807 0 0 0 .171.018c.374 0 1.134-.004 1.802-.008.347.084.143.324.143.324l-1.466 1.94s1.827-1.222 2.334-1.742a.714.714 0 0 0 .201-.534c-.013-.415-.339-.842-.784-.93M50.098 9.002a.685.685 0 0 0-.171-.02c-.375 0-1.134.004-1.802.008-.348-.084-.143-.324-.143-.324l1.466-1.938S47.62 7.95 47.113 8.47a.713.713 0 0 0-.201.532c.013.415.337.841.784.93a.79.79 0 0 0 .17.02c.375 0 1.134-.006 1.802-.01.349.084.145.326.145.326l-1.468 1.938s1.829-1.222 2.336-1.742a.72.72 0 0 0 .201-.532c-.013-.417-.337-.842-.784-.93M50.098 35.494a.943.943 0 0 0-.171-.018c-.375 0-1.134.006-1.802.01-.348-.084-.143-.326-.143-.326l1.466-1.938s-1.828 1.222-2.335 1.74a.725.725 0 0 0-.201.534c.013.417.337.841.784.93.055.014.111.02.17.02.375 0 1.134-.004 1.802-.008.349.084.145.324.145.324L48.345 38.7s1.829-1.222 2.336-1.74a.723.723 0 0 0 .201-.534 1.016 1.016 0 0 0-.784-.932M50.098 48.951a.793.793 0 0 0-.171-.018c-.375 0-1.134.004-1.802.008-.348-.084-.143-.324-.143-.324l1.466-1.94s-1.828 1.222-2.335 1.742a.722.722 0 0 0-.201.535c.013.414.337.841.784.929a.79.79 0 0 0 .17.02c.375 0 1.134-.006 1.802-.012.349.086.145.326.145.326l-1.468 1.94s1.829-1.222 2.336-1.74a.726.726 0 0 0 .201-.534c-.013-.417-.337-.843-.784-.932"/></svg>