<svg xmlns="http://www.w3.org/2000/svg" width="34.016" height="34.016" viewBox="0 0 34.016 34.016"><path fill="param(fill)" d="M28.538 29.978l.6.481.801.339 2.594-.027.658.253.397.455.428.907-.599-.482-.798-.34-2.594.029-.658-.254-.401-.456zM17.123 29.978l.6.481.801.339 2.594-.027.658.253.397.455.428.907-.599-.482-.798-.34-2.594.029-.658-.254-.401-.456zM5.708 29.978l.6.481.801.339 2.594-.027.658.253.397.455.428.907-.599-.482-.798-.34-2.594.029-.658-.254-.4-.456zM22.831 24.309l.599.481.801.339 2.595-.027.657.252.398.457.428.906-.6-.482-.797-.34-2.595.029-.657-.255-.401-.455zM11.415 24.309l.6.481.801.339 2.594-.027.658.252.398.457.427.906-.599-.482-.798-.34-2.593.029-.658-.255-.401-.455zM0 24.309l.6.481.801.339 2.594-.027.658.252.398.457.428.906-.6-.482-.798-.34-2.594.029-.657-.255-.401-.455zM28.538 18.639l.6.481.801.34 2.594-.027.658.253.397.455.428.907-.599-.483-.798-.339-2.594.029-.658-.255-.401-.456zM17.123 18.639l.6.481.801.34 2.594-.027.658.253.397.455.428.907-.599-.483-.798-.339-2.594.029-.658-.255-.401-.456zM5.708 18.639l.6.481.801.34 2.594-.027.658.253.397.455.428.907-.599-.483-.798-.339-2.594.029L6.537 20l-.4-.456zM22.831 12.97l.599.481.801.339 2.595-.027.657.253.398.456.428.906-.6-.482-.797-.339-2.595.028-.657-.255-.401-.455zM11.415 12.97l.6.481.801.339 2.594-.027.658.253.398.456.427.906-.599-.482-.798-.339-2.593.028-.658-.255-.401-.455zM0 12.97l.6.481.801.339 2.594-.027.658.253.398.456.428.906-.6-.482-.798-.339-2.594.028-.657-.255-.401-.455zM28.538 7.3l.6.481.801.34 2.594-.027.658.253.397.456.428.906-.599-.481-.798-.341-2.594.029-.658-.255-.401-.456zM17.123 7.3l.6.481.801.34 2.594-.027.658.253.397.456.428.906-.599-.481-.798-.341-2.594.029-.658-.255-.401-.456zM5.708 7.3l.6.481.801.34 2.594-.027.658.253.397.456.428.906-.599-.481-.798-.341-2.594.029-.658-.255-.4-.456zM22.831 1.631l.599.481.801.339 2.595-.026.657.252.398.456.428.906-.6-.481-.797-.34-2.595.028-.657-.255-.401-.455zM11.415 1.631l.6.481.801.339 2.594-.026.658.252.398.456.427.906-.599-.481-.798-.34-2.593.028-.658-.255-.401-.455zM0 1.631l.6.481.801.339 2.594-.026.658.252.398.456.428.906-.6-.481-.798-.34-2.594.028-.657-.255-.401-.455z"/><path fill="none" stroke="black" stroke-width="1" d="M8.447 1.418v2.834M7.02 2.835h2.854M19.862 1.418v2.834M18.435 2.835h2.854M31.277 1.418v2.834M29.85 2.835h2.854M8.447 12.756v2.835M7.02 14.174h2.854M19.862 12.756v2.835M18.435 14.174h2.854M31.277 12.756v2.835M29.85 14.174h2.854M8.447 24.095v2.835M7.02 25.512h2.854M19.862 24.095v2.835M18.435 25.512h2.854M31.277 24.095v2.835M29.85 25.512h2.854M2.739 29.764v2.835M1.312 31.182h2.855M14.154 29.764v2.835M12.728 31.182h2.853M25.57 29.764v2.835M24.143 31.182h2.853M2.739 18.426v2.834M1.312 19.843h2.855M14.154 18.426v2.834M12.728 19.843h2.853M25.57 18.426v2.834M24.143 19.843h2.853M2.739 7.087v2.835M1.312 8.504h2.855M14.154 7.087v2.835M12.728 8.504h2.853M25.57 7.087v2.835M24.143 8.504h2.853"/><path fill="none" d="M0 0h34.016v34.016H0z"/></svg>
