<svg xmlns="http://www.w3.org/2000/svg" width="79.37" height="79.371" viewBox="0 0 79.37 79.371"><path fill="none" stroke="black" stroke-width="1" stroke-linejoin="round" stroke-miterlimit="500" d="M77.386 75.402H1.984"/><path fill="none" stroke="black" stroke-width="1" stroke-linecap="square" stroke-linejoin="round" stroke-miterlimit="500" d="M77.386 75.402H1.984M77.386 67.465H1.984M77.386 59.528H1.984M77.386 51.591H1.984M77.386 43.654H1.984M77.386 35.717H1.984M77.386 27.78H1.984M77.386 19.843H1.984M77.386 11.906H1.984M77.386 3.969H1.984M75.402 1.984v75.403M67.465 1.984v75.403M59.528 1.984v75.403M51.591 1.984v75.403M43.654 1.984v75.403M35.717 1.984v75.403M27.78 1.984v75.403M19.843 1.984v75.403M11.906 1.984v75.403M3.969 1.984v75.403"/></svg>
