<svg xmlns="http://www.w3.org/2000/svg" width="40.26" height="40.259" viewBox="0 0 40.26 40.259"><path fill="none" stroke="black" stroke-width="1" stroke-linejoin="round" stroke-miterlimit="500" d="M.288 38.246h39.685"/><path fill="none" stroke="black" stroke-width="1" stroke-linecap="square" stroke-linejoin="round" stroke-miterlimit="500" d="M.288 38.246h39.685M.288 34.22h39.685M.288 30.193h39.685M.288 26.168h39.685M.288 22.142h39.685M.288 18.115h39.685M.288 14.089h39.685M.288 10.064h39.685M.288 6.038h39.685M.288 2.012h39.685M38.248 39.972V.287M34.222 39.972V.287M30.195 39.972V.287M26.169 39.972V.287M22.143 39.972V.287M18.117 39.972V.287M14.091 39.972V.287M10.065 39.972V.287M6.039 39.972V.287M2.013 39.972V.287"/></svg>
