<svg xmlns="http://www.w3.org/2000/svg" width="51.308" height="51.307" viewBox="0 0 51.308 51.307"><path fill="none" stroke="black" stroke-width="1" stroke-linejoin="round" stroke-miterlimit="500" d="M50.882 50.026H.425"/><path fill="none" stroke="black" stroke-width="1" stroke-linecap="square" stroke-linejoin="round" stroke-miterlimit="500" d="M50.882 50.026H.425M50.882 50.026H.425M50.882 47.461H.425M50.882 44.896H.425M50.882 42.33H.425M50.882 39.765H.425M50.882 37.199H.425M50.882 34.633H.425M50.882 32.067H.425M50.882 29.502H.425M50.882 26.937H.425M50.882 24.371H.425M50.882 21.806H.425M50.882 19.239H.425M50.882 16.674H.425M50.882 14.108H.425M50.882 11.543H.425M50.882 8.978H.425M50.882 6.412H.425M50.882 3.846H.425M50.882 1.28H.425M50.027.425v50.457M50.027.425v50.457M47.461.425v50.457M44.896.425v50.457M42.33.425v50.457M39.765.425v50.457M37.199.425v50.457M34.633.425v50.457M32.068.425v50.457M29.502.425v50.457M26.937.425v50.457M24.371.425v50.457M21.806.425v50.457M19.24.425v50.457M16.674.425v50.457M14.109.425v50.457M11.543.425v50.457M8.978.425v50.457M6.412.425v50.457M3.846.425v50.457M1.281.425v50.457M50.882 50.026H.425M50.882 50.026H.425M50.882 47.461H.425M50.882 44.896H.425M50.882 42.33H.425M50.882 39.765H.425M50.882 37.199H.425M50.882 34.633H.425M50.882 32.067H.425M50.882 29.502H.425M50.882 26.937H.425M50.882 24.371H.425M50.882 21.806H.425M50.882 19.239H.425M50.882 16.674H.425M50.882 14.108H.425M50.882 11.543H.425M50.882 8.978H.425M50.882 6.412H.425M50.882 3.846H.425M50.882 1.28H.425M50.027.425v50.457M50.027.425v50.457M47.461.425v50.457M44.896.425v50.457M42.33.425v50.457M39.765.425v50.457M37.199.425v50.457M34.633.425v50.457M32.068.425v50.457M29.502.425v50.457M26.937.425v50.457M24.371.425v50.457M21.806.425v50.457M19.24.425v50.457M16.674.425v50.457M14.109.425v50.457M11.543.425v50.457M8.978.425v50.457M6.412.425v50.457M3.846.425v50.457M1.281.425v50.457"/></svg>
