<svg xmlns="http://www.w3.org/2000/svg" width="40.028" height="40.028" viewBox="0 0 40.028 40.028"><path fill="none" stroke="black" stroke-width="1" stroke-linejoin="round" stroke-miterlimit="500" d="M.171 39.027h39.685"/><path fill="none" stroke="black" stroke-width="1" stroke-linecap="square" stroke-linejoin="round" stroke-miterlimit="500" d="M.171 39.027h39.685M.171 37.025h39.685M.171 35.024h39.685M.171 33.022h39.685M.171 31.021h39.685M.171 29.02h39.685M.171 27.019h39.685M.171 25.018h39.685M.171 23.017h39.685M.171 21.015h39.685M.171 19.014h39.685M.171 17.012h39.685M.171 15.01h39.685M.171 13.009h39.685M.171 11.007h39.685M.171 9.007h39.685M.171 7.005h39.685M.171 5.004h39.685M.171 3.002h39.685M.171 1.001h39.685M39.027 39.856V.172M37.026 39.856V.172M35.024 39.856V.172M33.023 39.856V.172M31.021 39.856V.172M29.02 39.856V.172M27.019 39.856V.172M25.018 39.856V.172M23.016 39.856V.172M21.015 39.856V.172M19.013 39.856V.172M17.012 39.856V.172M15.01 39.856V.172M13.009 39.856V.172M11.008 39.856V.172M9.006 39.856V.172M7.005 39.856V.172M5.003 39.856V.172M3.002 39.856V.172M1.001 39.856V.172"/></svg>
