<svg xmlns="http://www.w3.org/2000/svg" width="36.851" height="36.852" viewBox="0 0 36.851 36.852"><path fill="none" stroke="black" stroke-width="1" stroke-linejoin="round" stroke-miterlimit="500" d="M36.284 35.009H.567"/><path fill="none" stroke="black" stroke-width="1" stroke-linecap="square" stroke-linejoin="round" stroke-miterlimit="500" d="M36.284 35.009H.567M36.284 31.323H.567M36.284 27.639H.567M36.284 23.954H.567M36.284 20.269H.567M36.284 16.584H.567M36.284 12.898H.567M36.284 9.214H.567M36.284 5.528H.567M36.284 1.844H.567M35.008.567v35.717M31.323.567v35.717M27.638.567v35.717M23.953.567v35.717M20.268.567v35.717M16.583.567v35.717M12.898.567v35.717M9.213.567v35.717M5.528.567v35.717M1.843.567v35.717"/></svg>
