<svg xmlns="http://www.w3.org/2000/svg" width="58.961" height="58.961" viewBox="0 0 58.961 58.961"><path fill="none" stroke="black" stroke-width="1" stroke-linejoin="round" stroke-miterlimit="500" d="M.851 56.268H58.11"/><path fill="none" stroke="black" stroke-width="1" stroke-linecap="square" stroke-linejoin="round" stroke-miterlimit="500" d="M.851 56.268H58.11M.851 50.882H58.11M.851 45.496H58.11M.851 40.11H58.11M.851 34.725H58.11M.851 29.339H58.11M.851 23.953H58.11M.851 18.567H58.11M.851 13.182H58.11M.851 7.796H58.11M.851 2.693H58.11M56.269 58.11V.851M50.883 58.11V.851M45.497 58.11V.851M40.111 58.11V.851M34.725 58.11V.851M29.339 58.11V.851M23.953 58.11V.851M18.567 58.11V.851M13.182 58.11V.851M7.796 58.11V.851M2.693 58.11V.851"/></svg>
