<svg xmlns="http://www.w3.org/2000/svg" width="48.189" height="48.189" viewBox="0 0 48.189 48.189"><path fill="none" stroke="black" stroke-width="1" stroke-linejoin="round" stroke-miterlimit="500" d="M47.622 45.779H.567"/><path fill="none" stroke="black" stroke-width="1" stroke-linecap="square" stroke-linejoin="round" stroke-miterlimit="500" d="M47.622 45.779H.567M47.622 40.961H.567M47.622 36.142H.567M47.622 31.323H.567M47.622 26.504H.567M47.622 21.685H.567M47.622 16.866H.567M47.622 12.047H.567M47.622 7.229H.567M47.622 2.409H.567M45.78.567v47.055M40.961.567v47.055M36.142.567v47.055M31.323.567v47.055M26.504.567v47.055M21.685.567v47.055M16.866.567v47.055M12.047.567v47.055M7.229.567v47.055M2.41.567v47.055"/></svg>
