<svg xmlns="http://www.w3.org/2000/svg" width="52.786" height="52.785" viewBox="0 0 52.786 52.785"><path fill="none" stroke="black" stroke-width="1" stroke-linejoin="round" stroke-miterlimit="500" d="M.172 51.466h52.441"/><path fill="none" stroke="black" stroke-width="1" stroke-linecap="square" stroke-linejoin="round" stroke-miterlimit="500" d="M.172 51.466h52.441M.172 48.826h52.441M.172 46.188h52.441M.172 43.548h52.441M.172 40.908h52.441M.172 38.269h52.441M.172 35.63h52.441M.172 32.99h52.441M.172 30.352h52.441M.172 27.712h52.441M.172 25.073h52.441M.172 22.434h52.441M.172 19.794h52.441M.172 17.155h52.441M.172 14.516h52.441M.172 11.877h52.441M.172 9.237h52.441M.172 6.599h52.441M.172 3.959h52.441M.172 1.319h52.441M51.466 52.613V.172M48.827 52.613V.172M46.188 52.613V.172M43.548 52.613V.172M40.909 52.613V.172M38.27 52.613V.172M35.63 52.613V.172M32.991 52.613V.172M30.352 52.613V.172M27.713 52.613V.172M25.073 52.613V.172M22.434 52.613V.172M19.795 52.613V.172M17.156 52.613V.172M14.516 52.613V.172M11.877 52.613V.172M9.238 52.613V.172M6.599 52.613V.172M3.959 52.613V.172M1.32 52.613V.172"/></svg>
