<svg xmlns="http://www.w3.org/2000/svg" width="59.867" height="59.867" viewBox="0 0 59.867 59.867"><path fill="none" stroke="black" stroke-width="1" stroke-linejoin="round" stroke-miterlimit="500" d="M.169 56.901h59.528"/><path fill="none" stroke="black" stroke-width="1" stroke-linecap="square" stroke-linejoin="round" stroke-miterlimit="500" d="M.169 56.901h59.528M.169 50.915h59.528M.169 44.929h59.528M.169 38.941h59.528M.169 32.955h59.528M.169 26.968h59.528M.169 20.981h59.528M.169 14.995h59.528M.169 9.008h59.528M.169 3.021h59.528M56.901 59.697V.17M50.915 59.697V.17M44.928 59.697V.17M38.941 59.697V.17M32.955 59.697V.17M26.968 59.697V.17M20.982 59.697V.17M14.995 59.697V.17M9.008 59.697V.17M3.022 59.697V.17"/></svg>
