<svg xmlns="http://www.w3.org/2000/svg" width="45.354" height="45.355" viewBox="0 0 45.354 45.355"><path fill="none" stroke="black" stroke-width="1" stroke-linejoin="round" stroke-miterlimit="500" d="M44.646 44.222H.708"/><path fill="none" stroke="black" stroke-width="1" stroke-linecap="square" stroke-linejoin="round" stroke-miterlimit="500" d="M44.646 44.222H.708M44.646 41.954H.708M44.646 39.686H.708M44.646 37.418H.708M44.646 35.15H.708M44.646 32.883H.708M44.646 30.615H.708M44.646 28.348H.708M44.646 26.08H.708M44.646 23.812H.708M44.646 21.544H.708M44.646 19.276H.708M44.646 17.009H.708M44.646 14.741H.708M44.646 12.474H.708M44.646 10.206H.708M44.646 7.938H.708M44.646 5.67H.708M44.646 3.402H.708M44.646 1.135H.708M44.221.709v43.937M41.953.709v43.937M39.685.709v43.937M37.417.709v43.937M35.15.709v43.937M32.882.709v43.937M30.614.709v43.937M28.347.709v43.937M26.079.709v43.937M23.811.709v43.937M21.543.709v43.937M19.275.709v43.937M17.008.709v43.937M14.74.709v43.937M12.473.709v43.937M10.205.709v43.937M7.937.709v43.937M5.669.709v43.937M3.402.709v43.937M1.134.709v43.937"/></svg>
