<svg xmlns="http://www.w3.org/2000/svg" width="48.535" height="48.363" viewBox="0 0 48.535 48.363"><path fill="param(fill)" d="M22.517 44.836h.583v.341h-.583zM16.237 44.836h5.109v.341h-5.109zM14.484 44.836h.584v.341h-.584zM8.205 44.836h5.111v.341H8.205zM6.452 44.836h.584v.341h-.584zM.173 44.836h5.111v.341H.173z"/><path fill="none" stroke="black" stroke-width="1" stroke-linecap="square" stroke-linejoin="round" stroke-miterlimit="500" d="M.173 36.142h24.095M.173 42.167h24.095M.173 48.19h24.095M.173 30.119h24.095"/><path fill="param(fill)" d="M22.517 32.789h.583v.342h-.583zM16.237 32.789h5.109v.342h-5.109zM14.484 32.789h.584v.342h-.584zM8.205 32.789h5.111v.342H8.205zM6.452 32.789h.584v.342h-.584zM.173 32.789h5.111v.342H.173z"/><path fill="none" stroke="black" stroke-width="1" stroke-miterlimit="500" d="M2.714 37.605l2.614 3.14 2.614-3.14M10.716 37.605l2.614 3.14 2.614-3.14M18.719 37.605l2.614 3.14 2.614-3.14M2.714 25.558l2.614 3.14 2.614-3.14M10.716 25.558l2.614 3.14 2.614-3.14M18.719 25.558l2.614 3.14 2.614-3.14"/><path fill="none" d="M.172 0h48.189v48.189H.172z"/><path fill="param(fill)" d="M46.611 44.836h.583v.341h-.583zM40.332 44.836h5.109v.341h-5.109zM38.578 44.836h.584v.341h-.584zM32.299 44.836h5.111v.341h-5.111zM30.547 44.836h.584v.341h-.584zM24.268 44.836h5.111v.341h-5.111z"/><path fill="none" stroke="black" stroke-width="1" stroke-linecap="square" stroke-linejoin="round" stroke-miterlimit="500" d="M24.268 36.142h24.094M24.268 42.167h24.094M24.268 48.19h24.094M24.268 30.119h24.094"/><path fill="param(fill)" d="M46.611 32.789h.583v.342h-.583zM40.332 32.789h5.109v.342h-5.109zM38.578 32.789h.584v.342h-.584zM32.299 32.789h5.111v.342h-5.111zM30.547 32.789h.584v.342h-.584zM24.268 32.789h5.111v.342h-5.111z"/><path fill="none" stroke="black" stroke-width="1" stroke-miterlimit="500" d="M26.809 37.605l2.613 3.14 2.615-3.14M34.811 37.605l2.614 3.14 2.614-3.14M42.813 37.605l2.615 3.14 2.614-3.14M26.809 25.558l2.613 3.14 2.615-3.14M34.811 25.558l2.614 3.14 2.614-3.14M42.813 25.558l2.615 3.14 2.614-3.14"/><path fill="param(fill)" d="M22.517 20.742h.583v.341h-.583zM16.237 20.742h5.109v.341h-5.109zM14.483 20.742h.584v.341h-.584zM8.204 20.742h5.111v.341H8.204zM6.452 20.742h.584v.341h-.584zM.173 20.742h5.111v.341H.173z"/><path fill="none" stroke="black" stroke-width="1" stroke-linecap="square" stroke-linejoin="round" stroke-miterlimit="500" d="M.173 12.048h24.095M.173 18.072h24.095M.173 24.096h24.095M.173 6.024h24.095"/><path fill="param(fill)" d="M22.517 8.694h.583v.342h-.583zM16.237 8.694h5.109v.342h-5.109zM14.483 8.694h.584v.342h-.584zM8.204 8.694h5.111v.342H8.204zM6.452 8.694h.584v.342h-.584zM.173 8.694h5.111v.342H.173z"/><path fill="none" stroke="black" stroke-width="1" stroke-miterlimit="500" d="M2.714 13.511l2.613 3.139 2.615-3.139M10.716 13.511l2.614 3.139 2.614-3.139M18.719 13.511l2.614 3.139 2.614-3.139M2.714 1.464l2.613 3.14 2.615-3.14M10.716 1.464l2.614 3.14 2.614-3.14M18.719 1.464l2.614 3.14 2.614-3.14"/><path fill="param(fill)" d="M46.611 20.742h.583v.341h-.583zM40.332 20.742h5.109v.341h-5.109zM38.578 20.742h.584v.341h-.584zM32.299 20.742h5.111v.341h-5.111zM30.547 20.742h.584v.341h-.584zM24.268 20.742h5.111v.341h-5.111z"/><path fill="none" stroke="black" stroke-width="1" stroke-linecap="square" stroke-linejoin="round" stroke-miterlimit="500" d="M24.268 12.048h24.094M24.268 18.072h24.094M24.268 24.096h24.094M24.268 6.024h24.094"/><path fill="param(fill)" d="M46.611 8.694h.583v.342h-.583zM40.332 8.694h5.109v.342h-5.109zM38.578 8.694h.584v.342h-.584zM32.299 8.694h5.111v.342h-5.111zM30.547 8.694h.584v.342h-.584zM24.268 8.694h5.111v.342h-5.111z"/><path fill="none" stroke="black" stroke-width="1" stroke-miterlimit="500" d="M26.809 13.511l2.613 3.139 2.615-3.139M34.811 13.511l2.614 3.139 2.614-3.139M42.813 13.511l2.615 3.139 2.614-3.139M26.809 1.464l2.613 3.14 2.615-3.14M34.811 1.464l2.614 3.14 2.614-3.14M42.813 1.464l2.615 3.14 2.614-3.14"/></svg>
