<svg xmlns="http://www.w3.org/2000/svg" width="54.185" height="54.026" viewBox="0 0 54.185 54.026"><path fill="none" stroke="black" stroke-width="1" stroke-linejoin="round" stroke-miterlimit="500" d="M.167 53.859h26.921"/><path fill="none" stroke="black" stroke-width="1" stroke-linecap="square" stroke-linejoin="round" stroke-miterlimit="500" d="M.167 53.859h26.921M.167 48.473h26.921M.167 43.087h26.921M.167 37.702h26.921M.167 32.317h26.921"/><path fill="none" stroke="black" stroke-width="1" stroke-miterlimit="500" d="M2.411 44.396l2.208 2.808 2.207-2.808M9.168 44.396l2.207 2.808 2.208-2.808M15.925 44.396l2.207 2.808 2.208-2.808M22.682 44.396l2.207 2.808 2.208-2.808M2.411 33.624l2.208 2.807 2.207-2.807M9.168 33.624l2.207 2.807 2.208-2.807M15.925 33.624l2.207 2.807 2.208-2.807M22.682 33.624l2.207 2.807 2.208-2.807M.266 39.01l2.208 2.808 2.207-2.808M7.022 39.01l2.208 2.808 2.208-2.808M13.779 39.01l2.208 2.808 2.207-2.808M20.536 39.01l2.208 2.808 2.207-2.808"/><path fill="none" stroke="black" stroke-width="1" stroke-linecap="square" stroke-linejoin="round" stroke-miterlimit="500" d="M.167 26.93h26.921M.167 21.544h26.921"/><path fill="none" stroke="black" stroke-width="1" stroke-miterlimit="500" d="M2.411 22.851l2.208 2.808 2.207-2.808M9.168 22.851l2.207 2.808 2.208-2.808M15.925 22.851l2.207 2.808 2.208-2.808M22.682 22.851l2.207 2.808 2.208-2.808M.266 28.238l2.208 2.807 2.207-2.807M7.022 28.238l2.208 2.807 2.208-2.807M13.779 28.238l2.208 2.807 2.207-2.807M20.536 28.238l2.208 2.807 2.207-2.807"/><path fill="none" stroke="black" stroke-width="1" stroke-linecap="square" stroke-linejoin="round" stroke-miterlimit="500" d="M.167 16.158h26.921M.167 10.772h26.921"/><path fill="none" stroke="black" stroke-width="1" stroke-miterlimit="500" d="M2.411 12.08l2.208 2.807 2.207-2.807M9.168 12.08l2.207 2.807 2.208-2.807M15.925 12.08l2.207 2.807 2.208-2.807M22.682 12.08l2.207 2.807 2.208-2.807M.266 17.466l2.208 2.807 2.207-2.807M7.022 17.466l2.208 2.807 2.208-2.807M13.779 17.466l2.208 2.807 2.207-2.807M20.536 17.466l2.208 2.807 2.207-2.807"/><path fill="none" stroke="black" stroke-width="1" stroke-linecap="square" stroke-linejoin="round" stroke-miterlimit="500" d="M.167 5.385h26.921"/><path fill="none" stroke="black" stroke-width="1" stroke-miterlimit="500" d="M2.411 1.307l2.208 2.808 2.207-2.808M9.168 1.307l2.207 2.808 2.208-2.808M15.925 1.307l2.207 2.808 2.208-2.808M22.682 1.307l2.207 2.808 2.208-2.808M.266 6.694l2.208 2.807 2.207-2.807M7.022 6.694L9.23 9.501l2.208-2.807M13.779 6.694l2.208 2.807 2.207-2.807M20.536 6.694l2.208 2.807 2.207-2.807M.266 49.782l2.208 2.806 2.207-2.806M7.022 49.782l2.208 2.806 2.208-2.806M13.779 49.782l2.208 2.806 2.207-2.806M20.536 49.782l2.208 2.806 2.207-2.806"/><path fill="none" stroke="black" stroke-width="1" stroke-linejoin="round" stroke-miterlimit="500" d="M27.096 53.859h26.922"/><path fill="none" stroke="black" stroke-width="1" stroke-linecap="square" stroke-linejoin="round" stroke-miterlimit="500" d="M27.096 53.859h26.922M27.096 48.473h26.922M27.096 43.087h26.922M27.096 37.702h26.922M27.096 32.317h26.922"/><path fill="none" stroke="black" stroke-width="1" stroke-miterlimit="500" d="M29.341 44.396l2.207 2.808 2.207-2.808M36.098 44.396l2.207 2.808 2.207-2.808M42.854 44.396l2.208 2.808 2.207-2.808M49.611 44.396l2.207 2.808 2.207-2.808M29.341 33.624l2.207 2.807 2.207-2.807M36.098 33.624l2.207 2.807 2.207-2.807M42.854 33.624l2.208 2.807 2.207-2.807M49.611 33.624l2.207 2.807 2.207-2.807M27.195 39.01l2.207 2.808 2.207-2.808M33.952 39.01l2.207 2.808 2.206-2.808M40.709 39.01l2.207 2.808 2.207-2.808M47.465 39.01l2.208 2.808 2.207-2.808"/><path fill="none" stroke="black" stroke-width="1" stroke-linecap="square" stroke-linejoin="round" stroke-miterlimit="500" d="M27.096 26.93h26.922M27.096 21.544h26.922"/><path fill="none" stroke="black" stroke-width="1" stroke-miterlimit="500" d="M29.341 22.851l2.207 2.808 2.207-2.808M36.098 22.851l2.207 2.808 2.207-2.808M42.854 22.851l2.208 2.808 2.207-2.808M49.611 22.851l2.207 2.808 2.207-2.808M27.195 28.238l2.207 2.807 2.207-2.807M33.952 28.238l2.207 2.807 2.206-2.807M40.709 28.238l2.207 2.807 2.207-2.807M47.465 28.238l2.208 2.807 2.207-2.807"/><path fill="none" stroke="black" stroke-width="1" stroke-linecap="square" stroke-linejoin="round" stroke-miterlimit="500" d="M27.096 16.158h26.922M27.096 10.772h26.922"/><path fill="none" stroke="black" stroke-width="1" stroke-miterlimit="500" d="M29.341 12.08l2.207 2.807 2.207-2.807M36.098 12.08l2.207 2.807 2.207-2.807M42.854 12.08l2.208 2.807 2.207-2.807M49.611 12.08l2.207 2.807 2.207-2.807M27.195 17.466l2.207 2.807 2.207-2.807M33.952 17.466l2.207 2.807 2.206-2.807M40.709 17.466l2.207 2.807 2.207-2.807M47.465 17.466l2.208 2.807 2.207-2.807"/><path fill="none" stroke="black" stroke-width="1" stroke-linecap="square" stroke-linejoin="round" stroke-miterlimit="500" d="M27.096 5.385h26.922"/><path fill="none" stroke="black" stroke-width="1" stroke-miterlimit="500" d="M29.341 1.307l2.207 2.808 2.207-2.808M36.098 1.307l2.207 2.808 2.207-2.808M42.854 1.307l2.208 2.808 2.207-2.808M49.611 1.307l2.207 2.808 2.207-2.808M27.195 6.694l2.207 2.807 2.207-2.807M33.952 6.694l2.207 2.807 2.206-2.807M40.709 6.694l2.207 2.807 2.207-2.807M47.465 6.694l2.208 2.807 2.207-2.807M27.195 49.782l2.207 2.806 2.207-2.806M33.952 49.782l2.207 2.806 2.206-2.806M40.709 49.782l2.207 2.806 2.207-2.806M47.465 49.782l2.208 2.806 2.207-2.806"/><path fill="none" d="M.167 0h53.858v53.859H.167z"/></svg>
