<svg xmlns="http://www.w3.org/2000/svg" width="43.094" height="42.807" viewBox="0 0 43.094 42.807"><path fill="none" stroke="black" stroke-width="1" stroke-linejoin="round" stroke-miterlimit="500" d="M.287 42.52h7.419"/><path fill="none" stroke="black" stroke-width="1" stroke-linecap="square" stroke-linejoin="round" stroke-miterlimit="500" d="M.287 42.52h21.259M.287 34.013h21.259M.287 25.508h21.259"/><path fill="param(fill)" d="M7.385 36.139a.718.718 0 0 0-.71-.725.72.72 0 0 0-.716.725c0 .4.319.729.716.729.39 0 .71-.329.71-.729M2.036 36.139a.721.721 0 0 0-.718-.722.711.711 0 0 0-.708.722c0 .398.313.727.708.727a.728.728 0 0 0 .718-.727M18.03 36.139c0-.399-.318-.722-.713-.722s-.713.322-.713.722c0 .398.318.727.713.727s.713-.329.713-.727M12.681 36.139a.713.713 0 1 0-1.427 0c0 .396.317.723.711.723a.724.724 0 0 0 .716-.723M5.229 40.395a.721.721 0 0 0-.717-.723.715.715 0 0 0-.709.723.712.712 0 1 0 1.426 0M10.27 40.478a.716.716 0 0 0-.717-.72.714.714 0 0 0-.709.72c0 .399.317.721.709.721a.716.716 0 0 0 .717-.721M15.873 40.395a.721.721 0 0 0-.715-.723.716.716 0 0 0-.712.723.713.713 0 1 0 1.427 0M20.914 40.478a.715.715 0 0 0-.709-.72c-.4 0-.718.323-.718.72 0 .399.317.721.718.721a.716.716 0 0 0 .709-.721M7.385 27.639a.722.722 0 0 0-.71-.73.723.723 0 0 0-.716.73.72.72 0 0 0 .716.723.721.721 0 0 0 .71-.723M2.036 27.639a.725.725 0 0 0-.718-.728.715.715 0 0 0-.708.728c0 .395.313.72.708.72a.724.724 0 0 0 .718-.72M18.03 27.639c0-.401-.318-.728-.713-.728s-.713.326-.713.728c0 .395.318.72.713.72s.713-.326.713-.72M12.681 27.639a.722.722 0 0 0-.716-.724.717.717 0 0 0-.711.724c0 .392.317.715.711.715a.72.72 0 0 0 .716-.715M5.229 31.886a.72.72 0 0 0-.717-.72.714.714 0 0 0-.709.72c0 .399.317.725.709.725a.724.724 0 0 0 .717-.725M10.27 31.973a.717.717 0 0 0-.717-.723.715.715 0 0 0-.709.723c0 .397.317.723.709.723a.719.719 0 0 0 .717-.723M15.873 31.886a.72.72 0 0 0-.715-.72.715.715 0 0 0-.712.72c0 .399.317.725.712.725a.724.724 0 0 0 .715-.725M20.914 31.973a.716.716 0 0 0-.709-.723c-.4 0-.718.323-.718.723a.72.72 0 0 0 .718.723.719.719 0 0 0 .709-.723M7.385 19.126a.718.718 0 0 0-.71-.722.72.72 0 0 0-.716.722c0 .402.319.73.716.73.39 0 .71-.328.71-.73M2.036 19.126a.72.72 0 0 0-.718-.719.71.71 0 0 0-.708.719c0 .401.313.728.708.728a.725.725 0 0 0 .718-.728M18.03 19.126c0-.396-.318-.719-.713-.719s-.713.322-.713.719c0 .401.318.728.713.728s.713-.327.713-.728M12.681 19.126a.719.719 0 0 0-.716-.718.714.714 0 0 0-.711.718c0 .4.317.727.711.727a.724.724 0 0 0 .716-.727M5.229 23.383a.723.723 0 0 0-.717-.722.716.716 0 0 0-.709.722c0 .399.317.721.709.721a.72.72 0 0 0 .717-.721M10.27 23.47a.718.718 0 0 0-.717-.724.716.716 0 0 0-.709.724.714.714 0 1 0 1.426 0M15.873 23.383a.722.722 0 0 0-.715-.722.717.717 0 0 0-.712.722c0 .399.317.721.712.721a.72.72 0 0 0 .715-.721M20.914 23.47a.717.717 0 0 0-.709-.724c-.4 0-.718.324-.718.724a.714.714 0 0 0 1.427 0"/><path fill="none" stroke="black" stroke-width="1" stroke-linecap="square" stroke-linejoin="round" stroke-miterlimit="500" d="M.287 21.256h21.259M.287 17.004h21.259"/><path fill="param(fill)" d="M7.385 10.624a.718.718 0 0 0-.71-.722.72.72 0 0 0-.716.722c0 .402.319.73.716.73.39 0 .71-.328.71-.73M2.036 10.624a.72.72 0 0 0-.718-.719.71.71 0 0 0-.708.719c0 .401.313.728.708.728a.725.725 0 0 0 .718-.728M18.03 10.624c0-.396-.318-.719-.713-.719s-.713.322-.713.719c0 .401.318.728.713.728s.713-.327.713-.728M12.681 10.624a.719.719 0 0 0-.716-.718.714.714 0 0 0-.711.718c0 .4.317.727.711.727a.724.724 0 0 0 .716-.727M5.229 14.881a.722.722 0 0 0-.717-.722.715.715 0 0 0-.709.722c0 .399.317.721.709.721a.72.72 0 0 0 .717-.721M10.27 14.968a.718.718 0 0 0-.717-.724.716.716 0 0 0-.709.724.714.714 0 1 0 1.426 0M15.873 14.881a.722.722 0 0 0-.715-.722.716.716 0 0 0-.712.722c0 .399.317.721.712.721a.72.72 0 0 0 .715-.721M20.914 14.968a.717.717 0 0 0-.709-.724c-.4 0-.718.324-.718.724a.714.714 0 0 0 1.427 0"/><path fill="none" stroke="black" stroke-width="1" stroke-linecap="square" stroke-linejoin="round" stroke-miterlimit="500" d="M.287 12.754h21.259M.287 8.502h21.259"/><path fill="param(fill)" d="M7.385 2.122a.719.719 0 0 0-.71-.723.72.72 0 0 0-.716.723c0 .402.319.73.716.73.39.001.71-.328.71-.73M2.036 2.122a.722.722 0 0 0-.718-.72.711.711 0 0 0-.708.72c0 .401.313.728.708.728a.725.725 0 0 0 .718-.728M18.03 2.122c0-.396-.318-.72-.713-.72s-.713.323-.713.72c0 .401.318.728.713.728s.713-.327.713-.728M12.681 2.122a.72.72 0 0 0-.716-.719.715.715 0 0 0-.711.719c0 .4.317.727.711.727a.724.724 0 0 0 .716-.727M5.229 6.379a.722.722 0 0 0-.717-.722.715.715 0 0 0-.709.722c0 .398.317.72.709.72a.72.72 0 0 0 .717-.72M10.27 6.465a.718.718 0 0 0-.717-.723.715.715 0 0 0-.709.723.714.714 0 1 0 1.426 0M15.873 6.379a.722.722 0 0 0-.715-.722.716.716 0 0 0-.712.722c0 .398.317.72.712.72a.72.72 0 0 0 .715-.72M20.914 6.465a.717.717 0 0 0-.709-.723c-.4 0-.718.324-.718.723a.714.714 0 0 0 1.427 0"/><path fill="none" stroke="black" stroke-width="1" stroke-linecap="square" stroke-linejoin="round" stroke-miterlimit="500" d="M.287 4.251h21.259M.287 29.762h21.259M.287 38.267h21.259"/><path fill="none" stroke="black" stroke-width="1" stroke-linejoin="round" stroke-miterlimit="500" d="M21.547 42.52h7.419"/><path fill="none" stroke="black" stroke-width="1" stroke-linecap="square" stroke-linejoin="round" stroke-miterlimit="500" d="M21.547 42.52h21.26M21.547 34.013h21.26M21.547 25.508h21.26"/><path fill="param(fill)" d="M28.646 36.139a.719.719 0 0 0-.711-.725.72.72 0 0 0-.716.725c0 .4.319.729.716.729a.723.723 0 0 0 .711-.729M23.296 36.139a.722.722 0 0 0-.718-.722.712.712 0 0 0-.709.722c0 .398.313.727.709.727a.728.728 0 0 0 .718-.727M39.291 36.139c0-.399-.318-.722-.713-.722s-.713.322-.713.722c0 .398.318.727.713.727s.713-.329.713-.727M33.941 36.139a.713.713 0 1 0-1.426 0c0 .396.317.723.71.723a.723.723 0 0 0 .716-.723M26.49 40.395a.722.722 0 0 0-.718-.723.715.715 0 0 0-.708.723c0 .398.316.718.708.718a.719.719 0 0 0 .718-.718M31.531 40.478a.717.717 0 0 0-.718-.72.715.715 0 0 0-.709.72.714.714 0 1 0 1.427 0M37.133 40.395a.722.722 0 0 0-.715-.723.715.715 0 0 0-.712.723.712.712 0 1 0 1.427 0M42.174 40.478a.715.715 0 0 0-.709-.72c-.4 0-.718.323-.718.72 0 .399.317.721.718.721a.715.715 0 0 0 .709-.721M28.646 27.639c0-.402-.32-.73-.711-.73a.723.723 0 0 0-.716.73.72.72 0 0 0 .716.723.722.722 0 0 0 .711-.723M23.296 27.639a.726.726 0 0 0-.718-.728.716.716 0 0 0-.709.728c0 .395.313.72.709.72a.724.724 0 0 0 .718-.72M39.291 27.639c0-.401-.318-.728-.713-.728s-.713.326-.713.728c0 .395.318.72.713.72s.713-.326.713-.72M33.941 27.639a.722.722 0 0 0-.716-.724.716.716 0 0 0-.71.724c0 .392.317.715.71.715a.719.719 0 0 0 .716-.715M26.49 31.886a.721.721 0 0 0-.718-.72.714.714 0 0 0-.708.72c0 .399.316.725.708.725a.724.724 0 0 0 .718-.725M31.531 31.973a.717.717 0 0 0-.718-.723.715.715 0 0 0-.709.723c0 .397.317.723.709.723a.72.72 0 0 0 .718-.723M37.133 31.886a.721.721 0 0 0-.715-.72.715.715 0 0 0-.712.72c0 .399.316.725.712.725a.724.724 0 0 0 .715-.725M42.174 31.973a.716.716 0 0 0-.709-.723c-.4 0-.718.323-.718.723a.72.72 0 0 0 .718.723.718.718 0 0 0 .709-.723M28.646 19.126a.719.719 0 0 0-.711-.722.72.72 0 0 0-.716.722c0 .402.319.73.716.73a.723.723 0 0 0 .711-.73M23.296 19.126a.72.72 0 0 0-.718-.719.711.711 0 0 0-.709.719c0 .401.313.728.709.728a.725.725 0 0 0 .718-.728M39.291 19.126c0-.396-.318-.719-.713-.719s-.713.322-.713.719c0 .401.318.728.713.728s.713-.327.713-.728M33.941 19.126a.718.718 0 0 0-.716-.718.714.714 0 0 0-.71.718c0 .4.317.727.71.727a.723.723 0 0 0 .716-.727M26.49 23.383a.723.723 0 0 0-.718-.722.716.716 0 0 0-.708.722c0 .399.316.721.708.721a.72.72 0 0 0 .718-.721M31.531 23.47a.718.718 0 0 0-.718-.724.716.716 0 0 0-.709.724.714.714 0 1 0 1.427 0M37.133 23.383a.723.723 0 0 0-.715-.722.716.716 0 0 0-.712.722c0 .399.316.721.712.721a.72.72 0 0 0 .715-.721M42.174 23.47a.717.717 0 0 0-.709-.724c-.4 0-.718.324-.718.724a.714.714 0 0 0 1.427 0"/><path fill="none" stroke="black" stroke-width="1" stroke-linecap="square" stroke-linejoin="round" stroke-miterlimit="500" d="M21.547 21.256h21.26M21.547 17.004h21.26"/><path fill="param(fill)" d="M28.646 10.624a.719.719 0 0 0-.711-.722.72.72 0 0 0-.716.722c0 .402.319.73.716.73a.723.723 0 0 0 .711-.73M23.296 10.624a.72.72 0 0 0-.718-.719.711.711 0 0 0-.709.719c0 .401.313.728.709.728a.725.725 0 0 0 .718-.728M39.291 10.624c0-.396-.318-.719-.713-.719s-.713.322-.713.719c0 .401.318.728.713.728s.713-.327.713-.728M33.941 10.624a.718.718 0 0 0-.716-.718.714.714 0 0 0-.71.718c0 .4.317.727.71.727a.723.723 0 0 0 .716-.727M26.49 14.881a.722.722 0 0 0-.718-.722.715.715 0 0 0-.708.722c0 .399.316.721.708.721a.72.72 0 0 0 .718-.721M31.531 14.968a.718.718 0 0 0-.718-.724.716.716 0 0 0-.709.724.714.714 0 1 0 1.427 0M37.133 14.881a.722.722 0 0 0-.715-.722.716.716 0 0 0-.712.722c0 .399.316.721.712.721a.72.72 0 0 0 .715-.721M42.174 14.968a.717.717 0 0 0-.709-.724c-.4 0-.718.324-.718.724a.714.714 0 0 0 1.427 0"/><path fill="none" stroke="black" stroke-width="1" stroke-linecap="square" stroke-linejoin="round" stroke-miterlimit="500" d="M21.547 12.754h21.26M21.547 8.502h21.26"/><path fill="param(fill)" d="M28.646 2.122a.72.72 0 0 0-.711-.723.72.72 0 0 0-.716.723c0 .402.319.73.716.73a.722.722 0 0 0 .711-.73M23.296 2.122a.722.722 0 0 0-.718-.72.712.712 0 0 0-.709.72c0 .401.313.728.709.728a.725.725 0 0 0 .718-.728M39.291 2.122c0-.396-.318-.72-.713-.72s-.713.323-.713.72c0 .401.318.728.713.728s.713-.327.713-.728M33.941 2.122a.72.72 0 0 0-.716-.719.715.715 0 0 0-.71.719c0 .4.317.727.71.727a.723.723 0 0 0 .716-.727M26.49 6.379a.722.722 0 0 0-.718-.722.715.715 0 0 0-.708.722c0 .398.316.72.708.72a.72.72 0 0 0 .718-.72M31.531 6.465a.718.718 0 0 0-.718-.723.716.716 0 0 0-.709.723.714.714 0 1 0 1.427 0M37.133 6.379a.722.722 0 0 0-.715-.722.716.716 0 0 0-.712.722c0 .398.316.72.712.72a.72.72 0 0 0 .715-.72M42.174 6.465a.717.717 0 0 0-.709-.723c-.4 0-.718.324-.718.723a.714.714 0 0 0 1.427 0"/><path fill="none" stroke="black" stroke-width="1" stroke-linecap="square" stroke-linejoin="round" stroke-miterlimit="500" d="M21.547 4.251h21.26M21.547 29.762h21.26M21.547 38.267h21.26"/><path fill="none" d="M.287 0h42.52v42.52H.287z"/></svg>
