<svg xmlns="http://www.w3.org/2000/svg" width="48.772" height="48.401" viewBox="0 0 48.772 48.401"><path fill="none" stroke="black" stroke-width="1" stroke-miterlimit="500" d="M2.771 37.604l2.633 3.139 2.633-3.139M16.099 40.743l-2.633-3.139-2.634 3.139zM18.894 37.604l2.632 3.139 2.633-3.139M32.22 40.743l-2.633-3.139-2.634 3.139zM35.074 37.604l2.633 3.139 2.633-3.139M48.4 40.743l-2.632-3.139-2.634 3.139zM2.771 25.557l2.633 3.14 2.633-3.14M16.099 28.697l-2.633-3.14-2.634 3.14zM18.894 25.557l2.632 3.14 2.633-3.14M32.22 28.697l-2.633-3.14-2.634 3.14zM35.074 25.557l2.633 3.14 2.633-3.14M48.4 28.697l-2.632-3.14-2.634 3.14z"/><path fill="param(fill)" d="M30.808 44.835h.588v.341h-.588zM24.482 44.835h5.148v.341h-5.148zM22.719 44.835h.587v.341h-.587zM16.393 44.835h5.147v.341h-5.147zM46.989 44.835h.587v.341h-.587zM40.663 44.835h5.148v.341h-5.148zM38.898 44.835h.589v.341h-.589zM32.573 44.835h5.147v.341h-5.147zM14.627 44.835h.588v.341h-.588zM8.302 44.835h5.149v.341H8.302zM6.537 44.835h.588v.341h-.588zM.212 44.835H5.36v.341H.212zM30.808 32.788h.588v.341h-.588zM24.482 32.788h5.148v.341h-5.148zM22.719 32.788h.587v.341h-.587zM16.393 32.788h5.147v.341h-5.147zM46.989 32.788h.587v.341h-.587zM40.663 32.788h5.148v.341h-5.148zM38.898 32.788h.589v.341h-.589zM32.573 32.788h5.147v.341h-5.147zM14.627 32.788h.588v.341h-.588zM8.302 32.788h5.149v.341H8.302zM6.537 32.788h.588v.341h-.588zM.212 32.788H5.36v.341H.212z"/><path fill="none" stroke="black" stroke-width="1" stroke-linecap="square" stroke-linejoin="round" stroke-miterlimit="500" d="M.212 18.071h48.187M.212 24.095h48.187M.212 30.118h48.187M.212 36.143h48.187M.212 42.166h48.187M.212 48.189h48.187"/><path fill="none" stroke="black" stroke-width="1" stroke-miterlimit="500" d="M2.771 13.511l2.633 3.139 2.633-3.139M16.099 16.65l-2.633-3.139-2.634 3.139zM18.894 13.511l2.632 3.139 2.633-3.139M32.22 16.65l-2.633-3.139-2.634 3.139zM35.074 13.511l2.633 3.139 2.633-3.139M48.4 16.65l-2.632-3.139-2.634 3.139z"/><path fill="param(fill)" d="M30.808 20.741h.588v.342h-.588zM24.482 20.741h5.148v.342h-5.148zM22.719 20.741h.587v.342h-.587zM16.393 20.741h5.147v.342h-5.147zM46.989 20.741h.587v.342h-.587zM40.663 20.741h5.148v.342h-5.148zM38.898 20.741h.589v.342h-.589zM32.573 20.741h5.147v.342h-5.147zM14.627 20.741h.588v.342h-.588zM8.302 20.741h5.149v.342H8.302zM6.537 20.741h.588v.342h-.588zM.212 20.741H5.36v.342H.212z"/><path fill="none" stroke="black" stroke-width="1" stroke-linecap="square" stroke-linejoin="round" stroke-miterlimit="500" d="M.212 6.024h48.187M.212 12.048h48.187"/><path fill="none" stroke="black" stroke-width="1" stroke-miterlimit="500" d="M2.771 1.465l2.633 3.139 2.633-3.139M16.099 4.604l-2.633-3.139-2.634 3.139zM18.894 1.465l2.632 3.139 2.633-3.139M32.22 4.604l-2.633-3.139-2.634 3.139zM35.074 1.465l2.633 3.139 2.633-3.139M48.4 4.604l-2.632-3.139-2.634 3.139z"/><path fill="param(fill)" d="M30.808 8.694h.588v.343h-.588zM24.482 8.694h5.148v.343h-5.148zM22.719 8.694h.587v.343h-.587zM16.393 8.694h5.147v.343h-5.147zM46.989 8.694h.587v.343h-.587zM40.663 8.694h5.148v.343h-5.148zM38.898 8.694h.589v.343h-.589zM32.573 8.694h5.147v.343h-5.147zM14.627 8.694h.588v.343h-.588zM8.302 8.694h5.149v.343H8.302zM6.537 8.694h.588v.343h-.588zM.212 8.694H5.36v.343H.212z"/><path fill="none" d="M.212 0H48.4v48.189H.212z"/></svg>
