<svg xmlns="http://www.w3.org/2000/svg" width="59.855" height="59.691" viewBox="0 0 59.855 59.691"><g fill="none" stroke="black" stroke-width="1" stroke-linejoin="round" stroke-miterlimit="500"><path d="M.164 59.528h29.764"/><path stroke-linecap="square" d="M.164 59.528h29.764"/></g><path fill="param(fill)" d="M28.304 53.047h.541v.329h-.541zM22.487 53.047h4.735v.329h-4.735zM20.864 53.047h.541v.329h-.541zM15.046 53.047h4.735v.329h-4.735zM13.422 53.047h.542v.329h-.542zM7.605 53.047h4.735v.329H7.605zM5.981 53.047h.541v.329h-.541zM.164 53.046H4.9v.33H.164zM28.304 56.288h.541v.329h-.541zM22.487 56.288h4.735v.329h-4.735zM20.864 56.288h.541v.329h-.541zM15.046 56.288h4.735v.329h-4.735zM13.422 56.288h.542v.329h-.542zM7.605 56.288h4.735v.329H7.605zM5.981 56.288h.541v.329h-.541zM.164 56.288H4.9v.329H.164z"/><g fill="none" stroke="black" stroke-width="1" stroke-linecap="square" stroke-linejoin="round" stroke-miterlimit="500"><path d="M.164 50.466h29.764M.164 44.646h29.764M.164 35.584h29.764"/></g><path fill="param(fill)" d="M28.304 38.166h.541v.329h-.541zM22.487 38.166h4.735v.329h-4.735zM20.864 38.166h.541v.329h-.541zM15.046 38.166h4.735v.329h-4.735zM13.422 38.166h.542v.329h-.542zM7.605 38.166h4.735v.329H7.605zM5.981 38.166h.541v.329h-.541zM.164 38.166H4.9v.329H.164zM28.304 41.405h.541v.331h-.541zM22.487 41.405h4.735v.331h-4.735zM20.864 41.405h.541v.331h-.541zM15.046 41.405h4.735v.331h-4.735zM13.422 41.405h.542v.331h-.542zM7.605 41.405h4.735v.331H7.605zM5.981 41.405h.541v.331h-.541zM.164 41.405H4.9v.331H.164z"/><path fill="none" stroke="black" stroke-width="1" stroke-miterlimit="500" d="M2.518 46.059l2.422 3.034 2.421-3.034M9.932 46.059l2.422 3.034 2.421-3.034M17.346 46.059l2.421 3.034 2.422-3.034M24.76 46.059l2.421 3.034 2.422-3.034M2.518 31.178l2.422 3.033 2.421-3.033M9.932 31.178l2.422 3.033 2.421-3.033M17.346 31.178l2.421 3.033 2.422-3.033M24.76 31.178l2.421 3.033 2.422-3.033"/><g fill="none" stroke="black" stroke-width="1" stroke-linejoin="round" stroke-miterlimit="500"><path d="M29.927 59.528h29.765"/><path stroke-linecap="square" d="M29.927 59.528h29.765"/></g><path fill="param(fill)" d="M58.068 53.047h.541v.329h-.541zM52.25 53.047h4.735v.329H52.25zM50.627 53.047h.541v.329h-.541zM44.809 53.047h4.735v.329h-4.735zM43.186 53.047h.541v.329h-.541zM37.369 53.047h4.735v.329h-4.735zM35.745 53.047h.541v.329h-.541zM29.927 53.046h4.736v.33h-4.736zM58.068 56.288h.541v.329h-.541zM52.25 56.288h4.735v.329H52.25zM50.627 56.288h.541v.329h-.541zM44.809 56.288h4.735v.329h-4.735zM43.186 56.288h.541v.329h-.541zM37.369 56.288h4.735v.329h-4.735zM35.745 56.288h.541v.329h-.541zM29.927 56.288h4.736v.329h-4.736z"/><g fill="none" stroke="black" stroke-width="1" stroke-linecap="square" stroke-linejoin="round" stroke-miterlimit="500"><path d="M29.927 50.466h29.765M29.927 44.646h29.765M29.927 35.584h29.765"/></g><path fill="param(fill)" d="M58.068 38.166h.541v.329h-.541zM52.25 38.166h4.735v.329H52.25zM50.627 38.166h.541v.329h-.541zM44.809 38.166h4.735v.329h-4.735zM43.186 38.166h.541v.329h-.541zM37.369 38.166h4.735v.329h-4.735zM35.745 38.166h.541v.329h-.541zM29.927 38.166h4.736v.329h-4.736zM58.068 41.405h.541v.331h-.541zM52.25 41.405h4.735v.331H52.25zM50.627 41.405h.541v.331h-.541zM44.809 41.405h4.735v.331h-4.735zM43.186 41.405h.541v.331h-.541zM37.369 41.405h4.735v.331h-4.735zM35.745 41.405h.541v.331h-.541zM29.927 41.405h4.736v.331h-4.736z"/><path fill="none" stroke="black" stroke-width="1" stroke-miterlimit="500" d="M32.282 46.059l2.422 3.034 2.421-3.034M39.696 46.059l2.422 3.034 2.422-3.034M47.11 46.059l2.421 3.034 2.422-3.034M54.524 46.059l2.421 3.034 2.422-3.034M32.282 31.178l2.422 3.033 2.421-3.033M39.696 31.178l2.422 3.033 2.422-3.033M47.11 31.178l2.421 3.033 2.422-3.033M54.524 31.178l2.421 3.033 2.422-3.033"/><g fill="none" stroke="black" stroke-width="1" stroke-linejoin="round" stroke-miterlimit="500"><path d="M.164 29.764h29.764"/><path stroke-linecap="square" d="M.164 29.764h29.764"/></g><path fill="param(fill)" d="M28.304 23.284h.541v.329h-.541zM22.487 23.284h4.735v.329h-4.735zM20.864 23.284h.541v.329h-.541zM15.046 23.284h4.735v.329h-4.735zM13.422 23.284h.542v.329h-.542zM7.605 23.284h4.735v.329H7.605zM5.981 23.284h.541v.329h-.541zM.164 23.283H4.9v.33H.164zM28.304 26.524h.541v.329h-.541zM22.487 26.524h4.735v.329h-4.735zM20.864 26.524h.541v.329h-.541zM15.046 26.524h4.735v.329h-4.735zM13.422 26.524h.542v.329h-.542zM7.605 26.524h4.735v.329H7.605zM5.981 26.524h.541v.329h-.541zM.164 26.524H4.9v.329H.164z"/><g fill="none" stroke="black" stroke-width="1" stroke-linecap="square" stroke-linejoin="round" stroke-miterlimit="500"><path d="M.164 20.703h29.764M.164 14.882h29.764M.164 5.821h29.764"/></g><path fill="param(fill)" d="M28.304 8.402h.541v.329h-.541zM22.487 8.402h4.735v.329h-4.735zM20.864 8.402h.541v.329h-.541zM15.046 8.402h4.735v.329h-4.735zM13.422 8.402h.542v.329h-.542zM7.605 8.402h4.735v.329H7.605zM5.981 8.402h.541v.329h-.541zM.164 8.402H4.9v.329H.164zM28.304 11.641h.541v.331h-.541zM22.487 11.641h4.735v.331h-4.735zM20.864 11.641h.541v.331h-.541zM15.046 11.641h4.735v.331h-4.735zM13.422 11.641h.542v.331h-.542zM7.605 11.641h4.735v.331H7.605zM5.981 11.641h.541v.331h-.541zM.164 11.641H4.9v.331H.164z"/><path fill="none" stroke="black" stroke-width="1" stroke-miterlimit="500" d="M2.518 16.295L4.94 19.33l2.421-3.035M9.932 16.295l2.422 3.035 2.421-3.035M17.346 16.295l2.421 3.035 2.422-3.035M24.76 16.295l2.421 3.035 2.422-3.035M2.518 1.415L4.94 4.448l2.421-3.033M9.932 1.415l2.422 3.033 2.421-3.033M17.346 1.415l2.421 3.033 2.422-3.033M24.76 1.415l2.421 3.033 2.422-3.033"/><g fill="none" stroke="black" stroke-width="1" stroke-linejoin="round" stroke-miterlimit="500"><path d="M29.927 29.764h29.765"/><path stroke-linecap="square" d="M29.927 29.764h29.765"/></g><path fill="param(fill)" d="M58.068 23.284h.541v.329h-.541zM52.25 23.284h4.735v.329H52.25zM50.627 23.284h.541v.329h-.541zM44.809 23.284h4.735v.329h-4.735zM43.186 23.284h.541v.329h-.541zM37.369 23.284h4.735v.329h-4.735zM35.745 23.284h.541v.329h-.541zM29.927 23.283h4.736v.33h-4.736zM58.068 26.524h.541v.329h-.541zM52.25 26.524h4.735v.329H52.25zM50.627 26.524h.541v.329h-.541zM44.809 26.524h4.735v.329h-4.735zM43.186 26.524h.541v.329h-.541zM37.369 26.524h4.735v.329h-4.735zM35.745 26.524h.541v.329h-.541zM29.927 26.524h4.736v.329h-4.736z"/><g fill="none" stroke="black" stroke-width="1" stroke-linecap="square" stroke-linejoin="round" stroke-miterlimit="500"><path d="M29.927 20.703h29.765M29.927 14.882h29.765M29.927 5.821h29.765"/></g><path fill="param(fill)" d="M58.068 8.402h.541v.329h-.541zM52.25 8.402h4.735v.329H52.25zM50.627 8.402h.541v.329h-.541zM44.809 8.402h4.735v.329h-4.735zM43.186 8.402h.541v.329h-.541zM37.369 8.402h4.735v.329h-4.735zM35.745 8.402h.541v.329h-.541zM29.927 8.402h4.736v.329h-4.736zM58.068 11.641h.541v.331h-.541zM52.25 11.641h4.735v.331H52.25zM50.627 11.641h.541v.331h-.541zM44.809 11.641h4.735v.331h-4.735zM43.186 11.641h.541v.331h-.541zM37.369 11.641h4.735v.331h-4.735zM35.745 11.641h.541v.331h-.541zM29.927 11.641h4.736v.331h-4.736z"/><path fill="none" stroke="black" stroke-width="1" stroke-miterlimit="500" d="M32.282 16.295l2.422 3.035 2.421-3.035M39.696 16.295l2.422 3.035 2.422-3.035M47.11 16.295l2.421 3.035 2.422-3.035M54.524 16.295l2.421 3.035 2.422-3.035M32.282 1.415l2.422 3.033 2.421-3.033M39.696 1.415l2.422 3.033 2.422-3.033M47.11 1.415l2.421 3.033 2.422-3.033M54.524 1.415l2.421 3.033 2.422-3.033"/><path fill="none" d="M.164 0h59.527v59.528H.164z"/></svg>
